<svg width="51" height="51" viewBox="0 0 51 51" fill="none" xmlns="http://www.w3.org/2000/svg">
<g clip-path="url(#clip0)">
<path d="M23.1556 16.3651L34.8531 8.06055L46.551 16.3651V51H23.1556V16.3651Z" fill="#FFEFE4"/>
<path d="M23.1556 49.6055H46.551V51H23.1556V49.6055Z" fill="#EDD4C2"/>
<path d="M49.0772 20.1487L34.8533 10.0504L20.6297 20.1487L18.7064 17.4398L34.8533 5.97656L51.0001 17.4398L49.0772 20.1487Z" fill="#FF8354"/>
<path d="M34.8533 7.37109L50.3417 18.367L51.0001 17.4398L34.8533 5.97656L18.7064 17.4398L19.3648 18.367L34.8533 7.37109Z" fill="#FFAC8C"/>
<path d="M29.9415 38.3601H39.7647V51H29.9415V38.3601Z" fill="#5FD4E3"/>
<path d="M38.9489 39.176V51H30.7576V39.176H38.9489Z" fill="#69EBFC"/>
<path d="M30.7576 49.6055H38.9489V51H30.7576V49.6055Z" fill="#5FD4E3"/>
<path d="M33.1961 45.3743C33.1961 45.742 32.8981 46.0401 32.5304 46.0401C32.1627 46.0401 31.8646 45.742 31.8646 45.3743C31.8646 45.0066 32.1627 44.709 32.5304 44.709C32.8981 44.709 33.1961 45.0066 33.1961 45.3743Z" fill="#5FD4E3"/>
<path d="M29.9415 29.3793H39.7647V35.4912H29.9415V29.3793Z" fill="#5FD4E3"/>
<path d="M38.9489 30.1953V34.6754H30.7576V30.1953H38.9489Z" fill="#69EBFC"/>
<path d="M34.4449 29.3793H35.2609V35.4912H34.4449V29.3793Z" fill="#5FD4E3"/>
<path d="M29.0062 34.3104H40.7002V36.5512H29.0062V34.3104Z" fill="#EDD4C2"/>
<path d="M22.1031 25.5032H47.6031V27.1389H22.1031V25.5032Z" fill="#EDD4C2"/>
<path d="M29.9415 16.1643H39.7647V22.2763H29.9415V16.1643Z" fill="#5FD4E3"/>
<path d="M38.9489 16.9802V21.4603H30.7579V16.9802H38.9489Z" fill="#69EBFC"/>
<path d="M34.4449 16.1643H35.2609V22.2763H34.4449V16.1643Z" fill="#5FD4E3"/>
<path d="M29.0062 21.0955H40.7002V23.3363H29.0062V21.0955Z" fill="#EDD4C2"/>
<path d="M17.3763 16.5935H14.3239V7.96875H17.3763C18.0226 7.96875 18.5464 8.49287 18.5464 9.13877V15.4235C18.5467 16.0694 18.0226 16.5935 17.3763 16.5935Z" fill="#6770E6"/>
<path d="M14.3239 15.4862H12.1815V9.07617H14.3239V15.4862Z" fill="#5861C7"/>
<path d="M6.89717 7.96875C3.08789 7.96875 0 11.0566 0 14.8659V16.5935H1.91553C1.91553 15.2181 3.03108 14.1029 4.40616 14.1029C5.78201 14.1029 6.89678 15.2181 6.89678 16.5935H12.1811V7.96875H6.89717Z" fill="#6770E6"/>
<path d="M17.3763 7.96875H14.3239V9.36328H17.3763C18.0226 9.36328 18.5467 9.8874 18.5467 10.5337V9.13916C18.5467 8.49287 18.0226 7.96875 17.3763 7.96875Z" fill="#8F95E6"/>
<path d="M6.89717 7.96875C3.08789 7.96875 0 11.0566 0 14.8659V16.2605C0 12.4512 3.08789 9.36328 6.89717 9.36328H12.1811V7.96875H6.89717Z" fill="#8F95E6"/>
<path d="M9.53923 51C7.7089 51 6.24784 49.4732 6.32877 47.6444L7.57505 16.5935H11.5034L12.7493 47.6444C12.8306 49.4732 11.3695 51 9.53923 51Z" fill="#69EBFC"/>
<path d="M9.5392 49.6054C7.91354 49.6054 6.58243 48.4004 6.36065 46.8502L6.32874 47.6444C6.2482 49.4731 7.70887 51 9.5392 51C11.3695 51 12.8306 49.4731 12.7497 47.6444L12.7177 46.8502C12.4963 48.4004 11.1649 49.6054 9.5392 49.6054Z" fill="#5FD4E3"/>
<path d="M51 4.03459V1.84241L48.0117 0.846313L46.7168 1.84241H25.5V4.0342H46.7168L48.0117 5.03069L51 4.03459Z" fill="#6770E6"/>
<path d="M48.0117 0.846313L46.7168 1.84241H25.5V2.44006H46.7168L48.0117 1.44397L51 2.44006V1.84241L48.0117 0.846313Z" fill="#8F95E6"/>
<path d="M26.0229 4.83105H27.8661C28.1548 4.83105 28.3891 4.59682 28.3891 4.30811V1.56846C28.3891 1.27975 28.1548 1.04551 27.8661 1.04551H26.0229C25.7342 1.04551 25.5 0.811661 25.5 0.52256C25.5 0.234238 25.2658 0 24.9774 0H2.93848C1.31554 0 0 1.31554 0 2.93848C0 4.56141 1.31554 5.87695 2.93848 5.87695H24.9774C25.2662 5.87695 25.5004 5.64272 25.5004 5.354C25.5 5.06529 25.7342 4.83105 26.0229 4.83105Z" fill="#FF8354"/>
<path d="M27.8657 1.04551H26.0226C25.7338 1.04551 25.4996 0.811661 25.4996 0.52256C25.5 0.234238 25.2658 0 24.9771 0H2.93848C1.31554 0 0 1.31554 0 2.93848C0 3.10851 0.0175094 3.27427 0.0455246 3.43652C0.282486 2.05133 1.48558 0.996094 2.93848 0.996094H24.9771C25.2658 0.996094 25.5 1.23033 25.5 1.51904C25.5 1.80775 25.7342 2.04199 26.0229 2.04199H27.8661C28.1544 2.04199 28.3891 2.27623 28.3891 2.56494V1.56885C28.3887 1.27975 28.1544 1.04551 27.8657 1.04551Z" fill="#FFAC8C"/>
<path d="M22.4619 1.14551H3.93457C3.63185 1.14551 3.38672 1.39064 3.38672 1.69336C3.38672 1.99608 3.63185 2.24121 3.93457 2.24121H22.4619C22.7646 2.24121 23.0098 1.99608 23.0098 1.69336C23.0098 1.39064 22.7646 1.14551 22.4619 1.14551Z" fill="#E0734A"/>
<path d="M22.4619 3.63574H3.93457C3.63185 3.63574 3.38672 3.88087 3.38672 4.18359C3.38672 4.48631 3.63185 4.73145 3.93457 4.73145H22.4619C22.7646 4.73145 23.0098 4.48631 23.0098 4.18359C23.0098 3.88087 22.7646 3.63574 22.4619 3.63574Z" fill="#E0734A"/>
</g>
<defs>
<clipPath id="clip0">
<rect width="51" height="51" fill="white"/>
</clipPath>
</defs>
</svg>
