<svg width="52" height="52" viewBox="0 0 52 52" fill="none" xmlns="http://www.w3.org/2000/svg">
<g clip-path="url(#clip0)">
<path d="M5.53931 0.0340966V51.9968H39.6192C39.6632 51.998 39.7072 52 39.7516 52C42.088 52 43.9816 50.1065 43.9816 47.77L43.9586 0L5.53931 0.0340966Z" fill="#FFEFE3"/>
<path d="M43.9808 46.3625C43.9736 48.6926 42.0833 50.579 39.7516 50.579C39.7072 50.579 39.6632 50.577 39.6192 50.5759H5.53931V51.9968H39.6192C39.6632 51.998 39.7072 52 39.7516 52C42.088 52 43.9816 50.1064 43.9816 47.77L43.9808 46.3625Z" fill="#C46DD1"/>
<path d="M5.53931 0.0166016H43.9586V1.43756H5.53931V0.0166016Z" fill="#DBC4B4"/>
<path d="M5.51611 6.64323L10.338 1.34241L15.0941 6.64323L19.916 1.34241L24.7374 6.64323L29.5589 1.34241L34.3154 6.64323L39.1373 1.34241L43.9588 6.64323V10.6385L39.1373 5.33805L34.3154 10.6385L29.5589 5.33805L24.7374 10.6385L19.916 5.33805L15.0941 10.6385L10.338 5.33805L5.51611 10.6385V6.64323Z" fill="#DBC4B4"/>
<path d="M15.0942 2.49901L17.3457 0.0234375L12.8767 0.0274022L15.0942 2.49901Z" fill="#C46DD1"/>
<path d="M7.76019 0.0317383L5.53955 0.0341172V2.47321L7.76019 0.0317383Z" fill="#C46DD1"/>
<path d="M22.4819 0.0189793L24.7375 2.49891L26.997 0.0150146L22.4819 0.0189793Z" fill="#C46DD1"/>
<path d="M32.083 0.0107089L34.3155 2.49896L36.5826 0.00634766L32.083 0.0107089Z" fill="#C46DD1"/>
<path d="M43.9587 2.49896V0L41.6877 0.00198235L43.9587 2.49896Z" fill="#C46DD1"/>
<path d="M5.51562 14.8423L10.3375 9.5415L15.0936 14.8423L19.9155 9.5415L24.737 14.8423L29.5584 9.5415L34.3149 14.8423L39.1368 9.5415L43.9583 14.8423V18.8376L39.1368 13.5367L34.3149 18.8376L29.5584 13.5367L24.737 18.8376L19.9155 13.5367L15.0936 18.8376L10.3375 13.5367L5.51562 18.8376V14.8423Z" fill="#DBC4B4"/>
<path d="M5.51562 23.0393L10.3375 17.7389L15.0936 23.0393L19.9155 17.7389L24.737 23.0393L29.5584 17.7389L34.3149 23.0393L39.1368 17.7389L43.9583 23.0393V27.035L39.1368 21.7341L34.3149 27.035L29.5584 21.7341L24.737 27.035L19.9155 21.7341L15.0936 27.035L10.3375 21.7341L5.51562 27.035V23.0393Z" fill="#DBC4B4"/>
<path d="M5.51562 31.0854L10.3375 25.7845L15.0936 31.0854L19.9155 25.7845L24.737 31.0854L29.5584 25.7845L34.3149 31.0854L39.1368 25.7845L43.9583 31.0854V35.0806L39.1368 29.7798L34.3149 35.0806L29.5584 29.7798L24.737 35.0806L19.9155 29.7798L15.0936 35.0806L10.3375 29.7798L5.51562 35.0806V31.0854Z" fill="#DBC4B4"/>
<path d="M5.51562 39.2828L10.3375 33.9819L15.0936 39.2828L19.9155 33.9819L24.737 39.2828L29.5584 33.9819L34.3149 39.2828L39.1368 33.9819L43.9583 39.2828V43.278L39.1368 37.9772L34.3149 43.278L29.5584 37.9772L24.737 43.278L19.9155 37.9772L15.0936 43.278L10.3375 37.9772L5.51562 43.278V39.2828Z" fill="#DBC4B4"/>
<path d="M43.9585 48.2113V47.4231L39.137 42.1223L34.3151 47.4227L29.5586 42.1223L24.7372 47.4227L19.9153 42.1223L15.0938 47.4227L10.3373 42.1223L5.53882 47.3974V51.393L10.3373 46.1176L15.0938 51.4184L19.9153 46.1176L24.7372 51.4184L29.5586 46.1176L34.3151 51.4184L39.137 46.1176L43.0482 50.4173C43.5446 49.8004 43.8724 49.0419 43.9585 48.2113Z" fill="#DBC4B4"/>
<path d="M43.9587 47.4232L43.8651 47.3201C43.6427 48.2653 43.1055 49.0871 42.3677 49.6692L43.048 50.4173C43.1107 50.3396 43.1705 50.2599 43.2272 50.1778C43.2637 50.1255 43.2966 50.0712 43.3307 50.0177C43.3608 49.9697 43.3906 49.9213 43.4191 49.8722C43.4492 49.8198 43.4786 49.7663 43.5067 49.7128C43.5389 49.6509 43.5686 49.5875 43.5975 49.5241C43.6205 49.4741 43.6443 49.4245 43.6649 49.3738C43.7054 49.2759 43.7418 49.176 43.7748 49.0745C43.789 49.0308 43.8009 48.9864 43.8136 48.9424C43.8362 48.8631 43.8572 48.783 43.8755 48.7022C43.885 48.6597 43.8949 48.6173 43.9032 48.5737C43.9262 48.4544 43.9456 48.3338 43.9587 48.2113V47.4232Z" fill="#B665C2"/>
<path d="M0.135254 47.7668C0.135254 50.1028 2.0292 51.9968 4.3656 51.9968H39.7519V51.996C37.4254 51.9849 35.5425 50.0957 35.5425 47.7668C35.5425 45.4375 37.4254 43.5484 39.7519 43.5373V43.5369H4.3656C2.0292 43.5369 0.135254 45.4308 0.135254 47.7668Z" fill="#EDD4C2"/>
<path d="M39.7621 43.5369H39.7518V43.5373C37.4253 43.5484 35.5425 45.4375 35.5425 47.7668C35.5425 48.7195 35.8612 49.5957 36.3925 50.3026H39.7621C41.6303 50.3026 43.1452 48.7881 43.1452 46.9196C43.1452 45.0514 41.6303 43.5369 39.7621 43.5369Z" fill="#B665C2"/>
<path d="M37.4055 47.9461C37.4055 46.6449 38.2579 45.5898 39.5591 45.5898H36.1507C35.7669 46.2262 35.5425 46.9692 35.5425 47.7669C35.5425 48.7196 35.8612 49.5958 36.3925 50.3027H39.7621C38.4609 50.3027 37.4055 49.2477 37.4055 47.9461Z" fill="#DBC4B4"/>
<path d="M25.7117 14.9291H49.2256V21.855H25.7117V14.9291Z" fill="#69EBFC"/>
<path d="M25.7117 14.9291H49.2256V16.35H25.7117V14.9291Z" fill="#A1F1FC"/>
<path d="M40.371 28.0452H39.1531V24.8409C39.1531 24.5047 39.4258 24.232 39.7621 24.232H50.7384V19.0009H49.2258V17.783H51.3473C51.684 17.783 51.9563 18.0553 51.9563 18.3919V24.8409C51.9563 25.1772 51.684 25.4499 51.3473 25.4499H40.371V28.0452Z" fill="#5861C7"/>
<path d="M39.7624 41.8543C38.8414 41.8543 38.0952 41.1081 38.0952 40.1875V28.3508C38.0952 28.1819 38.2324 28.0452 38.4013 28.0452H41.1235C41.2924 28.0452 41.4295 28.1819 41.4295 28.3508V40.1875C41.4291 41.1081 40.6826 41.8543 39.7624 41.8543Z" fill="#6770E6"/>
<path d="M38.095 32.5015V40.1875C38.095 41.1081 38.8415 41.8546 39.7621 41.8546C40.6827 41.8546 41.4293 41.1081 41.4293 40.1875V32.5015H38.095Z" fill="#5861C7"/>
<path d="M39.7519 51.9968V51.996C38.5042 51.9901 37.3869 51.4406 36.6166 50.5759H4.36521C2.27184 50.5759 0.538069 49.0534 0.199482 47.0564V47.0568C0.180452 47.1694 0.164989 47.2836 0.154285 47.3982C0.14358 47.5199 0.135254 47.6424 0.135254 47.7665C0.135254 48.0587 0.164989 48.3437 0.221288 48.6193C0.277587 48.8944 0.360846 49.1601 0.467893 49.413C0.842162 50.2987 1.50982 51.0302 2.34915 51.4862C2.94862 51.8117 3.6353 51.9964 4.36521 51.9964H39.7519V51.9968Z" fill="#DBC4B4"/>
</g>
<defs>
<clipPath id="clip0">
<rect width="52" height="52" fill="white"/>
</clipPath>
</defs>
</svg>
