<svg width="52" height="52" viewBox="0 0 52 52" fill="none" xmlns="http://www.w3.org/2000/svg">
<path d="M38.7332 33.291H3.34912V23.6394C3.34912 23.6394 7.80753 20.7941 21.0411 20.7941C34.2747 20.7941 38.7332 23.6394 38.7332 23.6394V33.291Z" fill="#5861C7"/>
<path d="M5.80289 33.9155H3.34912V21.9077C3.34912 21.2928 3.84781 20.7941 4.46313 20.7941H4.68927C5.3042 20.7941 5.80289 21.2928 5.80289 21.9077V33.9155Z" fill="#6770E6"/>
<path d="M19.493 32.9202C19.5783 33.1368 19.2275 33.3288 18.8253 33.2844C17.6121 33.1507 15.2087 32.9424 12.0003 32.9424C8.96021 32.9424 6.94404 33.1297 5.89192 33.263C5.49201 33.3137 5.1302 33.1277 5.20558 32.9103C5.45234 32.1973 5.86097 30.7759 5.86097 29.1774C5.86097 27.6822 5.50352 26.5646 5.25517 25.9687C5.16471 25.7517 5.52217 25.5573 5.92643 25.6041C7.07536 25.7382 9.28593 25.9346 12.3641 25.9346C15.4436 25.9346 17.6541 25.7378 18.803 25.6041C19.2061 25.5573 19.5636 25.7505 19.4743 25.9675C19.2264 26.5729 18.8673 27.7318 18.8673 29.3734C18.8673 31.0556 19.2442 32.2894 19.493 32.9202Z" fill="#69EBFC"/>
<path d="M38.7332 33.9155H36.2798V21.9077C36.2798 21.2928 36.7785 20.7941 37.3934 20.7941H37.6195C38.2345 20.7941 38.7332 21.2928 38.7332 21.9077V33.9155Z" fill="#6770E6"/>
<path d="M40.9854 40.8777H1.09695C0.491148 40.8777 0 41.3688 0 41.9746V48.3163C0 48.9225 0.491148 49.4137 1.09695 49.4137H40.9854C41.5916 49.4137 42.0828 48.9225 42.0828 48.3163V41.9746C42.0828 41.3688 41.5916 40.8777 40.9854 40.8777Z" fill="#6770E6"/>
<path d="M37.0323 32.9202C37.1176 33.1368 36.7672 33.3288 36.3646 33.2844C35.1518 33.1507 32.7484 32.9424 29.54 32.9424C26.4999 32.9424 24.4833 33.1297 23.4316 33.263C23.0317 33.3137 22.6695 33.1277 22.7449 32.9103C22.9916 32.1973 23.4003 30.7759 23.4003 29.1774C23.4003 27.6822 23.0428 26.5646 22.7949 25.9687C22.704 25.7517 23.0615 25.5573 23.4657 25.6041C24.6151 25.7382 26.8252 25.9346 29.9038 25.9346C32.9832 25.9346 35.1938 25.7378 36.3427 25.6041C36.7458 25.5573 37.1029 25.7505 37.014 25.9675C36.7661 26.5729 36.4066 27.7318 36.4066 29.3734C36.4066 31.0556 36.7839 32.2894 37.0323 32.9202Z" fill="#69EBFC"/>
<path d="M2.42603 49.4136H5.80258V51.9998H2.42603V49.4136Z" fill="#5861C7"/>
<path d="M37.0452 49.4136H40.4217V51.9998H37.0452V49.4136Z" fill="#5861C7"/>
<path d="M2.26369 35.5199C1.97765 35.5199 1.68843 35.4469 1.42302 35.2934C0.619653 34.8284 0.344722 33.8001 0.809685 32.9963C1.91497 31.0865 3.9708 29.9003 6.17501 29.9003H35.9073C37.9687 29.9003 39.8888 30.921 41.0437 32.6305C41.5634 33.3998 41.3607 34.4452 40.5914 34.9649C39.8222 35.4846 38.7768 35.2823 38.2575 34.5126C37.7283 33.7299 36.8499 33.2625 35.9073 33.2625H6.17501C5.16654 33.2625 4.2259 33.8056 3.72007 34.6804C3.40864 35.2188 2.8441 35.5199 2.26369 35.5199Z" fill="#EDD4C2"/>
<path d="M40.4217 40.8777H1.66113V36.8715C1.66113 34.3785 3.68206 32.3572 6.17509 32.3572H35.9074C38.4008 32.3572 40.4217 34.3785 40.4217 36.8715V40.8777Z" fill="#FFEFE4"/>
<path d="M3.48999 0.00012207H40.3618V13.9296H3.48999V0.00012207Z" fill="#6770E6"/>
<path d="M3.48999 0.00012207H40.3618V1.01574H3.48999V0.00012207Z" fill="#8F95E6"/>
<path d="M38.331 2.03174V11.8983H5.52173V2.03174H38.331Z" fill="#A1F1FC"/>
<path d="M38.3305 4.61995C37.5577 4.48942 36.7591 4.51521 35.9819 4.63224C33.7011 4.97581 31.602 6.05094 29.593 7.1828C27.5836 8.31506 25.5908 9.53063 23.3839 10.2007C21.1773 10.8708 18.6783 10.9382 16.6605 9.82143C15.3839 9.11446 14.3786 7.98419 13.0924 7.29428C10.8021 6.06522 7.98848 6.42148 5.52124 7.27722V11.8983H38.3305V4.61995Z" fill="#69EBFC"/>
<path d="M13.1023 7.07532C13.1035 7.04874 13.1042 7.02136 13.1042 6.99319C13.1042 6.06366 12.3501 5.30908 11.4201 5.30908C10.4894 5.30908 9.73523 6.06366 9.73523 6.99319C9.73523 7.02811 9.73642 7.06302 9.7388 7.09714C9.01755 7.28796 8.48633 7.94376 8.48633 8.72491C8.48633 9.65564 9.24011 10.4098 10.1708 10.4098H12.7583C13.6886 10.4098 14.4424 9.65564 14.4424 8.72491C14.4424 7.91281 13.8676 7.23441 13.1023 7.07532Z" fill="#D476E2"/>
<path d="M12.8416 7.9631C12.7396 7.83536 12.5532 7.81433 12.4258 7.91669L11.7605 8.44711V7.35809C11.7605 7.19464 11.628 7.06213 11.4645 7.06213C11.3011 7.06213 11.1686 7.19464 11.1686 7.35809V9.08704L10.1553 8.43085C10.0181 8.34238 9.83518 8.38126 9.74631 8.51852C9.65745 8.65579 9.69672 8.83868 9.83359 8.92755L11.1686 9.79163V12.4025C11.1686 12.5656 11.3011 12.6981 11.4645 12.6981C11.628 12.6981 11.7605 12.5659 11.7605 12.4025V9.20367L12.7948 8.37888C12.9221 8.27692 12.9435 8.09085 12.8416 7.9631Z" fill="#6770E6"/>
<path d="M18.1014 8.10001C18.103 8.07343 18.1038 8.04605 18.1038 8.01788C18.1038 7.08835 17.3492 6.33337 16.4196 6.33337C15.4889 6.33337 14.7343 7.08795 14.7343 8.01788C14.7343 8.0528 14.7359 8.08731 14.7383 8.12143C14.0171 8.31226 13.4858 8.96844 13.4858 9.7496C13.4858 10.6799 14.2396 11.4345 15.1703 11.4345H17.7578C18.6881 11.4345 19.4419 10.6799 19.4419 9.7496C19.4419 8.9371 18.8671 8.25909 18.1014 8.10001Z" fill="#EA82FA"/>
<path d="M17.8409 8.98752C17.7389 8.85977 17.5528 8.83875 17.4251 8.9411L16.7602 9.47153V8.38251C16.7602 8.21906 16.6277 8.08655 16.4642 8.08655C16.3008 8.08655 16.1683 8.21906 16.1683 8.38251V10.1115L15.155 9.45566C15.0181 9.36679 14.8345 9.40567 14.746 9.54333C14.6567 9.68021 14.6964 9.86349 14.8337 9.95236L16.1683 10.816V11.9475C16.1683 12.111 16.3008 12.2435 16.4642 12.2435C16.6277 12.2435 16.7602 12.111 16.7602 11.9475V10.2285L17.7944 9.40329C17.9218 9.30173 17.9432 9.11526 17.8409 8.98752Z" fill="#6770E6"/>
<path d="M32.7845 6.06888C32.7861 6.0423 32.7869 6.01492 32.7869 5.98676C32.7869 5.05722 32.0323 4.30225 31.1024 4.30225C30.172 4.30225 29.4174 5.05682 29.4174 5.98676C29.4174 6.02167 29.419 6.05618 29.4214 6.0903C28.7002 6.28113 28.1689 6.93732 28.1689 7.71848C28.1689 8.6488 28.9227 9.40338 29.8535 9.40338H32.4405C33.3712 9.40338 34.125 8.6488 34.125 7.71848C34.1246 6.90598 33.5502 6.22797 32.7845 6.06888Z" fill="#EA82FA"/>
<path d="M32.5235 6.95639C32.4211 6.82864 32.2354 6.80801 32.1077 6.90997L31.4428 7.4404V6.35138C31.4428 6.18793 31.3103 6.05542 31.1468 6.05542C30.983 6.05542 30.8508 6.18793 30.8508 6.35138V8.08032L29.8372 7.42453C29.7003 7.33566 29.517 7.37454 29.4282 7.51221C29.3393 7.64908 29.3786 7.83237 29.5159 7.92123L30.8508 8.78491V11.9476C30.8508 12.1111 30.983 12.2436 31.1468 12.2436C31.3103 12.2436 31.4428 12.1111 31.4428 11.9476V8.19736L32.4766 7.37216C32.6044 7.2706 32.6254 7.08414 32.5235 6.95639Z" fill="#6770E6"/>
<path d="M49.1105 50.2324H43.5528C42.8752 50.2324 42.3257 50.7819 42.3257 51.4595C42.3257 51.7582 42.5677 51.9998 42.8664 51.9998H49.7965C50.0952 51.9998 50.3372 51.7582 50.3372 51.4595C50.3372 50.7819 49.7881 50.2324 49.1105 50.2324Z" fill="#6770E6"/>
<path d="M49.7967 51.222H42.8663C42.681 51.222 42.5179 51.1287 42.4207 50.9867C42.3596 51.1323 42.3259 51.2918 42.3259 51.4596C42.3259 51.7583 42.5679 51.9999 42.8663 51.9999H49.7967C50.0951 51.9999 50.3371 51.7583 50.3371 51.4596C50.3371 51.2918 50.3033 51.1323 50.2426 50.9867C50.1451 51.1287 49.982 51.222 49.7967 51.222Z" fill="#5861C7"/>
<path d="M45.5012 19.4818H47.1615V50.2325H45.5012V19.4818Z" fill="#6770E6"/>
<path d="M48.3589 25.1225C48.3589 26.2425 47.4512 27.1502 46.3316 27.1502C45.2117 27.1502 44.304 26.2425 44.304 25.1225C44.304 24.0029 45.2117 23.0952 46.3316 23.0952C47.4512 23.0952 48.3589 24.0029 48.3589 25.1225Z" fill="#6770E6"/>
<path d="M49.8658 12.1725H42.7976C42.3232 12.1725 41.9256 12.5319 41.878 13.0036L40.6644 24.9416C40.6545 25.0392 40.7311 25.1237 40.8291 25.1237H51.8347C51.9327 25.1237 52.0093 25.0392 51.999 24.9416L50.7858 13.0036C50.7374 12.5315 50.3399 12.1725 49.8658 12.1725Z" fill="#D476E2"/>
<path d="M42.6521 13.2615H50.0106C50.3776 13.2615 50.6997 13.4603 50.8616 13.7554L50.7854 13.0036C50.7374 12.5319 50.3399 12.1725 49.8654 12.1725H42.7973C42.3232 12.1725 41.9257 12.5315 41.8777 13.0036L41.8015 13.7554C41.9634 13.4603 42.2855 13.2615 42.6521 13.2615Z" fill="#EA82FA"/>
<path d="M42.9197 25.1224H43.3926V31.075H42.9197V25.1224Z" fill="#6770E6"/>
<path d="M43.9314 31.311C43.9314 31.739 43.5843 32.0862 43.1562 32.0862C42.7278 32.0862 42.3806 31.739 42.3806 31.311C42.3806 30.8829 42.7278 30.5358 43.1562 30.5358C43.5843 30.5358 43.9314 30.8829 43.9314 31.311Z" fill="#6770E6"/>
</svg>
