<svg width="53" height="42" viewBox="0 0 53 42" fill="none" xmlns="http://www.w3.org/2000/svg">
<path d="M30.1514 42H8.34937V33.628H30.1514V42Z" fill="#E8571F"/>
<path d="M28.1455 42H30.1513V33.628H28.1455V42Z" fill="#D33D0F"/>
<path d="M8.34937 42H10.3552V33.628H8.34937V42Z" fill="#F9764E"/>
<path d="M52.4766 42H30.6746V33.628H52.4766V42Z" fill="#E8571F"/>
<path d="M50.4709 42H52.4767V33.628H50.4709V42Z" fill="#D33D0F"/>
<path d="M30.6746 42H32.6804V33.628H30.6746V42Z" fill="#F9764E"/>
<path d="M41.3138 33.1047H19.5117V24.7327H41.3138V33.1047Z" fill="#E8571F"/>
<path d="M39.3079 33.1047H41.3137V24.7327H39.3079V33.1047Z" fill="#D33D0F"/>
<path d="M19.5117 33.1047H21.5175V24.7327H19.5117V33.1047Z" fill="#F9764E"/>
<path d="M52.4766 24.2095H30.6746V15.8375H52.4766V24.2095Z" fill="#E8571F"/>
<path d="M50.4709 24.2095H52.4767V15.8375H50.4709V24.2095Z" fill="#D33D0F"/>
<path d="M30.6746 24.2095H32.6804V15.8375H30.6746V24.2095Z" fill="#F9764E"/>
<path d="M52.4766 24.7327V33.1047H41.8372V24.7327H52.4766Z" fill="#E8571F"/>
<path d="M41.8372 33.1047H43.9302V24.7327H41.8372V33.1047Z" fill="#F9764E"/>
<path d="M30.6746 33.3664H30.1514V42H30.6746V33.3664Z" fill="#B7B7B7"/>
<path d="M41.8372 24.7328H41.314V33.3665H41.8372V24.7328Z" fill="#B7B7B7"/>
<path d="M8.34937 33.1048V33.6281H52.4768V33.1048H8.34937Z" fill="#B7B7B7"/>
<path d="M19.5117 24.2095V24.7328H52.4765V24.2095H19.5117Z" fill="#B7B7B7"/>
<path d="M10.704 19.1787L9.96289 18.4399L15.1961 13.19L15.9373 13.9289L10.704 19.1787Z" fill="#BCBCBC"/>
<path d="M10.1436 17.8815C9.79147 17.5305 9.14081 17.4117 8.78979 17.7637L0.237708 26.343C-0.113305 26.6953 -0.0593237 27.4126 0.292824 27.7636L0.851917 28.3209L10.7028 18.4388L10.1436 17.8815Z" fill="#3D3D3D"/>
<path d="M11.4241 19.158L10.7027 18.4389L0.851807 28.321L1.57319 29.0401C1.92534 29.3911 2.48068 29.2811 2.8317 28.929L11.3838 20.3497C11.7348 19.9976 11.7761 19.5089 11.4241 19.158Z" fill="#2D2D2D"/>
<path d="M11.7671 5.84732C11.4037 6.01328 11.2015 6.461 11.3187 6.84341C11.3187 6.84341 11.7534 8.26456 12.3714 9.90312C12.7439 10.8918 13.1831 11.9605 13.6324 12.8433C13.9849 13.5361 14.3433 14.1149 14.6823 14.4529C14.6851 14.4557 14.6881 14.4584 14.6909 14.4611L28.8863 0.201191C27.3939 -1.2742 11.7671 5.84732 11.7671 5.84732Z" fill="#CCCCCC"/>
<path d="M23.2969 17.3408C23.2969 17.3408 25.5788 12.2921 27.2784 7.65796C27.7881 6.26759 28.2456 4.91456 28.5741 3.74649C29.0787 1.95 29.2765 0.590071 28.8875 0.202341C28.8871 0.201993 28.8866 0.201645 28.8861 0.20121L14.6907 14.4611C16.1917 15.9419 22.3028 17.793 22.3028 17.793C22.6851 17.9083 23.1327 17.7053 23.2969 17.3408Z" fill="#BCBCBC"/>
</svg>
