<svg width="51" height="51" viewBox="0 0 51 51" fill="none" xmlns="http://www.w3.org/2000/svg">
<g clip-path="url(#clip0)">
<path d="M4.40031 0C2.54917 0 1.04944 1.49973 1.04944 3.35087V9.22266H7.75078V3.35087C7.75078 1.49973 6.25028 0 4.40031 0Z" fill="#EDD4C2"/>
<path d="M38.2534 0H4.3999C6.25065 0 7.75038 1.50012 7.75038 3.35087V50.9518H41.6042V3.35087C41.6042 1.50012 40.103 0 38.2534 0Z" fill="#FFEFE4"/>
<path d="M38.2534 0H4.3999C5.51867 0 6.50683 0.550444 7.11558 1.39321H38.2534C40.103 1.39321 41.6042 2.89333 41.6042 4.74408V3.35087C41.6042 1.50012 40.103 0 38.2534 0Z" fill="#FFF7F2"/>
<path d="M7.75049 49.5586H41.6043V50.9518H7.75049V49.5586Z" fill="#EDD4C2"/>
<path d="M51 50.9997V11.2321H43.8419V51.0001H51V50.9997ZM47.421 46.747C48.0865 46.747 48.626 47.2865 48.626 47.9524C48.626 48.6179 48.0865 49.1575 47.421 49.1575C46.7555 49.1575 46.2155 48.6179 46.2155 47.9524C46.2155 47.2869 46.7555 46.747 47.421 46.747Z" fill="#6770E6"/>
<path d="M43.8419 49.5586H51V50.9518H43.8419V49.5586Z" fill="#5861C7"/>
<path d="M43.8419 11.2321H51V12.6253H43.8419V11.2321Z" fill="#8F95E6"/>
<path d="M43.8419 42.4943H45.7032C46.0456 42.4943 46.3232 42.7718 46.3232 43.1143C46.3232 43.4572 46.0456 43.7347 45.7032 43.7347H43.8419V42.4943Z" fill="#A1F1FC"/>
<path d="M43.8419 37.7334H45.7032C46.0456 37.7334 46.3232 38.0113 46.3232 38.3538C46.3232 38.6963 46.0456 38.9742 45.7032 38.9742H43.8419V37.7334Z" fill="#A1F1FC"/>
<path d="M43.8419 32.5691H45.7032C46.0456 32.5691 46.3232 32.847 46.3232 33.1895C46.3232 33.532 46.0456 33.8099 45.7032 33.8099H43.8419V32.5691Z" fill="#A1F1FC"/>
<path d="M43.8419 28.6157H45.7032C46.0456 28.6157 46.3232 28.8937 46.3232 29.2361C46.3232 29.5786 46.0456 29.8566 45.7032 29.8566H43.8419V28.6157Z" fill="#A1F1FC"/>
<path d="M43.8419 23.4514H45.7032C46.0456 23.4514 46.3232 23.7294 46.3232 24.0718C46.3232 24.4143 46.0456 24.6922 45.7032 24.6922H43.8419V23.4514Z" fill="#A1F1FC"/>
<path d="M43.8419 18.6907H45.7032C46.0456 18.6907 46.3232 18.9686 46.3232 19.3111C46.3232 19.6536 46.0456 19.9315 45.7032 19.9315H43.8419V18.6907Z" fill="#A1F1FC"/>
<path d="M43.8419 13.9302H45.7032C46.0456 13.9302 46.3232 14.2081 46.3232 14.5506C46.3232 14.8931 46.0456 15.171 45.7032 15.171H43.8419V13.9302Z" fill="#A1F1FC"/>
<path d="M4.90309 44.8382H0.0482178V17.5951H4.90309V44.8382Z" fill="#FF8354"/>
<path d="M4.90309 46.0888H0.0482178V44.8379H4.90309V46.0888Z" fill="#C7FCFE"/>
<path d="M0.0482178 46.0889H4.90309V48.5247C4.90309 49.865 3.81619 50.9519 2.47546 50.9519C1.13472 50.9519 0.0482178 49.865 0.0482178 48.5247V46.0889Z" fill="#6770E6"/>
<path d="M2.47546 49.5586C1.13472 49.5586 0.0482178 48.4717 0.0482178 47.1313V48.5246C0.0482178 49.8649 1.13472 50.9518 2.47546 50.9518C3.81619 50.9518 4.90309 49.8649 4.90309 48.5246V47.1313C4.90309 48.4717 3.81619 49.5586 2.47546 49.5586Z" fill="#5861C7"/>
<path d="M0.0482178 17.5929L2.29625 11.3207C2.35651 11.1524 2.5948 11.1524 2.65505 11.3207L4.90309 17.5929H0.0482178Z" fill="#EDD4C2"/>
<path d="M1.26172 14.2066H3.68896L2.65493 11.3207C2.59429 11.1524 2.35639 11.1524 2.29574 11.3207L1.26172 14.2066Z" fill="#5861C7"/>
<path d="M2.20799 12.8737C2.29818 12.7054 2.65309 12.7054 2.74327 12.8737L4.16525 15.5345L2.65503 11.3207C2.59478 11.1524 2.35649 11.1524 2.29623 11.3207L0.786011 15.5342L2.20799 12.8737Z" fill="#FFEFE4"/>
<path d="M2.20789 12.8737C2.29808 12.7054 2.65299 12.7054 2.74318 12.8737L3.45533 14.2066H3.68935L2.65493 11.3207C2.59468 11.1524 2.35639 11.1524 2.29613 11.3207L1.26172 14.2066H1.49574L2.20789 12.8737Z" fill="#6770E6"/>
<path d="M33.637 33.8398H34.6321V35.9709H33.637V33.8398Z" fill="#6770E6"/>
<path d="M33.637 30.353H34.6321V32.4841H33.637V30.353Z" fill="#6770E6"/>
<path d="M33.637 26.866H34.6321V28.997H33.637V26.866Z" fill="#6770E6"/>
<path d="M33.637 23.3792H34.6321V25.5102H33.637V23.3792Z" fill="#6770E6"/>
<path d="M34.6322 38.9194H33.0399V37.9242H33.637V37.3271H34.6322V38.9194Z" fill="#6770E6"/>
<path d="M29.2292 37.9243H31.5578V38.9195H29.2292V37.9243Z" fill="#6770E6"/>
<path d="M25.4187 37.9243H27.7472V38.9195H25.4187V37.9243Z" fill="#6770E6"/>
<path d="M21.6079 37.9243H23.9364V38.9195H21.6079V37.9243Z" fill="#6770E6"/>
<path d="M17.7977 37.9243H20.1262V38.9195H17.7977V37.9243Z" fill="#6770E6"/>
<path d="M16.3154 38.9194H14.7231V37.3271H15.7183V37.9242H16.3154V38.9194Z" fill="#6770E6"/>
<path d="M14.7231 33.8398H15.7183V35.9709H14.7231V33.8398Z" fill="#6770E6"/>
<path d="M14.7231 30.353H15.7183V32.4841H14.7231V30.353Z" fill="#6770E6"/>
<path d="M14.7231 26.866H15.7183V28.997H14.7231V26.866Z" fill="#6770E6"/>
<path d="M14.7231 23.3792H15.7183V25.5102H14.7231V23.3792Z" fill="#6770E6"/>
<path d="M19.6833 23.7687V38.8861H29.6718V23.7687H19.6833ZM21.8451 32.1388C21.3969 32.1388 21.0334 31.7754 21.0334 31.3272C21.0334 30.879 21.3969 30.5155 21.8451 30.5155C22.2933 30.5155 22.6568 30.879 22.6568 31.3272C22.6568 31.7754 22.2933 32.1388 21.8451 32.1388Z" fill="#6770E6"/>
<path d="M36.1766 23.9871L24.6775 15.8238L13.1788 23.9871L11.6243 21.7974L24.6775 12.53L37.7311 21.7974L36.1766 23.9871Z" fill="#6770E6"/>
</g>
<defs>
<clipPath id="clip0">
<rect width="51" height="51" fill="white"/>
</clipPath>
</defs>
</svg>
