<?xml version="1.0" encoding="UTF-8" standalone="no"?>
<svg
   xmlns:dc="http://purl.org/dc/elements/1.1/"
   xmlns:cc="http://creativecommons.org/ns#"
   xmlns:rdf="http://www.w3.org/1999/02/22-rdf-syntax-ns#"
   xmlns:svg="http://www.w3.org/2000/svg"
   xmlns="http://www.w3.org/2000/svg"
   xmlns:sodipodi="http://sodipodi.sourceforge.net/DTD/sodipodi-0.dtd"
   xmlns:inkscape="http://www.inkscape.org/namespaces/inkscape"
   width="154.72501"
   height="154.72501"
   viewBox="0 0 154.72501 154.725"
   version="1.1"
   id="svg241"
   sodipodi:docname="get-contractor.svg"
   style="fill:none"
   inkscape:version="0.92.2 (5c3e80d, 2017-08-06)">
  <metadata
     id="metadata245">
    <rdf:RDF>
      <cc:Work
         rdf:about="">
        <dc:format>image/svg+xml</dc:format>
        <dc:type
           rdf:resource="http://purl.org/dc/dcmitype/StillImage" />
      </cc:Work>
    </rdf:RDF>
  </metadata>
  <sodipodi:namedview
     pagecolor="#ffffff"
     bordercolor="#666666"
     borderopacity="1"
     objecttolerance="10"
     gridtolerance="10"
     guidetolerance="10"
     inkscape:pageopacity="0"
     inkscape:pageshadow="2"
     inkscape:window-width="1736"
     inkscape:window-height="952"
     id="namedview243"
     showgrid="false"
     inkscape:zoom="2.1651376"
     inkscape:cx="4.2499674"
     inkscape:cy="90.411122"
     inkscape:window-x="0"
     inkscape:window-y="0"
     inkscape:window-maximized="0"
     inkscape:current-layer="svg241" />
  <path
     d="m 64.663261,124.51496 c -4.9788,-5.082 -22.562,-6.073 -22.4072,-8.559 0.1548,-2.492 26.0085,-33.0721 26.1529,-29.6876 0.1445,3.3846 -3.7457,38.2466 -3.7457,38.2466 z"
     id="path2"
     inkscape:connector-curvature="0"
     style="fill:#cc7002" />
  <path
     d="m 93.603961,95.33346 c 5.02,-0.2115 12.377599,-4.6022 18.253599,-11.2733 -5.876,6.6711 -13.233599,11.0618 -18.253599,11.2733 z m -2.1825,-6.4492 c 1.78,0 3.7715,-0.2271 5.892,-0.8978 1.8987,-0.6036 4.287099,-1.6819 9.003099,-5.8095 0.206,-0.1857 0.428,-0.3766 0.655,-0.5778 l -3.199,-0.0206 c -1.475,-0.0104 -2.6669,-1.2073 -2.6669,-2.6881 v -8.9773 c -2.708699,1.9038 -4.674399,2.8428 -6.836199,2.8428 -0.3818,0 -0.7687,-0.0309 -1.166,-0.0877 -1.1196,-0.1651 -2.1979,-0.5675 -3.4001,-1.2331 -0.7842,1.0319 -1.6252,2.1102 -2.5281,3.2298 -0.583,2.5848 -1.8367,6.8155 -5.2264,10.5716 -0.2219,0.2476 -0.7223,0.7997 -1.455,1.4962 1.7181,0.6501 3.5445,1.1815 5.4896,1.5478 1.3982,0.2631 3.2607,0.6037 5.438,0.6037 z m 52.096099,-50.1338 c 1.012,-1.5324 1.655,-2.7551 1.361,-3.0853 -0.075,-0.0878 -0.176,-0.1239 -0.297,-0.1239 -0.485,0 -1.309,0.6192 -2.195,1.455 l 0.971,1.4756 c 0.059,0.0877 0.113,0.1805 0.16,0.2786 z m -1.989,-3.0595 c 1.256,-2.088 2.148,-3.9129 1.651,-4.2834 -0.05,-0.0376 -0.11,-0.0557 -0.176,-0.0557 -0.52,0 -1.512,1.0995 -2.638,2.5689 z m -2.371,-3.607 c 0.574,-1.2078 0.882,-2.0911 0.623,-2.2629 -0.07,-0.0464 -0.153,-0.0696 -0.247,-0.0696 -0.335,0 -0.812,0.292 -1.371,0.8208 z"
     id="path4"
     inkscape:connector-curvature="0"
     style="fill:url(#paint0_linear)" />
  <path
     d="m 93.226461,95.34376 c 0.1238,0 0.2476,-0.0051 0.3766,-0.0103 -0.129,0.0052 -0.2528,0.0103 -0.3766,0.0103 z m 0,0 c -0.0155,0 -0.0362,0 -0.0516,-0.0051 -3.2247,-0.0207 -9.4882,-2.6262 -15.5814,-6.2274 6.0932,3.6012 12.3567,6.2067 15.5814,6.2274 0.0154,0.0051 0.0361,0.0051 0.0516,0.0051 z"
     id="path6"
     inkscape:connector-curvature="0"
     style="fill:#f7ebed" />
  <path
     d="m 93.226361,95.34376 c 0.1238,0 0.2476,-0.0051 0.3766,-0.0103 5.0201,-0.2115 12.377599,-4.6022 18.253599,-11.2732 h -0.794 c -1.115,0 -2.023,-0.9081 -2.023,-2.0225 v -0.4283 l -2.069,-0.0103 c -0.227,0.2012 -0.448,0.3921 -0.655,0.5779 -4.716,4.1275 -7.104299,5.2058 -9.002999,5.8095 -2.1205,0.6707 -4.112,0.8977 -5.892,0.8977 -2.1773,0 -4.0398,-0.3405 -5.438,-0.6037 -1.9451,-0.3663 -3.7715,-0.8977 -5.4896,-1.5478 -0.743,0.7068 -1.7284,1.5581 -2.8996,2.3785 6.0932,3.6012 12.3567,6.2067 15.5814,6.2274 0.0154,0.0051 0.0361,0.0051 0.0516,0.0051 z m 27.401199,-23.5629 c 0.805,-1.295 1.553,-2.5333 2.239,-3.7199 h -0.371 c -0.733,0 -1.393,-0.3044 -1.868,-0.7946 z"
     id="path8"
     inkscape:connector-curvature="0"
     style="fill:url(#paint1_linear)" />
  <path
     d="m 55.763261,67.33346 c -0.7946,-4.8086 1.2537,-10.9276 5.3761,-12.6508 2.8015,-1.1764 5.7475,-0.5211 8.6678,0.6913 5.4173,2.2547 6.8774,5.5722 13.048,10.3859 2.0535,1.6045 3.7251,2.9099 5.1749,3.9418 -0.1341,1.4394 -0.3973,2.7447 -0.5985,3.7457 -0.4592,2.2752 -1.491,7.3624 -5.4844,11.7892 -0.4798,0.5365 -2.2805,2.5281 -4.9014,4.2461 -3.3897,-2.0585 -6.6814,-4.3854 -9.3746,-6.733 -12.1401,-10.587 -11.6964,-14.147 -11.9079,-15.4162 z"
     id="path10"
     inkscape:connector-curvature="0"
     style="fill:#ffedd9" />
  <path
     d="m 54.546661,108.02026 c 0.939,7.9347 10.1072,29.5217 15.4111,40.2997 3.1163,6.346 5.6134,13.435 6.5318,19.296 0.8358,5.33 0.1393,9.303 -0.4643,13.384 0,0 -1.5582,10.541 -2.492,26.922 -1.2022,21.194 -2.0638,32.411 -2.0638,32.411 -2.559,1.847 -14.2244,3.39 -14.9416,-0.201 -1.7129,-8.56 -6.0984,-28.645 -3.4671,-57.589 0.3302,-3.591 -1.9502,-6.383 -5.6701,-15.391 -9.7461,-23.625 -20.3022,-27.747 -19.2962,-40.305 0.7843,-9.756 8.1519,-19.6883 16.3398,-21.1639 0.5057,-0.0877 9.5088,-2.8273 10.1124,2.3372 z"
     id="path12"
     inkscape:connector-curvature="0"
     style="fill:#02134f" />
  <path
     d="m 53.086361,181.52596 c 0.2683,-0.526 0.5418,-1.114 0.841,-1.769 4.0863,-9.014 2.4456,-18.595 1.166,-23.579 -0.0722,-0.289 0.0104,0.047 -3.4206,-9.957 -3.5291,-10.278 -3.9108,-11.49 -4.3597,-13.616 -0.9803,-4.644 -1.8161,-8.611 -1.0113,-13.616 0.6656,-4.132 2.0277,-6.346 2.3682,-7.77 -0.5882,0.026 -1.1867,0.047 -1.78,0.057 -1.4291,3.503 -3.7457,7.677 -4.4783,11.836 -1.2899,7.347 1.1815,9.075 4.9788,26.767 2.3475,10.937 3.6218,17.072 3.3226,24.739 1.424,3.059 2.2804,4.963 2.3733,6.908 z"
     id="path14"
     inkscape:connector-curvature="0"
     style="fill:#020b42" />
  <path
     d="m 6.6203011,113.61796 c -1.60973,3.457 -2.65195,8.369 0.62427,19.611 2.68288,9.22 7.3108899,14.828 11.1081899,24.064 3.2607,7.945 8.3014,15.72 8.6523,16.551 0.3302,0.784 -1.5943,14.018 -3.2659,33.299 -0.7997,9.219 -2.9099,30.899 -1.8677,32.834 1.8006,3.348 7.7081,3.426 8.2447,3.426 2.3063,0 4.0656,-0.604 4.5145,-0.779 0,0 6.4853,-23.377 12.4496,-49.329 2.0379,-8.869 3.2039,-11.072 3.5754,-17.583 0.4747,-8.193 -0.8048,-14.38 -3.2659,-25.833 -3.7973,-17.692 -6.2686,-19.42 -4.9788,-26.767 1.2538,-7.12 7.1613,-14.3022 5.2884,-18.053 -2.9563,-5.9282 -16.9228,-1.3054 -19.4509,-1.2435 -1.9244,0.0465 -17.25816,0.4128 -21.6281599,9.8025 z"
     id="path16"
     inkscape:connector-curvature="0"
     style="fill:#00157a" />
  <path
     d="m 61.237961,49.81726 c 3.2039,1.4394 5.3245,2.7912 6.8465,3.8902 2.3836,1.7232 4.9581,3.6218 7.0064,7.0012 0.2735,0.4541 1.6717,2.8068 2.3321,5.7579 1.6768,7.4863 -2.3888,14.436 -6.6918,21.7881 -1.8212,3.1214 -1.037,1.2486 -7.3108,10.5819 -2.6416,3.9263 -5.4793,8.8535 -8.5027,11.2944 -0.8461,0.681 -1.9244,0.846 -4.5712,1 -6.9961,0.408 -14.7765,0.325 -19.9152,-3.8897 -8.2963,-6.8104 -7.8474,-18.3984 -7.6256,-24.1202 0.1238,-3.2504 4.9014,-12.6353 14.3121,-31.2813 0.9442,-1.8677 2.0328,-3.9521 4.3597,-5.2884 5.4793,-3.1472 13.4093,0.4127 19.7605,3.2659 z"
     id="path18"
     inkscape:connector-curvature="0"
     style="fill:#f9dab4" />
  <path
     d="m 81.312861,28.60296 c 1.9813,-1.3827 4.2462,-3.0033 6.0159,-6.0169 0.7223,-1.2258 2.136,-3.70338 2.1824,-7.1581 0.0413,-3.54089 -1.3776,-6.0354351 -2.492,-7.9882601 -0.3869,-0.67846 -3.7147,-6.43377 -5.8094,-5.80948 -1.5479,0.46125 -0.7017,3.89481 -3.008,5.29094 -0.9338,0.5665 -2.4713,0.38593 -5.4999,0 -4.0862,-0.52058 -4.241,-1.0422 -5.9126,-0.82963 -0.3818,0.04798 -3.6993,0.5175 -5.8095,3.112158 -1.5427,1.8986521 -1.2538,3.4722521 -2.9048,4.2528621 -0.8771,0.41637 -1.1505,0.05884 -3.1111,0.41535 -1.2898,0.23424 -2.7345,0.49633 -3.7354,1.24496 -2.2598,1.68815 -1.9296,5.585 -1.8676,6.328 0.2682,3.1606 1.9193,5.308 4.3596,8.4031 2.5643,3.2545 3.8489,4.8818 5.7063,5.6026 2.6055,1.0091 5.9178,-0.1424 12.4445,-2.49 4.4061,-1.5834 6.6607,-2.4145 9.4416,-4.3576 z"
     id="path20"
     inkscape:connector-curvature="0"
     style="fill:#3d0375" />
  <path
     d="m 65.556161,52.04616 c 0.5882,1.2589 0.6243,2.2134 0.6243,2.5591 0,0.4901 -0.0155,2.0792 -1.1299,3.4206 -1.4704,1.78 -3.7819,1.8161 -4.6641,1.8316 -2.1618,0.031 -3.7148,-0.8977 -4.2823,-1.2485 -1.8471,-1.1403 -2.719,-2.6778 -3.3845,-3.849 -0.5469,-0.9699 -0.8978,-2.203 -1.5943,-4.6692 -0.5211,-1.8367 -0.6449,-2.688 -0.1961,-3.3846 0.062,-0.0928 0.2529,-0.3611 0.6914,-0.6191 3.2762,0.8823 6.6195,2.3836 9.6171,3.7302 1.7335,0.7791 3.1421,1.5272 4.3184,2.2289 z"
     id="path22"
     inkscape:connector-curvature="0"
     style="fill:#ffedd9" />
  <path
     d="m 53.926961,26.21726 c 0.3921,-0.1063 1.1144,-0.4607 1.5581,-1.1412 0.454,-0.712 0.3508,-1.392 0.4127,-2.0751 0.1703,-1.8724 1.5478,-3.2205 1.9709,-3.63071 1.749,-1.70724 4.8602,-2.54563 6.7433,-1.45236 0.8307,0.4824 0.9545,1.07109 2.0741,1.45236 0.1909,0.0645 1.8626,0.61291 2.8016,-0.2074 0.583,-0.51182 0.2837,-1.03445 0.7274,-1.76347 1.0009,-1.65874 4.4629,-2.13341 6.4286,-0.83066 0.6914,0.45609 0.516,0.67999 1.3518,1.24545 1.4343,0.97306 2.9924,1.01899 4.0449,1.03705 1.2796,0.02218 2.3063,0.04025 3.3175,-0.51851 1.5117,-0.83428 2.1154,-2.47342 2.492,-3.73489 0.3922,-1.32545 0.6501,-2.62614 0.8152,-3.83911 0.5056,1.32957 0.8668,2.8614 0.8461,4.66925 -0.0464,3.45472 -1.4601,5.9323 -2.1824,7.1581 -1.7697,3.0136 -4.0346,4.6342 -6.0158,6.0169 -2.7809,1.9431 -5.0356,2.7742 -9.4417,4.3576 -6.5266,2.3476 -9.839,3.4991 -12.4444,2.49 -1.8574,-0.7208 -3.1421,-2.3481 -5.7063,-5.6026 -1.8161,-2.3001 -3.1886,-4.078 -3.8851,-6.1356 1.3002,1.4168 2.7449,2.8687 4.0915,2.5049 z"
     id="path24"
     inkscape:connector-curvature="0"
     style="fill:#2d025e" />
  <path
     d="m 22.965961,128.19396 c 2.461,0 5.6598,-0.31 9.1734,-1.76 1.5375,-0.634 4.824,-1.996 7.4708,-4.984 1.4343,-1.62 2.7396,-5.34 3.9263,-10.195 -0.7585,-0.031 -1.5066,-0.077 -2.2547,-0.144 -1.9348,6.79 -4.21,10.406 -7.7391,12.625 -2.3165,1.455 -5.3967,2.182 -9.4158,2.182 -2.8841,0 -6.2532,-0.376 -10.1795,-1.119 0.0877,0.639 0.1805,1.315 0.2889,2.027 3.5858,1.104 6.0778,1.264 6.0778,1.264 0.7326,0.052 1.6303,0.104 2.6519,0.104 z"
     id="path26"
     inkscape:connector-curvature="0"
     style="fill:#01146b" />
  <path
     d="m 43.536061,111.25496 c 1.1712,-4.8134 2.2289,-10.7467 3.1782,-16.8554 -0.6449,-0.356 -1.2589,-0.712 -1.8161,-1.0577 -0.196,1.1403 -0.4024,2.3424 -0.6191,3.6271 -0.9958,5.8353 -1.9451,10.4529 -2.9976,14.142 0.7481,0.067 1.4962,0.113 2.2546,0.144 z m 6.6711,-47.0275 c 0.1599,-2.5281 0.2425,-4.5403 0.2941,-6.0571 0.227,-6.6556 -0.325,-10.3085 -1.0835,-12.1297 0.1806,3.1936 0.485,10.4735 0.0104,17.3819 0.2476,0.2632 0.5107,0.5315 0.779,0.8049 z"
     id="path28"
     inkscape:connector-curvature="0"
     style="fill:#a59692" />
  <path
     d="m 60.195961,58.27866 c 0.8203,0 2.4713,-0.1341 3.7921,-1.3517 1.0319,-0.9545 1.8935,-2.59 1.5839,-3.6425 0.1135,0.3921 0.0671,0.8667 -0.0928,1.3569 -0.8101,-0.129 -1.6562,-0.2993 -2.5281,-0.516 -2.1309,-0.5365 -3.1989,-1.0525 -3.5239,-1.9708 -0.325,-0.9184 0.3663,-1.424 1.3466,-4.2565 0.3095,-0.9029 0.8668,-2.5127 1.2434,-4.5609 0.3767,-2.0535 0.2528,-2.8171 0.7275,-3.0131 0.0619,-0.0258 0.1238,-0.0361 0.1909,-0.0361 0.712,0 1.651,1.4859 3.5445,3.0492 0.7378,0.6036 3.3072,3.1111 6.537,3.7044 1.2021,0.2219 2.1359,0.3096 2.9305,0.3096 0.1496,0 0.2992,0 0.4385,-0.0104 -0.5211,0.1651 -1.0422,0.2322 -1.5736,0.2322 -0.9235,0 -1.8625,-0.196 -2.8325,-0.3972 0.9751,0.2012 1.9193,0.4024 2.848,0.4024 0.6862,0 1.3569,-0.1084 2.0276,-0.4024 2.2082,-0.9855 3.2556,-3.5342 3.4207,-3.947 0.3044,-0.7429 0.614,-1.8367 1.4549,-3.3175 0.3612,-0.6397 0.645,-1.0473 1.1403,-1.3466 0.841,-0.5159 1.4601,-0.2115 1.7645,-0.6243 0.4076,-0.5572 -0.4025,-1.5529 -0.9339,-3.0084 -0.4179,-1.1351 -0.454,-2.1055 -0.521,-4.046 -0.062,-1.7206 0.0928,-2.9192 0.2063,-3.8071 0.1342,-1.0732 0.2064,-1.6913 -0.2321,-2.2278 0.4024,0.4927 0.3714,1.0576 0.2631,1.9765 -0.939,-0.3451 -1.9813,-0.8616 -2.8326,-1.2847 -0.7429,-0.3719 -1.9038,-1.0091 -3.6786,-1.6081 -0.8255,-0.2771 -1.4188,-0.4257 -1.8419,-0.4257 -0.2941,0 -0.5004,0.0707 -0.6501,0.2177 -0.4437,0.4443 0.0929,1.1764 -0.4127,1.8677 -0.3818,0.515 -1.099,0.6837 -1.651,0.6837 -0.0774,0 -0.1497,-0.0031 -0.2167,-0.0093 -0.5934,-0.0511 -0.6862,-0.2936 -1.9709,-0.8813 -0.8204,-0.374 -1.2795,-0.5804 -1.6407,-0.5804 -0.0413,0 -0.0825,0.0031 -0.1238,0.0093 -0.8152,0.1212 -1.3363,0.9246 -1.8161,1.6603 -0.841,1.2888 -0.8875,2.2314 -1.2435,2.2304 -0.3663,-10e-4 -0.6655,-0.9844 -0.779,-1.5566 -0.1393,-0.6748 -0.129,-1.3089 -0.0567,-1.861 0.2218,0.6919 0.1289,1.3332 0.3869,1.4369 -0.3353,-0.1352 -0.0671,-1.1815 -0.6965,-2.0653 -0.614,-0.8668 -1.8058,-1.1805 -2.8171,-1.1805 -0.2115,0 -0.4179,0.014 -0.6036,0.0393 -1.6201,0.2177 -2.59,1.3512 -2.9047,1.7634 -1.4859,1.9585 -1.3208,5.0831 0.1031,6.3285 0.9339,0.8193 2.2237,0.6579 2.5952,1.6593 0.1909,0.5278 0.0103,1.0432 -0.1032,1.3492 -0.1341,0.3586 -0.2682,0.7027 -0.3972,1.0293 -1.068,2.6983 -1.9916,4.3648 -1.9916,4.3648 -2.136,3.8592 -2.0585,5.0614 -3.3329,5.7166 -0.583,0.3044 -1.3621,0.5366 -1.9709,0.6862 v 0.0052 c -0.5417,0.1341 -0.9442,0.2064 -0.9442,0.2064 -0.4591,0.6604 -0.3044,1.7903 0.1548,3.5032 0.9184,3.4361 1.8677,4.6899 2.8789,5.7579 0.356,0.3714 2.1618,2.2804 4.9789,2.3836 0.0877,0.0052 0.2064,0.0051 0.356,0.0051 z m 0.8977,-33.0211 c 0.4798,0 1.1144,0.1187 1.5478,0.648 0.3405,0.421 0.6036,1.1614 0.3096,1.6603 -0.3973,0.6775 -1.5221,0.3968 -1.713,0.9334 -0.1909,0.5407 0.8514,1.1103 0.6759,1.5045 -0.0877,0.1986 -0.4695,0.3301 -0.9493,0.3301 -0.5779,0 -1.3001,-0.1924 -1.8006,-0.6928 -0.7636,-0.7641 -0.7326,-1.9565 -0.4128,-2.7495 0.0878,-0.2198 0.5366,-1.2558 1.6613,-1.5561 0.0207,-0.0067 0.3044,-0.0779 0.6811,-0.0779 z m 4.4783,28.0217 c 0,-0.0052 -0.0051,-0.0052 -0.0051,-0.0052 0,0 0.0051,0 0.0051,0.0052 z m -0.0051,-0.0155 c 0,0 0,0 0,-0.0051 0,0.0051 0,0.0051 0,0.0051 z m -0.6501,-26.529 v -6e-4 z m -0.0052,-0.0021 -0.0051,-5e-4 z m -0.0051,-0.0016 c -0.0052,-5e-4 -0.0052,-5e-4 -0.0052,-10e-4 0,5e-4 0,5e-4 0.0052,10e-4 z m -0.0052,-0.002 c -0.0052,-5e-4 -0.0051,-0.0011 -0.0051,-0.0021 0,0.001 -1e-4,0.0016 0.0051,0.0021 z m 18.2488,-1.8801 c 0,-0.0031 -0.0052,-0.0062 -0.0052,-0.0093 0,0.0031 0.0052,0.0062 0.0052,0.0093 z m -0.0104,-0.0119 c 0,-0.0031 -0.0051,-0.0056 -0.0051,-0.0087 0,0.0031 0.0051,0.0056 0.0051,0.0087 z m -0.0102,-0.0123 c 0,-0.0026 -1e-4,-0.0052 -0.0052,-0.0078 0.0051,0.0026 0.0052,0.0052 0.0052,0.0078 z m -0.0104,-0.0124 c 0,-0.0021 0,-0.0042 -0.0052,-0.0062 0.0052,0.002 0.0052,0.0041 0.0052,0.0062 z m -0.0103,-0.0119 c 0,-0.0021 0,-0.0036 -0.0051,-0.0057 0.0051,0.0021 0.0051,0.0036 0.0051,0.0057 z m -0.0103,-0.0119 c 0,-0.0015 0,-0.0031 0,-0.0041 0,0.001 0,0.0026 0,0.0041 z"
     id="path30"
     inkscape:connector-curvature="0"
     style="fill:url(#paint2_linear)" />
  <path
     d="m 49.308961,44.37416 c -8.8226,-0.4747 -8.6059,0.4798 -11.4642,0.8255 -1.197,0.1496 -6.0623,0.7894 -10.164,3.6322 -4.0037,2.7706 -4.5919,5.7682 -10.6335,21.3702 -4.2049,10.8553 -4.3029,10.3962 -6.38212,16.3398 -2.3784799,6.8104 -1.6097599,5.5773 -5.4483499,17.8979 -3.513539,11.2942 -4.88077002,14.6372 -2.956317,17.1132 0.949327,1.223 1.790327,1.063 8.0950969,2.492 11.42809,2.59 18.71819,2.498 23.18629,-0.309 5.4431,-3.426 7.9042,-10.174 10.7367,-26.767 2.2443,-13.1719 3.1111,-18.2126 4.6021,-28.325 1.5066,-10.2105 0.4283,-24.2698 0.4283,-24.2698 z"
     id="path32"
     inkscape:connector-curvature="0"
     style="fill:#ff9400" />
  <path
     d="m 128.65056,151.92696 c -0.062,0.108 -0.325,0.325 -0.686,0.325 h -9.137 -0.026 l -0.005,-53.338 c 0.062,-0.1083 0.325,-0.325 0.686,-0.325 h 9.137 0.026 z m -9.823,4.37 h 9.137 c 2.569,0 4.734,-1.976 4.734,-4.314 l -0.005,-53.683 c 0,-2.105 -1.788,-3.756 -4.074,-3.756 h -9.137 c -2.569,0 -4.736,1.9761 -4.736,4.3133 l 0.005,53.6837 c 0,2.105 1.79,3.756 4.076,3.756 z"
     id="path34"
     inkscape:connector-curvature="0"
     style="fill:#ce7c05" />
  <path
     d="m 120.68956,99.72916 -11.552,53.4928 c -0.015,0.005 -0.185,0.139 -0.448,0.139 h -9.137799 c -0.0877,0 -0.1496,-0.015 -0.196,-0.031 l 11.556799,-53.4924 c 0.011,-0.0052 0.181,-0.1393 0.444,-0.1393 h 9.142 c 0.083,0 0.145,0.0155 0.191,0.0309 z m -21.137799,57.6768 h 9.137799 c 2.13,0 3.983,-1.398 4.4,-3.328 l 11.599,-53.6832 c 0.242,-1.1144 -0.036,-2.2701 -0.759,-3.1679 -0.81,-1.0009 -2.058,-1.5736 -3.431,-1.5736 h -9.142 c -2.136,0 -3.988,1.3982 -4.401,3.3278 l -11.598299,53.6839 c -0.2425,1.114 0.036,2.27 0.7584,3.167 0.81,1.001 2.0586,1.574 3.4361,1.574 z"
     id="path36"
     inkscape:connector-curvature="0"
     style="fill:#f9aa38" />
  <path
     d="m 147.96156,153.35596 -0.07,0.005 h -9.14 c -0.313,0 -0.532,-0.18 -0.566,-0.253 l -14.333,-53.4046 0.067,-0.0051 h 9.141 c 0.313,0 0.532,0.1805 0.566,0.2476 z m -9.21,4.05 h 9.14 c 1.387,0 2.63,-0.583 3.412,-1.605 0.708,-0.923 0.94,-2.099 0.636,-3.234 l -14.409,-53.6839 c -0.503,-1.8729 -2.383,-3.2298 -4.47,-3.2298 h -9.141 c -1.383,0 -2.626,0.583 -3.411,1.6046 -0.706,0.9235 -0.939,2.0999 -0.634,3.2349 l 14.407,53.6832 c 0.503,1.873 2.384,3.23 4.47,3.23 z"
     id="path38"
     inkscape:connector-curvature="0"
     style="fill:#fcc736" />
  <path
     d="m 105.29856,89.77686 h 17.326 v -5.9746 h -17.326 z"
     id="path40"
     inkscape:connector-curvature="0"
     style="fill:#1d5ca0" />
  <path
     d="m 119.89456,89.77686 h 21.169 v -5.9746 h -21.169 z"
     id="path42"
     inkscape:connector-curvature="0"
     style="fill:#60caf4" />
  <path
     d="m 106.72756,99.93046 h 14.467 c 0.79,0 1.43,-0.6398 1.43,-1.4292 v -4.922 c 0,-0.7894 -0.64,-1.4343 -1.43,-1.4343 h -14.467 c -0.789,0 -1.429,0.6449 -1.429,1.4343 v 4.922 c 0,0.7894 0.64,1.4292 1.429,1.4292 z"
     id="path44"
     inkscape:connector-curvature="0"
     style="fill:#1d5ca0" />
  <path
     d="m 121.47856,99.93046 h 18.004 c 0.873,0 1.581,-0.7068 1.581,-1.5788 v -4.6228 c 0,-0.8719 -0.708,-1.5839 -1.581,-1.5839 h -18.004 c -0.872,0 -1.584,0.712 -1.584,1.5839 v 4.6228 c 0,0.872 0.712,1.5788 1.584,1.5788 z"
     id="path46"
     inkscape:connector-curvature="0"
     style="fill:#60caf4" />
  <path
     d="m 136.01856,27.31306 7.338,11.1587 c 0.285,0.4334 0.436,0.9442 0.436,1.4653 v 39.0153 c 0,1.4911 -1.212,2.6984 -2.702,2.688 l -10.5,-0.0619 c -1.481,-0.0103 -2.673,-1.2073 -2.673,-2.688 v -39.2475 c 0,-0.5056 0.145,-1.0061 0.418,-1.4343 l 3.55,-10.8842 z"
     id="path48"
     inkscape:connector-curvature="0"
     style="fill:#47b4ea" />
  <path
     d="m 132.66556,27.67216 7.041,10.7996 c 0.285,0.4334 0.437,0.9442 0.437,1.4653 v 39.0153 c 0,1.4911 -1.213,2.6984 -2.703,2.688 l -10.503,-0.0619 c -1.476,-0.0103 -2.668,-1.2073 -2.668,-2.688 v -39.2475 c 0,-0.5056 0.145,-1.0061 0.413,-1.4343 l 6.651,-10.5272 c 0.309,-0.4871 1.016,-0.4922 1.332,-0.0093 z"
     id="path50"
     inkscape:connector-curvature="0"
     style="fill:#1d5ca0" />
  <path
     d="m 127.94856,30.69966 h -19.022 v -3.3763 h 23.351 l -0.098,0.3024 c -0.593,1.8321 -2.301,3.0739 -4.231,3.0739 z"
     id="path52"
     inkscape:connector-curvature="0"
     style="fill:#47b4ea" />
  <path
     d="m 133.01956,84.06016 h -21.957 c -1.115,0 -2.023,-0.9081 -2.023,-2.0225 v -6.1758 c 0,-1.1144 0.908,-2.0225 2.023,-2.0225 h 21.957 c 1.117,0 2.023,0.9081 2.023,2.0225 v 6.1758 c 0,1.1144 -0.906,2.0225 -2.023,2.0225 z"
     id="path54"
     inkscape:connector-curvature="0"
     style="fill:#1f759f" />
  <path
     d="m 122.49556,68.06086 h 9.947 c 1.436,0 2.6,-1.166 2.6,-2.6003 v -20.4364 c 0,-1.4343 -1.164,-2.6003 -2.6,-2.6003 h -9.947 c -1.434,0 -2.6,1.166 -2.6,2.6003 v 20.4364 c 0,1.4343 1.166,2.6003 2.6,2.6003 z"
     id="path56"
     inkscape:connector-curvature="0"
     style="fill:#257eb3" />
  <path
     d="m 112.85256,27.31306 7.337,11.1587 c 0.289,0.4334 0.438,0.9442 0.438,1.4653 v 39.0153 c 0,1.4911 -1.212,2.6984 -2.703,2.688 l -10.5,-0.0619 c -1.48,-0.0103 -2.672,-1.2073 -2.672,-2.688 v -39.2475 c 0,-0.5056 0.144,-1.0061 0.412,-1.4343 l 3.555,-10.8842 z"
     id="path58"
     inkscape:connector-curvature="0"
     style="fill:#47b4ea" />
  <path
     d="m 109.49956,27.67216 7.042,10.7996 c 0.284,0.4334 0.439,0.9442 0.439,1.4653 v 39.0153 c 0,1.4911 -1.213,2.6984 -2.704,2.688 l -10.504,-0.0619 c -1.476,-0.0103 -2.6677,-1.2073 -2.6677,-2.688 v -39.2475 c 0,-0.5056 0.1444,-1.0061 0.4127,-1.4343 l 6.651,-10.5272 c 0.309,-0.4871 1.016,-0.4922 1.331,-0.0093 z"
     id="path60"
     inkscape:connector-curvature="0"
     style="fill:#257eb3" />
  <path
     d="m 126.14856,68.06086 h 9.944 c 1.436,0 2.6,-1.166 2.6,-2.6003 v -20.4364 c 0,-1.4343 -1.164,-2.6003 -2.6,-2.6003 h -9.944 c -1.439,0 -2.6,1.166 -2.6,2.6003 v 20.4364 c 0,1.4343 1.161,2.6003 2.6,2.6003 z"
     id="path62"
     inkscape:connector-curvature="0"
     style="fill:#47b4ea" />
  <path
     d="m 135.68056,54.47626 c 0,-3.4826 -1.838,-6.3048 -4.105,-6.3048 -2.27,0 -4.107,2.8222 -4.107,6.3048 0,3.4826 1.837,6.3048 4.107,6.3048 2.267,0 4.105,-2.8222 4.105,-6.3048 z"
     id="path64"
     inkscape:connector-curvature="0"
     style="fill:#474747" />
  <path
     d="m 136.38056,54.47626 c 0,-3.4826 -1.838,-6.3048 -4.103,-6.3048 -2.27,0 -4.107,2.8222 -4.107,6.3048 0,3.4826 1.837,6.3048 4.107,6.3048 2.265,0 4.103,-2.8222 4.103,-6.3048 z"
     id="path66"
     inkscape:connector-curvature="0"
     style="fill:#cccccc" />
  <path
     d="m 135.81656,54.47626 c 0,-2.7035 -1.426,-4.8911 -3.185,-4.8911 -1.757,0 -3.186,2.1876 -3.186,4.8911 0,2.7035 1.429,4.8911 3.186,4.8911 1.759,0 3.185,-2.1876 3.185,-4.8911 z"
     id="path68"
     inkscape:connector-curvature="0"
     style="fill:#3279ce" />
  <path
     d="m 132.63156,59.36736 c 1.759,0 3.185,-2.1876 3.185,-4.8911 0,2.7035 -1.426,4.8911 -3.185,4.8911 -0.004,0 -0.009,0 -0.014,0 0.005,0 0.01,0 0.014,0 z m -0.014,-9.7822 c 0.005,0 0.01,0 0.014,0 -0.004,0 -0.009,0 -0.014,0 z"
     id="path70"
     inkscape:connector-curvature="0"
     style="fill:#8c8c8c" />
  <path
     d="m 132.63156,59.36736 c 1.759,0 3.185,-2.1876 3.185,-4.8911 0,-2.7035 -1.426,-4.8911 -3.185,-4.8911 -0.004,0 -0.009,0 -0.014,0 -0.126,0 -0.252,0.0155 -0.371,0.0413 1.575,0.2941 2.796,2.3527 2.796,4.8498 0,2.5023 -1.221,4.5558 -2.796,4.8498 0.119,0.0258 0.245,0.0413 0.371,0.0413 0.005,0 0.01,0 0.014,0 z"
     id="path72"
     inkscape:connector-curvature="0"
     style="fill:#3c618d" />
  <path
     d="m 132.68656,57.01986 c 0.865,0 1.566,-1.135 1.566,-2.5384 0,-1.4034 -0.701,-2.5384 -1.566,-2.5384 -0.868,0 -1.564,1.135 -1.564,2.5384 0,-0.7481 0.335,-1.3518 0.753,-1.3518 0.418,0 0.756,0.6037 0.756,1.3518 0,0.7481 -0.338,1.3517 -0.756,1.3517 -0.418,0 -0.753,-0.6036 -0.753,-1.3517 0,1.4034 0.696,2.5384 1.564,2.5384 z"
     id="path74"
     inkscape:connector-curvature="0"
     style="fill:#5791d6" />
  <path
     d="m 131.87556,55.83326 c 0.418,0 0.757,-0.6037 0.757,-1.3518 0,-0.7481 -0.339,-1.3517 -0.757,-1.3517 -0.418,0 -0.753,0.6036 -0.753,1.3517 0,0.7481 0.335,1.3518 0.753,1.3518 z"
     id="path76"
     inkscape:connector-curvature="0"
     style="fill:#8ab4e3" />
  <path
     d="m 136.10756,84.06016 h -9.974 c -1.429,0 -2.585,-1.1609 -2.585,-2.5849 v -5.051 c 0,-1.4291 1.156,-2.5849 2.585,-2.5849 h 9.974 c 1.428,0 2.585,1.1558 2.585,2.5849 v 5.051 c 0,1.424 -1.157,2.5849 -2.585,2.5849 z"
     id="path78"
     inkscape:connector-curvature="0"
     style="fill:#47b4ea" />
  <path
     d="m 110.45356,92.14496 h 22.582 v -2.3682 h -22.582 z"
     id="path80"
     inkscape:connector-curvature="0"
     style="fill:#102968" />
  <path
     d="m 127.53656,82.60016 h -0.006 z m -0.026,0 -0.005,-0.0052 z m -0.021,-0.0052 c -0.005,0 -0.01,0 -0.015,0 0.005,0 0.01,0 0.015,0 z m -0.015,0 c -0.568,-0.0258 -1.058,-0.3096 -1.378,-0.7275 0.237,0.1135 0.506,0.1806 0.789,0.1806 h 7.123 c 1.02,0 1.847,-0.8255 1.847,-1.8419 v -3.6064 c 0,-0.4231 -0.147,-0.8049 -0.384,-1.1196 0.593,0.2838 1.015,0.8668 1.054,1.5581 -0.055,-0.97 -0.859,-1.7387 -1.844,-1.7387 h -7.125 c -1.021,0 -1.847,0.8255 -1.847,1.8471 v 3.6064 c 0,0.9906 0.784,1.8006 1.765,1.8419 z m 9.054,-5.469 c 0,-0.0051 0,-0.0051 0,-0.0103 0,0.0052 0,0.0052 0,0.0103 z m -0.001,-0.0258 c 0,0 0,0 0,-0.0051 0,0.0051 0,0.0051 0,0.0051 z m 0,-0.0258 c -0.001,0 -0.001,-0.0051 -0.001,-0.0103 0,0.0052 0,0.0103 0.001,0.0103 z m -0.001,-0.0206 c 0,0 -10e-4,-0.0052 -10e-4,-0.0103 0,0.0051 10e-4,0.0103 10e-4,0.0103 z"
     id="path82"
     inkscape:connector-curvature="0"
     style="fill:#389ccd" />
  <path
     d="m 127.55656,82.60016 h 7.125 c 1.02,0 1.847,-0.8307 1.847,-1.8471 0,1.0164 -0.827,1.8471 -1.847,1.8471 h -7.125 c -0.005,0 -0.015,0 -0.02,0 0.005,0 0.015,0 0.02,0 z m -0.026,0 c -0.005,0 -0.01,0 -0.02,0 0.01,0 0.015,0 0.02,0 z m -0.025,-0.0052 c -0.006,0 -0.011,0 -0.016,0 0.005,0 0.01,0 0.016,0 z m 9.023,-5.4483 c 0,-0.0104 0,-0.0155 0,-0.0207 0,0.0052 0,0.0103 0,0.0207 z m 0,-0.031 c 0,-0.0052 -0.001,-0.0103 -0.001,-0.0155 0,0.0052 0.001,0.0103 0.001,0.0155 z m -0.001,-0.0206 c 0,-0.0052 0,-0.0103 0,-0.0207 0,0.0104 0,0.0155 0,0.0207 z m -0.001,-0.031 c 0,0 0,-0.0051 0,-0.0103 0,0.0052 0,0.0103 0,0.0103 z m -10e-4,-0.0206 v -0.0052 z"
     id="path84"
     inkscape:connector-curvature="0"
     style="fill:#2f83c1" />
  <path
     d="m 127.55656,82.60016 h 7.125 c 1.02,0 1.847,-0.8307 1.847,-1.8471 v -3.6064 c 0,-0.0104 0,-0.0155 0,-0.0207 0,-0.0051 0,-0.0051 0,-0.0103 0,-0.0052 -0.001,-0.0103 -0.001,-0.0155 0,0 0,0 0,-0.0051 0,-0.0052 0,-0.0103 0,-0.0207 -0.001,0 -0.001,-0.0051 -0.001,-0.0103 0,0 0,-0.0051 0,-0.0103 0,0 -10e-4,-0.0052 -10e-4,-0.0103 v -0.0052 c -0.039,-0.6913 -0.461,-1.2743 -1.054,-1.5581 0.237,0.3147 0.384,0.6965 0.384,1.1196 v 3.6064 c 0,1.0164 -0.827,1.8419 -1.847,1.8419 h -7.123 c -0.283,0 -0.552,-0.0671 -0.789,-0.1806 0.32,0.4179 0.81,0.7017 1.378,0.7275 0.005,0 0.01,0 0.015,0 0.005,0 0.01,0 0.016,0 l 0.005,0.0052 c 0.01,0 0.015,0 0.02,0 h 0.006 c 0.005,0 0.015,0 0.02,0 z"
     id="path86"
     inkscape:connector-curvature="0"
     style="fill:#2978b4" />
  <path
     d="m 66.624661,52.70656 c 0,0 2.332,13.2183 1.0732,25.3532 -1.2589,12.1401 -3.7096,29.909 -4.9789,36.5702 -0.9957,5.226 -2.0276,11.283 -1.4807,11.753 1.4498,1.217 9.4933,4.509 11.2062,-0.779 1.7129,-5.294 2.9563,-25.5239 3.4258,-32.5252 0.4644,-7.0013 3.4981,-26.6895 -0.0773,-32.2101 -2.6623,-4.1068 -9.1683,-8.1621 -9.1683,-8.1621 z"
     id="path88"
     inkscape:connector-curvature="0"
     style="fill:#ff9400" />
  <path
     d="m 1.4817673,117.54996 c 0.072229,-0.547 0.1908858,-1.156 0.3508258,-1.837 2.915058,0.8 5.835268,1.574 8.7451679,2.291 2.3991,0.593 8.0177,1.981 14.7455,1.073 3.5961,-0.485 6.0107,-1.037 7.3367,-2.709 1.2434,-1.568 2.1978,-5.675 2.4971,-7.063 0.3354,-1.5684 1.1402,-6.8826 2.332,-13.5846 2.0328,-11.3971 4.8189,-27.0043 5.2368,-31.9728 0.5366,-6.4286 0.8049,-12.9603 0.7997,-19.4715 0.5418,-0.0258 1.1557,-0.0361 1.8677,-0.031 0.0052,6.5731 -0.2631,13.172 -0.81,19.6573 -0.4231,5.0562 -3.2143,20.7098 -5.2522,32.143 -1.1454,6.4131 -2.1309,11.944 -2.3218,13.4867 -0.1444,1.1969 -1.4601,5.9379 -2.9511,7.8219 -2.0793,2.626 -5.5825,3.178 -8.4821,3.57 -1.6768,0.227 -3.2865,0.32 -4.793,0.32 -4.8757,0 -8.74,-0.955 -10.65418,-1.429 -2.8737799,-0.707 -5.7630199,-1.471 -8.6471137,-2.265 z"
     id="path90"
     inkscape:connector-curvature="0"
     style="fill:#fcd9b1" />
  <path
     d="m 65.571561,120.67096 c -0.6036,-0.836 -0.1754,-3.813 1.197,-12.0934 1.0732,-6.4956 2.4146,-14.5752 2.7345,-20.9522 0.4592,-9.225 0.5882,-24.2853 -0.3353,-33.0975 0.423,0.3147 0.8771,0.6604 1.3466,1.0319 0.81,9.0237 0.6707,23.2585 0.227,32.1275 -0.3199,6.4492 -1.6665,14.5649 -2.7448,21.0916 -0.8462,5.1231 -1.7284,10.4271 -1.4137,11.1701 0.6759,0.944 4.1069,2.884 6.2068,3.937 -0.0465,0.221 -0.0929,0.433 -0.1394,0.629 l -0.2785,0.557 c -0.5779,-0.289 -5.7064,-2.863 -6.8002,-4.401 z"
     id="path92"
     inkscape:connector-curvature="0"
     style="fill:#fcd9b1" />
  <path
     d="m 40.388961,58.32516 c 0.1186,11.6705 -0.5469,14.6269 -3.1885,21.2309 -1.682,4.1946 -4.2307,6.4544 -6.3822,7.2541 -3.756,1.3982 -7.3985,0.8771 -10.0402,-1.3311 -3.0853,-2.5901 -2.4146,-7.3934 -1.3982,-14.6269 0.9648,-6.8929 2.1102,-12.7385 6.8465,-17.2736 1.0371,-0.9906 3.5858,-4.1534 8.0951,-3.5807 3.6529,0.4695 6.0314,4.7673 6.0675,8.3273 z"
     id="path94"
     inkscape:connector-curvature="0"
     style="fill:#f9dab4" />
  <path
     d="m 65.262661,96.11776 c 0.0929,-0.0465 0.1858,-0.0929 0.2787,-0.1393 0.0154,-0.1084 0.0309,-0.2219 0.0412,-0.3302 -0.1032,0.1547 -0.2064,0.3095 -0.3199,0.4695 z"
     id="path96"
     inkscape:connector-curvature="0"
     style="fill:#b7670a" />
  <path
     d="m 58.049861,98.09886 c 0.4437,0 0.8668,-0.031 1.2693,-0.0929 2.1411,-0.3302 4.1275,-1.0009 5.9436,-1.8883 0.1135,-0.1599 0.2167,-0.3147 0.3198,-0.4695 0.1187,-0.8565 0.2323,-1.7233 0.3406,-2.59 -2.8583,1.2382 -5.5567,1.9141 -7.7907,1.9141 -0.4334,0 -0.8461,-0.0258 -1.2434,-0.0774 -2.2186,-0.2889 -5.7476,-1.9967 -9.5758,-4.4629 -0.1961,1.326 -0.3922,2.652 -0.5985,3.9676 3.4206,1.8832 7.868,3.6993 11.3351,3.6993 z"
     id="path98"
     inkscape:connector-curvature="0"
     style="fill:#e0c6aa" />
  <path
     d="m 46.714261,94.39956 c 0.2064,-1.3156 0.4025,-2.6416 0.5985,-3.9675 -0.5675,-0.3664 -1.1454,-0.7481 -1.7232,-1.1506 -0.2167,1.2641 -0.4437,2.6107 -0.6913,4.0604 0.5572,0.3457 1.1711,0.7017 1.816,1.0577 z"
     id="path100"
     inkscape:connector-curvature="0"
     style="fill:#94898b" />
  <path
     d="m 44.898561,93.34186 c 0.2477,-1.4498 0.4747,-2.7964 0.6913,-4.0604 -1.1299,-0.774 -2.2701,-1.6046 -3.4,-2.4714 -0.0051,0 -0.0052,0 -0.0052,0 -0.0051,0 -0.0051,0.0052 -0.0051,0.0052 -0.1909,0.098 -0.3818,0.196 -0.5779,0.294 -0.2012,-0.1599 -0.4024,-0.3147 -0.5984,-0.4746 -0.1961,1.0886 -0.387,2.1824 -0.5779,3.2607 0.5882,0.5108 1.197,1.0319 1.8316,1.5736 0.6088,0.5263 1.5272,1.1815 2.6416,1.8729 z m -6.1139,-4.8963 c 0.1858,-1.0525 0.3766,-2.1153 0.5624,-3.1782 -1.1918,-1.0164 -2.3475,-2.0534 -3.4361,-3.1059 -0.5005,0.8255 -1.0371,1.5375 -1.5891,2.1463 1.295,1.2589 2.7706,2.6313 4.4628,4.1378 z"
     id="path102"
     inkscape:connector-curvature="0"
     style="fill:#e58708" />
  <path
     d="m 65.541661,95.97836 c 1.2176,-0.614 2.3578,-1.326 3.4155,-2.0947 0.098,-0.8307 0.1857,-1.6562 0.2631,-2.4662 -1.1093,0.6191 -2.2133,1.1712 -3.2968,1.6407 -0.1083,0.8668 -0.2219,1.7336 -0.3406,2.59 -0.0103,0.1084 -0.0257,0.2219 -0.0412,0.3302 z"
     id="path104"
     inkscape:connector-curvature="0"
     style="fill:#e58708" />
  <path
     d="m 40.424861,89.89546 c 0.1909,-1.0783 0.3818,-2.1721 0.5779,-3.2607 -0.5572,-0.4489 -1.1145,-0.9081 -1.6562,-1.3673 -0.1857,1.0629 -0.3766,2.1257 -0.5623,3.1782 0.5262,0.4695 1.0731,0.9493 1.6406,1.4498 z"
     id="path106"
     inkscape:connector-curvature="0"
     style="fill:#e3c5a7" />
  <path
     d="m 70.323961,92.82596 c 2.4456,-2.0122 4.3546,-4.2616 5.6341,-6.1087 -1.7645,1.4859 -3.5909,2.8015 -5.4173,3.9211 -0.062,0.7172 -0.1342,1.4498 -0.2168,2.1876 z"
     id="path108"
     inkscape:connector-curvature="0"
     style="fill:#e58708" />
  <path
     d="m 68.957161,93.88366 c 0.4746,-0.3405 0.9287,-0.6965 1.3672,-1.0577 0.0826,-0.7377 0.1548,-1.4704 0.2167,-2.1875 -0.4437,0.2734 -0.8823,0.5314 -1.3208,0.779 -0.0774,0.8101 -0.1651,1.6356 -0.2631,2.4662 z"
     id="path110"
     inkscape:connector-curvature="0"
     style="fill:#e3c5a7" />
  <path
     d="m 34.321161,84.30776 c 0.552,-0.6088 1.0886,-1.3208 1.5891,-2.1463 -0.9958,-0.9545 -1.9348,-1.9245 -2.7913,-2.8789 -9.4365,-10.5149 -9.9215,-14.4824 -9.937,-16.1696 0,-0.0258 0,-0.0516 0,-0.0774 0,-0.1289 0,-0.2425 0,-0.3456 0,-0.0568 0,-0.1084 0,-0.16 0,-0.0103 0,-0.0206 0,-0.0309 0,-0.0103 10e-5,-0.0155 -0.0051,-0.0207 0,-0.0051 0,-0.0051 0,-0.0103 0,-0.0722 0,-0.1444 -0.0052,-0.2218 v -0.0052 c 0,-0.0103 0,-0.0155 0,-0.0206 0,-0.0103 0,-0.0155 0,-0.0258 0,0 0,0 0,-0.0052 -0.0052,-0.4282 0.0103,-0.8668 0.0516,-1.3105 -0.4024,2.6055 -0.2993,5.8301 0.8152,8.8071 1.4343,3.8231 2.6623,7.2231 10.2827,14.6217 z"
     id="path112"
     inkscape:connector-curvature="0"
     style="fill:#e0c6aa" />
  <path
     d="m 58.132661,94.97226 c 2.234,0 4.9323,-0.6759 7.7906,-1.9142 1.0835,-0.4695 2.1876,-1.0215 3.2969,-1.6406 0.4385,-0.2477 0.8771,-0.5057 1.3208,-0.7791 1.8264,-1.1196 3.6528,-2.4352 5.4174,-3.9211 0.1857,-0.16 0.3766,-0.3251 0.5623,-0.485 0.6243,-0.5469 1.2383,-1.1093 1.8368,-1.6975 -6.5989,6.4441 -14.792,10.4375 -20.2248,10.4375 z m 0.2631,-6.5524 c 1.1041,0 2.2701,-0.0929 3.498,-0.3199 1.9606,-0.3664 4.4629,-1.1506 9.6481,-4.6693 3.8231,-2.5952 10.7934,-7.8216 18.9091,-17.6606 3.0441,-3.6941 3.1679,-6.3821 6.3771,-8.482 3.673499,-2.3991 8.218499,-2.8377 10.272499,-3.0337 0.309,-0.031 0.603,-0.0568 0.882,-0.0826 -1.981,1.1919 -4.576,2.5178 -7.8783,3.4362 0.3405,-0.098 0.6707,-0.1961 1.0009,-0.2993 4.2724,-1.3414 7.2594,-3.3381 9.2094,-4.6382 1.569,-1.0422 4.54,-2.9667 3.973,-4.0141 -0.067,-0.1186 -0.196,-0.1702 -0.382,-0.1702 -0.712,0 -2.198,0.7739 -3.56,1.5426 -1.357,0.774 -2.585,1.5427 -2.776,1.5427 -0.01,0 -0.015,0 -0.02,-0.0051 -0.15,-0.2167 8.76,-8.1364 7.955,-9.3179 -0.082,-0.1187 -0.216,-0.1754 -0.386,-0.1754 -1.517,0 -6.125,4.2152 -6.563,4.5815 -0.908,0.7533 -1.708,1.4601 -1.852,1.4601 -0.006,0 -0.016,-0.0051 -0.016,-0.0103 -0.144,-0.1445 8.977,-9.3075 7.78,-10.4736 -0.067,-0.067 -0.154,-0.098 -0.258,-0.098 -0.897,0 -3.162,2.2082 -5.267,4.4113 -2.105,2.2031 -4.05,4.4061 -4.303,4.4061 -0.005,0 -0.011,-0.0052 -0.016,-0.0052 -0.335,-0.2734 6.955,-9.1992 5.928,-10.2723 -0.072,-0.0774 -0.165,-0.1084 -0.283,-0.1084 -1.022,0 -3.72,2.8377 -6.682,6.9498 -0.66,0.9183 -1.579,1.8006 -2.4814,2.5074 -1.191799,0.939 -2.357899,1.5685 -2.873799,1.5685 -0.1341,0 -0.2219,-0.0413 -0.258,-0.129 -0.1754,-0.4128 2.548799,-5.5515 1.4498,-6.1191 -0.0515,-0.0258 -0.1032,-0.0412 -0.1599,-0.0412 -1.2176,0 -4.0656,5.4328 -4.6125,8.2344 0,0 -0.387,3.8128 -1.3466,4.8756 -1.9554,2.1669 -4.5248,4.2926 -13.2493,9.6068 -0.8978,0.5469 -1.8677,1.1299 -2.9047,1.749 -0.3148,0.1909 -0.6347,0.3818 -0.9649,0.5778 -1.9451,1.1557 -3.6219,2.1722 -5.1078,3.0493 -0.423,0.2528 -0.8357,0.4953 -1.233,0.7223 -0.6243,0.3663 -1.2177,0.6965 -1.7749,1.0009 -2.6158,1.4085 -4.5506,2.1515 -6.4441,2.1515 -0.6758,0 -1.3466,-0.0929 -2.0379,-0.2838 -1.3982,-0.387 -2.6829,-1.1506 -4.1843,-2.3888 -0.325,1.8058 -0.9596,3.8489 -1.135,4.4113 -0.6965,2.2494 -1.3621,4.3958 -3.1111,6.6917 -0.6707,0.8771 -2.3218,3.044 -4.5455,4.3339 1.2641,0.5933 2.5952,1.1299 4.0037,1.5788 1.8419,0.5881 4.5145,1.4085 7.7804,1.4085 z m 20.0029,-3.9263 c 0.3044,-0.2993 0.6037,-0.5985 0.8977,-0.9081 -0.294,0.3096 -0.5933,0.6088 -0.8977,0.9081 z m 21.5456,-26.8443 c 0.0207,-0.0052 0.0465,-0.0103 0.0723,-0.0207 -0.0258,0.0104 -0.0516,0.0155 -0.0723,0.0207 z m 0.0877,-0.0207 c 0.0207,-0.0051 0.0413,-0.0155 0.0671,-0.0206 -0.0258,0.0051 -0.0464,0.0155 -0.0671,0.0206 z"
     id="path114"
     inkscape:connector-curvature="0"
     style="fill:url(#paint3_linear)" />
  <path
     d="m 55.402861,69.99566 c -0.0103,-0.0155 -0.2683,-0.2838 -0.6294,-0.5675 0,0.0103 -0.0052,0.0206 -0.0052,0.0258 0.2167,0.1909 0.4283,0.3714 0.6346,0.5417 z"
     id="path116"
     inkscape:connector-curvature="0"
     style="fill:#e0a496" />
  <path
     d="m 46.610761,85.43256 c 2.2237,-1.2898 3.8748,-3.4568 4.5455,-4.3339 1.749,-2.2959 2.4146,-4.4422 3.1111,-6.6917 0.1754,-0.5624 0.81,-2.6055 1.135,-4.4113 -0.2063,-0.1703 -0.4179,-0.3508 -0.6345,-0.5417 -0.289,1.1557 -0.6295,2.1875 -0.9029,3.0131 -0.7327,2.1979 -2.3785,7.1199 -6.8827,11.0256 -0.2476,0.2167 -0.8152,0.7068 -1.6252,1.3105 0.4076,0.2166 0.8255,0.423 1.2537,0.6294 z"
     id="path118"
     inkscape:connector-curvature="0"
     style="fill:url(#paint4_linear)" />
  <path
     d="m 100.01606,57.62866 c 0.005,0 0.0104,0 0.0155,0 -0.005,0 -0.0103,0 -0.0155,0 z m 0.0826,-0.0207 c 0,0 0,0 0.005,0 -0.005,0 -0.005,0 -0.005,0 z"
     id="path120"
     inkscape:connector-curvature="0"
     style="fill:#f7ebed" />
  <path
     d="m 58.132661,94.97226 c -0.4334,0 -0.8462,-0.0258 -1.2435,-0.0774 -2.2185,-0.2889 -5.7475,-1.9967 -9.5758,-4.4629 3.8283,2.4662 7.3573,4.174 9.5758,4.4629 0.3973,0.0516 0.8101,0.0774 1.2435,0.0774 z"
     id="path122"
     inkscape:connector-curvature="0"
     style="fill:#dcb9a3" />
  <path
     d="m 47.312761,90.43206 c -0.5675,-0.3663 -1.1454,-0.7481 -1.7232,-1.1505 0.5778,0.4024 1.1557,0.7842 1.7232,1.1505 z"
     id="path124"
     inkscape:connector-curvature="0"
     style="fill:#9a8488" />
  <path
     d="m 45.589861,89.28146 c -1.1299,-0.7739 -2.2701,-1.6046 -3.4,-2.4714 1.1299,0.8668 2.2701,1.6975 3.4,2.4714 z"
     id="path126"
     inkscape:connector-curvature="0"
     style="fill:#e08216" />
  <path
     d="m 58.132261,94.97226 c 5.4328,0 13.626,-3.9934 20.2248,-10.4374 0.0155,-0.0155 0.031,-0.031 0.0413,-0.0413 0.3044,-0.2993 0.6036,-0.5985 0.8977,-0.9081 13.8065,-14.3276 18.517,-25.3584 20.6479,-25.9362 0.0206,-0.0052 0.0464,-0.0103 0.0722,-0.0207 0.005,0 0.0103,0 0.0155,0 0.0206,-0.0051 0.0412,-0.0155 0.067,-0.0206 0,0 1e-4,0 0.005,0 3.3017,-0.9184 5.8967,-2.2443 7.8787,-3.4361 -0.279,0.0258 -0.573,0.0515 -0.883,0.0825 -2.053,0.196 -6.5984,0.6346 -10.271899,3.0337 -3.2091,2.0999 -3.333,4.7879 -6.377,8.482 -8.1157,9.839 -15.0861,15.0655 -18.9092,17.6606 -5.1852,3.5187 -7.6875,4.303 -9.648,4.6693 -1.228,0.227 -2.394,0.3199 -3.4981,0.3199 -3.2659,0 -5.9384,-0.8204 -7.7803,-1.4085 -1.4085,-0.4489 -2.7397,-0.9855 -4.0037,-1.5788 -1.0319,0.5985 -2.1876,1.0061 -3.4258,1.0061 -0.1032,0 -0.2064,-0.0052 -0.3096,-0.0104 -0.1909,0.1084 -0.3818,0.2167 -0.583,0.3251 -0.0103,0.0051 -0.0207,0.0103 -0.031,0.0155 0,0 -0.0051,0 -0.0051,0.0051 -0.0104,0 -0.0155,0.0052 -0.0207,0.0103 -0.0052,0 -0.0103,0.0052 -0.0155,0.0052 -0.0051,0.0051 -0.0103,0.0052 -0.0154,0.0103 -0.0052,0.0052 -0.0103,0.0052 -0.0155,0.0103 1.1299,0.8668 2.2701,1.6975 3.4,2.4714 0.5779,0.4024 1.1557,0.7842 1.7233,1.1505 3.8282,2.4662 7.3572,4.174 9.5758,4.4629 0.3972,0.0516 0.81,0.0774 1.2434,0.0774 z"
     id="path128"
     inkscape:connector-curvature="0"
     style="fill:url(#paint5_linear)" />
  <path
     d="m 43.184861,86.43866 c 1.2382,0 2.3939,-0.4076 3.4258,-1.0061 -0.4282,-0.2063 -0.8461,-0.4127 -1.2537,-0.6294 -0.6707,0.4953 -1.5117,1.068 -2.4817,1.6252 0.1032,0.0051 0.2064,0.0103 0.3096,0.0103 z"
     id="path130"
     inkscape:connector-curvature="0"
     style="fill:url(#paint6_linear)" />
  <path
     d="m 23.182861,62.53006 c -0.2063,-4.8704 2.5746,-10.6902 6.8775,-11.9027 2.9202,-0.8203 5.7682,0.1857 8.5182,1.749 5.1026,2.8944 6.1448,6.3667 11.6808,11.8976 1.8419,1.8419 3.3433,3.3433 4.6589,4.5454 -0.3095,1.4137 -0.7326,2.6777 -1.0525,3.6477 -0.7326,2.1979 -2.3785,7.12 -6.8826,11.0256 -0.5417,0.4747 -2.5745,2.2289 -5.3812,3.6167 -3.1112,-2.4558 -6.0985,-5.1697 -8.4821,-7.8268 -10.7573,-11.9904 -9.8854,-15.4678 -9.937,-16.7525 z"
     id="path132"
     inkscape:connector-curvature="0"
     style="fill:#ffedd9" />
  <path
     d="m 30.482961,101.84456 c -4.4267,-1.4395 -14.5185,-3.7458 -15.1377,-3.7458 -0.0051,0 -0.0051,0 -0.0102,0 -0.4695,0.0362 2.7241,1.9039 6.3563,2.7345 3.627,0.8307 8.7916,1.0113 8.7916,1.0113 z"
     id="path134"
     inkscape:connector-curvature="0"
     style="fill:#a9681b" />
  <path
     d="m 41.601361,87.10936 c 0.196,-0.098 0.3869,-0.196 0.5778,-0.2941 -0.1909,0.0981 -0.3818,0.1961 -0.5778,0.2941 z m 0.583,-0.2992 c 0,0 0,0 0.0052,0 -0.0052,0 -0.0052,0 -0.0052,0 z"
     id="path136"
     inkscape:connector-curvature="0"
     style="fill:#e19c42" />
  <path
     d="m 42.189561,86.81016 c 0.0052,-0.0052 0.0103,-0.0052 0.0155,-0.0103 -0.0052,0.0051 -0.0103,0.0051 -0.0155,0.0103 z m 0.031,-0.0207 c 0.0051,0 0.0103,-0.0051 0.0154,-0.0051 -0.0051,0 -0.0103,0.0051 -0.0154,0.0051 z m 0.0361,-0.0154 c 0,-0.0052 0.0051,-0.0052 0.0051,-0.0052 0,0 -0.0051,0 -0.0051,0.0052 z"
     id="path138"
     inkscape:connector-curvature="0"
     style="fill:url(#paint7_linear)" />
  <path
     d="m 23.182461,62.49906 c 0,-0.0103 0,-0.0154 -0.0052,-0.0206 0.0052,0.0052 0.0052,0.0103 0.0052,0.0206 z m -0.0052,-0.0309 c 0,-0.0723 0,-0.1445 -0.0052,-0.2219 0.0052,0.0774 0.0052,0.1496 0.0052,0.2219 z m -0.0052,-0.227 c 0,-0.0104 0,-0.0155 0,-0.0207 0,0.0052 0,0.0103 0,0.0207 z m 0,-0.0465 c 0,0 0,0 0,-0.0051 0,0.0051 0,0.0051 0,0.0051 z"
     id="path140"
     inkscape:connector-curvature="0"
     style="fill:#dec5aa" />
  <path
     d="m 41.601761,87.10936 c 0.196,-0.098 0.3869,-0.196 0.5778,-0.2941 0,0 0,-0.0051 0.0052,-0.0051 0,0 0,0 0.0051,0 0.0052,-0.0052 0.0104,-0.0052 0.0155,-0.0103 0.0052,-0.0052 0.0103,-0.0052 0.0155,-0.0103 0.0051,0 0.0103,-0.0052 0.0155,-0.0052 0.0051,-0.0052 0.0103,-0.0103 0.0206,-0.0103 0,-0.0052 0.0051,-0.0052 0.0051,-0.0052 0.0104,-0.0051 0.0207,-0.0103 0.031,-0.0154 1.2228,-0.6553 2.2598,-1.357 3.0595,-1.9503 -8.6471,-4.5609 -13.6878,-12.042 -15.669,-15.0654 -3.8644,-5.8972 -5.0924,-10.4529 -5.7889,-12.0936 -0.485,1.4859 -0.7429,3.0543 -0.7223,4.5454 0,0.0052 0,0.0052 0,0.0052 0,0.0103 0,0.0154 0,0.0258 0,0.0051 0,0.0103 0,0.0206 v 0.0052 c 0.0052,0.0773 0.0052,0.1496 0.0052,0.2218 0,0.0052 0,0.0052 0,0.0103 0.0052,0.0052 0.0051,0.0103 0.0051,0.0207 0,0.0103 0,0.0206 0,0.0309 0,0.0516 0,0.1032 0,0.1599 0,0.1032 0,0.2167 0,0.3457 0,0.0258 0,0.0516 0,0.0774 0.0155,1.6871 0.5005,5.6547 9.937,16.1695 2.3836,2.6571 5.3709,5.371 8.4821,7.8268 z"
     id="path142"
     inkscape:connector-curvature="0"
     style="fill:#f2ddc8" />
  <path
     d="m 30.482961,101.84456 c -3.9469,0.2064 -13.9045,-3.5497 -15.1479,-3.7457 -1.2434,-0.1961 -5.8095299,13.0171 -5.19041,14.0901 0.62429,1.068 17.51101,5.216 17.78441,3.973 0.2683,-1.244 2.5539,-14.3174 2.5539,-14.3174 z"
     id="path144"
     inkscape:connector-curvature="0"
     style="fill:#ffb65f" />
  <path
     d="m 82.855261,38.67306 c -0.2631,-0.3509 -0.4488,0.583 -1.8677,0.1754 -0.2476,-0.0722 -2.6261,-1.1505 -3.6167,-1.3053 -1.2434,-0.1961 -2.2237,0.3921 -2.4507,0.5056 -1.5891,0.7946 -2.5075,2.6468 -2.3166,2.8428 0.1703,0.1651 0.9545,-0.9286 2.5694,-1.166 0.4128,-0.0619 1.4704,-0.3921 2.5281,0.2528 0.5882,0.3509 0.6397,0.614 1.1299,1.068 0.7739,0.7172 2.3114,0.7069 3.3433,0.0207 0.9493,-0.6346 1.0112,-1.9555 0.681,-2.394 z"
     id="path146"
     inkscape:connector-curvature="0"
     style="fill:#3d0375" />
  <path
     d="m 64.921761,26.73626 c 0,-5e-4 -0.0051,-0.001 -0.0051,-0.0016 0,6e-4 0.0051,0.0011 0.0051,0.0016 z m -0.0051,-0.0021 c -0.0052,-5e-4 -0.0052,-10e-4 -0.0052,-0.0015 0,5e-4 0,0.001 0.0052,0.0015 z m -0.0103,-0.0021 c 0,-5e-4 0,-0.001 0,-0.001 0,0 0,5e-4 0,0.001 z m -0.0052,-0.002 c 0,-5e-4 0,-5e-4 0,-0.0011 0,6e-4 0,6e-4 0,0.0011 z m -0.0052,-0.0031 c -0.0051,0 -0.0051,0 -0.0051,-5e-4 0,5e-4 0,5e-4 0.0051,5e-4 z m 18.2591,-1.876 c 0,-5e-4 0,-0.001 -0.0052,-0.002 0.0052,10e-4 0.0052,0.0015 0.0052,0.002 z m -0.0103,-0.0113 c 0,-10e-4 0,-0.0021 -0.0052,-0.0026 0.0052,5e-4 0.0052,0.0016 0.0052,0.0026 z m -0.0103,-0.0114 c 0,-0.001 0,-0.0025 -0.0052,-0.0036 0.0052,0.0011 0.0052,0.0026 0.0052,0.0036 z m -0.0104,-0.0113 c 0,-0.0016 1e-4,-0.0031 -0.0051,-0.0047 0.0052,0.0016 0.0051,0.0031 0.0051,0.0047 z m -0.0103,-0.0109 c 0,-0.002 0,-0.0036 -0.0051,-0.0056 0.0051,0.0015 0.0051,0.0036 0.0051,0.0056 z m -0.0103,-0.0113 c 0,-0.0021 0,-0.0041 -0.0052,-0.0062 0.0052,0.0021 0.0052,0.0041 0.0052,0.0062 z m -0.0052,-0.0103 c -0.0103,-0.0067 -0.0154,-0.0129 -0.0206,-0.0196 0.0052,0.0067 0.0103,0.0129 0.0206,0.0196 z"
     id="path148"
     inkscape:connector-curvature="0"
     style="fill:#400f60" />
  <path
     d="m 65.340561,28.70716 c 0.356,0.0011 0.4025,-0.9415 1.2435,-2.2304 0.4798,-0.7357 1.0009,-1.539 1.8161,-1.6603 0.0412,-0.0062 0.0825,-0.0093 0.1238,-0.0093 0.3611,0 0.8203,0.2064 1.6406,0.5805 1.2847,0.5876 1.3776,0.8301 1.9709,0.8812 0.0671,0.0062 0.1394,0.0093 0.2167,0.0093 0.5521,0 1.2693,-0.1687 1.651,-0.6836 0.5057,-0.6914 -0.0309,-1.4235 0.4128,-1.8677 0.1496,-0.1471 0.356,-0.2177 0.6501,-0.2177 0.423,0 1.0164,0.1486 1.8419,0.4256 1.7748,0.599 2.9357,1.2362 3.6786,1.6082 0.8513,0.4231 1.8935,0.9395 2.8325,1.2847 0.1084,-0.9189 0.1394,-1.4839 -0.2631,-1.9766 0,-5e-4 0,-0.001 -0.0052,-0.0021 0,-0.0031 -0.0051,-0.0061 -0.0051,-0.0092 0,-0.0011 0,-0.0021 -0.0052,-0.0026 0,-0.0031 -0.0051,-0.0057 -0.0051,-0.0088 0,-0.001 0,-0.0026 -0.0052,-0.0036 0,-0.0026 0,-0.0052 -0.0052,-0.0077 0,-0.0016 1e-4,-0.0031 -0.0051,-0.0047 0,-0.0021 0,-0.0041 -0.0052,-0.0062 0,-0.0021 0,-0.0041 -0.0051,-0.0057 0,-0.002 0,-0.0036 -0.0052,-0.0056 0,-0.0021 0,-0.0042 -0.0052,-0.0062 0,-0.0016 0,-0.0031 0,-0.0042 -0.0103,-0.0067 -0.0154,-0.0128 -0.0206,-0.0196 -0.583,-0.6227 -0.9545,-0.1382 -3.0079,-0.9338 -1.8419,-0.7136 -2.0586,-1.3038 -3.7354,-1.7635 -0.7017,-0.1929 -1.3208,-0.3622 -1.8574,-0.3622 -0.3457,0 -0.6604,0.0723 -0.9441,0.258 -1.1815,0.7853 -0.6244,2.8464 -1.4499,3.1126 -0.0516,0.0166 -0.1031,0.0238 -0.1495,0.0238 -0.6914,0 -1.2744,-1.4983 -2.652,-1.5798 -0.0413,-0.0026 -0.0774,-0.0036 -0.1187,-0.0036 -1.2743,0 -2.4403,1.2011 -2.786,1.5596 -0.8358,0.8591 -1.0938,1.665 -1.4137,1.665 -0.0103,0 -0.0258,-0.0016 -0.0413,-0.0047 0,-5e-4 -0.0051,-0.001 -0.0051,-0.0015 v -5e-4 c -0.0052,-5e-4 -0.0052,-10e-4 -0.0052,-0.0016 l -0.0051,-5e-4 c 0,-5e-4 0,-0.001 0,-0.001 -0.0052,-5e-4 -0.0052,-5e-4 -0.0052,-10e-4 0,-6e-4 0,-6e-4 0,-0.0011 -0.0052,-5e-4 -0.0052,-0.001 -0.0052,-0.002 -0.0051,0 -0.0051,0 -0.0051,-6e-4 -0.258,-0.1037 -0.1651,-0.745 -0.387,-1.4368 -0.0722,0.552 -0.0825,1.1861 0.0568,1.861 0.1135,0.5721 0.4127,1.5555 0.779,1.5565 z"
     id="path150"
     inkscape:connector-curvature="0"
     style="fill:url(#paint8_linear)" />
  <path
     d="m 60.964861,30.33386 c 0.4798,0 0.8616,-0.1316 0.9494,-0.3302 0.1754,-0.3942 -0.8669,-0.9638 -0.676,-1.5045 0.1909,-0.5365 1.3157,-0.2559 1.713,-0.9333 0.2941,-0.4989 0.0309,-1.2393 -0.3096,-1.6603 -0.4334,-0.5294 -1.068,-0.648 -1.5478,-0.648 -0.3766,0 -0.6604,0.0712 -0.6811,0.0779 -1.1247,0.3003 -1.5735,1.3363 -1.6612,1.5561 -0.3199,0.793 -0.3509,1.9853 0.4127,2.7494 0.5005,0.5005 1.2228,0.6929 1.8006,0.6929 z"
     id="path152"
     inkscape:connector-curvature="0"
     style="fill:url(#paint9_linear)" />
  <path
     d="m 79.290161,31.81926 c 0.2167,-0.6604 0.6759,-1.1036 1.0216,-0.9901 0.3456,0.1145 0.4488,0.7424 0.227,1.4034 -0.2167,0.6604 -0.6707,1.1041 -1.0164,0.9901 -0.3457,-0.1146 -0.4489,-0.7425 -0.2322,-1.4034 z"
     id="path154"
     inkscape:connector-curvature="0"
     style="fill:#331118" />
  <path
     d="m 81.916861,28.39456 c -0.062,-0.2369 -0.3509,-0.3199 -1.2435,-0.5923 -1.5942,-0.4886 -1.5787,-0.4984 -1.6561,-0.4866 -0.6295,0.096 -1.1764,0.9514 -2.2753,2.6623 -0.0723,0.114 -0.4282,0.6645 -0.3715,0.7079 0.0671,0.051 0.5572,-0.7069 1.5168,-1.3198 0.5418,-0.3457 0.9545,-0.6104 1.5117,-0.6176 0.9545,-0.0124 1.3467,0.7404 1.9555,0.5056 0.3663,-0.1403 0.6398,-0.5706 0.5624,-0.8595 z"
     id="path156"
     inkscape:connector-curvature="0"
     style="fill:#3d0375" />
  <path
     d="m 65.572061,53.28446 c 0,-0.0052 0,-0.0052 0,-0.0052 0,0 0,0 0,0.0052 z m -0.0051,-0.0103 c 0,-0.0052 0,-0.0052 0,-0.0103 0,0.0051 0,0.0051 0,0.0103 z m 0,-0.0155 c -0.0052,0 -0.0052,-0.0052 -0.0052,-0.0103 0,0.0051 0,0.0103 0.0052,0.0103 z m -0.0052,-0.0103 c -0.0309,-0.0877 -0.067,-0.1754 -0.1135,-0.2528 0.0465,0.0774 0.0826,0.1651 0.1135,0.2528 z m -0.1135,-0.2528 c 0,-0.0052 -0.0052,-0.0103 -0.0052,-0.0155 0,0.0052 0.0052,0.0103 0.0052,0.0155 z"
     id="path158"
     inkscape:connector-curvature="0"
     style="fill:#f7dbcc" />
  <path
     d="m 65.479361,54.64136 c 0.1599,-0.4901 0.2063,-0.9648 0.0928,-1.3569 0,-0.0052 0,-0.0052 0,-0.0052 0,-0.0051 -0.0051,-0.0051 -0.0051,-0.0051 0,-0.0052 0,-0.0052 0,-0.0103 0,0 0,-1e-4 0,-0.0052 -0.0052,0 -0.0052,-0.0052 -0.0052,-0.0103 -0.0309,-0.0877 -0.067,-0.1755 -0.1135,-0.2528 0,-0.0052 -0.0052,-0.0104 -0.0052,-0.0155 -0.423,-0.7017 -1.233,-0.4231 -1.7644,-1.2434 -0.1961,-0.3044 -0.2735,-0.6346 -0.2735,-1.0216 0,-0.4798 0.1187,-1.0525 0.2735,-1.78 0.3199,-1.522 0.5314,-2.5384 1.3465,-3.0079 0.2219,-0.1238 0.4437,-0.1858 0.7636,-0.1858 0.3973,0 0.9494,0.0981 1.8316,0.289 2.4559,0.5469 3.1111,0.8822 4.3597,1.1454 0.97,0.2012 1.909,0.3972 2.8325,0.3972 0.5314,0 1.0525,-0.067 1.5736,-0.2321 -0.1393,0.0103 -0.2889,0.0103 -0.4385,0.0103 -0.7946,0 -1.7284,-0.0877 -2.9305,-0.3096 -3.2298,-0.5933 -5.7992,-3.1008 -6.537,-3.7044 -1.8935,-1.5633 -2.8325,-3.0492 -3.5445,-3.0492 -0.0671,0 -0.129,0.0103 -0.1909,0.0361 -0.4747,0.196 -0.3508,0.9597 -0.7275,3.0131 -0.3766,2.0483 -0.9338,3.658 -1.2434,4.5609 -0.9803,2.8325 -1.6716,3.3381 -1.3466,4.2565 0.3251,0.9184 1.393,1.4343 3.5239,1.9709 0.8719,0.2167 1.718,0.3869 2.5281,0.5159 z"
     id="path160"
     inkscape:connector-curvature="0"
     style="fill:url(#paint10_linear)" />
  <defs
     id="defs239">
    <linearGradient
       id="paint0_linear"
       x1="146.37601"
       y1="49.1343"
       x2="55.411201"
       y2="60.3251"
       gradientUnits="userSpaceOnUse"
       gradientTransform="translate(1.3855611,9.5829599)">
      <stop
         stop-color="#F4BDC1"
         id="stop162" />
      <stop
         offset="0.0819368"
         stop-color="#F4BDC1"
         id="stop164" />
      <stop
         offset="1"
         stop-color="#F599A2"
         id="stop166" />
    </linearGradient>
    <linearGradient
       id="paint1_linear"
       x1="146.375"
       y1="49.1343"
       x2="55.410301"
       y2="60.3251"
       gradientUnits="userSpaceOnUse"
       gradientTransform="translate(1.3855611,9.5829599)">
      <stop
         stop-color="#EDB1B7"
         id="stop169" />
      <stop
         offset="0.0819368"
         stop-color="#EDB1B7"
         id="stop171" />
      <stop
         offset="1"
         stop-color="#EE929C"
         id="stop173" />
    </linearGradient>
    <linearGradient
       id="paint2_linear"
       x1="83.358704"
       y1="30.4109"
       x2="50.162998"
       y2="30.4109"
       gradientUnits="userSpaceOnUse"
       gradientTransform="translate(1.3855611,9.5829599)">
      <stop
         stop-color="#F4BDC1"
         id="stop176" />
      <stop
         offset="0.0819368"
         stop-color="#F4BDC1"
         id="stop178" />
      <stop
         offset="1"
         stop-color="#F599A2"
         id="stop180" />
    </linearGradient>
    <linearGradient
       id="paint3_linear"
       x1="114.171"
       y1="55.882702"
       x2="22.505699"
       y2="55.882702"
       gradientUnits="userSpaceOnUse"
       gradientTransform="translate(1.3855611,9.5829599)">
      <stop
         stop-color="#F4BDC1"
         id="stop183" />
      <stop
         offset="0.0819368"
         stop-color="#F4BDC1"
         id="stop185" />
      <stop
         offset="1"
         stop-color="#F599A2"
         id="stop187" />
    </linearGradient>
    <linearGradient
       id="paint4_linear"
       x1="114.17"
       y1="55.882801"
       x2="22.504801"
       y2="55.882801"
       gradientUnits="userSpaceOnUse"
       gradientTransform="translate(1.3855611,9.5829599)">
      <stop
         stop-color="#DD949D"
         id="stop190" />
      <stop
         offset="0.0819368"
         stop-color="#DD949D"
         id="stop192" />
      <stop
         offset="1"
         stop-color="#DE818C"
         id="stop194" />
    </linearGradient>
    <linearGradient
       id="paint5_linear"
       x1="114.171"
       y1="55.882702"
       x2="22.5054"
       y2="55.882702"
       gradientUnits="userSpaceOnUse"
       gradientTransform="translate(1.3855611,9.5829599)">
      <stop
         stop-color="#EDB1B7"
         id="stop197" />
      <stop
         offset="0.0819368"
         stop-color="#EDB1B7"
         id="stop199" />
      <stop
         offset="1"
         stop-color="#EE929C"
         id="stop201" />
    </linearGradient>
    <linearGradient
       id="paint6_linear"
       x1="114.169"
       y1="55.882702"
       x2="22.5049"
       y2="55.882702"
       gradientUnits="userSpaceOnUse"
       gradientTransform="translate(1.3855611,9.5829599)">
      <stop
         stop-color="#D98E97"
         id="stop204" />
      <stop
         offset="0.0819368"
         stop-color="#D98E97"
         id="stop206" />
      <stop
         offset="1"
         stop-color="#DA7D89"
         id="stop208" />
    </linearGradient>
    <linearGradient
       id="paint7_linear"
       x1="114.14"
       y1="55.888"
       x2="22.512899"
       y2="55.888"
       gradientUnits="userSpaceOnUse"
       gradientTransform="translate(1.3855611,9.5829599)">
      <stop
         stop-color="#E7B7B2"
         id="stop211" />
      <stop
         offset="0.0819368"
         stop-color="#E7B7B2"
         id="stop213" />
      <stop
         offset="1"
         stop-color="#E7A3A1"
         id="stop215" />
    </linearGradient>
    <linearGradient
       id="paint8_linear"
       x1="83.359497"
       y1="30.4109"
       x2="50.1637"
       y2="30.4109"
       gradientUnits="userSpaceOnUse"
       gradientTransform="translate(1.3855611,9.5829599)">
      <stop
         stop-color="#EDB1B7"
         id="stop218" />
      <stop
         offset="0.0819368"
         stop-color="#EDB1B7"
         id="stop220" />
      <stop
         offset="1"
         stop-color="#EE929C"
         id="stop222" />
    </linearGradient>
    <linearGradient
       id="paint9_linear"
       x1="83.358803"
       y1="30.410801"
       x2="50.1632"
       y2="30.410801"
       gradientUnits="userSpaceOnUse"
       gradientTransform="translate(1.3855611,9.5829599)">
      <stop
         stop-color="#E6A5AB"
         id="stop225" />
      <stop
         offset="0.0819368"
         stop-color="#E6A5AB"
         id="stop227" />
      <stop
         offset="1"
         stop-color="#E78A95"
         id="stop229" />
    </linearGradient>
    <linearGradient
       id="paint10_linear"
       x1="83.358902"
       y1="30.4109"
       x2="50.1632"
       y2="30.4109"
       gradientUnits="userSpaceOnUse"
       gradientTransform="translate(1.3855611,9.5829599)">
      <stop
         stop-color="#EDB1B7"
         id="stop232" />
      <stop
         offset="0.0819368"
         stop-color="#EDB1B7"
         id="stop234" />
      <stop
         offset="1"
         stop-color="#EE929C"
         id="stop236" />
    </linearGradient>
  </defs>
</svg>
