<svg width="172" height="109" viewBox="0 0 172 109" fill="none" xmlns="http://www.w3.org/2000/svg">
<path d="M63.2777 114.932C58.2989 109.85 40.7157 108.859 40.8705 106.373C41.0253 103.881 66.879 73.3009 67.0234 76.6854C67.1679 80.07 63.2777 114.932 63.2777 114.932Z" fill="#CC7002"/>
<path d="M92.2184 85.7505C97.2384 85.539 104.596 81.1483 110.472 74.4772C104.596 81.1483 97.2384 85.539 92.2184 85.7505ZM90.0359 79.3013C91.8159 79.3013 93.8074 79.0742 95.9279 78.4035C97.8266 77.7999 100.215 76.7216 104.931 72.594C105.137 72.4083 105.359 72.2174 105.586 72.0162L102.387 71.9956C100.912 71.9852 99.7201 70.7883 99.7201 69.3075V60.3302C97.0114 62.234 95.0457 63.173 92.8839 63.173C92.5021 63.173 92.1152 63.1421 91.7179 63.0853C90.5983 62.9202 89.52 62.5178 88.3178 61.8522C87.5336 62.8841 86.6926 63.9624 85.7897 65.082C85.2067 67.6668 83.953 71.8975 80.5633 75.6536C80.3414 75.9012 79.841 76.4533 79.1083 77.1498C80.8264 77.7999 82.6528 78.3313 84.5979 78.6976C85.9961 78.9607 87.8586 79.3013 90.0359 79.3013ZM142.132 29.1675C143.144 27.6351 143.787 26.4124 143.493 26.0822C143.418 25.9944 143.317 25.9583 143.196 25.9583C142.711 25.9583 141.887 26.5775 141.001 27.4133L141.972 28.8889C142.031 28.9766 142.085 29.0694 142.132 29.1675ZM140.143 26.108C141.399 24.02 142.291 22.1951 141.794 21.8246C141.744 21.787 141.684 21.7689 141.618 21.7689C141.098 21.7689 140.106 22.8684 138.98 24.3378L140.143 26.108ZM137.772 22.501C138.346 21.2932 138.654 20.4099 138.395 20.2381C138.325 20.1917 138.242 20.1685 138.148 20.1685C137.813 20.1685 137.336 20.4605 136.777 20.9893L137.772 22.501Z" fill="url(#paint0_linear)"/>
<path d="M91.8409 85.7608C91.9647 85.7608 92.0885 85.7557 92.2175 85.7505C92.0885 85.7557 91.9647 85.7608 91.8409 85.7608ZM91.8409 85.7608C91.8254 85.7608 91.8047 85.7608 91.7893 85.7557C88.5646 85.735 82.3011 83.1295 76.2079 79.5283C82.3011 83.1295 88.5646 85.735 91.7893 85.7557C91.8047 85.7608 91.8254 85.7608 91.8409 85.7608Z" fill="#F7EBED"/>
<path d="M91.8408 85.7608C91.9646 85.7608 92.0884 85.7557 92.2174 85.7505C97.2375 85.539 104.595 81.1483 110.471 74.4773H109.677C108.562 74.4773 107.654 73.5692 107.654 72.4548V72.0265L105.585 72.0162C105.358 72.2174 105.137 72.4083 104.93 72.5941C100.214 76.7216 97.8257 77.7999 95.927 78.4036C93.8065 79.0743 91.815 79.3013 90.035 79.3013C87.8577 79.3013 85.9952 78.9608 84.597 78.6976C82.6519 78.3313 80.8255 77.7999 79.1074 77.1498C78.3644 77.8566 77.379 78.7079 76.2078 79.5283C82.301 83.1295 88.5645 85.735 91.7892 85.7557C91.8046 85.7608 91.8253 85.7608 91.8408 85.7608ZM119.242 62.1979C120.047 60.9029 120.795 59.6646 121.481 58.478H121.11C120.377 58.478 119.717 58.1736 119.242 57.6834V62.1979Z" fill="url(#paint1_linear)"/>
<path d="M54.3777 57.7505C53.5831 52.9419 55.6314 46.8229 59.7538 45.0997C62.5553 43.9233 65.5013 44.5786 68.4216 45.791C73.8389 48.0457 75.299 51.3632 81.4696 56.1769C83.5231 57.7814 85.1947 59.0868 86.6445 60.1187C86.5104 61.5581 86.2472 62.8634 86.046 63.8644C85.5868 66.1396 84.555 71.2268 80.5616 75.6536C80.0818 76.1901 78.2811 78.1817 75.6602 79.8997C72.2705 77.8412 68.9788 75.5143 66.2856 73.1667C54.1455 62.5797 54.5892 59.0197 54.3777 57.7505Z" fill="#FFEDD9"/>
<path d="M53.1611 98.4373C54.1001 106.372 63.2683 127.959 68.5722 138.737C71.6885 145.083 74.1856 152.172 75.104 158.033C75.9398 163.363 75.2433 167.336 74.6397 171.417C74.6397 171.417 73.0815 181.958 72.1477 198.339C70.9455 219.533 70.0839 230.75 70.0839 230.75C67.5249 232.597 55.8595 234.14 55.1423 230.549C53.4294 221.989 49.0439 201.904 51.6752 172.96C52.0054 169.369 49.725 166.577 46.0051 157.569C36.259 133.944 25.7029 129.822 26.7089 117.264C27.4932 107.508 34.8608 97.5757 43.0487 96.1001C43.5544 96.0124 52.5575 93.2728 53.1611 98.4373Z" fill="#02134F"/>
<path d="M51.7008 171.943C51.9691 171.417 52.2426 170.829 52.5418 170.174C56.6281 161.16 54.9874 151.579 53.7078 146.595C53.6356 146.306 53.7182 146.642 50.2872 136.638C46.7581 126.36 46.3764 125.148 45.9275 123.022C44.9472 118.378 44.1114 114.411 44.9162 109.406C45.5818 105.274 46.9439 103.06 47.2844 101.636C46.6962 101.662 46.0977 101.683 45.5044 101.693C44.0753 105.196 41.7587 109.37 41.0261 113.529C39.7362 120.876 42.2076 122.604 46.0049 140.296C48.3524 151.233 49.6267 157.368 49.3275 165.035C50.7515 168.094 51.6079 169.998 51.7008 171.943Z" fill="#020B42"/>
<path d="M5.23474 104.035C3.62501 107.492 2.58279 112.404 5.85901 123.646C8.54189 132.866 13.1699 138.474 16.9672 147.71C20.2279 155.655 25.2686 163.43 25.6195 164.261C25.9497 165.045 24.0252 178.279 22.3536 197.56C21.5539 206.779 19.4437 228.459 20.4859 230.394C22.2865 233.742 28.194 233.82 28.7306 233.82C31.0369 233.82 32.7962 233.216 33.2451 233.041C33.2451 233.041 39.7304 209.664 45.6947 183.712C47.7326 174.843 48.8986 172.64 49.2701 166.129C49.7448 157.936 48.4653 151.749 46.0042 140.296C42.2069 122.604 39.7356 120.876 41.0254 113.529C42.2792 106.409 48.1867 99.2268 46.3138 95.476C43.3575 89.5478 29.391 94.1706 26.8629 94.2325C24.9385 94.279 9.60474 94.6453 5.23474 104.035Z" fill="#00157A"/>
<path d="M59.8524 40.2343C63.0563 41.6737 65.1769 43.0255 66.6989 44.1245C69.0825 45.8477 71.657 47.7463 73.7053 51.1257C73.9788 51.5798 75.377 53.9325 76.0374 56.8836C77.7142 64.3699 73.6486 71.3196 69.3456 78.6717C67.5244 81.7931 68.3086 79.9203 62.0348 89.2536C59.3932 93.1799 56.5555 98.1071 53.5321 100.548C52.686 101.229 51.6077 101.394 48.9609 101.548C41.9648 101.956 34.1844 101.873 29.0457 97.6583C20.7494 90.8479 21.1983 79.2599 21.4201 73.5381C21.5439 70.2877 26.3215 60.9028 35.7322 42.2568C36.6764 40.3891 37.765 38.3047 40.0919 36.9684C45.5712 33.8212 53.5012 37.3811 59.8524 40.2343Z" fill="#F9DAB4"/>
<path d="M79.9273 19.02C81.9086 17.6373 84.1735 16.0167 85.9432 13.0031C86.6655 11.7773 88.0792 9.29972 88.1256 5.845C88.1669 2.30411 86.748 -0.190435 85.6336 -2.14326C85.2467 -2.82172 81.9189 -8.57703 79.8242 -7.95274C78.2763 -7.49149 79.1225 -4.05793 76.8162 -2.6618C75.8824 -2.0953 74.3449 -2.27587 71.3163 -2.6618C67.2301 -3.18238 67.0753 -3.704 65.4037 -3.49143C65.0219 -3.44345 61.7044 -2.97393 59.5942 -0.379272C58.0515 1.51938 58.3404 3.09298 56.6894 3.87359C55.8123 4.28996 55.5389 3.93243 53.5783 4.28894C52.2885 4.52318 50.8438 4.78527 49.8429 5.5339C47.5831 7.22205 47.9133 11.1189 47.9753 11.8619C48.2435 15.0225 49.8946 17.1699 52.3349 20.265C54.8992 23.5195 56.1838 25.1468 58.0412 25.8676C60.6467 26.8767 63.959 25.7252 70.4857 23.3776C74.8918 21.7942 77.1464 20.9631 79.9273 19.02Z" fill="#3D0375"/>
<path d="M64.1706 42.4632C64.7588 43.7221 64.7949 44.6766 64.7949 45.0223C64.7949 45.5124 64.7794 47.1015 63.665 48.4429C62.1946 50.2229 59.8831 50.259 59.0009 50.2745C56.8391 50.3055 55.2861 49.3768 54.7186 49.026C52.8715 47.8857 51.9996 46.3482 51.3341 45.177C50.7872 44.2071 50.4363 42.974 49.7398 40.5078C49.2187 38.6711 49.0949 37.8198 49.5437 37.1232C49.6057 37.0304 49.7966 36.7621 50.2351 36.5041C53.5113 37.3864 56.8546 38.8877 59.8522 40.2343C61.5857 41.0134 62.9943 41.7615 64.1706 42.4632Z" fill="#FFEDD9"/>
<path d="M52.5414 16.6343C52.9335 16.528 53.6558 16.1736 54.0995 15.4931C54.5535 14.7811 54.4503 14.1011 54.5122 13.418C54.6825 11.5456 56.06 10.1975 56.4831 9.78729C58.2321 8.08005 61.3433 7.24166 63.2264 8.33493C64.0571 8.81733 64.1809 9.40602 65.3005 9.78729C65.4914 9.85179 67.1631 10.4002 68.1021 9.57989C68.6851 9.06807 68.3858 8.54544 68.8295 7.81642C69.8304 6.15768 73.2924 5.68301 75.2581 6.98576C75.9495 7.44185 75.7741 7.66575 76.6099 8.23121C78.0442 9.20427 79.6023 9.2502 80.6548 9.26826C81.9344 9.29044 82.9611 9.30851 83.9723 8.74975C85.484 7.91547 86.0877 6.27633 86.4643 5.01486C86.8565 3.68941 87.1144 2.38872 87.2795 1.17575C87.7851 2.50532 88.1463 4.03715 88.1256 5.845C88.0792 9.29972 86.6655 11.7773 85.9432 13.0031C84.1735 16.0167 81.9086 17.6373 79.9274 19.02C77.1465 20.9631 74.8918 21.7942 70.4857 23.3776C63.9591 25.7252 60.6467 26.8767 58.0413 25.8676C56.1839 25.1468 54.8992 23.5195 52.335 20.265C50.5189 17.9649 49.1464 16.187 48.4499 14.1294C49.7501 15.5462 51.1948 16.9981 52.5414 16.6343Z" fill="#2D025E"/>
<path d="M21.5804 118.611C24.0414 118.611 27.2402 118.301 30.7538 116.851C32.2913 116.217 35.5778 114.855 38.2246 111.867C39.6589 110.247 40.9642 106.527 42.1509 101.672C41.3924 101.641 40.6443 101.595 39.8962 101.528C37.9614 108.318 35.6862 111.934 32.1571 114.153C29.8406 115.608 26.7604 116.335 22.7413 116.335C19.8572 116.335 16.4881 115.959 12.5618 115.216C12.6495 115.855 12.7423 116.531 12.8507 117.243C16.4365 118.347 18.9285 118.507 18.9285 118.507C19.6611 118.559 20.5588 118.611 21.5804 118.611Z" fill="#01146B"/>
<path d="M42.1505 101.672C43.3217 96.8586 44.3794 90.9253 45.3287 84.8166C44.6838 84.4606 44.0698 84.1046 43.5126 83.7589C43.3166 84.8992 43.1102 86.1013 42.8935 87.386C41.8977 93.2213 40.9484 97.8389 39.8959 101.528C40.644 101.595 41.3921 101.641 42.1505 101.672ZM48.8216 54.6445C48.9815 52.1164 49.0641 50.1042 49.1157 48.5874C49.3427 41.9318 48.7907 38.2789 48.0322 36.4577C48.2128 39.6513 48.5172 46.9312 48.0426 53.8396C48.2902 54.1028 48.5533 54.3711 48.8216 54.6445Z" fill="#A59692"/>
<path d="M58.8104 48.6957C59.6307 48.6957 61.2817 48.5616 62.6025 47.344C63.6344 46.3895 64.496 44.754 64.1864 43.7015C64.2999 44.0936 64.2535 44.5682 64.0936 45.0584C63.2835 44.9294 62.4374 44.7591 61.5655 44.5424C59.4346 44.0059 58.3666 43.4899 58.0416 42.5716C57.7166 41.6532 58.4079 41.1476 59.3882 38.3151C59.6977 37.4122 60.255 35.8024 60.6316 33.7542C61.0083 31.7007 60.8844 30.9371 61.3591 30.7411C61.421 30.7153 61.4829 30.705 61.55 30.705C62.262 30.705 63.201 32.1909 65.0945 33.7542C65.8323 34.3578 68.4017 36.8653 71.6315 37.4586C72.8336 37.6805 73.7674 37.7682 74.562 37.7682C74.7116 37.7682 74.8612 37.7682 75.0005 37.7578C74.4794 37.9229 73.9583 37.99 73.4269 37.99C72.5034 37.99 71.5644 37.794 70.5944 37.5928C71.5695 37.794 72.5137 37.9952 73.4424 37.9952C74.1286 37.9952 74.7993 37.8868 75.47 37.5928C77.6782 36.6073 78.7256 34.0586 78.8907 33.6458C79.1951 32.9029 79.5047 31.8091 80.3456 30.3283C80.7068 29.6886 80.9906 29.281 81.4859 28.9817C82.3269 28.4658 82.946 28.7702 83.2504 28.3574C83.658 27.8002 82.8479 26.8045 82.3165 25.349C81.8986 24.2139 81.8625 23.2435 81.7955 21.303C81.7335 19.5824 81.8883 18.3838 82.0018 17.4959C82.136 16.4227 82.2082 15.8046 81.7697 15.2681C82.1721 15.7608 82.1411 16.3257 82.0328 17.2446C81.0938 16.8995 80.0515 16.383 79.2002 15.9599C78.4573 15.588 77.2964 14.9508 75.5216 14.3518C74.6961 14.0747 74.1028 13.9261 73.6797 13.9261C73.3856 13.9261 73.1793 13.9968 73.0296 14.1438C72.5859 14.5881 73.1225 15.3202 72.6169 16.0115C72.2351 16.5265 71.5179 16.6952 70.9659 16.6952C70.8885 16.6952 70.8162 16.6921 70.7492 16.6859C70.1558 16.6348 70.063 16.3923 68.7783 15.8046C67.9579 15.4306 67.4988 15.2242 67.1376 15.2242C67.0963 15.2242 67.0551 15.2273 67.0138 15.2335C66.1986 15.3547 65.6775 16.1581 65.1977 16.8938C64.3567 18.1826 64.3102 19.1252 63.9542 19.1242C63.5879 19.1232 63.2887 18.1398 63.1752 17.5676C63.0359 16.8928 63.0462 16.2587 63.1185 15.7066C63.3403 16.3985 63.2474 17.0398 63.5054 17.1435C63.1701 17.0083 63.4383 15.962 62.8089 15.0782C62.1949 14.2114 61.0031 13.8977 59.9918 13.8977C59.7803 13.8977 59.5739 13.9117 59.3882 13.937C57.7681 14.1547 56.7982 15.2882 56.4835 15.7004C54.9976 17.6589 55.1627 20.7835 56.5866 22.0289C57.5205 22.8482 58.8103 22.6868 59.1818 23.6882C59.3727 24.216 59.1921 24.7314 59.0786 25.0374C58.9445 25.396 58.8104 25.7401 58.6814 26.0667C57.6134 28.765 56.6898 30.4315 56.6898 30.4315C54.5538 34.2907 54.6313 35.4929 53.3569 36.1481C52.7739 36.4525 51.9948 36.6847 51.386 36.8343V36.8395C50.8443 36.9736 50.4418 37.0459 50.4418 37.0459C49.9827 37.7063 50.1374 38.8362 50.5966 40.5491C51.515 43.9852 52.4643 45.239 53.4755 46.307C53.8315 46.6784 55.6373 48.5874 58.4544 48.6906C58.5421 48.6958 58.6608 48.6957 58.8104 48.6957ZM59.7081 15.6746C60.1879 15.6746 60.8225 15.7933 61.2559 16.3226C61.5964 16.7436 61.8595 17.484 61.5655 17.9829C61.1682 18.6604 60.0434 18.3797 59.8525 18.9163C59.6616 19.457 60.7039 20.0266 60.5284 20.4208C60.4407 20.6194 60.0589 20.7509 59.5791 20.7509C59.0012 20.7509 58.279 20.5585 57.7785 20.0581C57.0149 19.294 57.0459 18.1016 57.3657 17.3086C57.4535 17.0888 57.9023 16.0528 59.027 15.7525C59.0477 15.7458 59.3314 15.6746 59.7081 15.6746ZM64.1864 43.6963C64.1864 43.6911 64.1813 43.6911 64.1813 43.6911C64.1813 43.6911 64.1864 43.6911 64.1864 43.6963ZM64.1813 43.6808C64.1813 43.6808 64.1813 43.6808 64.1813 43.6757C64.1813 43.6808 64.1813 43.6808 64.1813 43.6808ZM63.5312 17.1518V17.1512V17.1518ZM63.526 17.1497L63.5209 17.1492L63.526 17.1497ZM63.5209 17.1481C63.5157 17.1476 63.5157 17.1476 63.5157 17.1471C63.5157 17.1476 63.5157 17.1476 63.5209 17.1481ZM63.5157 17.1461C63.5105 17.1456 63.5106 17.145 63.5106 17.144C63.5106 17.145 63.5105 17.1456 63.5157 17.1461ZM81.7645 15.266C81.7645 15.2629 81.7593 15.2598 81.7593 15.2567C81.7593 15.2598 81.7645 15.2629 81.7645 15.266ZM81.7541 15.2541C81.7541 15.251 81.749 15.2485 81.749 15.2454C81.749 15.2485 81.7541 15.251 81.7541 15.2541ZM81.7439 15.2418C81.7439 15.2392 81.7438 15.2366 81.7387 15.234C81.7438 15.2366 81.7439 15.2392 81.7439 15.2418ZM81.7335 15.2294C81.7335 15.2273 81.7335 15.2252 81.7283 15.2232C81.7335 15.2252 81.7335 15.2273 81.7335 15.2294ZM81.7232 15.2175C81.7232 15.2154 81.7232 15.2139 81.7181 15.2118C81.7232 15.2139 81.7232 15.2154 81.7232 15.2175ZM81.7129 15.2056C81.7129 15.2041 81.7129 15.2025 81.7129 15.2015C81.7129 15.2025 81.7129 15.2041 81.7129 15.2056Z" fill="url(#paint2_linear)"/>
<path d="M47.9234 34.7912C39.1008 34.3165 39.3175 35.271 36.4592 35.6167C35.2622 35.7663 30.3969 36.4061 26.2952 39.2489C22.2915 42.0195 21.7033 45.0171 15.6617 60.6191C11.4568 71.4744 11.3588 71.0153 9.27958 76.9589C6.9011 83.7693 7.66982 82.5362 3.83123 94.8568C0.317691 106.151 -1.04954 109.494 0.874913 111.97C1.82424 113.193 2.66524 113.033 8.97001 114.462C20.3981 117.052 27.6882 116.96 32.1563 114.153C37.5994 110.727 40.0605 103.979 42.893 87.386C45.1373 74.2141 46.0041 69.1734 47.4951 59.061C49.0017 48.8505 47.9234 34.7912 47.9234 34.7912Z" fill="#FF9400"/>
<path d="M127.265 142.344C127.203 142.452 126.94 142.669 126.579 142.669H117.442H117.416L117.411 89.331C117.473 89.2227 117.736 89.006 118.097 89.006H127.234H127.26L127.265 142.344ZM117.442 146.714H126.579C129.148 146.714 131.313 144.738 131.313 142.4L131.308 88.717C131.308 86.612 129.52 84.961 127.234 84.961H118.097C115.528 84.961 113.361 86.9371 113.361 89.2743L113.366 142.958C113.366 145.063 115.156 146.714 117.442 146.714Z" fill="#CE7C05"/>
<path d="M119.304 90.1462L107.752 143.639C107.737 143.644 107.567 143.778 107.304 143.778H98.1662C98.0785 143.778 98.0166 143.763 97.9702 143.747L109.527 90.2546C109.538 90.2494 109.708 90.1153 109.971 90.1153H119.113C119.196 90.1153 119.258 90.1308 119.304 90.1462ZM98.1662 147.823H107.304C109.434 147.823 111.287 146.425 111.704 144.495L123.303 90.8118C123.545 89.6974 123.267 88.5417 122.544 87.6439C121.734 86.643 120.486 86.0703 119.113 86.0703H109.971C107.835 86.0703 105.983 87.4685 105.57 89.3981L93.9717 143.082C93.7292 144.196 94.0077 145.352 94.7301 146.249C95.5401 147.25 96.7887 147.823 98.1662 147.823Z" fill="#F9AA38"/>
<path d="M146.576 143.773L146.506 143.778H137.366C137.053 143.778 136.834 143.598 136.8 143.525L122.467 90.1204L122.534 90.1153H131.675C131.988 90.1153 132.207 90.2958 132.241 90.3629L146.576 143.773ZM137.366 147.823H146.506C147.893 147.823 149.136 147.24 149.918 146.218C150.626 145.295 150.858 144.119 150.554 142.984L136.145 89.3001C135.642 87.4272 133.762 86.0703 131.675 86.0703H122.534C121.151 86.0703 119.908 86.6533 119.123 87.6749C118.417 88.5984 118.184 89.7748 118.489 90.9098L132.896 144.593C133.399 146.466 135.28 147.823 137.366 147.823Z" fill="#FCC736"/>
<path d="M103.913 80.1939H121.239V74.2193H103.913V80.1939Z" fill="#1D5CA0"/>
<path d="M118.509 80.1939H139.678V74.2193H118.509V80.1939Z" fill="#60CAF4"/>
<path d="M105.342 90.3475H119.809C120.599 90.3475 121.239 89.7077 121.239 88.9183V83.9963C121.239 83.2069 120.599 82.562 119.809 82.562H105.342C104.553 82.562 103.913 83.2069 103.913 83.9963V88.9183C103.913 89.7077 104.553 90.3475 105.342 90.3475Z" fill="#1D5CA0"/>
<path d="M120.093 90.3475H138.097C138.97 90.3475 139.678 89.6407 139.678 88.7687V84.1459C139.678 83.274 138.97 82.562 138.097 82.562H120.093C119.221 82.562 118.509 83.274 118.509 84.1459V88.7687C118.509 89.6407 119.221 90.3475 120.093 90.3475Z" fill="#60CAF4"/>
<path d="M134.633 17.7301L141.971 28.8888C142.256 29.3222 142.407 29.833 142.407 30.3541V69.3694C142.407 70.8605 141.195 72.0678 139.705 72.0574L129.205 71.9955C127.724 71.9852 126.532 70.7882 126.532 69.3075V30.06C126.532 29.5544 126.677 29.0539 126.95 28.6257L130.5 17.7415L134.633 17.7301Z" fill="#47B4EA"/>
<path d="M131.28 18.0892L138.321 28.8888C138.606 29.3222 138.758 29.833 138.758 30.3541V69.3694C138.758 70.8605 137.545 72.0678 136.055 72.0574L125.552 71.9955C124.076 71.9852 122.884 70.7882 122.884 69.3075V30.06C122.884 29.5544 123.029 29.0539 123.297 28.6257L129.948 18.0985C130.257 17.6114 130.964 17.6063 131.28 18.0892Z" fill="#1D5CA0"/>
<path d="M126.563 21.1167H107.541V17.7404H130.892L130.794 18.0428C130.201 19.8749 128.493 21.1167 126.563 21.1167Z" fill="#47B4EA"/>
<path d="M131.634 74.4772H109.677C108.562 74.4772 107.654 73.5691 107.654 72.4547V66.2789C107.654 65.1645 108.562 64.2564 109.677 64.2564H131.634C132.751 64.2564 133.657 65.1645 133.657 66.2789V72.4547C133.657 73.5691 132.751 74.4772 131.634 74.4772Z" fill="#1F759F"/>
<path d="M121.11 58.4779H131.057C132.493 58.4779 133.657 57.3119 133.657 55.8776V35.4412C133.657 34.0069 132.493 32.8409 131.057 32.8409H121.11C119.676 32.8409 118.51 34.0069 118.51 35.4412V55.8776C118.51 57.3119 119.676 58.4779 121.11 58.4779Z" fill="#257EB3"/>
<path d="M111.467 17.7301L118.804 28.8888C119.093 29.3222 119.242 29.833 119.242 30.3541V69.3694C119.242 70.8605 118.03 72.0678 116.539 72.0574L106.039 71.9955C104.559 71.9852 103.367 70.7882 103.367 69.3075V30.06C103.367 29.5544 103.511 29.0539 103.779 28.6257L107.334 17.7415L111.467 17.7301Z" fill="#47B4EA"/>
<path d="M108.114 18.0892L115.156 28.8888C115.44 29.3222 115.595 29.833 115.595 30.3541V69.3694C115.595 70.8605 114.382 72.0678 112.891 72.0574L102.387 71.9955C100.911 71.9852 99.7193 70.7882 99.7193 69.3075V30.06C99.7193 29.5544 99.8637 29.0539 100.132 28.6257L106.783 18.0985C107.092 17.6114 107.799 17.6063 108.114 18.0892Z" fill="#257EB3"/>
<path d="M124.763 58.4779H134.707C136.143 58.4779 137.307 57.3119 137.307 55.8776V35.4412C137.307 34.0069 136.143 32.8409 134.707 32.8409H124.763C123.324 32.8409 122.163 34.0069 122.163 35.4412V55.8776C122.163 57.3119 123.324 58.4779 124.763 58.4779Z" fill="#47B4EA"/>
<path d="M134.295 44.8933C134.295 41.4107 132.457 38.5885 130.19 38.5885C127.92 38.5885 126.083 41.4107 126.083 44.8933C126.083 48.3759 127.92 51.1981 130.19 51.1981C132.457 51.1981 134.295 48.3759 134.295 44.8933Z" fill="#474747"/>
<path d="M134.995 44.8933C134.995 41.4107 133.157 38.5885 130.892 38.5885C128.622 38.5885 126.785 41.4107 126.785 44.8933C126.785 48.3759 128.622 51.1981 130.892 51.1981C133.157 51.1981 134.995 48.3759 134.995 44.8933Z" fill="#CCCCCC"/>
<path d="M134.431 44.8933C134.431 42.1898 133.005 40.0022 131.246 40.0022C129.489 40.0022 128.06 42.1898 128.06 44.8933C128.06 47.5968 129.489 49.7844 131.246 49.7844C133.005 49.7844 134.431 47.5968 134.431 44.8933Z" fill="#3279CE"/>
<path d="M131.246 49.7844C133.005 49.7844 134.431 47.5968 134.431 44.8933C134.431 47.5968 133.005 49.7844 131.246 49.7844C131.242 49.7844 131.237 49.7844 131.232 49.7844C131.237 49.7844 131.242 49.7844 131.246 49.7844ZM131.232 40.0022C131.237 40.0022 131.242 40.0022 131.246 40.0022C131.242 40.0022 131.237 40.0022 131.232 40.0022Z" fill="#8C8C8C"/>
<path d="M131.246 49.7844C133.005 49.7844 134.431 47.5968 134.431 44.8933C134.431 42.1898 133.005 40.0022 131.246 40.0022C131.242 40.0022 131.237 40.0022 131.232 40.0022C131.106 40.0022 130.98 40.0177 130.861 40.0435C132.436 40.3376 133.657 42.3962 133.657 44.8933C133.657 47.3956 132.436 49.4491 130.861 49.7431C130.98 49.7689 131.106 49.7844 131.232 49.7844C131.237 49.7844 131.242 49.7844 131.246 49.7844Z" fill="#3C618D"/>
<path d="M131.301 47.4369C132.166 47.4369 132.867 46.3019 132.867 44.8985C132.867 43.4951 132.166 42.3601 131.301 42.3601C130.433 42.3601 129.737 43.4951 129.737 44.8985C129.737 44.1504 130.072 43.5467 130.49 43.5467C130.908 43.5467 131.246 44.1504 131.246 44.8985C131.246 45.6466 130.908 46.2502 130.49 46.2502C130.072 46.2502 129.737 45.6466 129.737 44.8985C129.737 46.3019 130.433 47.4369 131.301 47.4369Z" fill="#5791D6"/>
<path d="M130.49 46.2503C130.908 46.2503 131.247 45.6466 131.247 44.8985C131.247 44.1504 130.908 43.5468 130.49 43.5468C130.072 43.5468 129.737 44.1504 129.737 44.8985C129.737 45.6466 130.072 46.2503 130.49 46.2503Z" fill="#8AB4E3"/>
<path d="M134.722 74.4772H124.748C123.319 74.4772 122.163 73.3163 122.163 71.8923V66.8413C122.163 65.4122 123.319 64.2564 124.748 64.2564H134.722C136.15 64.2564 137.307 65.4122 137.307 66.8413V71.8923C137.307 73.3163 136.15 74.4772 134.722 74.4772Z" fill="#47B4EA"/>
<path d="M109.068 82.562H131.65V80.1938H109.068V82.562Z" fill="#102968"/>
<path d="M126.151 73.0172H126.145H126.151ZM126.125 73.0172L126.12 73.012L126.125 73.0172ZM126.104 73.012C126.099 73.012 126.094 73.012 126.089 73.012C126.094 73.012 126.099 73.012 126.104 73.012ZM126.089 73.012C125.521 72.9862 125.031 72.7024 124.711 72.2845C124.948 72.398 125.217 72.4651 125.5 72.4651H132.623C133.643 72.4651 134.47 71.6396 134.47 70.6232V67.0168C134.47 66.5937 134.323 66.2119 134.086 65.8972C134.679 66.181 135.101 66.764 135.14 67.4553C135.085 66.4853 134.281 65.7166 133.296 65.7166H126.171C125.15 65.7166 124.324 66.5421 124.324 67.5637V71.1701C124.324 72.1607 125.108 72.9707 126.089 73.012ZM135.143 67.543C135.143 67.5379 135.143 67.5379 135.143 67.5327C135.143 67.5379 135.143 67.5379 135.143 67.543ZM135.142 67.5172C135.142 67.5172 135.142 67.5172 135.142 67.5121C135.142 67.5172 135.142 67.5172 135.142 67.5172ZM135.142 67.4914C135.141 67.4914 135.141 67.4863 135.141 67.4811C135.141 67.4863 135.141 67.4914 135.142 67.4914ZM135.141 67.4708C135.141 67.4708 135.14 67.4656 135.14 67.4605C135.14 67.4656 135.141 67.4708 135.141 67.4708Z" fill="#389CCD"/>
<path d="M126.171 73.0172H133.296C134.316 73.0172 135.143 72.1865 135.143 71.1701C135.143 72.1865 134.316 73.0172 133.296 73.0172H126.171C126.166 73.0172 126.156 73.0172 126.151 73.0172C126.156 73.0172 126.166 73.0172 126.171 73.0172ZM126.145 73.0172C126.14 73.0172 126.135 73.0172 126.125 73.0172C126.135 73.0172 126.14 73.0172 126.145 73.0172ZM126.12 73.012C126.114 73.012 126.109 73.012 126.104 73.012C126.109 73.012 126.114 73.012 126.12 73.012ZM135.143 67.5637C135.143 67.5533 135.143 67.5482 135.143 67.543C135.143 67.5482 135.143 67.5533 135.143 67.5637ZM135.143 67.5327C135.143 67.5275 135.142 67.5224 135.142 67.5172C135.142 67.5224 135.143 67.5275 135.143 67.5327ZM135.142 67.5121C135.142 67.5069 135.142 67.5018 135.142 67.4914C135.142 67.5018 135.142 67.5069 135.142 67.5121ZM135.141 67.4811C135.141 67.4811 135.141 67.476 135.141 67.4708C135.141 67.476 135.141 67.4811 135.141 67.4811ZM135.14 67.4605L135.14 67.4553L135.14 67.4605Z" fill="#2F83C1"/>
<path d="M126.171 73.0172H133.296C134.316 73.0172 135.143 72.1865 135.143 71.1701V67.5637C135.143 67.5533 135.143 67.5482 135.143 67.543C135.143 67.5379 135.143 67.5379 135.143 67.5327C135.143 67.5275 135.142 67.5224 135.142 67.5172C135.142 67.5172 135.142 67.5172 135.142 67.5121C135.142 67.5069 135.142 67.5018 135.142 67.4914C135.141 67.4914 135.141 67.4863 135.141 67.4811C135.141 67.4811 135.141 67.476 135.141 67.4708C135.141 67.4708 135.14 67.4656 135.14 67.4605L135.14 67.4553C135.101 66.764 134.679 66.181 134.086 65.8972C134.323 66.2119 134.47 66.5937 134.47 67.0168V70.6232C134.47 71.6396 133.643 72.4651 132.623 72.4651H125.5C125.217 72.4651 124.948 72.398 124.711 72.2845C125.031 72.7024 125.521 72.9862 126.089 73.012C126.094 73.012 126.099 73.012 126.104 73.012C126.109 73.012 126.114 73.012 126.12 73.012L126.125 73.0172C126.135 73.0172 126.14 73.0172 126.145 73.0172H126.151C126.156 73.0172 126.166 73.0172 126.171 73.0172Z" fill="#2978B4"/>
<path d="M65.2391 43.1236C65.2391 43.1236 67.5711 56.3419 66.3123 68.4768C65.0534 80.6169 62.6027 98.3858 61.3334 105.047C60.3377 110.273 59.3058 116.33 59.8527 116.8C61.3025 118.017 69.346 121.309 71.0589 116.021C72.7718 110.727 74.0152 90.4971 74.4847 83.4958C74.9491 76.4945 77.9828 56.8063 74.4074 51.2857C71.7451 47.1789 65.2391 43.1236 65.2391 43.1236Z" fill="#FF9400"/>
<path d="M0.0962062 107.967C0.168435 107.42 0.287092 106.811 0.447032 106.13C3.36209 106.93 6.2823 107.704 9.1922 108.421C11.5913 109.014 17.2099 110.402 23.9377 109.494C27.5338 109.009 29.9484 108.457 31.2744 106.785C32.5178 105.217 33.4722 101.11 33.7715 99.722C34.1069 98.1536 34.9117 92.8394 36.1035 86.1374C38.1363 74.7403 40.9224 59.1331 41.3403 54.1646C41.8769 47.736 42.1452 41.2043 42.14 34.6931C42.6818 34.6673 43.2957 34.657 44.0077 34.6621C44.0129 41.2352 43.7446 47.8341 43.1977 54.3194C42.7746 59.3756 39.9834 75.0292 37.9455 86.4624C36.8001 92.8755 35.8146 98.4064 35.6237 99.9491C35.4793 101.146 34.1636 105.887 32.6726 107.771C30.5933 110.397 27.0901 110.949 24.1905 111.341C22.5137 111.568 20.904 111.661 19.3975 111.661C14.5218 111.661 10.6575 110.706 8.74332 110.232C5.86954 109.525 2.9803 108.761 0.0962062 107.967Z" fill="#FCD9B1"/>
<path d="M64.186 111.088C63.5824 110.252 64.0106 107.275 65.383 98.9946C66.4562 92.499 67.7976 84.4194 68.1175 78.0424C68.5767 68.8174 68.7057 53.7571 67.7822 44.9449C68.2052 45.2596 68.6593 45.6053 69.1288 45.9768C69.9388 55.0005 69.7995 69.2353 69.3558 78.1043C69.0359 84.5535 67.6893 92.6692 66.611 99.1959C65.7648 104.319 64.8826 109.623 65.1973 110.366C65.8732 111.31 69.3042 113.25 71.4041 114.303C71.3576 114.524 71.3112 114.736 71.2647 114.932L70.9862 115.489C70.4083 115.2 65.2798 112.626 64.186 111.088Z" fill="#FCD9B1"/>
<path d="M39.0034 48.7422C39.122 60.4127 38.4565 63.3691 35.8149 69.9731C34.1329 74.1677 31.5842 76.4275 29.4327 77.2272C25.6767 78.6254 22.0342 78.1043 19.3925 75.8961C16.3072 73.306 16.9779 68.5027 17.9943 61.2692C18.9591 54.3763 20.1045 48.5307 24.8408 43.9956C25.8779 43.005 28.4266 39.8422 32.9359 40.4149C36.5888 40.8844 38.9673 45.1822 39.0034 48.7422Z" fill="#F9DAB4"/>
<path d="M63.8771 86.5348C63.97 86.4883 64.0629 86.4419 64.1558 86.3955C64.1712 86.2871 64.1867 86.1736 64.197 86.0653C64.0938 86.22 63.9906 86.3748 63.8771 86.5348Z" fill="#B7670A"/>
<path d="M56.6643 88.5159C57.108 88.5159 57.5311 88.4849 57.9336 88.423C60.0747 88.0928 62.0611 87.4221 63.8772 86.5347C63.9907 86.3748 64.0939 86.22 64.197 86.0652C64.3157 85.2087 64.4293 84.3419 64.5376 83.4752C61.6793 84.7134 58.9809 85.3893 56.7469 85.3893C56.3135 85.3893 55.9008 85.3635 55.5035 85.3119C53.2849 85.023 49.7559 83.3152 45.9277 80.849C45.7316 82.175 45.5355 83.501 45.3292 84.8166C48.7498 86.6998 53.1972 88.5159 56.6643 88.5159Z" fill="#E0C6AA"/>
<path d="M45.3287 84.8166C45.5351 83.501 45.7312 82.175 45.9272 80.8491C45.3597 80.4827 44.7818 80.101 44.204 79.6985C43.9873 80.9626 43.7603 82.3092 43.5127 83.7589C44.0699 84.1046 44.6838 84.4606 45.3287 84.8166Z" fill="#94898B"/>
<path d="M43.513 83.7589C43.7607 82.3091 43.9877 80.9625 44.2043 79.6985C43.0744 78.9245 41.9342 78.0939 40.8043 77.2271C40.7992 77.2271 40.7991 77.2271 40.7991 77.2271C40.794 77.2271 40.794 77.2323 40.794 77.2323C40.6031 77.3303 40.4122 77.4283 40.2161 77.5263C40.0149 77.3664 39.8137 77.2116 39.6177 77.0517C39.4216 78.1403 39.2307 79.2341 39.0398 80.3124C39.628 80.8232 40.2368 81.3443 40.8714 81.886C41.4802 82.4123 42.3986 83.0675 43.513 83.7589ZM37.3991 78.8626C37.5849 77.8101 37.7757 76.7473 37.9615 75.6844C36.7697 74.668 35.614 73.631 34.5254 72.5785C34.0249 73.404 33.4883 74.116 32.9363 74.7248C34.2313 75.9837 35.7069 77.3561 37.3991 78.8626Z" fill="#E58708"/>
<path d="M64.1561 86.3954C65.3737 85.7814 66.5139 85.0694 67.5716 84.3007C67.6696 83.47 67.7573 82.6445 67.8347 81.8345C66.7254 82.4536 65.6214 83.0057 64.5379 83.4752C64.4296 84.342 64.316 85.2088 64.1973 86.0652C64.187 86.1736 64.1716 86.2871 64.1561 86.3954Z" fill="#E58708"/>
<path d="M39.0393 80.3125C39.2302 79.2342 39.4211 78.1404 39.6172 77.0518C39.06 76.6029 38.5027 76.1437 37.961 75.6845C37.7753 76.7474 37.5844 77.8102 37.3987 78.8627C37.9249 79.3322 38.4718 79.812 39.0393 80.3125Z" fill="#E3C5A7"/>
<path d="M68.9384 83.243C71.384 81.2308 73.293 78.9814 74.5725 77.1343C72.808 78.6202 70.9816 79.9358 69.1552 81.0554C69.0932 81.7726 69.021 82.5052 68.9384 83.243Z" fill="#E58708"/>
<path d="M67.5716 84.3007C68.0462 83.9602 68.5003 83.6042 68.9388 83.243C69.0214 82.5053 69.0936 81.7726 69.1555 81.0555C68.7118 81.3289 68.2732 81.5869 67.8347 81.8345C67.7573 82.6446 67.6696 83.4701 67.5716 84.3007Z" fill="#E3C5A7"/>
<path d="M32.9356 74.7248C33.4876 74.116 34.0242 73.404 34.5247 72.5785C33.5289 71.624 32.5899 70.654 31.7334 69.6996C22.2969 59.1847 21.8119 55.2172 21.7964 53.53C21.7964 53.5042 21.7964 53.4784 21.7964 53.4526C21.7964 53.3237 21.7964 53.2101 21.7964 53.107C21.7964 53.0502 21.7964 52.9986 21.7964 52.947C21.7964 52.9367 21.7964 52.9264 21.7964 52.9161C21.7964 52.9058 21.7965 52.9006 21.7913 52.8954C21.7913 52.8903 21.7913 52.8903 21.7913 52.8851C21.7913 52.8129 21.7913 52.7407 21.7861 52.6633V52.6581C21.7861 52.6478 21.7861 52.6426 21.7861 52.6375C21.7861 52.6272 21.7861 52.622 21.7861 52.6117C21.7861 52.6117 21.7861 52.6117 21.7861 52.6065C21.7809 52.1783 21.7964 51.7397 21.8377 51.296C21.4353 53.9015 21.5384 57.1261 22.6529 60.1031C24.0872 63.9262 25.3152 67.3262 32.9356 74.7248Z" fill="#E0C6AA"/>
<path d="M56.7471 85.3893C58.9811 85.3893 61.6794 84.7134 64.5377 83.4751C65.6212 83.0056 66.7253 82.4536 67.8346 81.8345C68.2731 81.5868 68.7117 81.3288 69.1554 81.0554C70.9818 79.9358 72.8082 78.6202 74.5728 77.1343C74.7585 76.9743 74.9494 76.8092 75.1351 76.6493C75.7594 76.1024 76.3734 75.54 76.9719 74.9518C70.373 81.3959 62.1799 85.3893 56.7471 85.3893ZM57.0102 78.8369C58.1143 78.8369 59.2803 78.744 60.5082 78.517C62.4688 78.1506 64.9711 77.3664 70.1563 73.8477C73.9794 71.2525 80.9497 66.0261 89.0654 56.1871C92.1095 52.493 92.2333 49.805 95.4425 47.7051C99.116 45.306 103.661 44.8674 105.715 44.6714C106.024 44.6404 106.318 44.6146 106.597 44.5888C104.616 45.7807 102.021 47.1066 98.7187 48.025C99.0592 47.927 99.3894 47.8289 99.7196 47.7257C103.992 46.3843 106.979 44.3876 108.929 43.0875C110.498 42.0453 113.469 40.1208 112.902 39.0734C112.835 38.9548 112.706 38.9032 112.52 38.9032C111.808 38.9032 110.322 39.6771 108.96 40.4458C107.603 41.2198 106.375 41.9885 106.184 41.9885C106.174 41.9885 106.169 41.9885 106.164 41.9834C106.014 41.7667 114.924 33.847 114.119 32.6655C114.037 32.5468 113.903 32.4901 113.733 32.4901C112.216 32.4901 107.608 36.7053 107.17 37.0716C106.262 37.8249 105.462 38.5317 105.318 38.5317C105.312 38.5317 105.302 38.5266 105.302 38.5214C105.158 38.3769 114.279 29.2139 113.082 28.0478C113.015 27.9808 112.928 27.9498 112.824 27.9498C111.927 27.9498 109.662 30.158 107.557 32.3611C105.452 34.5642 103.507 36.7672 103.254 36.7672C103.249 36.7672 103.243 36.762 103.238 36.762C102.903 36.4886 110.193 27.5628 109.166 26.4897C109.094 26.4123 109.001 26.3813 108.883 26.3813C107.861 26.3813 105.163 29.219 102.201 33.3311C101.541 34.2494 100.622 35.1317 99.7196 35.8385C98.5278 36.7775 97.3617 37.407 96.8458 37.407C96.7117 37.407 96.6239 37.3657 96.5878 37.278C96.4124 36.8652 99.1366 31.7265 98.0376 31.1589C97.9861 31.1331 97.9344 31.1177 97.8777 31.1177C96.6601 31.1177 93.8121 36.5505 93.2652 39.3521C93.2652 39.3521 92.8782 43.1649 91.9186 44.2277C89.9632 46.3946 87.3938 48.5203 78.6693 53.8345C77.7715 54.3814 76.8016 54.9644 75.7646 55.5835C75.4498 55.7744 75.1299 55.9653 74.7997 56.1613C72.8546 57.317 71.1778 58.3335 69.6919 59.2106C69.2689 59.4634 68.8562 59.7059 68.4589 59.9329C67.8346 60.2992 67.2412 60.6294 66.684 60.9338C64.0682 62.3423 62.1334 63.0853 60.2399 63.0853C59.5641 63.0853 58.8933 62.9924 58.202 62.8015C56.8038 62.4145 55.5191 61.6509 54.0177 60.4127C53.6927 62.2185 53.0581 64.2616 52.8827 64.824C52.1862 67.0734 51.5206 69.2198 49.7716 71.5157C49.1009 72.3928 47.4498 74.5597 45.2261 75.8496C46.4902 76.4429 47.8213 76.9795 49.2298 77.4284C51.0717 78.0165 53.7443 78.8369 57.0102 78.8369ZM77.0131 74.9106C77.3175 74.6113 77.6168 74.3121 77.9108 74.0025C77.6168 74.3121 77.3175 74.6113 77.0131 74.9106ZM98.5587 48.0663C98.5794 48.0611 98.6052 48.056 98.631 48.0456C98.6052 48.056 98.5794 48.0611 98.5587 48.0663ZM98.6464 48.0456C98.6671 48.0405 98.6877 48.0301 98.7135 48.025C98.6877 48.0301 98.6671 48.0405 98.6464 48.0456Z" fill="url(#paint3_linear)"/>
<path d="M54.0173 60.4127C54.007 60.3972 53.749 60.1289 53.3879 59.8452C53.3879 59.8555 53.3827 59.8658 53.3827 59.871C53.5994 60.0619 53.811 60.2424 54.0173 60.4127Z" fill="#E0A496"/>
<path d="M45.2252 75.8496C47.4489 74.5598 49.1 72.3928 49.7707 71.5157C51.5197 69.2198 52.1853 67.0735 52.8818 64.824C53.0572 64.2616 53.6918 62.2185 54.0168 60.4127C53.8105 60.2424 53.5989 60.0619 53.3823 59.871C53.0933 61.0267 52.7528 62.0585 52.4794 62.8841C51.7467 65.082 50.1009 70.004 45.5967 73.9097C45.3491 74.1264 44.7815 74.6165 43.9715 75.2202C44.3791 75.4368 44.797 75.6432 45.2252 75.8496Z" fill="url(#paint4_linear)"/>
<path d="M98.6305 48.0457C98.6357 48.0457 98.6409 48.0457 98.646 48.0457C98.6409 48.0457 98.6357 48.0457 98.6305 48.0457ZM98.7131 48.025C98.7131 48.025 98.7131 48.025 98.7183 48.025C98.7131 48.025 98.7131 48.025 98.7131 48.025Z" fill="#F7EBED"/>
<path d="M56.7471 85.3893C56.3137 85.3893 55.9009 85.3635 55.5036 85.3119C53.2851 85.023 49.7561 83.3152 45.9278 80.849C49.7561 83.3152 53.2851 85.023 55.5036 85.3119C55.9009 85.3635 56.3137 85.3893 56.7471 85.3893Z" fill="#DCB9A3"/>
<path d="M45.9272 80.8491C45.3597 80.4828 44.7818 80.101 44.204 79.6986C44.7818 80.101 45.3597 80.4828 45.9272 80.8491Z" fill="#9A8488"/>
<path d="M44.2043 79.6985C43.0744 78.9246 41.9342 78.0939 40.8043 77.2271C41.9342 78.0939 43.0744 78.9246 44.2043 79.6985Z" fill="#E08216"/>
<path d="M56.7467 85.3893C62.1795 85.3893 70.3727 81.3959 76.9715 74.9519C76.987 74.9364 77.0025 74.9209 77.0128 74.9106C77.3172 74.6113 77.6164 74.3121 77.9105 74.0025C91.717 59.6749 96.4275 48.6441 98.5584 48.0663C98.579 48.0611 98.6048 48.056 98.6306 48.0456C98.6358 48.0456 98.6409 48.0456 98.6461 48.0456C98.6667 48.0405 98.6873 48.0301 98.7131 48.025C98.7131 48.025 98.7132 48.025 98.7183 48.025C102.02 47.1066 104.615 45.7807 106.597 44.5889C106.318 44.6147 106.024 44.6404 105.714 44.6714C103.661 44.8674 99.1156 45.306 95.4421 47.7051C92.233 49.805 92.1091 52.493 89.0651 56.1871C80.9494 66.0261 73.979 71.2526 70.1559 73.8477C64.9707 77.3664 62.4684 78.1507 60.5079 78.517C59.2799 78.744 58.1139 78.8369 57.0098 78.8369C53.7439 78.8369 51.0714 78.0165 49.2295 77.4284C47.821 76.9795 46.4898 76.4429 45.2258 75.8496C44.1939 76.4481 43.0382 76.8557 41.8 76.8557C41.6968 76.8557 41.5936 76.8505 41.4904 76.8453C41.2995 76.9537 41.1086 77.062 40.9074 77.1704C40.8971 77.1755 40.8867 77.1807 40.8764 77.1859C40.8764 77.1859 40.8713 77.1859 40.8713 77.191C40.8609 77.191 40.8558 77.1962 40.8506 77.2013C40.8454 77.2013 40.8403 77.2065 40.8351 77.2065C40.83 77.2116 40.8248 77.2117 40.8197 77.2168C40.8145 77.222 40.8094 77.222 40.8042 77.2271C41.9341 78.0939 43.0743 78.9246 44.2042 79.6985C44.7821 80.1009 45.3599 80.4827 45.9275 80.849C49.7557 83.3152 53.2847 85.023 55.5033 85.3119C55.9005 85.3635 56.3133 85.3893 56.7467 85.3893Z" fill="url(#paint5_linear)"/>
<path d="M41.7993 76.8557C43.0375 76.8557 44.1932 76.4481 45.2251 75.8496C44.7969 75.6433 44.379 75.4369 43.9714 75.2202C43.3007 75.7155 42.4597 76.2882 41.4897 76.8454C41.5929 76.8505 41.6961 76.8557 41.7993 76.8557Z" fill="url(#paint6_linear)"/>
<path d="M21.7973 52.9471C21.591 48.0767 24.3719 42.2569 28.6748 41.0444C31.595 40.2241 34.443 41.2301 37.193 42.7934C42.2956 45.6878 43.3378 49.1601 48.8738 54.691C50.7157 56.5329 52.2171 58.0343 53.5327 59.2364C53.2232 60.6501 52.8001 61.9141 52.4802 62.8841C51.7476 65.082 50.1017 70.0041 45.5976 73.9097C45.0559 74.3844 43.0231 76.1386 40.2164 77.5264C37.1052 75.0706 34.1179 72.3567 31.7343 69.6996C20.977 57.7092 21.8489 54.2318 21.7973 52.9471Z" fill="#FFEDD9"/>
<path d="M29.0974 92.2616C24.6707 90.8221 14.5789 88.5158 13.9597 88.5158C13.9546 88.5158 13.9546 88.5158 13.9495 88.5158C13.48 88.552 16.6736 90.4197 20.3058 91.2503C23.9328 92.081 29.0974 92.2616 29.0974 92.2616Z" fill="#A9681B"/>
<path d="M40.2158 77.5264C40.4118 77.4284 40.6027 77.3304 40.7936 77.2323C40.6027 77.3304 40.4118 77.4284 40.2158 77.5264ZM40.7988 77.2272C40.7988 77.2272 40.7988 77.2272 40.804 77.2272C40.7988 77.2272 40.7988 77.2272 40.7988 77.2272Z" fill="#E19C42"/>
<path d="M40.804 77.2272C40.8092 77.222 40.8143 77.222 40.8195 77.2169C40.8143 77.222 40.8092 77.222 40.804 77.2272ZM40.835 77.2065C40.8401 77.2065 40.8453 77.2014 40.8504 77.2014C40.8453 77.2014 40.8401 77.2065 40.835 77.2065ZM40.8711 77.1911C40.8711 77.1859 40.8762 77.1859 40.8762 77.1859C40.8762 77.1859 40.8711 77.1859 40.8711 77.1911Z" fill="url(#paint7_linear)"/>
<path d="M21.7969 52.9161C21.7969 52.9058 21.7969 52.9007 21.7917 52.8955C21.7969 52.9007 21.7969 52.9058 21.7969 52.9161ZM21.7917 52.8852C21.7917 52.8129 21.7917 52.7407 21.7865 52.6633C21.7917 52.7407 21.7917 52.8129 21.7917 52.8852ZM21.7865 52.6582C21.7865 52.6478 21.7865 52.6427 21.7865 52.6375C21.7865 52.6427 21.7865 52.6478 21.7865 52.6582ZM21.7865 52.6117C21.7865 52.6117 21.7865 52.6117 21.7865 52.6066C21.7865 52.6117 21.7865 52.6117 21.7865 52.6117Z" fill="#DEC5AA"/>
<path d="M40.2162 77.5264C40.4122 77.4284 40.6031 77.3304 40.794 77.2323C40.794 77.2323 40.794 77.2272 40.7992 77.2272C40.7992 77.2272 40.7992 77.2272 40.8043 77.2272C40.8095 77.222 40.8147 77.222 40.8198 77.2169C40.825 77.2117 40.8301 77.2117 40.8353 77.2066C40.8404 77.2066 40.8456 77.2014 40.8508 77.2014C40.8559 77.1962 40.8611 77.1911 40.8714 77.1911C40.8714 77.1859 40.8765 77.1859 40.8765 77.1859C40.8869 77.1808 40.8972 77.1756 40.9075 77.1705C42.1303 76.5152 43.1673 75.8135 43.967 75.2202C35.3199 70.6593 30.2792 63.1782 28.298 60.1548C24.4336 54.2576 23.2056 49.7019 22.5091 48.0612C22.0241 49.5471 21.7662 51.1155 21.7868 52.6066C21.7868 52.6118 21.7868 52.6118 21.7868 52.6118C21.7868 52.6221 21.7868 52.6272 21.7868 52.6376C21.7868 52.6427 21.7868 52.6479 21.7868 52.6582V52.6634C21.792 52.7407 21.792 52.813 21.792 52.8852C21.792 52.8904 21.792 52.8904 21.792 52.8955C21.7972 52.9007 21.7971 52.9058 21.7971 52.9162C21.7971 52.9265 21.7971 52.9368 21.7971 52.9471C21.7971 52.9987 21.7971 53.0503 21.7971 53.107C21.7971 53.2102 21.7971 53.3237 21.7971 53.4527C21.7971 53.4785 21.7971 53.5043 21.7971 53.5301C21.8126 55.2172 22.2976 59.1848 31.7341 69.6996C34.1177 72.3567 37.105 75.0706 40.2162 77.5264Z" fill="#F2DDC8"/>
<path d="M29.0974 92.2616C25.1505 92.468 15.1929 88.7119 13.9495 88.5159C12.7061 88.3198 8.13997 101.533 8.75909 102.606C9.38338 103.674 26.2701 107.822 26.5435 106.579C26.8118 105.335 29.0974 92.2616 29.0974 92.2616Z" fill="#FFB65F"/>
<path d="M81.4697 29.0901C81.2066 28.7392 81.0209 29.6731 79.602 29.2655C79.3544 29.1933 76.9759 28.115 75.9853 27.9602C74.7419 27.7641 73.7616 28.3523 73.5346 28.4658C71.9455 29.2604 71.0271 31.1126 71.218 31.3086C71.3883 31.4737 72.1725 30.38 73.7874 30.1426C74.2002 30.0807 75.2578 29.7505 76.3155 30.3954C76.9037 30.7463 76.9552 31.0094 77.4454 31.4634C78.2193 32.1806 79.7568 32.1703 80.7887 31.4841C81.738 30.8495 81.7999 29.5286 81.4697 29.0901Z" fill="#3D0375"/>
<path d="M63.5362 17.1533C63.5362 17.1528 63.5311 17.1523 63.5311 17.1517C63.5311 17.1523 63.5362 17.1528 63.5362 17.1533ZM63.5311 17.1512C63.5259 17.1507 63.5259 17.1502 63.5259 17.1497C63.5259 17.1502 63.5259 17.1507 63.5311 17.1512ZM63.5208 17.1491C63.5208 17.1486 63.5208 17.1481 63.5208 17.1481C63.5208 17.1481 63.5208 17.1486 63.5208 17.1491ZM63.5156 17.1471C63.5156 17.1466 63.5156 17.1466 63.5156 17.146C63.5156 17.1466 63.5156 17.1466 63.5156 17.1471ZM63.5104 17.144C63.5053 17.144 63.5053 17.144 63.5053 17.1435C63.5053 17.144 63.5053 17.144 63.5104 17.144ZM81.7695 15.268C81.7695 15.2675 81.7695 15.267 81.7643 15.266C81.7695 15.267 81.7695 15.2675 81.7695 15.268ZM81.7592 15.2567C81.7592 15.2557 81.7592 15.2546 81.754 15.2541C81.7592 15.2546 81.7592 15.2557 81.7592 15.2567ZM81.7489 15.2453C81.7489 15.2443 81.7489 15.2428 81.7437 15.2417C81.7489 15.2428 81.7489 15.2443 81.7489 15.2453ZM81.7385 15.234C81.7385 15.2324 81.7386 15.2309 81.7334 15.2293C81.7386 15.2309 81.7385 15.2324 81.7385 15.234ZM81.7282 15.2231C81.7282 15.2211 81.7282 15.2195 81.7231 15.2175C81.7282 15.219 81.7282 15.2211 81.7282 15.2231ZM81.7179 15.2118C81.7179 15.2097 81.7179 15.2077 81.7127 15.2056C81.7179 15.2077 81.7179 15.2097 81.7179 15.2118ZM81.7127 15.2015C81.7024 15.1948 81.6973 15.1886 81.6921 15.1819C81.6973 15.1886 81.7024 15.1948 81.7127 15.2015Z" fill="#400F60"/>
<path d="M63.955 19.1242C64.311 19.1253 64.3575 18.1827 65.1985 16.8938C65.6783 16.1581 66.1994 15.3548 67.0146 15.2335C67.0558 15.2273 67.0971 15.2242 67.1384 15.2242C67.4995 15.2242 67.9587 15.4306 68.779 15.8047C70.0637 16.3923 70.1566 16.6348 70.7499 16.6859C70.817 16.6921 70.8893 16.6952 70.9666 16.6952C71.5187 16.6952 72.2359 16.5265 72.6176 16.0116C73.1233 15.3202 72.5867 14.5881 73.0304 14.1439C73.18 13.9968 73.3864 13.9262 73.6805 13.9262C74.1035 13.9262 74.6969 14.0748 75.5224 14.3518C77.2972 14.9508 78.4581 15.588 79.201 15.96C80.0523 16.3831 81.0945 16.8995 82.0335 17.2447C82.1419 16.3258 82.1729 15.7608 81.7704 15.2681C81.7704 15.2676 81.7704 15.2671 81.7652 15.266C81.7652 15.2629 81.7601 15.2599 81.7601 15.2568C81.7601 15.2557 81.7601 15.2547 81.7549 15.2542C81.7549 15.2511 81.7498 15.2485 81.7498 15.2454C81.7498 15.2444 81.7498 15.2428 81.7446 15.2418C81.7446 15.2392 81.7446 15.2366 81.7394 15.2341C81.7394 15.2325 81.7395 15.231 81.7343 15.2294C81.7343 15.2273 81.7343 15.2253 81.7291 15.2232C81.7291 15.2211 81.7291 15.2191 81.724 15.2175C81.724 15.2155 81.724 15.2139 81.7188 15.2119C81.7188 15.2098 81.7188 15.2077 81.7136 15.2057C81.7136 15.2041 81.7136 15.2026 81.7136 15.2015C81.7033 15.1948 81.6982 15.1887 81.693 15.1819C81.11 14.5592 80.7385 15.0437 78.6851 14.2481C76.8432 13.5345 76.6265 12.9443 74.9497 12.4846C74.248 12.2917 73.6289 12.1224 73.0923 12.1224C72.7466 12.1224 72.4319 12.1947 72.1482 12.3804C70.9667 13.1657 71.5238 15.2268 70.6983 15.493C70.6467 15.5096 70.5952 15.5168 70.5488 15.5168C69.8574 15.5168 69.2744 14.0185 67.8968 13.937C67.8555 13.9344 67.8194 13.9334 67.7781 13.9334C66.5038 13.9334 65.3378 15.1345 64.9921 15.493C64.1563 16.3521 63.8983 17.158 63.5784 17.158C63.5681 17.158 63.5526 17.1564 63.5371 17.1533C63.5371 17.1528 63.532 17.1523 63.532 17.1518V17.1513C63.5268 17.1508 63.5268 17.1503 63.5268 17.1497L63.5217 17.1492C63.5217 17.1487 63.5217 17.1482 63.5217 17.1482C63.5165 17.1477 63.5165 17.1477 63.5165 17.1472C63.5165 17.1466 63.5165 17.1466 63.5165 17.1461C63.5113 17.1456 63.5113 17.1451 63.5113 17.1441C63.5062 17.1441 63.5062 17.1441 63.5062 17.1435C63.2482 17.0398 63.3411 16.3985 63.1192 15.7067C63.047 16.2587 63.0367 16.8928 63.176 17.5677C63.2895 18.1398 63.5887 19.1232 63.955 19.1242Z" fill="url(#paint8_linear)"/>
<path d="M59.5793 20.7509C60.0591 20.7509 60.4409 20.6193 60.5287 20.4207C60.7041 20.0265 59.6618 19.4569 59.8527 18.9162C60.0436 18.3797 61.1684 18.6603 61.5657 17.9829C61.8598 17.484 61.5966 16.7436 61.2561 16.3226C60.8227 15.7932 60.1881 15.6746 59.7083 15.6746C59.3317 15.6746 59.0479 15.7458 59.0272 15.7525C57.9025 16.0528 57.4537 17.0888 57.366 17.3086C57.0461 18.1016 57.0151 19.2939 57.7787 20.058C58.2792 20.5585 59.0015 20.7509 59.5793 20.7509Z" fill="url(#paint9_linear)"/>
<path d="M77.9046 22.2363C78.1213 21.5759 78.5805 21.1327 78.9262 21.2462C79.2718 21.3607 79.375 21.9886 79.1532 22.6496C78.9365 23.31 78.4825 23.7537 78.1368 23.6397C77.7911 23.5251 77.6879 22.8972 77.9046 22.2363Z" fill="#331118"/>
<path d="M80.5313 18.8116C80.4693 18.5747 80.1804 18.4917 79.2878 18.2193C77.6936 17.7307 77.7091 17.7209 77.6317 17.7327C77.0022 17.8287 76.4553 18.6841 75.3564 20.395C75.2841 20.509 74.9282 21.0595 74.9849 21.1029C75.052 21.1539 75.5421 20.396 76.5017 19.7831C77.0435 19.4374 77.4562 19.1727 78.0134 19.1655C78.9679 19.1531 79.3601 19.9059 79.9689 19.6711C80.3352 19.5308 80.6087 19.1005 80.5313 18.8116Z" fill="#3D0375"/>
<path d="M64.1865 43.7015C64.1865 43.6963 64.1865 43.6963 64.1865 43.6963C64.1865 43.6963 64.1865 43.6963 64.1865 43.7015ZM64.1814 43.6912C64.1814 43.686 64.1814 43.686 64.1814 43.6809C64.1814 43.686 64.1814 43.686 64.1814 43.6912ZM64.1814 43.6757C64.1762 43.6757 64.1762 43.6705 64.1762 43.6654C64.1762 43.6705 64.1762 43.6757 64.1814 43.6757ZM64.1762 43.6654C64.1453 43.5777 64.1092 43.49 64.0627 43.4126C64.1092 43.49 64.1453 43.5777 64.1762 43.6654ZM64.0627 43.4126C64.0627 43.4074 64.0575 43.4023 64.0575 43.3971C64.0575 43.4023 64.0627 43.4074 64.0627 43.4126Z" fill="#F7DBCC"/>
<path d="M64.0938 45.0584C64.2537 44.5683 64.3001 44.0936 64.1866 43.7015C64.1866 43.6963 64.1866 43.6963 64.1866 43.6963C64.1866 43.6912 64.1815 43.6912 64.1815 43.6912C64.1815 43.686 64.1815 43.686 64.1815 43.6809C64.1815 43.6809 64.1815 43.6808 64.1815 43.6757C64.1763 43.6757 64.1763 43.6705 64.1763 43.6654C64.1454 43.5777 64.1093 43.4899 64.0628 43.4126C64.0628 43.4074 64.0576 43.4022 64.0576 43.3971C63.6346 42.6954 62.8246 42.974 62.2932 42.1537C62.0971 41.8493 62.0197 41.5191 62.0197 41.1321C62.0197 40.6523 62.1384 40.0796 62.2932 39.3521C62.6131 37.8301 62.8246 36.8137 63.6397 36.3442C63.8616 36.2204 64.0834 36.1584 64.4033 36.1584C64.8006 36.1584 65.3527 36.2565 66.2349 36.4474C68.6908 36.9943 69.346 37.3296 70.5946 37.5928C71.5646 37.794 72.5036 37.99 73.4271 37.99C73.9585 37.99 74.4796 37.923 75.0007 37.7579C74.8614 37.7682 74.7118 37.7682 74.5622 37.7682C73.7676 37.7682 72.8338 37.6805 71.6317 37.4586C68.4019 36.8653 65.8325 34.3578 65.0947 33.7542C63.2012 32.1909 62.2622 30.705 61.5502 30.705C61.4831 30.705 61.4212 30.7153 61.3593 30.7411C60.8846 30.9371 61.0085 31.7008 60.6318 33.7542C60.2552 35.8025 59.698 37.4122 59.3884 38.3151C58.4081 41.1476 57.7168 41.6532 58.0418 42.5716C58.3669 43.49 59.4348 44.0059 61.5657 44.5425C62.4376 44.7592 63.2837 44.9294 64.0938 45.0584Z" fill="url(#paint10_linear)"/>
<defs>
<linearGradient id="paint0_linear" x1="146.376" y1="49.1343" x2="55.4112" y2="60.3251" gradientUnits="userSpaceOnUse">
<stop stop-color="#F4BDC1"/>
<stop offset="0.0819368" stop-color="#F4BDC1"/>
<stop offset="1" stop-color="#F599A2"/>
</linearGradient>
<linearGradient id="paint1_linear" x1="146.375" y1="49.1343" x2="55.4103" y2="60.3251" gradientUnits="userSpaceOnUse">
<stop stop-color="#EDB1B7"/>
<stop offset="0.0819368" stop-color="#EDB1B7"/>
<stop offset="1" stop-color="#EE929C"/>
</linearGradient>
<linearGradient id="paint2_linear" x1="83.3587" y1="30.4109" x2="50.163" y2="30.4109" gradientUnits="userSpaceOnUse">
<stop stop-color="#F4BDC1"/>
<stop offset="0.0819368" stop-color="#F4BDC1"/>
<stop offset="1" stop-color="#F599A2"/>
</linearGradient>
<linearGradient id="paint3_linear" x1="114.171" y1="55.8827" x2="22.5057" y2="55.8827" gradientUnits="userSpaceOnUse">
<stop stop-color="#F4BDC1"/>
<stop offset="0.0819368" stop-color="#F4BDC1"/>
<stop offset="1" stop-color="#F599A2"/>
</linearGradient>
<linearGradient id="paint4_linear" x1="114.17" y1="55.8828" x2="22.5048" y2="55.8828" gradientUnits="userSpaceOnUse">
<stop stop-color="#DD949D"/>
<stop offset="0.0819368" stop-color="#DD949D"/>
<stop offset="1" stop-color="#DE818C"/>
</linearGradient>
<linearGradient id="paint5_linear" x1="114.171" y1="55.8827" x2="22.5054" y2="55.8827" gradientUnits="userSpaceOnUse">
<stop stop-color="#EDB1B7"/>
<stop offset="0.0819368" stop-color="#EDB1B7"/>
<stop offset="1" stop-color="#EE929C"/>
</linearGradient>
<linearGradient id="paint6_linear" x1="114.169" y1="55.8827" x2="22.5049" y2="55.8827" gradientUnits="userSpaceOnUse">
<stop stop-color="#D98E97"/>
<stop offset="0.0819368" stop-color="#D98E97"/>
<stop offset="1" stop-color="#DA7D89"/>
</linearGradient>
<linearGradient id="paint7_linear" x1="114.14" y1="55.888" x2="22.5129" y2="55.888" gradientUnits="userSpaceOnUse">
<stop stop-color="#E7B7B2"/>
<stop offset="0.0819368" stop-color="#E7B7B2"/>
<stop offset="1" stop-color="#E7A3A1"/>
</linearGradient>
<linearGradient id="paint8_linear" x1="83.3595" y1="30.4109" x2="50.1637" y2="30.4109" gradientUnits="userSpaceOnUse">
<stop stop-color="#EDB1B7"/>
<stop offset="0.0819368" stop-color="#EDB1B7"/>
<stop offset="1" stop-color="#EE929C"/>
</linearGradient>
<linearGradient id="paint9_linear" x1="83.3588" y1="30.4108" x2="50.1632" y2="30.4108" gradientUnits="userSpaceOnUse">
<stop stop-color="#E6A5AB"/>
<stop offset="0.0819368" stop-color="#E6A5AB"/>
<stop offset="1" stop-color="#E78A95"/>
</linearGradient>
<linearGradient id="paint10_linear" x1="83.3589" y1="30.4109" x2="50.1632" y2="30.4109" gradientUnits="userSpaceOnUse">
<stop stop-color="#EDB1B7"/>
<stop offset="0.0819368" stop-color="#EDB1B7"/>
<stop offset="1" stop-color="#EE929C"/>
</linearGradient>
</defs>
</svg>
