<svg width="50" height="50" viewBox="0 0 50 50" fill="none" xmlns="http://www.w3.org/2000/svg">
<path d="M2.42676 28.5811H47.6327V49.9998H2.42676V28.5811Z" fill="#FFEFE4"/>
<path d="M2.42676 48.5748H47.6327V49.9404H2.42676V48.5748Z" fill="#EDD4C2"/>
<path d="M50 28.5811H0.0595703L2.42682 9.30859H47.6327L50 28.5811Z" fill="#E0734A"/>
<path d="M47.8005 10.6742L47.6329 9.30859H2.42692L2.25928 10.6742H47.8005Z" fill="#FF8354"/>
<path d="M28.3563 23.1531H6.37402V9.7612L17.3652 1.95801L28.3563 9.7612V23.1531Z" fill="#FFEFE4"/>
<path d="M6.37402 34.2072H28.3563V36.2109H6.37402V34.2072Z" fill="#E0734A"/>
<path d="M30.7301 13.3161L17.3652 3.82768L4.00076 13.3161L2.1936 10.7709L17.3652 0L32.5369 10.7709L30.7301 13.3161Z" fill="#FF8354"/>
<path d="M17.3652 1.36556L31.8922 11.6789L32.5369 10.7709L17.3652 0L2.1936 10.7709L2.83828 11.6789L17.3652 1.36556Z" fill="#FFAC8C"/>
<path d="M11.4949 12.0876H23.2359V20.2757H11.4949V12.0876Z" fill="#5FD4E3"/>
<path d="M22.2605 13.0631V19.3003H12.47V13.0631H22.2605Z" fill="#69EBFC"/>
<path d="M16.8774 12.0876H17.8528V20.2757H16.8774V12.0876Z" fill="#5FD4E3"/>
<path d="M6.37402 36.2109H28.3563V38.9569H6.37402V36.2109Z" fill="#69EBFC"/>
<path d="M6.37402 38.9569H28.3563V41.7029H6.37402V38.9569Z" fill="#5FD4E3"/>
<path d="M6.37402 41.7029H28.3563V44.4489H6.37402V41.7029Z" fill="#69EBFC"/>
<path d="M6.37402 44.4489H28.3563V47.1948H6.37402V44.4489Z" fill="#5FD4E3"/>
<path d="M6.37402 47.1945H28.3563V49.9404H6.37402V47.1945Z" fill="#69EBFC"/>
<path d="M6.37402 48.5748H28.3563V49.9404H6.37402V48.5748Z" fill="#5FD4E3"/>
<path d="M31.99 34.2072H43.731V49.9999H31.99V34.2072Z" fill="#5FD4E3"/>
<path d="M42.7558 35.1826V49.9999H32.9656V35.1826H42.7558Z" fill="#69EBFC"/>
<path d="M35.8799 42.591C35.8799 43.0307 35.5237 43.3865 35.0844 43.3865C34.6451 43.3865 34.2888 43.0307 34.2888 42.591C34.2888 42.1517 34.6451 41.7954 35.0844 41.7954C35.5237 41.7954 35.8799 42.1517 35.8799 42.591Z" fill="#5FD4E3"/>
<path d="M31.9902 48.5748H43.7312V49.9404H31.9902V48.5748Z" fill="#5FD4E3"/>
</svg>
