<svg width="83" height="71" viewBox="0 0 83 71" fill="none" xmlns="http://www.w3.org/2000/svg">
<path fill-rule="evenodd" clip-rule="evenodd" d="M37.7945 17.5972C36.4577 19.4303 35.607 21.8744 35.2425 24.685C34.5133 31.0396 37.3084 35.8055 41.5617 39.3494C45.8149 35.8055 48.61 31.0396 47.8808 24.685C47.5163 21.8744 46.5441 19.3081 45.3289 17.5972C43.0199 14.5422 39.9819 14.42 37.7945 17.5972ZM44.3567 41.4269C45.5719 42.1601 47.0302 42.8933 48.3669 43.3821C50.6759 44.4819 55.2937 45.5818 57.9672 45.9484C61.1268 46.315 64.0434 46.315 66.3523 45.8262C69.1473 45.2151 70.9701 44.1153 70.9701 42.5267C70.9701 41.5491 69.7549 40.6936 67.9321 40.2048C66.5953 39.8382 65.0155 39.8382 63.4357 39.9604C61.7344 40.0826 60.0331 40.5714 58.4533 41.3046C57.4811 41.7935 56.6305 42.4045 55.7798 43.1377C54.5646 42.8933 53.3494 42.5267 52.0126 42.1601C53.4709 40.5714 55.1722 39.2272 56.995 38.3718C58.9394 37.3941 61.0053 36.9053 63.0712 36.6609C65.1371 36.4165 67.0814 36.5387 68.7827 37.0275C72.0639 37.883 74.4943 39.8382 74.4943 42.6489C74.4943 46.1928 71.5778 48.3924 67.0814 49.2478C64.4079 49.7367 61.1268 49.8589 57.6026 49.3701C55.9013 49.1256 54.2 48.8812 52.3772 48.3924C51.7696 50.2255 51.5265 52.4251 51.7696 54.9914C53.4709 71.7332 70.4841 71.4888 76.6817 56.58C78.2615 52.6695 79.2337 48.2702 79.4767 44.7263C79.8413 40.4492 79.4767 36.1721 78.383 32.0172C77.2893 27.9845 75.588 24.074 73.2791 20.4079C69.6334 15.1532 64.894 10.8761 59.547 7.9432C48.3669 1.95525 34.7564 1.95525 23.5763 7.9432C17.9863 10.8761 13.2469 15.1532 9.72271 20.5301C7.29226 24.1962 5.59094 28.1067 4.61876 32.1394C3.52506 36.2943 3.16049 40.5714 3.52506 44.8485C3.7681 48.3924 4.74028 52.7917 6.32008 56.7022C12.3962 71.611 29.5309 71.8554 31.1107 54.9914C31.2322 53.2806 31.2322 51.8141 30.9892 50.4699C32.0829 50.2255 33.1766 49.8589 34.2703 49.4923C34.6349 51.2031 34.6349 53.1583 34.5133 55.358C32.569 75.5215 10.6949 76.1325 3.16049 57.9243C1.45917 53.6472 0.486988 48.8812 0.12242 45.0929C-0.242148 40.4492 0.12242 35.8055 1.33765 31.284C2.43135 26.8847 4.37571 22.6076 6.92769 18.6971C10.8164 12.8313 15.9204 8.18761 21.875 4.88812C27.8296 1.71084 34.5133 0 41.4401 0C48.3669 0 55.0507 1.71084 61.0053 4.88812C66.9599 8.0654 72.0639 12.7091 75.9526 18.5749C78.5046 22.4854 80.4489 26.7625 81.5426 31.1618C82.7579 35.6833 83.1224 40.327 82.7579 44.9707C82.3933 48.759 81.4211 53.525 79.7198 57.8021C72.1854 76.0103 50.4328 75.3993 48.4884 55.1136C48.2454 52.0585 48.4884 49.4923 49.2176 47.1704C48.4884 46.926 47.8808 46.6816 47.1517 46.4372C45.2073 45.5818 43.263 44.6041 41.5617 43.5043C39.8603 44.6041 37.916 45.5818 35.9716 46.4372C32.6905 47.7814 29.0448 48.759 25.5207 49.2478C21.9965 49.7367 18.7154 49.6145 16.0419 49.1256C11.424 48.2702 8.50749 45.9484 8.50749 42.5267C8.50749 39.716 10.8164 37.7608 14.2191 36.9053C15.9204 36.5387 17.8647 36.4165 19.9306 36.5387C21.9965 36.7831 24.0624 37.2719 26.0068 38.2496C28.5587 39.4716 30.9892 41.4268 32.569 44.1153C33.2981 43.8709 34.0273 43.6265 34.7564 43.2599C36.0931 42.6489 37.5514 42.0379 38.7666 41.3046C34.0272 37.2719 31.1107 31.5284 31.9614 24.1962C32.3259 20.7745 33.5412 17.7194 35.121 15.5198C36.8223 13.1979 39.1312 11.7315 41.5617 11.8537C44.1136 11.7315 46.301 13.1979 48.0024 15.5198C49.5822 17.7194 50.7974 20.8967 51.1619 24.1962C52.0126 31.6506 49.0961 37.2719 44.3567 41.4269ZM24.913 45.9484C26.2498 45.8262 27.5865 45.5818 28.9233 45.2151C27.7081 43.5043 26.1283 42.2823 24.427 41.4269C22.8472 40.6936 21.1458 40.2048 19.4445 40.0826C17.8647 39.9604 16.2849 39.9604 14.9482 40.327C13.1253 40.8158 11.9101 41.5491 11.9101 42.6489C11.9101 44.2375 13.733 45.3373 16.528 45.9484C18.8369 46.1928 21.7535 46.315 24.913 45.9484Z" fill="url(#paint0_linear)"/>
<defs>
<linearGradient id="paint0_linear" x1="41.4821" y1="48.155" x2="41.4821" y2="22.8911" gradientUnits="userSpaceOnUse">
<stop stop-color="#5EB34D"/>
<stop offset="1" stop-color="#95B632"/>
</linearGradient>
</defs>
</svg>
