<svg width="69" height="85" viewBox="0 0 69 85" fill="none" xmlns="http://www.w3.org/2000/svg">
<path fill-rule="evenodd" clip-rule="evenodd" d="M36.0374 68.4928C35.1765 68.2464 34.1925 68 33.3316 67.6304C33.7005 66.6449 33.9465 65.7826 34.3155 64.7971C35.0535 65.0435 35.9144 65.2899 36.7754 65.5362C36.5294 66.6449 36.2834 67.6304 36.0374 68.4928ZM68.016 20.2029C68.385 20.5725 68.631 20.942 69 21.3116C68.631 21.6812 68.139 21.9275 67.7701 22.2971C67.5241 21.9275 67.2781 21.558 66.9091 21.3116C67.2781 20.942 67.6471 20.5725 68.016 20.2029ZM66.1711 11.7029C66.6631 12.1957 67.1551 12.8116 67.6471 13.4275C67.0321 13.9203 66.4171 14.2899 65.8021 14.7826C65.4332 14.2899 64.9412 13.7971 64.5722 13.3043C65.0642 12.8116 65.5562 12.1957 66.1711 11.7029ZM61.2513 21.9275C61.7433 22.4203 62.2353 23.0362 62.7273 23.6522C62.1123 24.1449 61.4973 24.5145 60.8824 25.0072C60.5134 24.5145 60.0214 24.0217 59.6524 23.529C60.1444 22.913 60.6364 22.4203 61.2513 21.9275ZM32.8396 81.6739C31.4866 81.3043 30.1337 80.9348 28.7808 80.442C29.1497 79.4565 29.3957 78.5942 29.7647 77.6087C30.9947 78.1014 32.2246 78.471 33.5775 78.7174C33.3316 79.7029 33.0856 80.6884 32.8396 81.6739ZM51.0428 74.529C49.9358 74.8985 48.7059 75.1449 47.5989 75.2681C47.4759 74.2826 47.3529 73.2971 47.107 72.3116C48.2139 72.1884 49.1979 71.942 50.3048 71.6956C50.5508 72.558 50.7968 73.5435 51.0428 74.529ZM49.9358 70.0942C48.9519 70.3406 47.9679 70.587 46.861 70.7101C46.738 69.7246 46.615 68.7391 46.369 67.7536C47.2299 67.6304 48.2139 67.3841 49.0749 67.1377C49.4439 68.2464 49.6898 69.1087 49.9358 70.0942ZM48.7059 65.7826C47.8449 66.029 46.984 66.1522 46.123 66.2754C46 65.2898 45.877 64.3043 45.631 63.3188C46.369 63.1957 47.107 63.0725 47.8449 62.8261C48.2139 63.8116 48.4599 64.7971 48.7059 65.7826ZM52.2727 78.8406C50.9198 79.2101 49.6898 79.4565 48.3369 79.7029C48.2139 78.7174 48.0909 77.7319 47.8449 76.7464C49.0749 76.5 50.3048 76.2536 51.5348 76.0072C51.7808 76.9928 52.0267 77.9783 52.2727 78.8406ZM53.3797 83.2754C51.9037 83.6449 50.4278 84.0145 48.9519 84.2609C48.8289 83.2754 48.7059 82.2898 48.4599 81.3043C49.8128 81.058 51.2888 80.8116 52.6417 80.442C52.8877 81.3043 53.1337 82.2898 53.3797 83.2754ZM61.0054 69.971C60.0214 70.587 59.0374 71.2029 57.9305 71.8188C57.4385 70.9565 57.0695 70.0942 56.5775 69.2319C57.5615 68.7391 58.4225 68.1232 59.4064 67.6304C59.8984 68.3696 60.5134 69.2319 61.0054 69.971ZM58.5455 66.2754C58.0535 65.413 57.4385 64.6739 56.9465 63.8116C56.2086 64.3043 55.3476 64.7971 54.6096 65.1667C55.1016 66.029 55.4706 66.8913 55.9626 67.7536C56.7005 67.2609 57.6845 66.7681 58.5455 66.2754ZM55.9626 62.4565C55.2246 62.9493 54.4866 63.3188 53.7487 63.8116C53.2567 62.9493 52.8877 62.087 52.3957 61.2246C53.0107 60.8551 53.7487 60.4855 54.3636 60.1159C54.8556 60.8551 55.4706 61.5942 55.9626 62.4565ZM63.4652 73.7899C62.9733 72.9275 62.3583 72.1884 61.8663 71.3261C60.8824 72.0652 59.7754 72.6812 58.6685 73.1739C59.1604 74.0362 59.5294 74.8985 60.0214 75.7609C61.2513 75.2681 62.3583 74.529 63.4652 73.7899ZM66.0481 77.6087C64.8182 78.471 63.4652 79.2101 62.1123 79.9493C61.6203 79.087 61.2513 78.2246 60.7594 77.3623C61.9893 76.7464 63.2193 76.0072 64.3262 75.2681C64.9412 75.8841 65.4332 76.7464 66.0481 77.6087ZM45.877 77.8551C45.754 77.8551 45.508 77.8551 45.508 77.8551C44.4011 77.9783 43.2941 77.9783 42.1872 77.9783C42.1872 76.9928 42.1872 76.0072 42.1872 75.0217C43.2941 75.0217 44.2781 75.0217 45.262 74.8985C45.262 74.8985 45.508 74.8985 45.631 74.8985C45.754 75.8841 45.754 76.8696 45.877 77.8551ZM45.508 73.2971C45.385 73.2971 45.262 73.2971 45.139 73.2971C44.1551 73.4203 43.1711 73.4203 42.1872 73.4203C42.1872 72.4348 42.1872 71.4493 42.1872 70.4638C43.0481 70.4638 43.9091 70.4638 44.8931 70.3406H45.139C45.262 71.3261 45.385 72.3116 45.508 73.2971ZM45.016 68.7391H44.7701C43.9091 68.8623 43.0481 68.8623 42.3102 68.8623C42.3102 67.8768 42.3102 66.8913 42.3102 65.9058C43.0481 65.9058 43.7861 65.9058 44.5241 65.7826H44.7701C44.8931 66.7681 44.8931 67.7536 45.016 68.7391ZM46.369 82.1667C46.246 82.1667 46 82.1667 46 82.1667C44.7701 82.2898 43.5401 82.2899 42.1872 82.2899C42.1872 81.3043 42.1872 80.3188 42.1872 79.3333C43.4171 79.3333 44.5241 79.3333 45.754 79.2101H46.123C46.123 80.1957 46.246 81.1812 46.369 82.1667ZM57.1925 74.7754C56.0856 75.2681 54.8556 75.7609 53.6257 76.1304C53.2567 75.1449 53.0107 74.2826 52.6417 73.2971C53.7487 72.9275 54.8556 72.558 55.8396 72.0652C56.3316 72.9275 56.8235 73.913 57.1925 74.7754ZM55.3476 70.587C54.3636 71.0797 53.2567 71.4493 52.2727 71.8188C51.9037 70.8333 51.6578 69.971 51.2888 68.9855C52.2727 68.6159 53.1337 68.2464 54.1177 67.8768C54.4866 68.8623 54.9786 69.7246 55.3476 70.587ZM53.5027 66.5217C53.1337 65.6594 52.6417 64.6739 52.2727 63.8116C51.5348 64.1812 50.6738 64.4275 49.9358 64.6739C50.3048 65.6594 50.5508 66.5217 50.9198 67.5072C51.6578 67.2609 52.6417 66.8913 53.5027 66.5217ZM59.0374 78.8406C58.6685 77.9783 58.1765 76.9928 57.8075 76.1304C56.5775 76.6232 55.3476 77.1159 54.1177 77.6087C54.4866 78.5942 54.7326 79.4565 55.1016 80.442C56.4545 79.9493 57.6845 79.3333 59.0374 78.8406ZM59.6524 13.9203C60.0214 14.1667 60.2674 14.2899 60.6364 14.5362C61.2513 15.029 61.9893 15.3985 62.6043 15.8913C61.9893 16.6304 61.3743 17.4928 60.8824 18.2319C60.2674 17.7391 59.6524 17.3696 59.0374 17C58.7914 16.7536 58.4225 16.6304 58.1765 16.5072C58.6685 15.6449 59.1604 14.7826 59.6524 13.9203ZM49.5668 9.85507C50.6738 10.1014 51.9037 10.471 53.0107 10.8406C52.6417 11.8261 52.3957 12.6884 52.0267 13.6739C51.0428 13.3043 49.9358 13.058 48.9519 12.8116C49.1979 11.8261 49.3209 10.8406 49.5668 9.85507ZM47.5989 18.7246C48.4599 18.971 49.3209 19.0942 50.0588 19.4638C49.6898 20.4493 49.4439 21.3116 49.0749 22.2971C48.3369 22.0507 47.5989 21.8043 46.861 21.6812C47.2299 20.6957 47.3529 19.7101 47.5989 18.7246ZM51.5348 0.985507C53.0107 1.35507 54.4866 1.72464 55.8396 2.21739C55.4706 3.2029 55.2246 4.06522 54.8556 5.05072C53.5027 4.55797 52.1497 4.18841 50.7968 3.94203C51.0428 2.95652 51.2888 1.97101 51.5348 0.985507ZM38.6203 9.23913C39.8503 9.11594 40.9572 8.99275 42.1872 8.99275C42.1872 9.97826 42.1872 10.9638 42.1872 11.9493C41.0802 11.9493 39.9733 12.0725 38.9893 12.0725C38.8663 11.2101 38.7433 10.2246 38.6203 9.23913ZM39.7273 18.3551C40.5882 18.2319 41.4492 18.2319 42.3102 18.2319C42.3102 19.2174 42.3102 20.2029 42.3102 21.1884C41.5722 21.1884 40.8342 21.1884 39.9733 21.3116C39.8503 20.2029 39.7273 19.2174 39.7273 18.3551ZM38.1283 4.80435C39.4813 4.68116 40.8342 4.55797 42.1872 4.55797C42.1872 5.54348 42.1872 6.52899 42.1872 7.51449C40.9572 7.51449 39.7273 7.63768 38.4973 7.76087C38.3743 6.77536 38.2513 5.78986 38.1283 4.80435ZM37.6364 0.246377C39.2353 0.123188 40.7112 0 42.1872 0C42.1872 0.985507 42.1872 1.97101 42.1872 2.95652C40.8342 2.95652 39.3583 3.07971 38.0053 3.2029C37.8824 2.21739 37.7594 1.23188 37.6364 0.246377ZM28.2888 12.1957C29.3957 11.7029 30.5027 11.2101 31.6096 10.8406C31.9786 11.8261 32.2246 12.6884 32.5936 13.6739C31.6096 14.0435 30.6257 14.413 29.6417 14.9058C29.0267 14.0435 28.6578 13.058 28.2888 12.1957ZM32.1016 20.4493C32.8396 20.0797 33.7005 19.7101 34.4385 19.4638C34.8075 20.4493 35.0535 21.3116 35.4225 22.2971C34.6845 22.5435 33.9465 22.7899 33.3316 23.1594C32.9626 22.1739 32.4706 21.3116 32.1016 20.4493ZM26.3209 8.13043C27.5508 7.51449 28.7808 7.02174 30.0107 6.65217C30.3797 7.63768 30.6257 8.5 30.9947 9.48551C29.7647 9.85507 28.6578 10.3478 27.5508 10.8406C27.1818 9.85507 26.6898 8.99275 26.3209 8.13043ZM24.3529 3.94203C24.7219 4.80435 25.2139 5.66667 25.5829 6.65217C26.8128 6.03623 28.1658 5.54348 29.5187 5.05072C29.1497 4.06522 28.9037 3.2029 28.5348 2.21739C27.1818 2.83333 25.7059 3.32609 24.3529 3.94203ZM19.0642 18.6014C19.9251 17.7391 20.7861 17 21.7701 16.2609C22.385 17 23 17.8623 23.615 18.6014C22.754 19.2174 21.8931 19.9565 21.1551 20.8188C20.4171 19.9565 19.8021 19.2174 19.0642 18.6014ZM22.262 21.8043C23 22.5435 23.615 23.1594 24.3529 23.8986C24.9679 23.2826 25.7059 22.6667 26.4439 22.0507C25.8289 21.3116 25.2139 20.4493 24.5989 19.7101C23.738 20.4493 23 21.0652 22.262 21.8043ZM25.3369 25.0072C25.9519 24.3913 26.5668 23.7754 27.3048 23.2826C27.9198 24.0217 28.5348 24.8841 29.1497 25.6232C28.5348 26.1159 27.9198 26.6087 27.4278 27.1014C26.8128 26.4855 26.0749 25.7464 25.3369 25.0072ZM15.8663 15.2754C16.6043 16.0145 17.2193 16.6304 17.9572 17.3696C18.8182 16.5072 19.8021 15.6449 20.7861 14.9058C20.1711 14.1667 19.5562 13.3043 18.9412 12.5652C17.9572 13.4275 16.8503 14.2899 15.8663 15.2754ZM12.7914 12.0725C13.8984 10.9638 15.0053 9.97826 16.2353 9.11594C16.8503 9.85507 17.4652 10.7174 18.0802 11.4565C16.9733 12.3188 15.8663 13.3043 14.8824 14.2899C14.1444 13.4275 13.4064 12.6884 12.7914 12.0725ZM12.6685 27.2246C13.1604 26.1159 13.7754 25.2536 14.3904 24.1449V24.0217C15.2513 24.5145 15.9893 25.1304 16.8503 25.6232V25.7464C16.2353 26.6087 15.7433 27.5942 15.2513 28.4565C14.3904 28.2101 13.5294 27.7174 12.6685 27.2246ZM16.6043 29.3188C17.4652 29.8116 18.3262 30.1812 19.1872 30.6739C19.5562 29.8116 20.0481 29.0725 20.5401 28.3333C20.5401 28.3333 20.5401 28.3333 20.5401 28.2101C19.6791 27.7174 18.9412 27.1014 18.0802 26.6087C18.0802 26.6087 18.0802 26.6087 18.0802 26.7319C17.5882 27.5942 17.0963 28.4565 16.6043 29.3188ZM20.6631 31.413C21.0321 30.6739 21.5241 29.9348 21.893 29.1957C22.754 29.6884 23.492 30.3043 24.3529 30.7971C23.984 31.413 23.615 32.029 23.246 32.7681C22.385 32.2754 21.5241 31.9058 20.6631 31.413ZM8.60963 25.2536C9.47059 25.7464 10.3316 26.1159 11.1925 26.6087C11.8075 25.5 12.2995 24.5145 13.0374 23.4058V23.2826C12.1765 22.7899 11.4385 22.1739 10.5775 21.6812V21.8043C9.83957 22.913 9.2246 24.0217 8.60963 25.2536ZM4.5508 23.1594C5.28877 21.8043 5.90374 20.5725 6.76471 19.3406C6.76471 19.3406 6.76471 19.2174 6.8877 19.2174C7.74866 19.7101 8.48663 20.3261 9.34759 20.8188V20.942C8.60963 22.1739 7.87166 23.2826 7.25669 24.5145C6.27273 24.0217 5.41177 23.6522 4.5508 23.1594ZM9.34759 37.6957C9.47059 37.2029 9.47059 36.7101 9.59358 36.2174C9.71658 35.6014 9.83957 34.8623 10.0856 34.2464C11.0695 34.4928 11.9305 34.7391 12.9144 34.9855C12.7914 35.6014 12.6685 36.2174 12.5455 36.8333C12.4225 37.3261 12.4225 37.6957 12.2995 38.1884C11.1925 37.942 10.3316 37.8188 9.34759 37.6957ZM13.7754 38.3116C13.8984 37.8188 13.8984 37.4493 14.0214 36.9565C14.1444 36.3406 14.2674 35.8478 14.3904 35.2319C15.3743 35.4783 16.2353 35.7246 17.2193 35.971C17.0963 36.4638 16.9733 36.9565 16.8503 37.4493C16.7273 37.8188 16.7273 38.1884 16.6043 38.6812C15.7433 38.6812 14.7594 38.4348 13.7754 38.3116ZM18.3262 39.0507C18.3262 38.6812 18.4492 38.3116 18.5722 37.942C18.6952 37.4493 18.8182 36.9565 18.9412 36.4638C19.9251 36.7101 20.7861 36.9565 21.7701 37.2029C21.6471 37.5725 21.5241 38.0652 21.5241 38.4348C21.4011 38.8043 21.4011 39.0507 21.4011 39.4203C20.1711 39.2971 19.1872 39.1739 18.3262 39.0507ZM4.79679 36.9565C4.91979 36.3406 4.91979 35.8478 5.04278 35.2319C5.16578 34.4928 5.41177 33.7536 5.53476 33.0145C6.51872 33.2609 7.37968 33.5072 8.36364 33.7536C8.24064 34.4928 7.99465 35.1087 7.87166 35.8478C7.74866 36.3406 7.62567 36.9565 7.62567 37.4493C6.76471 37.3261 5.78075 37.2029 4.79679 36.9565ZM0.368984 36.3406C0.491979 35.7246 0.614973 35.1087 0.737968 34.3696C0.860963 33.5072 1.10695 32.7681 1.35294 31.9058C2.3369 32.1522 3.19786 32.3985 4.18182 32.6449C3.93583 33.3841 3.81283 34.1232 3.68984 34.9855C3.56685 35.6014 3.44385 36.2174 3.32086 36.8333C2.3369 36.587 1.35294 36.4638 0.368984 36.3406ZM9.47059 48.6594C9.2246 47.4275 9.10161 46.3188 8.97861 45.087C9.96257 44.9638 10.9465 44.9638 11.9305 44.8406C12.0535 45.9493 12.1765 47.058 12.2995 48.0435C11.4385 48.2899 10.4545 48.413 9.47059 48.6594ZM13.8984 47.7971C13.6524 46.8116 13.5294 45.7029 13.5294 44.7174C14.5134 44.5942 15.4973 44.5942 16.4813 44.471C16.6043 45.4565 16.7273 46.3188 16.8503 47.1812C15.8663 47.4275 14.8824 47.6739 13.8984 47.7971ZM18.4492 46.9348C18.3262 46.0725 18.2032 45.2101 18.0802 44.3478C19.0642 44.2246 20.0481 44.2246 21.0321 44.1014C21.0321 44.8406 21.1551 45.5797 21.2781 46.442C20.2941 46.6884 19.4332 46.8116 18.4492 46.9348ZM5.04278 49.3985C4.79679 48.0435 4.6738 46.8116 4.5508 45.3333C5.53476 45.2101 6.51872 45.2101 7.50267 45.087C7.62567 46.3188 7.74866 47.5507 7.99465 48.7826C7.0107 49.029 6.02674 49.2754 5.04278 49.3985ZM0.614973 50.2609C0.368984 48.7826 0.122995 47.3043 0 45.7029C0.983957 45.5797 1.96791 45.5797 2.95187 45.4565C3.07487 46.8116 3.19786 48.2899 3.44385 49.6449C2.45989 49.8913 1.59893 50.1377 0.614973 50.2609ZM13.1604 58.8841C12.5455 57.7754 12.0535 56.7899 11.5615 55.6812C12.4225 55.3116 13.4064 54.942 14.2674 54.5725C14.6364 55.558 15.1283 56.5435 15.7433 57.529C14.8824 57.8985 14.0214 58.3913 13.1604 58.8841ZM17.0963 56.6667C16.6043 55.8043 16.1123 54.8188 15.7433 53.8333C16.6043 53.4638 17.5882 53.0942 18.4492 52.7246C18.8182 53.587 19.1872 54.4493 19.6791 55.1884C18.8182 55.6812 17.9572 56.1739 17.0963 56.6667ZM21.0321 54.4493C20.6631 53.7101 20.1711 52.8478 19.9251 52.1087C20.7861 51.7391 21.7701 51.3696 22.631 51C22.877 51.7391 23.246 52.3551 23.615 53.0942C22.754 53.4638 21.893 53.9565 21.0321 54.4493ZM9.2246 61.1014C10.0856 60.6087 10.9465 60.1159 11.8075 59.6232C11.1925 58.5145 10.7005 57.4058 10.2086 56.2971C9.2246 56.6667 8.36364 57.0362 7.37968 57.4058C7.99465 58.6377 8.60963 59.8696 9.2246 61.1014ZM5.28877 63.3188C4.5508 61.9638 3.93583 60.6087 3.32086 59.2536C4.18182 58.8841 5.16578 58.5145 6.02674 58.1449C6.64171 59.5 7.25669 60.7319 7.87166 61.9638C7.0107 62.3333 6.14973 62.8261 5.28877 63.3188ZM20.0481 67.5072C19.1872 66.7681 18.3262 65.9058 17.4652 65.0435C18.2032 64.4275 18.9412 63.6884 19.6791 63.0725C20.4171 63.9348 21.1551 64.6739 22.016 65.413C21.4011 66.029 20.7861 66.7681 20.0481 67.5072ZM23.123 64.1812C23.738 63.442 24.4759 62.7029 25.0909 61.9638C24.3529 61.3478 23.738 60.7319 23.123 59.9928C22.385 60.6087 21.6471 61.3478 20.9091 61.9638C21.6471 62.7029 22.385 63.442 23.123 64.1812ZM26.1979 60.7319C25.5829 60.1159 24.9679 59.5 24.3529 58.8841C25.0909 58.2681 25.8289 57.529 26.5668 56.913C27.0588 57.529 27.6738 58.0217 28.1658 58.5145C27.4278 59.2536 26.8128 59.9927 26.1979 60.7319ZM17.0963 70.9565C17.7112 70.2174 18.4492 69.4783 19.0642 68.7391C18.0802 67.8768 17.2193 67.0145 16.4813 66.1522C15.7433 66.7681 15.0053 67.5072 14.2674 68.1232C15.1283 69.1087 16.1123 69.971 17.0963 70.9565ZM14.0214 74.2826C12.9144 73.2971 11.8075 72.1884 10.8235 71.0797C11.5615 70.4638 12.2995 69.7246 13.0374 69.1087C14.0214 70.0942 15.0053 71.2029 15.9893 72.0652C15.3743 72.8043 14.7594 73.5435 14.0214 74.2826ZM29.2727 73.4203C28.1658 72.9275 27.0588 72.4348 26.0749 71.8188C26.5668 70.9565 27.0588 70.0942 27.5508 69.2319C28.5348 69.7246 29.5187 70.2174 30.5027 70.7101C30.0107 71.5725 29.6417 72.4348 29.2727 73.4203ZM30.9947 69.2319C30.0107 68.8623 29.1497 68.3696 28.1658 67.8768C28.6578 67.0145 29.1497 66.1522 29.6417 65.2899C30.5027 65.7826 31.2406 66.1522 32.1016 66.5217C31.8556 67.3841 31.3636 68.2464 30.9947 69.2319ZM32.8396 65.0435C33.2086 64.1812 33.5775 63.1956 33.9465 62.3333C33.2086 62.087 32.5936 61.7174 31.8556 61.3478C31.3636 62.2101 30.8717 63.0725 30.3797 63.9348C31.2406 64.3043 31.9786 64.6739 32.8396 65.0435ZM27.4278 77.4855C27.7968 76.6232 28.1658 75.6377 28.5348 74.7754C27.4278 74.2826 26.3209 73.7899 25.2139 73.1739C24.7219 74.0362 24.2299 74.8985 23.738 75.7609C24.9679 76.3768 26.1979 76.9928 27.4278 77.4855ZM25.7059 81.6739C24.3529 81.058 23 80.442 21.6471 79.7029C22.139 78.8406 22.631 77.9783 23.123 77.1159C24.3529 77.8551 25.5829 78.471 26.9358 78.9638C26.4439 79.9493 26.0749 80.8116 25.7059 81.6739ZM39.8503 76.0072C38.6203 75.8841 37.5134 75.7609 36.2834 75.5145C36.4064 74.529 36.6524 73.5435 36.7754 72.558C37.8824 72.8043 38.8663 72.9275 39.9733 72.9275C39.9733 74.0362 39.8503 75.0217 39.8503 76.0072ZM40.2193 71.4493C39.2353 71.3261 38.1283 71.2029 37.1444 71.0797C37.2674 70.0942 37.5134 69.1087 37.6364 68.1232C38.4973 68.2464 39.4813 68.3696 40.3422 68.4928C40.3422 69.4783 40.2193 70.4638 40.2193 71.4493ZM40.5882 66.8913C39.7273 66.7681 38.8663 66.7681 38.0053 66.5217C38.1283 65.5362 38.3743 64.5507 38.4973 63.5652C39.2353 63.6884 39.9733 63.8116 40.7112 63.8116C40.7112 64.9203 40.5882 65.9058 40.5882 66.8913ZM39.4813 80.442C38.1283 80.3188 36.7754 80.1956 35.5455 79.9493C35.6685 78.9638 35.9144 77.9783 36.0374 76.9928C37.2674 77.2391 38.4973 77.3623 39.7273 77.4855C39.6043 78.471 39.6043 79.4565 39.4813 80.442ZM39.1123 85C37.6364 84.8768 36.1604 84.6304 34.6845 84.3841C34.8075 83.3985 35.0535 82.413 35.1765 81.4275C36.5294 81.6739 37.8824 81.9203 39.3583 81.9203C39.2353 83.029 39.2353 84.0145 39.1123 85ZM52.2727 17.7391C53.1337 18.1087 53.9947 18.4783 54.8556 18.971C54.3636 19.8333 53.9947 20.6957 53.5027 21.558C52.7647 21.1884 52.0267 20.8188 51.1658 20.4493C51.5348 19.587 51.9037 18.6014 52.2727 17.7391ZM57.3155 5.17391C58.6685 5.66667 59.8984 6.28261 61.2513 7.02174C60.7594 7.88406 60.3904 8.74638 59.8984 9.6087C58.6685 8.99275 57.5615 8.37681 56.3316 7.88406C56.5775 7.02174 56.9465 6.15942 57.3155 5.17391ZM44.0321 11.3333C45.139 11.3333 46.246 11.4565 47.3529 11.7029C47.2299 12.6884 46.984 13.6739 46.861 14.6594C45.877 14.5362 44.8931 14.413 43.9091 14.2899C43.9091 13.3043 44.0321 12.3188 44.0321 11.3333ZM43.7861 15.8913C44.7701 15.8913 45.631 16.0145 46.615 16.1377C46.492 17.1232 46.246 18.1087 46.123 19.0942C45.262 18.971 44.4011 18.8478 43.6631 18.8478C43.6631 17.8623 43.7861 16.8768 43.7861 15.8913ZM44.5241 2.34058C46 2.46377 47.3529 2.58696 48.7059 2.83333C48.5829 3.81884 48.3369 4.80435 48.2139 5.78985C46.861 5.54348 45.631 5.42029 44.2781 5.42029C44.4011 4.31159 44.5241 3.32609 44.5241 2.34058ZM33.9465 12.442C34.8075 12.1957 35.5455 12.0725 36.4064 11.8261C36.5294 11.8261 37.0214 11.7029 37.1444 11.7029C37.2674 12.6884 37.5134 13.6739 37.6364 14.6594C37.3904 14.6594 37.1444 14.7826 37.0214 14.7826C36.2834 14.9058 35.5455 15.1522 34.8075 15.2754C34.4385 14.2899 34.1925 13.4275 33.9465 12.442ZM35.1765 16.8768C35.4225 17.8623 35.6685 18.7246 35.9144 19.7101C36.5294 19.587 37.1444 19.3406 37.7594 19.2174C38.0054 19.2174 38.1283 19.0942 38.3743 19.0942C38.2513 18.1087 38.0053 17.1232 37.8824 16.1377C37.7594 16.1377 37.2674 16.2609 37.2674 16.2609C36.5294 16.5072 35.9144 16.6304 35.1765 16.8768ZM31.4866 3.81884C32.5936 3.57246 33.5775 3.32609 34.6845 3.07971C35.0535 2.95652 35.2995 2.95652 35.6685 2.95652C35.7914 3.94203 36.0374 4.92754 36.1604 5.91304C35.9144 5.91304 35.5455 6.03623 35.2995 6.03623C34.3155 6.28261 33.3316 6.4058 32.3476 6.77536C32.1016 5.66667 31.7326 4.80435 31.4866 3.81884ZM22.016 13.058C22.139 13.058 22.262 12.8116 22.385 12.8116C23.369 12.1957 24.3529 11.5797 25.3369 10.9638C25.8289 11.8261 26.3209 12.6884 26.6898 13.5507C25.7059 14.0435 24.8449 14.6594 23.984 15.2754C23.984 15.2754 23.738 15.3986 23.615 15.5217C23.123 14.6594 22.631 13.9203 22.016 13.058ZM24.5989 16.8768C25.2139 17.7391 25.7059 18.4783 26.3209 19.3406L26.5668 19.2174C27.3048 18.7246 28.1658 18.2319 28.9037 17.7391C28.4118 16.8768 27.9198 16.0145 27.5508 15.1522C26.6898 15.6449 25.8289 16.1377 24.9679 16.7536C24.8449 16.6304 24.7219 16.7536 24.5989 16.8768ZM27.1818 20.5725L27.4278 20.4493C28.1658 19.9565 28.9037 19.4638 29.6417 19.0942C30.1337 19.9565 30.6257 20.8188 30.9947 21.6812C30.2567 22.0507 29.6417 22.4203 29.0267 22.913L28.7808 23.0362C28.2888 22.1739 27.7968 21.4348 27.1818 20.5725ZM19.5562 9.48551C20.1711 10.3478 20.6631 11.087 21.2781 11.9493C21.4011 11.9493 21.5241 11.7029 21.6471 11.7029C22.631 10.9638 23.738 10.3478 24.7219 9.85507C24.2299 8.99275 23.738 8.13043 23.369 7.26812C22.262 7.88406 21.1551 8.62319 20.0481 9.36232C19.9251 9.23913 19.6791 9.36232 19.5562 9.48551ZM13.6524 21.3116C14.3904 20.3261 15.2513 19.3406 15.9893 18.3551C16.7273 18.971 17.4652 19.7101 18.2032 20.3261C17.4652 21.1884 16.7273 22.0507 15.9893 23.0362C15.2513 22.4203 14.3904 21.8043 13.6524 21.3116ZM17.3422 23.8986C18.0802 24.5145 18.9412 25.0072 19.6791 25.6232C20.2941 24.8841 20.9091 24.0217 21.5241 23.2826C20.7861 22.6667 20.0481 21.9275 19.3102 21.3116C18.5722 22.1739 17.9572 23.0362 17.3422 23.8986ZM20.9091 26.6087C21.5241 25.8696 22.016 25.1304 22.754 24.3913C23.492 25.0072 24.2299 25.7464 24.9679 26.3623C24.3529 26.9783 23.861 27.5942 23.369 28.3333C22.508 27.8406 21.7701 27.2246 20.9091 26.6087ZM10.0856 18.6014C10.8235 19.2174 11.6845 19.7101 12.4225 20.3261C13.1604 19.2174 14.0214 18.2319 14.8824 17.2464C14.1444 16.6304 13.4064 15.8913 12.6685 15.2754C11.8075 16.3841 10.9465 17.4928 10.0856 18.6014ZM8.36364 31.6594C8.73262 30.4275 9.2246 29.3188 9.71658 28.087C10.5775 28.4565 11.5615 28.8261 12.4225 29.3188C11.9305 30.4275 11.5615 31.5362 11.1925 32.6449C10.2086 32.2754 9.2246 31.9058 8.36364 31.6594ZM12.6685 33.0145C13.0374 31.9058 13.4064 30.9203 13.8984 29.9348C14.7594 30.3043 15.7433 30.6739 16.6043 31.1667C16.2353 32.029 15.8663 33.0145 15.4973 34C14.5134 33.6304 13.5294 33.3841 12.6685 33.0145ZM16.9733 34.3696C17.2193 33.5072 17.5882 32.5217 17.9572 31.6594C18.8182 32.029 19.8021 32.3986 20.6631 32.8913C20.2941 33.6304 20.0481 34.4928 19.8021 35.2319C18.8182 34.9855 17.9572 34.7391 16.9733 34.3696ZM4.18182 30.3043C5.16578 30.5507 6.02674 30.9203 7.0107 31.1667C7.37968 29.9348 7.87166 28.7029 8.36364 27.471C7.50267 27.1014 6.51872 26.7319 5.65775 26.2391C5.04278 27.5942 4.5508 28.9493 4.18182 30.3043ZM6.64171 43.1159C6.64171 41.8841 6.64171 40.529 6.76471 39.2971C7.74866 39.4203 8.73262 39.4203 9.71658 39.5435C9.59358 40.6522 9.59358 41.8841 9.59358 42.9928C8.60963 43.1159 7.62567 43.1159 6.64171 43.1159ZM11.1925 43.1159C11.1925 42.0072 11.1925 40.8985 11.3155 39.7899C12.2995 39.913 13.2834 39.913 14.2674 40.0362C14.1444 41.0217 14.1444 42.0072 14.1444 42.9928C13.1604 43.1159 12.1765 43.1159 11.1925 43.1159ZM15.7433 42.9928C15.7433 42.0072 15.7433 41.1449 15.8663 40.1594C16.8503 40.2826 17.8342 40.2826 18.8182 40.4058C18.6952 41.2681 18.6952 42.1304 18.6952 42.9928C17.7112 42.9928 16.7273 42.9928 15.7433 42.9928ZM2.2139 43.2391C2.2139 41.7609 2.2139 40.4058 2.3369 38.9275C3.32086 39.0507 4.30481 39.0507 5.28877 39.1739C5.16578 40.529 5.16578 41.7609 5.16578 43.1159C4.18182 43.2391 3.19786 43.2391 2.2139 43.2391ZM8.73262 54.5725C8.36364 53.3406 7.99465 52.2319 7.62567 51C8.60963 50.7536 9.59358 50.5072 10.4545 50.3841C10.7005 51.4928 11.0695 52.6014 11.4385 53.7101C10.5775 53.9565 9.59358 54.3261 8.73262 54.5725ZM12.9144 53.0942C12.5455 52.1087 12.1765 51 11.9305 49.8913C12.9144 49.6449 13.8984 49.3986 14.7594 49.1522C15.0053 50.1377 15.2513 51.1232 15.6203 51.9855C14.8824 52.4783 13.8984 52.7246 12.9144 53.0942ZM17.2193 51.6159C18.2032 51.2464 19.0642 51 20.0481 50.6304C19.8021 49.8913 19.5562 49.029 19.3102 48.2899C18.3262 48.5362 17.3422 48.7826 16.4813 49.029C16.6043 49.7681 16.9733 50.6304 17.2193 51.6159ZM4.5508 56.1739C4.05882 54.8188 3.68984 53.4638 3.32086 52.1087C4.30481 51.8623 5.28877 51.6159 6.14973 51.3696C6.39572 52.6014 6.8877 53.8333 7.25669 55.0652C6.39572 55.4348 5.53476 55.8043 4.5508 56.1739ZM14.5134 65.0435C13.8984 64.3043 13.2834 63.442 12.7914 62.5797C12.6684 62.3333 12.4225 62.087 12.2995 61.8406C13.1604 61.3478 13.8984 60.7319 14.7594 60.2391C14.8824 60.4855 15.0053 60.7319 15.2513 60.9783C15.7433 61.7174 16.3583 62.4565 16.8503 63.1956C15.9893 63.8116 15.2513 64.4275 14.5134 65.0435ZM18.0802 62.087C18.8182 61.471 19.5562 60.8551 20.4171 60.2391C19.9251 59.6232 19.4332 59.0072 19.0642 58.2681C18.9412 58.0217 18.8182 57.8985 18.6952 57.6522C17.8342 58.1449 17.0963 58.7609 16.2353 59.2536C16.3583 59.3768 16.6043 59.8696 16.7273 59.9928C16.9733 60.7319 17.4652 61.471 18.0802 62.087ZM21.5241 59.2536C21.0321 58.6377 20.6631 58.0217 20.1711 57.4058C20.0481 57.2826 19.8021 56.913 19.8021 56.7899C20.6631 56.2971 21.4011 55.6812 22.262 55.1884C22.385 55.3116 22.508 55.558 22.631 55.6812C23 56.2971 23.369 56.7899 23.861 57.2826C23.123 58.0217 22.385 58.6377 21.5241 59.2536ZM11.0695 67.7536C11.8075 67.1377 12.5455 66.5217 13.4064 65.9058C12.7914 65.0435 12.1765 64.3043 11.5615 63.442C11.4385 63.1956 11.1925 62.9493 11.0695 62.5797C10.2086 63.0725 9.47059 63.6884 8.60963 64.1812C8.85562 64.4275 8.97861 64.7971 9.2246 65.0435C9.71658 66.029 10.3316 66.8913 11.0695 67.7536ZM23.123 72.8043C23 72.8043 22.877 72.6812 22.754 72.558C21.7701 71.942 20.9091 71.3261 20.0481 70.587C20.6631 69.8478 21.2781 69.1087 21.893 68.2464C22.754 68.8623 23.492 69.4783 24.3529 70.0942L24.5989 70.2174C24.2299 71.0797 23.615 71.942 23.123 72.8043ZM25.5829 68.9855C26.0749 68.1232 26.6898 67.3841 27.1818 66.5217L26.9358 66.3986C26.1979 65.9058 25.4599 65.413 24.7219 64.7971C24.107 65.5362 23.492 66.2754 22.877 67.1377C23.615 67.7536 24.4759 68.3696 25.2139 68.8623C25.3369 68.7391 25.5829 68.8623 25.5829 68.9855ZM28.0428 65.0435L27.7968 64.9203C27.0588 64.4275 26.4439 63.9348 25.7059 63.442C26.3209 62.7029 26.9358 61.9638 27.5508 61.1014C28.1658 61.5942 28.7808 61.9638 29.3957 62.4565C29.3957 62.4565 29.5187 62.5797 29.6417 62.5797C29.0267 63.442 28.5348 64.3043 28.0428 65.0435ZM20.7861 76.5C21.2781 75.6377 21.8931 74.8985 22.385 74.0362C22.385 74.0362 22.139 73.913 22.016 73.7899C21.0321 73.1739 20.0481 72.4348 19.1872 71.6956C18.5722 72.4348 17.9572 73.1739 17.3422 74.0362C18.3262 74.8985 19.3102 75.5145 20.4171 76.2536C20.5401 76.2536 20.6631 76.5 20.7861 76.5ZM33.9465 77.3623C32.7166 77.1159 31.4866 76.7464 30.2567 76.2536C30.6257 75.2681 30.8717 74.4058 31.2406 73.4203C32.3476 73.7898 33.4545 74.1594 34.5615 74.4058C34.3155 75.3913 34.0695 76.3768 33.9465 77.3623ZM34.9305 72.9275C33.8235 72.6812 32.8396 72.3116 31.7326 71.942C32.1016 70.9565 32.3476 70.0942 32.7166 69.1087C33.7005 69.4783 34.5615 69.7246 35.5455 69.971C35.4225 71.0797 35.1765 71.942 34.9305 72.9275Z" fill="url(#paint0_linear)"/>
<defs>
<linearGradient id="paint0_linear" x1="34.4704" y1="20.528" x2="34.4704" y2="64.4739" gradientUnits="userSpaceOnUse">
<stop stop-color="#5EB34D"/>
<stop offset="1" stop-color="#95B632"/>
</linearGradient>
</defs>
</svg>
