<svg width="96" height="92" viewBox="0 0 96 92" fill="none" xmlns="http://www.w3.org/2000/svg">
<path fill-rule="evenodd" clip-rule="evenodd" d="M48 0C48.7895 9.75043 39 13.6821 38.8421 23.747C38.6842 30.6667 43.2632 36.3282 48.9474 42.147C50.5263 36.8 52.1053 30.0376 53.3684 22.0171V22.3316C53.2105 30.3521 52.1053 38.2154 49.7368 45.7641C49.5789 46.0786 49.4211 46.3932 48.9474 46.5504C48.6316 46.7077 48.1579 46.7077 47.8421 46.3932C46.7368 45.6068 45.4737 44.9778 44.3684 44.1915C44.0526 44.0342 43.8947 43.8769 43.7368 43.5624C36.6316 20.2872 10.4211 24.6906 0 35.8564C9.47368 37.9009 10.5789 48.4376 20.0526 51.5829C26.5263 53.7846 33.4737 50.9538 40.7368 47.3368C36 44.0342 30 40.5744 22.5789 36.9573L22.8947 37.1145C30.4737 39.6308 37.7368 42.9333 44.3684 47.3368C44.6842 47.494 44.8421 47.9658 44.8421 48.2803C44.8421 48.7521 44.6842 49.0667 44.3684 49.2239C43.2632 50.0103 42.3158 50.9538 41.2105 51.8974C41.0526 52.0547 40.7368 52.212 40.4211 52.212C16.1053 52.6838 12.7895 78.7897 20.5263 92C25.2632 83.5077 35.6842 85.5521 41.5263 77.3744C45.4737 71.8701 44.8421 64.4786 43.5789 56.4581C39 59.918 33.9474 64.7932 28.4211 70.7692L28.5789 70.4547C33.1579 63.8496 38.5263 58.0308 44.6842 52.9983C45 52.6838 45.3158 52.6838 45.7895 52.6838C46.2632 52.841 46.4211 52.9983 46.5789 53.4701C47.0526 54.7282 47.6842 55.9863 48.1579 57.2444C48.3158 57.559 48.3158 57.8735 48.1579 58.188C40.8947 81.4632 65.0526 92.4718 80.0526 89.1692C73.4211 82.0923 78.4737 72.9709 72.3158 64.9504C68.2105 59.4462 60.9474 57.8735 52.8947 56.7726C54.9474 62.1197 57.9474 68.4103 62.0526 75.4872L61.8947 75.1727C57 68.882 53.0526 61.9624 50.0526 54.7282C49.8947 54.4137 49.8947 53.9419 50.2105 53.6273C50.3684 53.3128 50.8421 53.1556 51.1579 52.9983C52.4211 52.9983 53.6842 52.841 54.9474 52.6838C55.2632 52.6838 55.5789 52.6838 55.7368 52.9983C75.3158 67.7812 93.9474 48.9094 95.8421 33.812C86.8421 37.5863 79.8947 29.7231 70.2632 32.7111C63.6316 34.7556 59.6842 40.8889 55.8947 48.1231C61.5789 48.1231 68.5263 47.3368 76.7368 45.9214L76.4211 46.0786C68.8421 48.4376 60.9474 49.853 53.0526 50.1675C52.5789 50.1675 52.2632 50.0103 52.1053 49.6957C51.7895 49.3812 51.7895 48.9094 51.9474 48.5949C52.2632 47.3368 52.7368 46.0786 52.8947 44.8205C52.8947 44.506 53.2105 44.1915 53.3684 44.0342C73.5789 30.3521 61.7368 6.76239 48 0Z" fill="url(#paint0_radial)"/>
<defs>
<radialGradient id="paint0_radial" cx="0" cy="0" r="1" gradientUnits="userSpaceOnUse" gradientTransform="translate(47.9662 46.0195) scale(34.0014 33.8657)">
<stop stop-color="#95B632"/>
<stop offset="1" stop-color="#5EB34D"/>
</radialGradient>
</defs>
</svg>
