<svg width="74" height="64" viewBox="0 0 74 64" fill="none" xmlns="http://www.w3.org/2000/svg">
<g clip-path="url(#clip0)">
<path fill-rule="evenodd" clip-rule="evenodd" d="M5.56695 5.58301C-1.76516 12.9362 -1.76516 25.1915 5.56695 32.5447L36.9321 64C49.5596 46.5703 49.1523 26.2809 36.6605 10.349C35.3027 8.71493 33.9449 7.08089 32.3156 5.44684C24.9835 -1.90635 12.8991 -1.90635 5.56695 5.58301Z" fill="#FC7E43"/>
<path fill-rule="evenodd" clip-rule="evenodd" d="M68.4331 5.58301C75.7652 12.9362 75.7652 25.1915 68.4331 32.5447L36.9321 64C24.3046 46.5703 24.712 26.2809 37.2037 10.349C38.5615 8.71493 39.9193 7.08089 41.5487 5.44684C49.0166 -1.90635 61.101 -1.90635 68.4331 5.58301Z" fill="#72AF39"/>
<path fill-rule="evenodd" clip-rule="evenodd" d="M36.932 64C24.4403 46.7064 24.7119 26.6894 36.932 10.7574C49.1522 26.6894 49.5596 46.7064 36.932 64Z" fill="#70560E"/>
</g>
<defs>
<clipPath id="clip0">
<rect width="74" height="64" fill="white"/>
</clipPath>
</defs>
</svg>
