<svg width="73" height="85" viewBox="0 0 73 85" fill="none" xmlns="http://www.w3.org/2000/svg">
<g clip-path="url(#clip0)">
<path fill-rule="evenodd" clip-rule="evenodd" d="M72.9999 63.7501L56.813 54.3234L20.313 75.4136L36.4999 85.0001L72.9999 63.7501Z" fill="#64CA0F"/>
<path fill-rule="evenodd" clip-rule="evenodd" d="M36.5 85.0001V65.987L0 44.8967V63.7501L36.5 85.0001Z" fill="#A2DB1C"/>
<path fill-rule="evenodd" clip-rule="evenodd" d="M36.4999 84.9999V65.9867L20.313 75.4134L36.4999 84.9999Z" fill="#3FAD01"/>
<path fill-rule="evenodd" clip-rule="evenodd" d="M0 63.7499L16.187 54.3232V11.8232L0 21.2499V63.7499Z" fill="#C6DE14"/>
<path fill-rule="evenodd" clip-rule="evenodd" d="M0 63.7501L16.187 54.3234L0 44.8967V63.7501Z" fill="#80C103"/>
<path fill-rule="evenodd" clip-rule="evenodd" d="M72.9999 21.2498L56.813 30.6764V73.1764L72.9999 63.7498V21.2498Z" fill="#4EB754"/>
<path fill-rule="evenodd" clip-rule="evenodd" d="M56.813 54.3234V73.1768L72.9999 63.7501L56.813 54.3234Z" fill="#1E9104"/>
<path fill-rule="evenodd" clip-rule="evenodd" d="M36.5 0V18.8534L73 40.1034V21.25L36.5 0Z" fill="#1E9660"/>
<path fill-rule="evenodd" clip-rule="evenodd" d="M0 21.25L16.187 30.6767L52.687 9.42669L36.5 0L0 21.25Z" fill="#287B56"/>
<path fill-rule="evenodd" clip-rule="evenodd" d="M0 21.2499L16.187 30.6766V11.8232L0 21.2499Z" fill="#1F6D0A"/>
<path fill-rule="evenodd" clip-rule="evenodd" d="M56.813 30.6764L72.9999 40.1031V21.2498L56.813 30.6764Z" fill="#096B1F"/>
<path fill-rule="evenodd" clip-rule="evenodd" d="M36.5 0V18.8534L52.687 9.42669L36.5 0Z" fill="#03481F"/>
</g>
<defs>
<clipPath id="clip0">
<rect width="73" height="85" fill="white"/>
</clipPath>
</defs>
</svg>
