<svg width="102" height="66" viewBox="0 0 102 66" fill="none" xmlns="http://www.w3.org/2000/svg">
<path fill-rule="evenodd" clip-rule="evenodd" d="M35.7395 29.5262C24.1954 22.8947 10.7535 23.3684 0 29.3684C0.15814 41.6841 6.48372 53.5262 17.8698 60.1578C29.5721 66.9473 39.5349 67.1052 45.7023 63.7894C46.1767 63.4736 46.493 62.9999 46.6512 62.3684C46.6512 61.7368 46.493 61.2631 46.0186 60.7894C39.2186 54.7894 30.8372 46.421 37.3209 40.1052C40.0093 37.421 44.1209 36.9473 47.2837 38.842C44.5953 35.5262 40.6419 32.3684 35.7395 29.5262Z" fill="#3A894C"/>
<path fill-rule="evenodd" clip-rule="evenodd" d="M52.3441 25.7369C45.7023 14.3685 33.8418 7.89478 21.5069 7.89478C15.4976 18.6316 15.0232 32.0527 21.6651 43.579C28.9395 56.2106 38.2697 61.2632 45.5441 60.4737C38.9023 54.4737 31.1534 46.4211 37.3209 40.2632C40.4837 37.1053 45.7023 37.1053 49.0232 40.2632C49.6558 40.8948 50.2883 41.6842 50.9209 42.3158L51.079 42.4737L51.2372 42.3158C51.8697 41.5264 52.3441 40.8948 53.1348 40.2632C54.3999 39 55.9813 38.2106 57.5627 38.0527C56.4558 34.2632 54.8744 30.1579 52.3441 25.7369Z" fill="#4BA736"/>
<path fill-rule="evenodd" clip-rule="evenodd" d="M16.9209 24.6317C16.7628 30.9475 18.3442 37.4212 21.6651 43.4212C28.9395 56.0528 38.2698 61.1054 45.5442 60.3159C38.9023 54.3159 31.1535 46.2633 37.3209 40.1054C40.0093 37.4212 44.1209 36.9475 47.2837 38.8423C44.5954 35.5265 40.8 32.3686 35.7395 29.5265C29.7302 26.0528 23.2465 24.4738 16.9209 24.6317Z" fill="#10590F"/>
<path fill-rule="evenodd" clip-rule="evenodd" d="M68.6325 30.9474C68.6325 17.8421 61.5162 6.31579 50.9209 0C40.3255 6.1579 33.2092 17.6842 33.2092 30.9474C33.2092 36.1579 33.8418 40.5789 35.1069 44.3684C35.265 42.9474 36.0557 41.5263 37.3209 40.2632C40.4836 37.1053 45.7023 37.1053 49.0232 40.2632C49.6557 40.8947 50.2883 41.6842 50.9209 42.3158L51.079 42.4737L51.2371 42.3158C51.8697 41.5263 52.3441 40.8947 53.1348 40.2632C56.2976 37.1053 61.5162 37.1053 64.8371 40.2632C66.1022 41.5263 66.893 42.9474 67.0511 44.3684C67.9999 40.5789 68.6325 36.1579 68.6325 30.9474Z" fill="#65BE34"/>
<path fill-rule="evenodd" clip-rule="evenodd" d="M38.4278 12.3157C35.1069 17.6841 33.2092 24.1578 33.2092 30.9473C33.2092 36.1578 33.8418 40.5788 35.1069 44.3683C35.265 42.9473 36.0557 41.5262 37.3209 40.263C40.4836 37.1052 45.7023 37.1052 49.0232 40.263C49.6557 40.8946 50.2883 41.6841 50.9209 42.3157L51.079 42.4736L51.2371 42.3157C51.8697 41.5262 52.3441 40.8946 53.1348 40.263C54.3999 38.9999 55.9813 38.2104 57.5627 38.0525C56.772 34.263 55.0325 30.3157 52.5023 25.8946C49.0232 19.8946 44.1209 15.3157 38.4278 12.3157Z" fill="#1D7C0A"/>
<path fill-rule="evenodd" clip-rule="evenodd" d="M33.3674 28.2631C33.3674 29.2104 33.2092 29.9999 33.2092 30.9473C33.2092 36.1578 33.8418 40.5789 35.1069 44.3683C35.265 42.9473 36.0557 41.5262 37.3209 40.2631C40.0092 37.5789 44.1209 37.1052 47.2836 38.9999C44.5953 35.6841 40.7999 32.5262 35.7395 29.6841C34.9488 29.0525 34.1581 28.5789 33.3674 28.2631Z" fill="#064202"/>
<path fill-rule="evenodd" clip-rule="evenodd" d="M80.335 43.421C86.9769 32.0526 86.5024 18.4737 80.4931 7.73682C68.1583 7.89471 56.1396 14.3684 49.4978 25.7368C46.9675 30 45.3862 34.1052 44.5955 37.8947C46.1769 38.2105 47.7582 39 49.0234 40.1052C49.6559 40.7368 50.2885 41.5263 50.921 42.1579L51.0792 42.3158L51.2373 42.1579C51.8699 41.3684 52.3443 40.7368 53.135 40.1052C56.2978 36.9473 61.5164 36.9473 64.8373 40.1052C71.1629 46.2631 63.2559 54.3158 56.6141 60.3158C63.7303 61.1052 72.9024 56.2105 80.335 43.421Z" fill="#8CC640"/>
<path fill-rule="evenodd" clip-rule="evenodd" d="M83.972 60.1578C95.3581 53.5262 101.842 41.6841 101.842 29.3684C91.0883 23.3684 77.6465 22.8947 66.1023 29.5262C61.0418 32.3684 57.2465 35.6841 54.5581 38.842C57.7209 37.1052 61.8325 37.421 64.5209 40.1052C71.0046 46.5789 62.6232 54.7894 55.8232 60.7894C55.3488 61.2631 55.1907 61.7368 55.1907 62.3684C55.1907 62.9999 55.6651 63.4736 56.1395 63.7894C62.4651 67.1052 72.2697 66.9473 83.972 60.1578Z" fill="#94D73C"/>
<path fill-rule="evenodd" clip-rule="evenodd" d="M85.0791 24.6317C78.7535 24.4738 72.2698 26.0528 66.2605 29.3686C61.2 32.2107 57.4047 35.5265 54.7163 38.6844C57.8791 36.9475 61.9907 37.2633 64.6791 39.9475C71.0047 46.2633 63.0977 54.1581 56.4558 60.1581C63.7303 60.7896 73.0605 55.8949 80.3349 43.2633C83.6558 37.5791 85.2372 31.1054 85.0791 24.6317Z" fill="#51A70F"/>
<path fill-rule="evenodd" clip-rule="evenodd" d="M63.414 12.3157C57.8791 15.3157 52.9768 19.8946 49.4977 25.8946C46.9675 30.1578 45.3861 34.263 44.4373 38.0525C46.0187 38.3683 47.6 39.1578 48.8652 40.263C49.4977 40.8946 50.1303 41.6841 50.7628 42.3157L50.921 42.4736L51.0791 42.3157C51.7117 41.5262 52.1861 40.8946 52.9768 40.263C56.1396 37.1052 61.3582 37.1052 64.6791 40.263C65.9442 41.5262 66.7349 42.9473 66.8931 44.3683C68.1582 40.5788 68.7907 36.1578 68.7907 30.9473C68.6326 23.9999 66.7349 17.6841 63.414 12.3157Z" fill="#37940C"/>
<path fill-rule="evenodd" clip-rule="evenodd" d="M57.4047 37.8947C56.614 34.1052 54.8745 30.1578 52.3442 25.7368C51.8698 24.9473 51.3954 24.1578 50.921 23.5262C50.4466 24.3157 49.9721 24.9473 49.4977 25.7368C46.9675 29.9999 45.3861 34.1052 44.4373 37.8947C46.0187 38.2105 47.6 38.9999 48.8652 40.1052C49.4977 40.7368 50.1303 41.5262 50.7628 42.1578L50.921 42.3157L51.0791 42.1578C51.7117 41.3684 52.1861 40.7368 52.9768 40.1052C54.2419 38.9999 55.6652 38.2105 57.4047 37.8947Z" fill="#0F6002"/>
<path fill-rule="evenodd" clip-rule="evenodd" d="M66.8931 44.3683C68.1582 40.5789 68.7907 36.1578 68.7907 30.9473C68.7907 29.9999 68.7907 29.2104 68.6326 28.2631C67.8419 28.5789 67.0512 29.0525 66.2605 29.5262C61.2 32.3683 57.4047 35.6841 54.7163 38.842C57.8791 37.1052 61.9907 37.421 64.6791 40.1052C65.9442 41.5262 66.5768 42.9473 66.8931 44.3683Z" fill="#1F7C02"/>
<path fill-rule="evenodd" clip-rule="evenodd" d="M44.9117 36.4738C44.7536 36.9474 44.5955 37.4211 44.5955 38.0527C45.5443 38.2106 46.4931 38.5264 47.2838 39.0001C46.4931 38.0527 45.8606 37.2632 44.9117 36.4738Z" fill="#013100"/>
<path fill-rule="evenodd" clip-rule="evenodd" d="M57.4047 37.8947C57.2466 37.4211 57.0885 36.9474 57.0885 36.3158C56.2978 37.1053 55.5071 37.8947 54.8745 38.8421C55.5071 38.3684 56.4559 38.0526 57.4047 37.8947Z" fill="#085100"/>
</svg>
