<svg width="298" height="109" viewBox="0 0 298 109" fill="none" xmlns="http://www.w3.org/2000/svg">
<path d="M141.676 77.6818C141.675 77.6764 141.674 77.6763 141.673 77.6763C147.624 71.399 150.856 66.8636 151.217 66.4807C151.378 66.3135 151.549 66.1733 151.73 66.0546C151.558 66.1679 151.396 66.3081 151.242 66.4699C150.88 66.8474 147.641 71.3936 141.676 77.6818ZM139.959 75.0824C138.483 72.9414 136.822 70.7465 135.481 69.2742C138.938 67.3274 142.184 65.5315 143.89 64.7495C144.911 64.2857 147.044 63.3636 147.606 61.4653C147.839 60.6779 147.598 60.4136 147.82 59.2434C148.226 57.097 149.525 55.3982 149.976 55.3982C149.994 55.3982 150.011 55.4036 150.027 55.409C150.152 55.4522 150.119 55.6679 150.257 57.2318C150.37 58.5261 150.425 58.7472 150.6 58.8712C150.681 58.9306 150.777 58.9576 150.889 58.9576C151.273 58.9576 151.846 58.6394 152.682 58.1325C155.709 56.2935 157.222 55.3766 158.21 54.0446C158.74 53.3273 158.805 53.0469 159.158 52.9768C159.203 52.9714 159.248 52.966 159.292 52.966C160.629 52.966 162.236 56.5146 163.162 58.5585C164.453 61.4113 165.085 62.8566 164.453 63.8867C163.871 64.8412 162.444 64.976 159.613 65.2187C156.819 65.456 154.893 65.2996 153.481 65.4722C152.216 65.0515 151.362 64.8358 150.809 64.8358C150.771 64.8358 150.734 64.8358 150.698 64.8412C146.52 65.0893 145.708 68.9776 139.959 75.0824Z" fill="url(#paint0_linear)"/>
<path d="M151.73 66.0547C152.218 65.7203 152.787 65.5586 153.481 65.4723C153.492 65.4777 153.503 65.4777 153.515 65.4831C152.808 65.564 152.226 65.7257 151.73 66.0547Z" fill="#F7E7E7"/>
<path d="M141.672 77.6763C141.157 76.8566 140.574 75.9722 139.959 75.0824C145.707 68.9776 146.519 65.0893 150.698 64.8412C150.733 64.8358 150.771 64.8358 150.809 64.8358C151.362 64.8358 152.215 65.0515 153.481 65.4722C152.787 65.5585 152.218 65.7202 151.73 66.0546C151.548 66.1733 151.378 66.3135 151.217 66.4807C150.856 66.8636 147.623 71.399 141.672 77.6763Z" fill="url(#paint1_linear)"/>
<path d="M92.007 48.0962C94.4413 48.3497 95.3074 52.5346 102.435 66.5993C103.311 68.3251 106.916 74.57 109.54 75.9236C110.803 76.5708 116.6 74.1979 122.216 71.825C127.687 69.5169 132.987 67.2033 133.761 67.6887C136.449 69.3658 144.355 81.1009 143.654 81.7804C134.379 90.7919 120.567 102.414 103.762 101.772C100.319 101.642 96.1331 101.432 91.8107 98.8327C79.4895 91.4282 80.3297 73.1787 80.4483 71.2103C81.1494 59.5885 87.5972 47.6324 92.007 48.0962Z" fill="#7480ED"/>
<path d="M145.51 79.2295C142.834 85.1779 140.123 87.8905 138.885 87.265C137.646 86.6394 132.905 82.3844 130.392 78.1941C127.879 74.0038 125.559 69.8189 127.329 68.6972C129.099 67.5701 133.559 64.0108 134.733 65.0138C135.907 66.0115 137.239 71.1941 139.277 74.047C141.316 76.8998 145.51 79.2295 145.51 79.2295Z" fill="#8B96FC"/>
<path d="M101.9 55.5871C101.363 54.5409 100.642 54.131 99.7458 53.6672C98.6392 52.1302 97.4641 50.0917 96.9048 49.121C94.7719 45.4214 95.8694 46.2627 92.5484 38.2543C92.364 37.0948 92.1267 36.0648 91.7422 35.245C91.7584 34.9754 91.8101 34.7058 91.9088 34.4307C92.254 33.4708 92.886 33.2874 95.1419 31.195C96.3526 30.0733 96.9577 29.5124 97.4921 28.7735C98.088 27.9484 98.4612 27.1287 98.7195 26.3737C99.543 26.9723 100.451 27.5224 101.024 27.5224C101.166 27.5224 101.287 27.49 101.381 27.4145C101.656 27.1988 101.439 26.8483 101.582 25.9584C101.62 25.7211 101.99 23.6179 103.657 22.7389C104.085 22.5177 104.689 22.3236 105.275 22.3236C105.665 22.3236 106.046 22.4099 106.363 22.6256C106.919 23.0031 106.725 23.4184 107.33 24.1572C107.916 24.8745 108.916 25.4892 109.991 25.4892C110.114 25.4892 110.238 25.4839 110.362 25.4677C110.678 25.4246 111.426 25.3221 111.872 24.7504C112.492 23.9469 111.863 23.0894 112.509 22.2805C112.828 21.8814 113.355 21.6279 113.844 21.6279C113.892 21.6279 113.94 21.6279 113.988 21.6333C114.574 21.698 114.673 22.1241 115.493 22.7119C115.833 22.96 116.79 23.6449 117.775 23.6449C117.946 23.6449 118.119 23.6287 118.289 23.5802C118.738 23.4507 119.033 23.1757 119.51 22.7335C120.4 21.9084 120.468 21.3205 120.909 21.2828C120.924 21.2828 120.938 21.2828 120.953 21.2828C121.38 21.2828 121.671 21.849 122.248 22.5447C122.514 22.8683 123.787 24.4053 125.051 24.7828C125.228 24.8367 125.413 24.8691 125.602 24.8853C125.052 25.5001 124.226 26.3036 123.499 28.1102C122.9 29.6041 122.422 30.7905 122.544 32.3706C122.647 33.7081 123.115 34.49 122.618 35.1641C122.219 35.7034 121.485 35.7897 120.56 35.8976C119.123 36.0647 115.788 39.98 114.835 40.3305C114.04 40.6218 113.302 40.7404 112.613 40.7404C111.197 40.7404 109.987 40.2443 108.898 39.7481C107.81 39.252 106.843 38.7558 105.915 38.7558C105.377 38.7558 104.853 38.923 104.325 39.349C103.909 39.6888 103.044 40.4061 102.415 41.6303C101.493 43.4153 101.678 45.1194 101.827 46.8452C102.316 52.4969 102.56 55.3175 101.9 55.5871Z" fill="url(#paint2_linear)"/>
<path d="M79.6396 104.048C84.0623 104.112 92.3787 110.304 110.789 119.331C125.776 126.676 135.079 131.864 136.355 133.434C139.076 136.783 138.411 143.416 134.151 154.74C129.949 165.91 126.44 185.166 123.94 186.332C121.088 187.663 103.687 183.568 103.797 181.659C104.557 168.457 105.94 153.123 105.94 151.069C105.94 149.494 84.6448 149.672 66.7096 141.955C60.5406 139.301 50.6883 135.062 49.6653 127.852C48.2227 117.676 64.6597 103.827 79.6396 104.048Z" fill="#D16A01"/>
<path d="M148.728 55.1934L108.376 111.134L127.608 108.367L169.998 49.6063L148.728 55.1934Z" fill="#784A3C"/>
<path d="M113.628 116.813C120.067 110.438 126.422 103.988 132.089 96.9669C133.515 95.2196 134.891 93.4345 136.162 91.5686C137.419 89.708 138.609 87.772 139.445 85.6849C139.863 84.6495 140.177 83.5601 140.165 82.4546C140.158 81.8991 140.076 81.3328 140.088 80.7504C140.106 80.168 140.181 79.5802 140.351 79.0301C141.038 76.8244 142.123 74.8182 143.249 72.8336C145.544 68.886 148.416 65.3051 151.497 61.9615C154.574 58.6071 157.844 55.4415 161.246 52.4322C168.067 46.4299 175.281 40.9022 182.757 35.7735L182.821 35.8598C175.756 41.5386 168.724 47.2388 162.012 53.2897C158.649 56.3043 155.341 59.3837 152.239 62.6572C149.141 65.9253 146.193 69.3552 143.754 73.141C143.148 74.0902 142.587 75.0663 142.051 76.0586C141.527 77.0508 141.025 78.0647 140.716 79.1325C140.545 79.661 140.469 80.2111 140.444 80.7558C140.425 81.3059 140.497 81.8667 140.498 82.4492C140.49 83.614 140.192 84.7519 139.771 85.8143C138.08 90.064 135.514 93.8821 132.795 97.5223C130.028 101.136 126.952 104.501 123.747 107.715C120.529 110.918 117.185 113.992 113.7 116.894L113.628 116.813Z" fill="#9E6654"/>
<path d="M108.423 118.959C110.377 116.651 112.565 114.65 114.748 112.612C115.864 111.625 117.022 110.676 118.059 109.602C119.094 108.529 120.014 107.343 120.818 106.097C121.599 104.846 122.361 103.562 122.808 102.23C123.031 101.572 123.149 100.882 123.05 100.289C122.941 99.7064 122.622 99.2589 122.073 98.9838C121.547 98.6872 120.834 98.5793 120.138 98.52C119.433 98.4661 118.705 98.4823 117.974 98.5254C116.51 98.6063 115.036 98.8382 113.55 99.0539L113.522 98.9514C114.919 98.3852 116.37 97.9538 117.875 97.6787C118.628 97.5493 119.397 97.4684 120.185 97.4738C120.972 97.49 121.783 97.5709 122.599 97.9592C122.997 98.1587 123.373 98.4553 123.654 98.8382C123.937 99.2157 124.103 99.6741 124.162 100.122C124.262 101.022 124.046 101.837 123.763 102.575C123.188 104.059 122.259 105.288 121.293 106.448C120.32 107.607 119.297 108.702 118.317 109.834C117.334 110.967 116.394 112.148 115.377 113.253C114.363 114.359 113.22 115.335 112.066 116.295C110.914 117.26 109.729 118.183 108.494 119.04L108.423 118.959Z" fill="#9E6654"/>
<path d="M102.442 120.863C103.856 119.509 105.337 118.28 106.809 117.039C108.239 115.756 109.647 114.456 110.924 113.048C111.574 112.358 112.183 111.63 112.722 110.87C113.275 110.115 113.74 109.306 114.036 108.459C114.182 108.017 114.26 107.612 114.204 107.23C114.152 106.857 113.907 106.534 113.519 106.329C112.746 105.897 111.738 105.827 110.778 105.784C111.729 105.601 112.734 105.488 113.747 105.849C114.248 106.027 114.735 106.48 114.89 107.057C115.055 107.629 114.956 108.206 114.847 108.691C114.303 110.719 113.024 112.315 111.719 113.777C110.376 115.222 108.903 116.522 107.341 117.686C105.752 118.819 104.114 119.876 102.442 120.863Z" fill="#9E6654"/>
<path d="M116.916 95.6509C118.679 95.0092 120.489 94.4483 122.394 94.2326C123.344 94.1517 124.337 94.1193 125.32 94.4591C125.804 94.6371 126.28 94.9337 126.627 95.3597C126.983 95.7804 127.17 96.2981 127.291 96.7781L127.448 97.4575C127.472 97.56 127.508 97.6409 127.525 97.6679L127.426 97.6248C127.439 97.6248 127.662 97.5223 127.808 97.4036C127.97 97.2904 128.127 97.1394 128.283 96.9884C128.905 96.3682 129.454 95.6186 129.987 94.8636C131.028 93.3266 132.151 91.8058 133.023 90.2149C133.458 89.4167 133.821 88.5862 134.056 87.7126C134.281 86.8389 134.413 85.9599 133.978 85.2264C133.768 84.8435 133.471 84.4283 133.301 83.9483C133.124 83.4737 133.072 82.9722 133.061 82.4868C133.061 81.5323 133.114 80.5831 133.355 79.6448C133.84 77.7842 134.83 76.1448 135.857 74.5701C136.915 73.0115 138.05 71.5069 139.264 70.067C141.671 67.171 144.312 64.4691 147.114 61.9507C149.922 59.4214 152.902 57.1455 155.74 54.7295C161.46 49.9244 166.976 44.8659 171.926 39.2357L172.011 39.3004C167.581 45.3836 162.166 50.6956 156.485 55.6032C153.637 58.0731 150.594 60.2789 147.785 62.7165C144.971 65.1594 142.25 67.7211 139.709 70.4553C138.456 71.8359 137.22 73.2434 136.171 74.7858C135.128 76.3174 134.118 77.9298 133.695 79.7257C133.485 80.6155 133.467 81.5593 133.504 82.4707C133.539 82.9183 133.613 83.3605 133.787 83.7595C133.954 84.1586 134.228 84.4984 134.497 84.9244C134.776 85.3451 134.933 85.8952 134.944 86.4075C134.97 86.9252 134.877 87.4052 134.79 87.8905C134.585 88.8397 134.251 89.7619 133.821 90.6248C132.945 92.3559 131.847 93.8713 130.765 95.419C130.205 96.1848 129.637 96.9506 128.922 97.6463C128.741 97.8189 128.548 97.9861 128.328 98.1371C128.09 98.2827 127.907 98.4552 127.448 98.5038C127.319 98.5038 127.172 98.4714 127.037 98.3906C126.914 98.3097 126.829 98.2018 126.78 98.1155C126.684 97.9375 126.646 97.7919 126.617 97.6679L126.477 96.9722C126.312 96.1093 125.859 95.446 125.061 95.1224C124.277 94.7988 123.344 94.7611 122.437 94.7988C120.602 94.9013 118.763 95.3058 116.947 95.7534L116.916 95.6509Z" fill="#9E6654"/>
<path d="M129.406 93.4831C130.064 92.7011 130.587 91.8005 130.961 90.8567C131.14 90.3876 131.266 89.886 131.274 89.406C131.285 88.9207 131.121 88.473 130.756 88.2627C130.018 87.8421 128.938 88.0309 127.997 88.198C127.046 88.3868 126.091 88.6672 125.37 89.1849C125.005 89.4384 124.668 89.7619 124.404 90.1233C124.144 90.4738 123.919 90.8945 123.91 91.2126C123.906 91.3744 123.942 91.4553 124.03 91.5578L124.113 91.6279L124.237 91.6818C124.313 91.7304 124.425 91.7412 124.529 91.7627C124.961 91.8274 125.457 91.8005 125.944 91.7034C126.923 91.5416 127.92 91.1372 128.984 91.1695C129.244 91.1803 129.519 91.218 129.747 91.3744C129.987 91.5308 130.053 91.8328 130.016 92.0863C129.948 92.604 129.646 93.0517 129.406 93.4831ZM129.406 93.4831C129.635 93.0463 129.924 92.5879 129.976 92.0809C130.01 91.8329 129.911 91.5686 129.697 91.45C129.488 91.3313 129.229 91.3151 128.983 91.3205C127.98 91.396 127.081 91.9245 126.075 92.2265C125.574 92.3937 125.042 92.5124 124.455 92.5016C124.305 92.4908 124.158 92.4908 123.996 92.4368C123.916 92.4153 123.837 92.3991 123.757 92.3668L123.518 92.2265C123.205 92.0216 122.981 91.6063 122.98 91.2504C122.963 90.5385 123.243 89.9993 123.555 89.5193C123.884 89.0501 124.281 88.6402 124.752 88.3005C125.721 87.6425 126.808 87.3891 127.868 87.2812C128.402 87.2273 128.935 87.2327 129.474 87.2758C130.012 87.3459 130.602 87.4322 131.08 87.8367C131.314 88.0309 131.496 88.3005 131.572 88.5863C131.649 88.8775 131.645 89.158 131.609 89.4276C131.534 89.9723 131.318 90.4522 131.098 90.916C130.873 91.3852 130.604 91.822 130.325 92.2535C130.044 92.6795 129.758 93.111 129.406 93.4831Z" fill="#9E6654"/>
<path d="M159.27 49.1047C158.045 51.0084 156.527 52.718 154.908 54.2981C153.293 55.889 151.558 57.3505 149.777 58.7419C147.983 60.1171 146.14 61.4276 144.233 62.6356C142.337 63.8598 140.371 64.9761 138.352 65.9899C141.938 63.2449 145.583 60.6402 149.116 57.8898C150.893 56.5254 152.634 55.1232 154.342 53.6779C156.038 52.2218 157.72 50.7496 159.27 49.1047Z" fill="#9E6654"/>
<path d="M145.17 86.0462C145.802 84.094 146.296 82.0393 146.073 80.0493C146.011 79.5531 145.905 79.0732 145.731 78.6148C145.563 78.1618 145.296 77.7034 145.161 77.1263C145.023 76.5547 145.074 75.9669 145.172 75.4384C145.266 74.8991 145.433 74.3868 145.618 73.8852C146.379 71.8844 147.514 70.1048 148.73 68.406C149.95 66.7073 151.303 65.1217 152.723 63.6009C154.148 62.0909 155.642 60.6456 157.162 59.2381C158.688 57.8359 160.251 56.4769 161.798 55.1071C163.351 53.7427 164.886 52.3513 166.48 51.0301C166.879 50.6957 167.282 50.3721 167.7 50.0593C167.906 49.8976 168.116 49.7412 168.339 49.5902C168.444 49.5147 168.56 49.4445 168.69 49.3798L168.879 49.2774C168.922 49.2666 168.95 49.2504 169.008 49.2396C169.037 49.2342 169.053 49.2234 169.104 49.2234C169.139 49.2234 169.194 49.2234 169.277 49.272C169.439 49.3852 169.407 49.574 169.396 49.601C169.383 49.6711 169.366 49.698 169.35 49.7466C169.316 49.8167 169.28 49.8814 169.244 49.9407C169.172 50.0647 169.096 50.1726 169.02 50.2804C168.867 50.4961 168.708 50.7065 168.548 50.9114L167.574 52.1248C164.958 55.3336 162.339 58.5154 159.877 61.8159C157.387 65.1056 155.211 68.5624 153.061 72.1109C152.492 72.9846 151.969 73.8798 151.171 74.7157C150.966 74.9207 150.728 75.1256 150.417 75.2874C150.255 75.3683 150.07 75.4437 149.821 75.4545C149.581 75.4815 149.279 75.3629 149.095 75.2011C148.73 74.8613 148.657 74.5162 148.588 74.2196C148.528 73.9122 148.511 73.621 148.515 73.3298C148.562 72.1325 149.047 71.1241 149.541 70.1857C150.055 69.2473 150.658 68.3845 151.279 67.5432C153.837 64.2319 156.824 61.3413 159.904 58.5747L159.979 58.6556C157.151 61.6649 154.324 64.7011 151.962 68.0393C151.383 68.8806 150.827 69.7327 150.374 70.6225C149.934 71.5123 149.553 72.4561 149.555 73.3405C149.559 73.5617 149.582 73.7935 149.629 73.9931C149.667 74.1926 149.769 74.3652 149.793 74.3759L149.782 74.3652C149.792 74.3652 149.853 74.349 149.923 74.3113C150.065 74.2304 150.229 74.1009 150.384 73.9391C151.01 73.2704 151.547 72.3644 152.083 71.5015C153.162 69.7488 154.229 67.9584 155.402 66.2434C156.567 64.5177 157.798 62.8459 159.068 61.2011C161.602 57.9114 164.357 54.8105 167.124 51.7419L168.138 50.577C168.304 50.3829 168.467 50.1834 168.621 49.9838C168.697 49.8868 168.772 49.7843 168.837 49.6872C168.869 49.6387 168.899 49.5902 168.921 49.547L168.937 49.5093C168.948 49.4769 168.91 49.5847 169.019 49.6602C169.073 49.6926 169.099 49.6872 169.099 49.6872H169.1L169.044 49.7034L168.888 49.7789C168.784 49.8274 168.677 49.8868 168.571 49.9569C168.357 50.0863 168.146 50.2319 167.939 50.3829C167.526 50.6795 167.12 50.9977 166.719 51.3213C165.113 52.6102 163.554 53.9692 162.032 55.3659C158.983 58.1541 156.089 61.104 153.388 64.2049C152.032 65.7527 150.719 67.3275 149.502 68.9723C148.299 70.6171 147.17 72.3374 146.398 74.1872C146.046 75.104 145.706 76.0963 145.858 76.9808C145.933 77.423 146.165 77.8867 146.334 78.4045C146.504 78.9222 146.596 79.4615 146.636 79.9954C146.715 81.0686 146.554 82.1256 146.302 83.1394C146.048 84.1587 145.692 85.1348 145.271 86.084L145.17 86.0462Z" fill="#9E6654"/>
<path d="M90.146 33.5461C85.665 31.5615 57.8894 49.2394 44.303 62.8619C40.0604 67.1115 34.1401 74.5538 27.2593 86.5907C22.2277 95.392 18.0881 102.629 17.2678 113.038C16.302 125.29 18.7503 134.642 21.5293 140.806C23.3025 144.743 31.8346 159.325 46.6543 170.488C51.7361 174.315 57.9638 177.892 57.3803 179.157C57.0157 179.945 54.3198 179.154 49.7396 178.422C41.6578 177.131 28.916 174.265 27.6114 176.523C27.4372 176.824 29.1382 195.33 30.1235 196.791C30.9049 197.949 66.881 203.535 77.8033 203.988C86.0323 204.329 92.3598 202.608 95.5821 197.964C100.578 190.765 93.7997 178.477 86.179 155.648C80.7197 139.296 77.0693 131.994 75.3058 126.407C75.1818 126.013 82.0647 124.794 86.6196 119.353C90.6853 114.504 93.1633 109.128 96.3171 91.5037C99.459 73.9444 103.676 59.0438 101.9 55.5869C101.015 53.8612 99.6321 53.8666 97.7861 52.5022C90.8627 47.3789 94.5315 35.4875 90.146 33.5461Z" fill="#FF9400"/>
<path d="M97.1261 76.6031C95.7816 76.258 94.5175 75.9344 93.7469 75.1308C91.5336 72.8227 94.7796 68.0068 95.8037 61.9075C97.3056 52.9606 93.069 46.9853 93.5479 45.06C94.1621 47.902 95.2774 50.647 97.7861 52.5022C99.6321 53.8666 101.015 53.8612 101.9 55.587C103.154 58.0299 101.417 66.1894 99.1818 76.9537C98.4856 76.8836 97.7802 76.7649 97.1261 76.6031Z" fill="#6171CE"/>
<path d="M82.1385 42.8058C88.6273 45.7449 89.8795 54.4059 90.2204 56.7626C90.8001 60.7749 90.1184 63.8705 89.1919 68.0769C88.4278 71.5446 87.3227 76.5654 84.0492 82.0392C82.0512 85.3774 76.9969 93.8227 67.2989 96.7295C64.5172 97.5654 59.1777 99.1671 54.8094 96.4383C50.1057 93.4991 49.3906 87.3243 48.9322 83.3605C47.4794 70.8058 54.1024 60.6995 57.4541 55.587C59.553 52.389 61.4643 49.5307 65.0948 46.9206C67.2633 45.362 75.1876 39.6563 82.1385 42.8058Z" fill="#6171CE"/>
<path d="M106.088 25.3921C106.237 24.8852 106.178 24.1625 105.647 23.7041C105.102 23.235 104.259 23.2188 103.737 23.6286C103.323 23.9576 103.245 24.443 103.223 24.5832C103.104 25.3328 103.444 26.4653 104.325 26.6433C105.098 26.7997 105.871 26.1309 106.088 25.3921Z" fill="#D6808D"/>
<path d="M72.0091 114.229C69.1266 112.531 65.4583 104.28 63.3411 97.711C64.891 97.4521 66.27 97.0368 67.2989 96.7294C67.3356 96.7187 67.3723 96.7079 67.4089 96.6971C68.3484 98.9513 69.4124 101.427 70.6091 104.204C71.2719 105.741 72.2663 107.952 74.3404 109.263C74.5653 109.414 74.8026 109.548 75.0545 109.672C75.5511 109.915 76.0241 110.072 77.1847 110.072C77.6684 110.072 78.2719 110.045 79.0463 109.985C76.9711 111.716 74.6565 113.199 72.0091 114.229ZM90.0042 114.229C91.409 111.511 92.6548 108.028 93.9178 102.85C93.928 102.856 93.9377 102.861 93.948 102.867C92.6877 108.028 91.4435 111.511 90.0414 114.224C90.0284 114.224 90.0166 114.224 90.0042 114.229Z" fill="#EC8A08"/>
<path d="M63.341 97.7111C62.7192 95.7858 62.2311 94.0007 61.9356 92.5716C60.6251 86.235 57.3074 68.077 60.8031 57.9383C61.941 54.6379 67.0087 45.2974 73.4468 43.3721C70.19 44.661 67.9239 47.6649 66.7639 49.2073C60.3916 57.6849 61.1995 68.3305 61.8401 76.7704C62.3476 83.4576 64.1014 88.7481 67.4089 96.6972C67.3722 96.708 67.3355 96.7188 67.2988 96.7295C66.2699 97.0369 64.8909 97.4522 63.341 97.7111Z" fill="#5A6AC6"/>
<path d="M75.3251 126.676C74.5933 126.531 73.8544 126.369 73.1005 126.196C73.814 126.272 74.5275 126.342 75.2377 126.401C75.2383 126.407 75.2388 126.407 75.2394 126.407C75.2669 126.498 75.2965 126.585 75.3251 126.676ZM76.8006 125.727C78.5991 124.816 81.2255 123.268 84.3275 121.478C82.9836 121.569 81.6488 121.618 80.3227 121.618C74.7216 121.618 69.2942 120.771 64.1267 119.088C62.1874 118.452 60.287 117.8 58.3914 117.093C61.3936 116.748 65.7467 116.09 69.9985 114.898C70.6899 114.704 71.3591 114.483 72.009 114.229C72.1551 114.316 72.2991 114.386 72.4415 114.434C74.2681 115.098 76.189 115.367 78.4692 115.367C81.4827 115.367 85.1246 114.893 90.0041 114.229C88.9643 116.236 87.8383 117.821 86.5531 119.353C83.38 123.144 79.0775 124.886 76.8006 125.727ZM93.9177 102.85C93.7036 102.721 93.4949 102.597 93.2749 102.462C92.1661 101.783 91.1064 101.136 90.0947 100.521C89.9447 99.3181 89.9512 98.1964 90.0413 97.1663C93.9242 91.5415 96.3995 86.278 98.122 81.7804C97.4916 84.8867 96.8514 88.144 96.2501 91.5038C95.4412 96.0284 94.6765 99.7441 93.9177 102.85Z" fill="#EC8A0B"/>
<path d="M78.4692 115.367C76.1891 115.367 74.2681 115.098 72.4415 114.434C72.2992 114.386 72.1552 114.316 72.009 114.229C74.6564 113.199 76.971 111.716 79.0462 109.985C80.5072 109.872 82.5775 109.646 85.6029 109.273C89.7835 108.761 90.744 108.589 91.3221 107.704C92.3484 106.135 90.6874 104.587 90.1384 100.839C90.1227 100.731 90.1082 100.623 90.0947 100.521C91.1064 101.136 92.1661 101.783 93.2749 102.462C93.4949 102.597 93.7036 102.721 93.9177 102.85C92.6547 108.028 91.409 111.511 90.0041 114.229C85.1246 114.893 81.4828 115.367 78.4692 115.367Z" fill="#DA8112"/>
<path d="M98.8026 78.7874C98.8026 78.7874 95.281 78.2157 93.7791 77.4823C92.2772 76.7488 86.5429 93.3482 86.7651 94.4538C86.9873 95.5539 95.2309 97.4037 95.7739 94.4538C96.317 91.5038 98.8026 78.7874 98.8026 78.7874Z" fill="#FFAF50"/>
<path d="M92.864 31.1949C92.9379 35.3852 93.8811 39.1494 95.6866 44.6394C97.4922 50.1348 101.668 52.8043 102.298 54.05C102.929 55.2958 101.239 60.7318 100.211 60.8774C99.1823 61.0231 92.7173 56.3204 90.2193 49.5631C87.7213 42.8058 85.5911 33.9129 87.5013 33.255C89.4114 32.5916 92.864 31.1949 92.864 31.1949Z" fill="#8B96FC"/>
<path d="M97.4556 106.577C101.531 104.301 116.14 96.2119 119.901 96.8806C123.663 97.5439 126.15 102.106 128.288 103.126C130.426 104.145 134.374 99.3505 133.879 99.0323C133.385 98.7141 131.777 97.6841 131.777 97.6841C131.777 97.6841 134.239 98.9137 134.835 97.8998C135.43 96.8859 137.98 96.0716 136.659 95.0524C135.338 94.0331 125.337 88.6671 123.995 88.8559C122.654 89.0446 125.873 86.7419 125.324 85.6957C124.776 84.6441 121.338 88.3759 119.793 88.6078C118.249 88.8397 95.3767 91.6332 94.5267 92.6579C93.6774 93.6825 97.4556 106.577 97.4556 106.577Z" fill="url(#paint3_linear)"/>
<path d="M83.6798 45.5671C82.591 44.7581 79.8104 42.6926 76.3751 42.8005C71.5625 42.9569 68.3052 47.2928 66.8313 49.2504C60.4596 57.7281 61.2674 68.379 61.9081 76.8136C62.5596 85.3991 65.2652 91.6818 70.6764 104.247C71.405 105.935 72.5332 108.438 75.0544 109.673C76.1491 110.206 77.1242 110.314 85.6029 109.273C89.7835 108.761 90.744 108.589 91.3221 107.704C92.3484 106.135 90.6874 104.587 90.1384 100.839C89.2717 94.9283 92.254 90.9322 90.7149 89.8644C90.1044 89.4437 89.2917 89.832 88.4299 90.2257C87.5794 90.614 86.6799 91.0023 85.878 90.6032C84.3615 89.8536 84.2536 86.8282 84.8145 81.3706C85.728 72.4884 87.8739 62.4253 88.0454 61.6271C89.0075 57.1564 89.529 55.0316 88.6505 52.2435C87.4473 48.4199 84.5136 46.1819 83.6798 45.5671Z" fill="#7C84FF"/>
<path d="M73.4468 43.3721C73.7423 43.2534 74.0465 43.151 74.3587 43.0647C74.3377 43.0916 74.3172 43.1132 74.2962 43.1402C74.2104 43.1618 74.1263 43.1887 74.0422 43.2157C73.8426 43.2588 73.6436 43.3127 73.4468 43.3721Z" fill="#5A6AC9"/>
<path d="M74.3404 109.263C72.2663 107.952 71.2719 105.741 70.6091 104.204C69.4124 101.427 68.3484 98.9515 67.4089 96.6972C67.424 96.6918 67.4386 96.6864 67.4531 96.681C68.398 98.9569 69.4701 101.443 70.6765 104.247C71.3323 105.768 72.3122 107.947 74.3404 109.263Z" fill="#DA8112"/>
<path d="M67.4087 96.6971C64.1012 88.7479 62.3474 83.4575 61.84 76.7703C61.1993 68.3304 60.3914 57.6848 66.7637 49.2071C67.9237 47.6648 70.1898 44.6609 73.4466 43.372C73.6434 43.3127 73.8424 43.2587 74.042 43.2156C70.4999 44.3697 68.0526 47.627 66.8311 49.2503C60.4594 57.7279 61.2672 68.3789 61.9079 76.8134C62.4143 83.4844 64.1605 88.7641 67.4529 96.6809C67.4383 96.6863 67.4238 96.6917 67.4087 96.6971Z" fill="#5463C1"/>
<path d="M77.1177 110.023C75.9561 110.023 75.4837 109.872 74.9864 109.624C74.7599 109.516 74.5453 109.397 74.3404 109.263C72.3121 107.947 71.3322 105.768 70.6764 104.247C69.47 101.443 68.3979 98.9568 67.4531 96.681C64.1607 88.7642 62.4145 83.4845 61.9081 76.8135C61.2674 68.379 60.4596 57.728 66.8313 49.2503C68.0528 47.6271 70.5001 44.3697 74.0421 43.2157C74.1263 43.1887 74.2104 43.1618 74.2962 43.1402C72.4787 45.238 70.0552 48.2634 68.0042 52.4483C60.2686 68.2334 66.1167 83.6733 67.274 86.5315C67.8619 87.9876 71.7917 97.7002 76.346 97.7002C76.4053 97.7002 76.4646 97.7002 76.524 97.7002C79.4874 97.533 81.9579 93.2241 82.3294 93.2241C82.3386 93.2241 82.3467 93.2241 82.3532 93.2295C82.5678 93.4075 80.4042 95.6995 79.5278 99.275C78.9761 101.518 79.036 103.859 79.4895 103.961C79.5003 103.967 79.5116 103.967 79.523 103.967C79.9231 103.967 80.6096 102.419 81.2751 100.871C81.9406 99.3289 82.5851 97.7811 82.8995 97.7811C82.9081 97.7811 82.9162 97.7811 82.9243 97.7865C83.3384 97.9052 82.022 100.801 83.3023 102.915C84.6263 105.099 88.0783 105.38 89.7576 105.38C90.1971 105.38 90.5153 105.358 90.6421 105.347C90.8777 105.337 91.0999 105.299 91.3264 105.272C91.6257 106.21 91.7293 106.933 91.2542 107.661C90.6766 108.545 89.7161 108.718 85.536 109.23C80.9068 109.802 78.5145 110.023 77.1177 110.023Z" fill="#737BF6"/>
<path d="M50.2615 119.477C50.0161 119.369 49.7724 119.261 49.5281 119.153L49.5782 119.072C49.8047 119.164 50.0566 119.266 50.3332 119.369L50.2615 119.477ZM50.5047 117.578L50.715 117.239L49.6952 116.608L32.172 105.719L30.6286 108.2C28.9525 106.906 27.4732 105.525 26.1304 104.053C26.4297 103.805 26.7462 103.562 27.0795 103.341C28.9449 102.079 29.9378 102.193 31.0832 101.696C32.4347 102.98 33.9754 104.193 35.7788 105.391C42.2466 109.705 47.8228 112.682 53.2184 115.017L51.538 117.552C51.167 117.562 50.8218 117.568 50.5047 117.578Z" fill="#AE6A21"/>
<path d="M21.6262 97.0854C21.8727 96.3898 22.3424 95.2788 22.9696 94.3459C22.5015 95.2573 22.0523 96.1687 21.6262 97.0854Z" fill="#AEB3CE"/>
<path d="M21.4327 97.7595C21.4268 97.711 21.4947 97.4575 21.6263 97.0854C22.0524 96.1686 22.5016 95.2572 22.9697 94.3458C23.0916 94.1679 23.2194 93.9952 23.3526 93.8281C22.6699 95.1385 22.027 96.4383 21.4327 97.7595Z" fill="#AE6A21"/>
<path d="M100.327 107.542C94.9732 111.269 91.2531 112.196 90.5121 111.026C89.7712 109.85 87.895 103.762 87.8955 98.8759C87.8955 93.9899 88.0589 89.2118 90.1541 89.1578C92.2497 89.1039 97.9058 88.3435 98.3987 89.805C98.8917 91.2665 97.3671 96.3951 97.6475 99.8951C97.9285 103.39 100.327 107.542 100.327 107.542Z" fill="#8B96FC"/>
<path d="M65.7485 180.516C63.5767 180.516 60.3054 179.713 57.5259 178.893C57.3042 177.444 51.5322 174.077 46.7681 170.488C31.9489 159.326 23.4168 144.743 21.6431 140.806C18.8641 134.642 16.4157 125.29 17.3816 113.038C17.8395 107.235 19.3306 102.414 21.4328 97.7596C22.8543 100.041 24.3757 102.128 26.1305 104.053C22.1236 107.381 21.0709 112.622 20.8104 113.917C20.0705 117.605 20.2113 122.745 24.5326 130.964C31.3654 143.961 42.5239 153.007 52.5477 161.133C52.5477 161.133 56.4586 164.304 64.1063 173.28C67.6047 177.386 68.4988 178.887 68.0243 179.745C67.719 180.296 66.8842 180.516 65.7485 180.516ZM31.0834 101.696C28.4031 99.1509 26.4692 96.325 24.7122 92.7603C24.2171 92.9329 23.7593 93.332 23.3526 93.8281C24.5833 91.4714 25.9423 89.0931 27.3731 86.5908C34.2539 74.5538 40.1747 67.1116 44.4173 62.862C47.6547 59.6155 51.6989 56.1371 56.0407 52.7557H56.0418C57.4482 54.2765 41.7727 64.151 34.3283 81.7804C31.0931 89.4437 31.9775 101.184 31.9775 101.184C31.6593 101.411 31.3665 101.572 31.0834 101.696Z" fill="#D67F18"/>
<path d="M26.1304 104.053C24.3755 102.128 22.8542 100.041 21.4326 97.7596C22.0269 96.4383 22.6697 95.1386 23.3525 93.8281C23.7591 93.332 24.217 92.9329 24.712 92.7603C26.469 96.325 28.403 99.1509 31.0832 101.696C29.9378 102.193 28.9449 102.079 27.0795 103.341C26.7462 103.562 26.4297 103.805 26.1304 104.053Z" fill="#925C33"/>
<path d="M53.604 112.164L56.6764 114.197L61.4787 106.954L58.4064 104.916L53.604 112.164Z" fill="#FA600D"/>
<path d="M55.1404 113.183L53.604 112.164L58.4064 104.916L59.9423 105.935L55.1404 113.183Z" fill="#D84505"/>
<path d="M15.0879 122.901C15.9276 123.344 17.0951 122.955 17.6954 122.038L36.893 92.7226C37.4933 91.8058 37.2991 90.7057 36.4589 90.2634C35.6192 89.8212 34.4517 90.2095 33.8515 91.1263L14.6543 120.448C14.0541 121.364 14.2482 122.465 15.0879 122.901Z" fill="#785132"/>
<path d="M18.7222 114.235L21.7632 115.826L27.6037 106.906L24.5622 105.315L18.7222 114.235Z" fill="white"/>
<path d="M22.5727 108.351L25.6137 109.947L25.055 110.8L22.0134 109.209L22.5727 108.351Z" fill="#FF123A"/>
<path d="M23.8148 106.458L26.8559 108.049L26.2972 108.901L23.2561 107.31L23.8148 106.458Z" fill="#FF123A"/>
<path d="M30.2442 85.1077L44.5236 92.5931C45.0035 92.8466 45.1146 93.4722 44.7716 93.9953L43.1155 96.5245C42.7725 97.053 42.1054 97.2688 41.6254 97.0207L27.3461 89.5353C26.8656 89.2873 26.755 88.6563 27.098 88.1332L28.7542 85.6039C29.0972 85.0808 29.7642 84.8596 30.2442 85.1077Z" fill="#938F90"/>
<path d="M29.7357 85.0108L29.6645 85.1024L28.0083 87.6317C27.6653 88.1548 27.7764 88.7858 28.2564 89.0393L42.5363 96.5192C42.6916 96.6001 42.8669 96.6271 43.0443 96.6163C42.6867 97.0747 42.0757 97.2581 41.6254 97.0208L27.3461 89.5354C26.8656 89.2873 26.7545 88.6564 27.098 88.1333L28.7536 85.604C28.986 85.248 29.3652 85.0377 29.7357 85.0108Z" fill="#605D5E"/>
<path d="M85.2092 120.847C81.7545 124.098 77.6117 125.441 75.9976 126.045C71.6708 125.668 67.4476 124.816 63.3679 123.484C52.018 119.784 43.4303 115.632 33.7263 109.166C28.6791 105.8 24.6592 101.713 21.6942 96.9506C21.2838 95.1116 22.6552 91.9784 24.5994 91.2988C27.2419 96.6648 31.2806 101.179 36.6606 104.765C47.4982 111.991 55.8308 115.464 65.0084 118.458C71.3985 120.545 78.186 121.343 85.2092 120.847Z" fill="#83310A"/>
<path d="M21.6942 96.9506C21.2838 95.1117 22.6552 91.9784 24.5994 91.2989C25.8052 93.7473 27.3152 96.0069 29.097 98.0939C29.2205 100.429 29.7873 102.306 30.1001 103.341C30.4954 104.652 30.984 106.264 31.8895 107.877C27.6949 104.77 24.2903 101.119 21.6942 96.9506Z" fill="#631E02"/>
<path d="M25.0637 117.158L43.6067 128.682L50.7151 117.239L32.1721 105.719L25.0637 117.158Z" fill="#91381B"/>
<path d="M32.4801 115.427C32.925 116.586 33.9313 119.207 36.5199 120.507C40.2351 122.373 44.6357 120.631 45.3815 120.243C47.3796 119.186 48.8767 117.713 49.6953 116.608L50.7151 117.239L43.6067 128.682L25.0637 117.158L32.1721 105.719L32.4547 105.892C31.6776 108.675 31.1917 112.067 32.4801 115.427Z" fill="#701D00"/>
<path d="M121.58 27.5869L120.468 27.3874C120.137 27.3388 119.837 27.2957 119.53 27.2687L118.571 27.1932C118.23 27.1771 117.869 27.1609 117.429 27.1069C117.652 26.724 118.001 26.4652 118.386 26.298C118.773 26.12 119.211 26.0553 119.644 26.0985C120.505 26.1848 121.353 26.7294 121.58 27.5869Z" fill="#0B1863"/>
<path d="M118.997 29.2535C118.682 29.7119 118.654 30.2404 118.934 30.4345C119.215 30.6233 119.698 30.4076 120.012 29.9438C120.327 29.4854 120.355 28.9569 120.075 28.7627C119.795 28.574 119.312 28.7897 118.997 29.2535Z" fill="#0B1863"/>
<path d="M129.549 22.701C128.544 24.1787 126.56 25.2356 125.051 24.7826C123.787 24.4051 122.514 22.8682 122.248 22.5446C121.651 21.8219 121.36 21.2395 120.909 21.2826C120.468 21.3204 120.4 21.9082 119.51 22.7333C119.033 23.1755 118.738 23.4506 118.289 23.58C117.142 23.8982 115.893 23.003 115.493 22.7117C114.673 22.1239 114.574 21.6979 113.988 21.6332C113.462 21.5792 112.86 21.8435 112.509 22.2803C111.863 23.0892 112.492 23.9468 111.872 24.7503C111.426 25.3219 110.678 25.4244 110.362 25.4675C109.151 25.6293 107.984 24.9606 107.33 24.1571C106.725 23.4183 106.919 23.003 106.363 22.6255C105.57 22.0808 104.37 22.3666 103.657 22.7387C101.99 23.6177 101.62 25.721 101.582 25.9583C101.439 26.8481 101.656 27.1986 101.382 27.4144C100.621 28.013 98.1415 25.9583 97.2047 25.1817C95.4715 23.7418 94.2435 22.7225 94.4371 21.6709C94.6598 20.4575 96.6077 20.0585 96.4573 19.3736C96.351 18.8882 95.3782 19.0931 94.457 18.2518C93.8045 17.6586 93.1903 16.5585 93.5349 15.6255C93.7716 14.9891 94.367 14.6817 94.7051 14.5038C95.2886 14.2018 95.7821 14.2988 96.2324 14.3905C96.6622 14.4822 97.0521 14.5685 97.4426 14.315C97.9721 13.9699 98.1258 13.2903 98.2946 12.5407C98.5379 11.4675 98.2272 11.2356 98.4343 10.6316C98.9191 9.21868 101.385 8.24259 102.849 8.93828C103.6 9.2996 103.572 9.84965 104.21 9.95751C105.105 10.1031 105.475 9.0677 107.075 8.28033C107.538 8.05383 109.255 7.21255 110.329 7.88666C111.118 8.38281 110.882 9.26726 111.585 9.54229C112.311 9.83351 112.855 8.9976 114.346 8.50685C114.656 8.40438 116.209 7.9244 117.898 8.41516C119.303 8.82502 120.902 9.93594 120.825 10.966C120.791 11.4136 120.459 11.5538 120.554 11.7911C120.672 12.0823 121.24 11.9907 122.021 11.8936C122.977 11.7803 124.251 11.6671 125.406 12.2603C126.241 12.6863 127.316 13.6355 127.341 14.7195C127.36 15.523 126.797 15.9706 127.047 16.3967C127.22 16.6825 127.601 16.6717 128.045 16.6555C128.459 16.6447 128.927 16.634 129.329 16.8659C130.597 17.6047 130.941 20.6571 129.549 22.701Z" fill="#191977"/>
<path d="M127.67 11.2303C125.46 6.62479 124.268 0.449899 118.385 -2.69417C112.502 -5.83823 107.163 -5.09399 104.005 -4.34438C100.736 -3.56241 96.3466 -0.3267 95.5377 3.18948C94.7282 6.71105 95.164 12.1255 95.5377 13.2473C95.9109 14.3636 102.199 15.9545 106.806 16.1109C111.413 16.2673 126.82 14.8652 128.253 14.1155C129.685 13.3713 127.67 11.2303 127.67 11.2303Z" fill="#F6AC25"/>
<path d="M95.5379 13.2472C95.3313 12.627 95.107 10.691 95.0833 8.49604C96.212 5.68094 96.9492 4.11702 98.4948 2.69329C100.462 0.881273 102.61 0.331196 104.315 -0.111022C108.899 -1.28668 112.632 -0.213488 113.561 0.0777292C116.892 1.11856 118.983 2.93596 119.537 3.4375C122.497 6.11778 123.577 9.21868 124.144 10.9121C124.809 12.8966 125.141 13.889 124.922 14.7087L124.9 14.7734C119.736 15.4691 110.251 16.2241 106.806 16.1108C102.199 15.9544 95.9111 14.3635 95.5379 13.2472Z" fill="#E29314"/>
<path d="M126.744 9.67184C129.608 10.5023 132.166 11.8775 132.431 13.1503C132.859 15.205 130.919 15.906 127.661 16.6718C122.868 17.7882 107.47 17.799 102.49 17.0925C97.5095 16.3914 95.1436 15.685 94.4377 14.9785C93.7323 14.272 95.5168 13.4846 95.5168 13.4846C95.5168 13.4846 98.5115 14.7088 102.365 14.9785C106.495 15.2697 116.644 14.9353 121.083 14.4823C125.514 14.0239 127.625 14.0131 127.661 12.2496C127.67 11.7912 126.744 9.67184 126.744 9.67184Z" fill="#E29314"/>
<path d="M98.1857 13.7488C98.0217 13.2688 97.8599 11.0146 97.8411 9.31581C98.7374 7.14786 99.3225 5.93446 100.549 4.8397C102.112 3.44293 103.816 3.01147 105.171 2.67711C108.809 1.76571 111.773 2.59625 112.51 2.81736C115.154 3.6209 116.814 5.02846 117.254 5.41675C119.604 7.48223 120.462 9.87665 120.911 11.1817C121.439 12.7187 121.704 13.4845 121.529 14.1155L121.512 14.164C117.413 14.7033 109.883 15.2857 107.148 15.1995C103.49 15.0754 98.4823 14.6171 98.1857 13.7488Z" fill="#E29314"/>
<path d="M100.549 4.83966C102.156 3.49143 103.816 3.01143 105.171 2.67707C108.809 1.76567 111.773 2.59621 112.51 2.81732C115.154 3.62086 116.815 5.02842 117.255 5.41671C119.604 7.4822 120.462 9.87662 120.912 11.1817C121.439 12.7187 121.704 13.4845 121.529 14.1155L121.512 14.164C117.413 14.7033 109.883 15.2857 107.148 15.1994C103.49 15.0754 98.3837 14.59 98.0871 13.7272C97.9232 13.2472 97.0943 7.73565 100.549 4.83966ZM95.0833 8.49604C95.107 10.691 95.3313 12.627 95.5379 13.2472C95.9111 14.3635 102.199 15.9544 106.806 16.1108C110.251 16.2241 119.736 15.4691 124.9 14.7734L124.922 14.7087C125.141 13.889 124.809 12.8966 124.144 10.9121C123.577 9.21868 122.497 6.11778 119.537 3.4375C118.983 2.93596 116.892 1.11856 113.561 0.0777292C112.632 -0.213488 108.899 -1.28668 104.315 -0.111022C102.61 0.331196 100.462 0.881273 98.4948 2.69329C96.9492 4.11702 96.212 5.68094 95.0833 8.49604Z" fill="#FFC248"/>
<path d="M107.607 16.1216C107.327 16.1216 107.071 16.1162 106.841 16.1108C107.071 16.1162 107.327 16.1216 107.607 16.1216C111.29 16.1216 119.003 15.5122 123.918 14.8974C119.003 15.5122 111.291 16.1216 107.607 16.1216Z" fill="#DB8D11"/>
<path d="M95.5376 13.2473C95.537 13.2419 95.5359 13.2419 95.5354 13.2365C95.5359 13.2419 95.537 13.2419 95.5376 13.2473Z" fill="#EBA11F"/>
<path d="M113.321 14.9515C116.198 14.7519 119.338 14.4499 121.512 14.1641L121.529 14.1156C121.668 13.6086 121.527 13.0208 121.195 12.0177H121.196C121.528 13.0208 121.668 13.6086 121.529 14.1156L121.512 14.1641C119.338 14.4499 116.198 14.7519 113.321 14.9515Z" fill="#DB8D11"/>
<path d="M107.782 15.2048C107.549 15.2048 107.337 15.2048 107.148 15.1994C107.133 15.1994 107.119 15.194 107.104 15.194C107.119 15.194 107.133 15.1994 107.148 15.1994C107.337 15.2048 107.549 15.2048 107.782 15.2048C109.127 15.2048 111.149 15.1078 113.321 14.9514C111.149 15.1078 109.127 15.2048 107.782 15.2048ZM123.939 14.8974C123.941 14.8974 123.943 14.8974 123.945 14.8974C123.943 14.8974 123.941 14.8974 123.939 14.8974Z" fill="#DB8D11"/>
<path d="M127.01 9.75262C127.01 9.75262 127.01 9.75262 127.009 9.75262C126.974 9.66634 126.938 9.58543 126.902 9.49915C126.902 9.49915 126.902 9.49915 126.903 9.49915C126.938 9.58004 126.974 9.66634 127.01 9.75262Z" fill="#F3E6D4"/>
<path d="M124.987 14.0562C124.962 13.463 124.745 12.7242 124.389 11.6456C125.162 11.4731 125.908 11.1603 126.396 10.5562C126.583 10.3244 126.714 10.0763 126.806 9.81741C127.013 10.2974 127.669 11.8667 127.661 12.2496C127.638 13.3767 126.768 13.7866 124.987 14.0562ZM127.009 9.75268C126.955 9.7365 126.899 9.72036 126.844 9.70418C126.866 9.63407 126.885 9.56392 126.902 9.4992C126.938 9.58549 126.974 9.66639 127.009 9.75268Z" fill="#EBA11F"/>
<path d="M124.9 14.7735L124.922 14.7088C124.976 14.5038 124.996 14.2935 124.987 14.0562C126.767 13.7866 127.638 13.3767 127.661 12.2496C127.669 11.8667 127.013 10.2974 126.806 9.81739C126.819 9.77964 126.832 9.74191 126.844 9.70416C126.899 9.72034 126.955 9.73649 127.009 9.75267C127.01 9.75267 127.01 9.75267 127.01 9.75267C127.224 10.2596 127.442 10.7558 127.67 11.2303C127.67 11.2303 129.684 13.3713 128.253 14.1156C127.891 14.3043 126.641 14.5362 124.9 14.7735Z" fill="#DB8D11"/>
<path d="M99.4568 14.3959C98.6861 14.2071 98.1749 13.9806 98.087 13.7271C98.0174 13.5222 97.8297 12.4221 97.896 10.9983C97.9613 12.2495 98.0729 13.4198 98.1857 13.7487C98.2709 13.9968 98.7417 14.2125 99.4568 14.3959Z" fill="#DB8D11"/>
<path d="M95.5345 13.2364C95.534 13.2364 95.5334 13.231 95.5334 13.231C95.5334 13.231 95.534 13.2364 95.5345 13.2364Z" fill="#EBA11F"/>
<path d="M95.5291 13.2202C95.5291 13.2202 95.5291 13.2202 95.5286 13.2148C95.5291 13.2202 95.5291 13.2202 95.5291 13.2202Z" fill="#EBA11F"/>
<path d="M95.5274 13.2149C95.5269 13.2095 95.5269 13.2095 95.5264 13.2095C95.5264 13.2095 95.5269 13.2095 95.5274 13.2149Z" fill="#EBA11F"/>
<path d="M95.5228 13.1987C95.5228 13.1987 95.5223 13.1932 95.5217 13.1932C95.5223 13.1932 95.5228 13.1987 95.5228 13.1987Z" fill="#EBA11F"/>
<path d="M95.5158 13.1772C95.5142 13.1718 95.5126 13.1664 95.5115 13.161C95.5126 13.1664 95.5142 13.1718 95.5158 13.1772Z" fill="#EBA11F"/>
<path d="M95.5107 13.1556C95.5096 13.1502 95.508 13.1448 95.5063 13.1394C95.508 13.1448 95.5096 13.1502 95.5107 13.1556Z" fill="#EBA11F"/>
<path d="M95.5378 3.18951C95.5405 3.17873 95.5438 3.16798 95.5465 3.15181C95.5438 3.16798 95.5405 3.17873 95.5378 3.18951ZM95.5492 3.14101C95.5508 3.13562 95.5524 3.1302 95.5546 3.11942C95.5524 3.1302 95.5508 3.13562 95.5492 3.14101Z" fill="#F3E6D4"/>
<path d="M95.5059 13.1395C95.2966 12.3845 95.0798 10.3567 95.0798 8.11869C95.0798 6.44688 95.2012 4.65642 95.5377 3.18955C95.5404 3.17876 95.5436 3.16802 95.5463 3.15184C95.5469 3.15184 95.5479 3.14643 95.549 3.14104C95.5506 3.13565 95.5523 3.13023 95.5544 3.11945C95.6935 2.55319 95.9325 1.99235 96.2382 1.44227C96.4933 2.15953 96.6939 3.20036 97.0736 4.35445C96.3623 5.41685 95.8019 6.70035 95.0831 8.49619C95.1057 10.5779 95.3085 12.4276 95.5059 13.1395Z" fill="#EBA11F"/>
<path d="M98.6123 7.55231C98.6209 7.53074 98.6296 7.50915 98.6387 7.48758C98.6393 7.48758 98.6403 7.49301 98.6414 7.49301C98.6317 7.50918 98.622 7.53074 98.6123 7.55231Z" fill="#DB8D11"/>
<path d="M107.783 15.2048C107.55 15.2048 107.337 15.2048 107.148 15.1994C107.133 15.1994 107.119 15.194 107.104 15.194C104.538 15.1078 101.275 14.8435 99.4569 14.3959C98.7418 14.2125 98.2711 13.9968 98.1858 13.7487C98.0731 13.4198 97.9615 12.2495 97.8962 10.9984C97.9459 9.94675 98.1341 8.72254 98.6124 7.55227C98.6221 7.5307 98.6318 7.50915 98.6415 7.49297C98.957 7.91901 99.3232 8.33427 99.7503 8.73334C101.691 10.5292 104.565 11.57 109.006 12.0122C111.686 12.2765 113.483 12.4005 115.211 12.4005C116.985 12.4005 118.686 12.2711 121.195 12.0176C121.527 13.0207 121.669 13.6085 121.529 14.1155L121.512 14.164C119.338 14.4498 116.198 14.7518 113.321 14.9514C111.149 15.1078 109.128 15.2048 107.783 15.2048Z" fill="#DB8D11"/>
<path d="M107.607 16.1216C107.327 16.1216 107.071 16.1162 106.841 16.1108C106.829 16.1108 106.818 16.1108 106.806 16.1108C102.199 15.9544 95.9111 14.3635 95.5379 13.2471C95.5373 13.2417 95.5363 13.2418 95.5357 13.2364C95.5352 13.2364 95.5352 13.2364 95.5346 13.2364C95.5341 13.2364 95.5336 13.231 95.5336 13.231C95.533 13.231 95.5325 13.231 95.5319 13.2256C95.5319 13.2256 95.5314 13.2256 95.5309 13.2256C95.5303 13.2202 95.5298 13.2202 95.5292 13.2202C95.5292 13.2202 95.5292 13.2202 95.5287 13.2148C95.5287 13.2148 95.5282 13.2148 95.5276 13.2148C95.5271 13.2094 95.5265 13.2094 95.5265 13.2094C95.526 13.2094 95.5255 13.204 95.5249 13.204H95.5244C95.5238 13.1986 95.5233 13.1986 95.5228 13.1986C95.5228 13.1986 95.5222 13.1932 95.5217 13.1932C95.5211 13.1932 95.5211 13.1932 95.5206 13.1878C95.5201 13.1878 95.5195 13.1878 95.5195 13.1878C95.519 13.1878 95.519 13.1824 95.5185 13.1824C95.5179 13.1824 95.5174 13.177 95.5168 13.177C95.5163 13.177 95.5163 13.177 95.5158 13.177C95.5141 13.1716 95.5125 13.1662 95.5114 13.1609L95.5109 13.1555C95.5098 13.1501 95.5082 13.1447 95.5066 13.1393C95.506 13.1393 95.5061 13.1393 95.5061 13.1393C95.3087 12.4274 95.1059 10.5776 95.0833 8.49599C95.8021 6.70015 96.3624 5.41664 97.0738 4.35424C97.406 5.36272 97.8757 6.45746 98.6388 7.4875C98.6296 7.50907 98.621 7.53066 98.6124 7.55223C98.134 8.72249 97.9458 9.9467 97.8962 10.9983C97.8299 12.422 98.0175 13.5222 98.0871 13.7271C98.175 13.9806 98.6862 14.2071 99.4569 14.3959C101.275 14.8435 104.538 15.1077 107.104 15.194C107.119 15.194 107.133 15.1994 107.148 15.1994C107.337 15.2048 107.549 15.2048 107.782 15.2048C109.127 15.2048 111.149 15.1077 113.321 14.9513C116.198 14.7518 119.338 14.4497 121.512 14.1639L121.529 14.1154C121.669 13.6085 121.528 13.0206 121.196 12.0175C121.479 11.9906 121.774 11.9582 122.079 11.9259C122.687 11.8665 123.554 11.8342 124.389 11.6455C124.745 12.724 124.962 13.4628 124.987 14.0561C124.997 14.2933 124.976 14.5037 124.922 14.7086L124.9 14.7734C124.596 14.8111 124.277 14.8542 123.945 14.8974C123.943 14.8974 123.941 14.8974 123.939 14.8974C123.932 14.8974 123.925 14.8974 123.918 14.8974C119.003 15.5122 111.29 16.1216 107.607 16.1216Z" fill="#F3B43C"/>
<path d="M126.744 9.11637C129.608 9.94148 132.166 11.3221 132.431 12.5894C132.859 14.6441 130.919 15.3452 127.661 16.111C122.868 17.2273 107.47 17.2381 102.49 16.537C97.5095 15.8305 95.1436 15.1241 94.4377 14.4176C93.7323 13.7111 95.5168 12.9237 95.5168 12.9237C95.5168 12.9237 98.5115 14.1479 102.365 14.4176C106.495 14.7088 116.644 14.3744 121.083 13.9214C125.513 13.463 127.625 13.4523 127.661 11.6888C127.67 11.2304 126.744 9.11637 126.744 9.11637Z" fill="#F9C249"/>
<path d="M116.745 37.1L116.668 37.0892C116.127 36.9436 115.625 36.7009 115.177 36.3827C114.234 35.6978 113.761 34.8134 113.531 34.1879C113.475 34.0369 113.552 33.8643 113.704 33.8104C113.859 33.7564 114.026 33.8319 114.082 33.9829C114.285 34.533 114.698 35.3096 115.521 35.9028C115.911 36.1832 116.349 36.3935 116.822 36.5176C116.978 36.5607 117.071 36.7225 117.029 36.8789C116.993 37.0137 116.874 37.1 116.745 37.1Z" fill="#E27988"/>
<defs>
<linearGradient id="paint0_linear" x1="147.18" y1="51.7742" x2="143.083" y2="93.4327" gradientUnits="userSpaceOnUse">
<stop stop-color="#F4BDC1"/>
<stop offset="0.0819368" stop-color="#F4BDC1"/>
<stop offset="1" stop-color="#F599A2"/>
</linearGradient>
<linearGradient id="paint1_linear" x1="147.18" y1="51.7742" x2="143.083" y2="93.4326" gradientUnits="userSpaceOnUse">
<stop stop-color="#EEAFB2"/>
<stop offset="0.0819368" stop-color="#EEAFB2"/>
<stop offset="1" stop-color="#EF9098"/>
</linearGradient>
<linearGradient id="paint2_linear" x1="126.224" y1="35.1264" x2="91.7366" y2="35.1264" gradientUnits="userSpaceOnUse">
<stop stop-color="#F4BDC1"/>
<stop offset="1" stop-color="#F68B96"/>
</linearGradient>
<linearGradient id="paint3_linear" x1="129.436" y1="107.672" x2="97.868" y2="87.4391" gradientUnits="userSpaceOnUse">
<stop stop-color="#F4BDC1"/>
<stop offset="1" stop-color="#F68B96"/>
</linearGradient>
</defs>
</svg>
