<?xml version="1.0" encoding="UTF-8" standalone="no"?>
<svg
   xmlns:dc="http://purl.org/dc/elements/1.1/"
   xmlns:cc="http://creativecommons.org/ns#"
   xmlns:rdf="http://www.w3.org/1999/02/22-rdf-syntax-ns#"
   xmlns:svg="http://www.w3.org/2000/svg"
   xmlns="http://www.w3.org/2000/svg"
   xmlns:sodipodi="http://sodipodi.sourceforge.net/DTD/sodipodi-0.dtd"
   xmlns:inkscape="http://www.inkscape.org/namespaces/inkscape"
   width="171.799"
   height="171.799"
   viewBox="0 0 171.799 171.799"
   version="1.1"
   id="svg184"
   sodipodi:docname="professionals.svg"
   style="fill:none"
   inkscape:version="0.92.2 (5c3e80d, 2017-08-06)">
  <metadata
     id="metadata188">
    <rdf:RDF>
      <cc:Work
         rdf:about="">
        <dc:format>image/svg+xml</dc:format>
        <dc:type
           rdf:resource="http://purl.org/dc/dcmitype/StillImage" />
      </cc:Work>
    </rdf:RDF>
  </metadata>
  <sodipodi:namedview
     pagecolor="#ffffff"
     bordercolor="#666666"
     borderopacity="1"
     objecttolerance="10"
     gridtolerance="10"
     guidetolerance="10"
     inkscape:pageopacity="0"
     inkscape:pageshadow="2"
     inkscape:window-width="1348"
     inkscape:window-height="703"
     id="namedview186"
     showgrid="false"
     inkscape:zoom="1.7986139"
     inkscape:cx="86.569249"
     inkscape:cy="65.020303"
     inkscape:window-x="0"
     inkscape:window-y="0"
     inkscape:window-maximized="0"
     inkscape:current-layer="svg184" />
  <path
     d="m 128.4823,84.369838 c -0.001,-0.0054 -0.002,-0.0055 -0.003,-0.0055 5.951,-6.2773 9.183,-10.8127 9.544,-11.1956 0.161,-0.1672 0.332,-0.3074 0.513,-0.4261 -0.172,0.1133 -0.334,0.2535 -0.488,0.4153 -0.362,0.3775 -3.601,4.9237 -9.566,11.2119 z m -1.717,-2.5994 c -1.476,-2.141 -3.137,-4.3359 -4.478,-5.8082 3.457,-1.9468 6.703,-3.7427 8.409,-4.5247 1.021,-0.4638 3.154,-1.3859 3.716,-3.2842 0.233,-0.7874 -0.008,-1.0517 0.214,-2.2219 0.406,-2.1464 1.705,-3.8452 2.156,-3.8452 0.018,0 0.035,0.0054 0.051,0.0108 0.125,0.0432 0.092,0.2589 0.23,1.8228 0.113,1.2943 0.168,1.5154 0.343,1.6394 0.081,0.0594 0.177,0.0864 0.289,0.0864 0.384,0 0.957,-0.3182 1.793,-0.8251 3.027,-1.839 4.54,-2.7559 5.528,-4.0879 0.53,-0.7173 0.595,-0.9977 0.948,-1.0678 0.045,-0.0054 0.09,-0.0108 0.134,-0.0108 1.337,0 2.944,3.5486 3.87,5.5925 1.291,2.8528 1.923,4.2981 1.291,5.3282 -0.582,0.9545 -2.009,1.0893 -4.84,1.332 -2.794,0.2373 -4.72,0.0809 -6.132,0.2535 -1.265,-0.4207 -2.119,-0.6364 -2.672,-0.6364 -0.038,0 -0.075,0 -0.111,0.0054 -4.178,0.2481 -4.99,4.1364 -10.739,10.2412 z"
     id="path2"
     inkscape:connector-curvature="0"
     style="fill:url(#paint0_linear)" />
  <path
     d="m 138.5363,72.742738 c 0.488,-0.3344 1.057,-0.4961 1.751,-0.5824 0.011,0.0054 0.022,0.0054 0.034,0.0108 -0.707,0.0809 -1.289,0.2426 -1.785,0.5716 z"
     id="path4"
     inkscape:connector-curvature="0"
     style="fill:#f7e7e7" />
  <path
     d="m 128.4783,84.364338 c -0.515,-0.8197 -1.098,-1.7041 -1.713,-2.5939 5.748,-6.1048 6.56,-9.9931 10.739,-10.2412 0.035,-0.0054 0.073,-0.0054 0.111,-0.0054 0.553,0 1.406,0.2157 2.672,0.6364 -0.694,0.0863 -1.263,0.248 -1.751,0.5824 -0.182,0.1187 -0.352,0.2589 -0.513,0.4261 -0.361,0.3829 -3.594,4.9183 -9.545,11.1956 z"
     id="path6"
     inkscape:connector-curvature="0"
     style="fill:url(#paint1_linear)" />
  <path
     d="m 78.813293,54.784238 c 2.4343,0.2535 3.3004,4.4384 10.428,18.5031 0.876,1.7258 4.481,7.9707 7.105,9.3243 1.263,0.6472 7.060007,-1.7257 12.676007,-4.0986 5.471,-2.3081 10.771,-4.6217 11.545,-4.1363 2.688,1.6771 10.594,13.4122 9.893,14.0917 -9.275,9.0115 -23.087,20.633602 -39.892007,19.991602 -3.443,-0.13 -7.6289,-0.34 -11.9513,-2.9393 -12.3212,-7.404502 -11.481,-25.654002 -11.3624,-27.622402 0.7011,-11.6218 7.1489,-23.5779 11.5587,-23.1141 z"
     id="path8"
     inkscape:connector-curvature="0"
     style="fill:#7480ed" />
  <path
     d="m 132.3163,85.917538 c -2.676,5.9484 -5.387,8.661 -6.625,8.0355 -1.239,-0.6256 -5.98,-4.8806 -8.493,-9.0709 -2.513,-4.1903 -4.833,-8.3752 -3.063,-9.4969 1.77,-1.1271 6.23,-4.6864 7.404,-3.6834 1.174,0.9977 2.506,6.1803 4.544,9.0332 2.039,2.8528 6.233,5.1825 6.233,5.1825 z"
     id="path10"
     inkscape:connector-curvature="0"
     style="fill:#8b96fc" />
  <path
     d="m 88.706293,62.275138 c -0.537,-1.0462 -1.258,-1.4561 -2.1542,-1.9199 -1.1066,-1.537 -2.2817,-3.5755 -2.841,-4.5462 -2.1329,-3.6996 -1.0354,-2.8583 -4.3564,-10.8667 -0.1844,-1.1595 -0.4217,-2.1895 -0.8062,-3.0093 0.0162,-0.2696 0.0679,-0.5392 0.1666,-0.8143 0.3452,-0.9599 0.9772,-1.1433 3.2331,-3.2357 1.2107,-1.1217 1.8158,-1.6826 2.3502,-2.4215 0.5959,-0.8251 0.9691,-1.6448 1.2274,-2.3998 0.8235,0.5986 1.7315,1.1487 2.3045,1.1487 0.142,0 0.263,-0.0324 0.357,-0.1079 0.275,-0.2157 0.058,-0.5662 0.201,-1.4561 0.038,-0.2373 0.408,-2.3405 2.075,-3.2195 0.428,-0.2212 1.032,-0.4153 1.618,-0.4153 0.39,0 0.771,0.0863 1.088,0.302 0.556,0.3775 0.362,0.7928 0.967,1.5316 0.586,0.7173 1.586,1.332 2.661,1.332 0.123,0 0.247,-0.0053 0.371,-0.0215 0.316,-0.0431 1.064,-0.1456 1.51,-0.7173 0.62,-0.8035 -0.009,-1.661 0.637,-2.4699 0.319,-0.3991 0.845997,-0.6526 1.334997,-0.6526 0.048,0 0.096,0 0.144,0.0054 0.58601,0.0647 0.68501,0.4908 1.50501,1.0786 0.34,0.2481 1.297,0.933 2.282,0.933 0.171,0 0.344,-0.0162 0.514,-0.0647 0.449,-0.1295 0.744,-0.4045 1.221,-0.8467 0.89,-0.8251 0.958,-1.413 1.399,-1.4507 0.015,0 0.029,0 0.044,0 0.427,0 0.718,0.5662 1.295,1.2619 0.266,0.3236 1.539,1.8606 2.803,2.2381 0.177,0.0539 0.362,0.0863 0.551,0.1025 -0.55,0.6148 -1.376,1.4183 -2.103,3.2249 -0.599,1.4939 -1.077,2.6803 -0.955,4.2604 0.103,1.3375 0.571,2.1194 0.074,2.7935 -0.399,0.5393 -1.133,0.6256 -2.058,0.7335 -1.437,0.1671 -4.772,4.0824 -5.725,4.4329 -0.79501,0.2913 -1.53301,0.4099 -2.222007,0.4099 -1.416,0 -2.626,-0.4961 -3.715,-0.9923 -1.088,-0.4961 -2.055,-0.9923 -2.983,-0.9923 -0.538,0 -1.062,0.1672 -1.59,0.5932 -0.416,0.3398 -1.281,1.0571 -1.91,2.2813 -0.922,1.785 -0.737,3.4891 -0.588,5.2149 0.489,5.6517 0.733,8.4723 0.073,8.7419 z"
     id="path12"
     inkscape:connector-curvature="0"
     style="fill:url(#paint2_linear)" />
  <path
     d="m 66.445893,110.73604 c 4.4227,0.064 12.7391,6.256 31.1494,15.283 14.987007,7.345 24.290007,12.533 25.566007,14.103 2.721,3.349 2.056,9.982 -2.204,21.306 -4.202,11.17 -7.711,30.426 -10.211,31.592 -2.852,1.331 -20.253007,-2.764 -20.143007,-4.673 0.76,-13.202 2.143,-28.536 2.143,-30.59 0,-1.575 -21.2952,-1.397 -39.2304,-9.114 -6.169,-2.654 -16.0213,-6.893 -17.0443,-14.103 -1.4426,-10.176 14.9944,-24.025 29.9743,-23.804 z"
     id="path14"
     inkscape:connector-curvature="0"
     style="fill:#d16a01" />
  <path
     d="m 135.5343,61.881438 -40.352007,55.940602 19.232007,-2.767 42.39,-58.760702 z"
     id="path16"
     inkscape:connector-curvature="0"
     style="fill:#784a3c" />
  <path
     d="m 100.43429,123.50104 c 6.43901,-6.375 12.79401,-12.825 18.46101,-19.8461 1.426,-1.7473 2.802,-3.5324 4.073,-5.398302 1.257,-1.8606 2.447,-3.7966 3.283,-5.8837 0.418,-1.0354 0.732,-2.1248 0.72,-3.2303 -0.007,-0.5555 -0.089,-1.1218 -0.077,-1.7042 0.018,-0.5824 0.093,-1.1702 0.263,-1.7203 0.687,-2.2057 1.772,-4.2119 2.898,-6.1965 2.295,-3.9476 5.167,-7.5285 8.248,-10.8721 3.077,-3.3544 6.347,-6.52 9.749,-9.5293 6.821,-6.0023 14.035,-11.53 21.511,-16.6587 l 0.064,0.0863 c -7.065,5.6788 -14.097,11.379 -20.809,17.4299 -3.363,3.0146 -6.671,6.094 -9.773,9.3675 -3.098,3.2681 -6.046,6.698 -8.485,10.4838 -0.606,0.9492 -1.167,1.9253 -1.703,2.9176 -0.524,0.9922 -1.026,2.0061 -1.335,3.0739 -0.171,0.5285 -0.247,1.0786 -0.272,1.6233 -0.019,0.5501 0.053,1.1109 0.054,1.6934 -0.008,1.1648 -0.306,2.3027 -0.727,3.3651 -1.691,4.2497 -4.257,8.067802 -6.976,11.708002 -2.767,3.6137 -5.843,6.9787 -9.048,10.1927 -3.218,3.203 -6.562,6.277 -10.04701,9.179 z"
     id="path18"
     inkscape:connector-curvature="0"
     style="fill:#9e6654" />
  <path
     d="m 95.229293,125.64704 c 1.954,-2.308 4.142,-4.309 6.325007,-6.347 1.116,-0.987 2.274,-1.936 3.311,-3.01 1.035,-1.073 1.955,-2.259 2.759,-3.505 0.781,-1.251 1.543,-2.535 1.99,-3.867 0.223,-0.658 0.341,-1.348 0.242,-1.941 -0.109,-0.5826 -0.428,-1.0301 -0.977,-1.3052 -0.526,-0.2966 -1.239,-0.4045 -1.935,-0.4638 -0.705,-0.0539 -1.433,-0.0377 -2.164,0.005 -1.464,0.0809 -2.938,0.3128 -4.42401,0.5285 l -0.028,-0.1025 c 1.39701,-0.5662 2.84801,-0.9976 4.35301,-1.2727 0.753,-0.1294 1.522,-0.2103 2.31,-0.2049 0.787,0.0162 1.598,0.0971 2.414,0.4854 0.398,0.1995 0.774,0.4961 1.055,0.879 0.283,0.3775 0.449,0.8359 0.508,1.2838 0.1,0.9 -0.116,1.715 -0.399,2.453 -0.575,1.484 -1.504,2.713 -2.47,3.873 -0.973,1.159 -1.996,2.254 -2.976,3.386 -0.983,1.133 -1.923,2.314 -2.94,3.419 -1.014,1.106 -2.15701,2.082 -3.311007,3.042 -1.152,0.965 -2.337,1.888 -3.572,2.745 z"
     id="path20"
     inkscape:connector-curvature="0"
     style="fill:#9e6654" />
  <path
     d="m 89.248293,127.55104 c 1.414,-1.354 2.895,-2.583 4.367,-3.824 1.43,-1.283 2.838,-2.583 4.115,-3.991 0.65,-0.69 1.259,-1.418 1.798,-2.178 0.552997,-0.755 1.017997,-1.564 1.313997,-2.411 0.146,-0.442 0.224,-0.847 0.168,-1.229 -0.052,-0.373 -0.297,-0.696 -0.685,-0.901 -0.772997,-0.432 -1.780997,-0.502 -2.740997,-0.545 0.951,-0.183 1.956,-0.296 2.968997,0.065 0.501,0.178 0.98801,0.631 1.14301,1.208 0.165,0.572 0.066,1.149 -0.043,1.634 -0.54401,2.028 -1.823007,3.624 -3.128007,5.086 -1.343,1.445 -2.816,2.745 -4.378,3.909 -1.589,1.133 -3.227,2.19 -4.899,3.177 z"
     id="path22"
     inkscape:connector-curvature="0"
     style="fill:#9e6654" />
  <path
     d="m 103.7223,102.33894 c 1.763,-0.6417 3.573,-1.2026 5.478,-1.4183 0.95,-0.0809 1.943,-0.1133 2.926,0.2265 0.484,0.178 0.96,0.4746 1.307,0.9006 0.356,0.4207 0.543,0.9384 0.664,1.4184 l 0.157,0.6794 c 0.024,0.1025 0.06,0.1834 0.077,0.2104 l -0.099,-0.0431 c 0.013,0 0.236,-0.1025 0.382,-0.2212 0.162,-0.1132 0.319,-0.2642 0.475,-0.4152 0.622,-0.6202 1.171,-1.3698 1.704,-2.1248 1.041,-1.537 2.164,-3.057802 3.036,-4.648702 0.435,-0.7982 0.798,-1.6287 1.033,-2.5023 0.225,-0.8737 0.357,-1.7527 -0.078,-2.4862 -0.21,-0.3829 -0.507,-0.7981 -0.677,-1.2781 -0.177,-0.4746 -0.229,-0.9761 -0.24,-1.4615 0,-0.9545 0.053,-1.9037 0.294,-2.842 0.485,-1.8606 1.475,-3.5 2.502,-5.0747 1.058,-1.5586 2.193,-3.0632 3.407,-4.5031 2.407,-2.896 5.048,-5.5979 7.85,-8.1163 2.808,-2.5293 5.788,-4.8052 8.626,-7.2212 5.72,-4.8051 11.236,-9.8636 16.186,-15.4938 l 0.085,0.0647 c -4.43,6.0832 -9.845,11.3952 -15.526,16.3028 -2.848,2.4699 -5.891,4.6757 -8.7,7.1133 -2.814,2.4429 -5.535,5.0046 -8.076,7.7388 -1.253,1.3806 -2.489,2.7881 -3.538,4.3305 -1.043,1.5316 -2.053,3.144 -2.476,4.9399 -0.21,0.8898 -0.228,1.8336 -0.191,2.745 0.035,0.4476 0.109,0.8898 0.283,1.2888 0.167,0.3991 0.441,0.7389 0.71,1.1649 0.279,0.4207 0.436,0.9708 0.447,1.4831 0.026,0.5177 -0.067,0.9977 -0.154,1.483 -0.205,0.9492 -0.539,1.8714 -0.969,2.7343 -0.876,1.7311 -1.974,3.246502 -3.056,4.794202 -0.56,0.7658 -1.128,1.5316 -1.843,2.2273 -0.181,0.1726 -0.374,0.3398 -0.594,0.4908 -0.238,0.1456 -0.421,0.3181 -0.88,0.3667 -0.129,0 -0.276,-0.0324 -0.411,-0.1132 -0.123,-0.0809 -0.208,-0.1888 -0.257,-0.2751 -0.096,-0.178 -0.134,-0.3236 -0.163,-0.4476 l -0.14,-0.6957 c -0.165,-0.8629 -0.618,-1.5262 -1.416,-1.8498 -0.784,-0.3236 -1.717,-0.3613 -2.624,-0.3236 -1.835,0.1025 -3.674,0.507 -5.49,0.9546 z"
     id="path24"
     inkscape:connector-curvature="0"
     style="fill:#9e6654" />
  <path
     d="m 116.2123,100.17114 c 0.658,-0.782002 1.181,-1.682602 1.555,-2.626402 0.179,-0.4691 0.305,-0.9707 0.313,-1.4507 0.011,-0.4853 -0.153,-0.933 -0.518,-1.1433 -0.738,-0.4206 -1.818,-0.2318 -2.759,-0.0647 -0.951,0.1888 -1.906,0.4692 -2.627,0.9869 -0.365,0.2535 -0.702,0.577 -0.966,0.9384 -0.26,0.3505 -0.485,0.7712 -0.494,1.0893 -0.004,0.1618 0.032,0.2427 0.12,0.3452 l 0.083,0.0701 0.124,0.0539 c 0.076,0.0486 0.188,0.0594 0.292,0.0809 0.432,0.0647 0.928,0.0378 1.415,-0.0593 0.979,-0.1618 1.976,-0.5662 3.04,-0.5339 0.26,0.0108 0.535,0.0485 0.763,0.2049 0.24,0.1564 0.306,0.4584 0.269,0.7119 -0.068,0.5177 -0.37,0.9654 -0.61,1.396802 z m 0,0 c 0.229,-0.436802 0.518,-0.895202 0.57,-1.402202 0.034,-0.248 -0.065,-0.5123 -0.279,-0.6309 -0.209,-0.1187 -0.468,-0.1349 -0.714,-0.1295 -1.003,0.0755 -1.902,0.604 -2.908,0.906 -0.501,0.1672 -1.033,0.2859 -1.62,0.2751 -0.15,-0.0108 -0.297,-0.0108 -0.459,-0.0648 -0.08,-0.0215 -0.159,-0.0377 -0.239,-0.07 l -0.239,-0.1403 c -0.313,-0.2049 -0.537,-0.6202 -0.538,-0.9761 -0.017,-0.7119 0.263,-1.2511 0.575,-1.7311 0.329,-0.4692 0.726,-0.8791 1.197,-1.2188 0.969,-0.658 2.056,-0.9114 3.116,-1.0193 0.534,-0.0539 1.067,-0.0485 1.606,-0.0054 0.538,0.0701 1.128,0.1564 1.606,0.5609 0.234,0.1942 0.416,0.4638 0.492,0.7496 0.077,0.2912 0.073,0.5717 0.037,0.8413 -0.075,0.5447 -0.291,1.0246 -0.511,1.4884 -0.225,0.4692 -0.494,0.906 -0.773,1.3375 -0.281,0.426 -0.567,0.8575 -0.919,1.229602 z"
     id="path26"
     inkscape:connector-curvature="0"
     style="fill:#9e6654" />
  <path
     d="m 146.0763,55.792738 c -1.225,1.9037 -2.743,3.6133 -4.362,5.1934 -1.615,1.5909 -3.35,3.0524 -5.131,4.4438 -1.794,1.3752 -3.637,2.6857 -5.544,3.8937 -1.896,1.2242 -3.862,2.3405 -5.881,3.3543 3.586,-2.745 7.231,-5.3497 10.764,-8.1001 1.777,-1.3644 3.518,-2.7666 5.226,-4.2119 1.696,-1.4561 3.378,-2.9283 4.928,-4.5732 z"
     id="path28"
     inkscape:connector-curvature="0"
     style="fill:#9e6654" />
  <path
     d="m 131.9763,92.734238 c 0.632,-1.9522 1.126,-4.0069 0.903,-5.9969 -0.062,-0.4962 -0.168,-0.9761 -0.342,-1.4345 -0.168,-0.453 -0.435,-0.9114 -0.57,-1.4885 -0.138,-0.5716 -0.087,-1.1594 0.011,-1.6879 0.094,-0.5393 0.261,-1.0516 0.446,-1.5532 0.761,-2.0008 1.896,-3.7804 3.112,-5.4792 1.22,-1.6987 2.573,-3.2843 3.993,-4.8051 1.425,-1.51 2.919,-2.9553 4.439,-4.3628 1.526,-1.4022 3.089,-2.7612 4.636,-4.131 1.553,-1.3644 3.088,-2.7558 4.682,-4.077 0.399,-0.3344 0.802,-0.658 1.22,-0.9708 0.206,-0.1617 0.416,-0.3181 0.639,-0.4691 0.105,-0.0755 0.221,-0.1457 0.351,-0.2104 l 0.189,-0.1024 c 0.043,-0.0108 0.071,-0.027 0.129,-0.0378 0.029,-0.0054 0.045,-0.0162 0.096,-0.0162 0.035,0 0.09,0 0.173,0.0486 0.162,0.1132 0.13,0.302 0.119,0.329 -0.013,0.0701 -0.03,0.097 -0.046,0.1456 -0.034,0.0701 -0.07,0.1348 -0.106,0.1941 -0.072,0.124 -0.148,0.2319 -0.224,0.3397 -0.153,0.2157 -0.312,0.4261 -0.472,0.631 l -0.974,1.2134 c -2.616,3.2088 -5.235,6.3906 -7.697,9.6911 -2.49,3.2897 -4.666,6.7465 -6.816,10.295 -0.569,0.8737 -1.092,1.7689 -1.89,2.6048 -0.205,0.205 -0.443,0.4099 -0.754,0.5717 -0.162,0.0809 -0.347,0.1563 -0.596,0.1671 -0.24,0.027 -0.542,-0.0916 -0.726,-0.2534 -0.365,-0.3398 -0.438,-0.6849 -0.507,-0.9815 -0.06,-0.3074 -0.077,-0.5986 -0.073,-0.8898 0.047,-1.1973 0.532,-2.2057 1.026,-3.1441 0.514,-0.9384 1.117,-1.8012 1.738,-2.6425 2.558,-3.3113 5.545,-6.2019 8.625,-8.9685 l 0.075,0.0809 c -2.828,3.0093 -5.655,6.0455 -8.017,9.3837 -0.579,0.8413 -1.135,1.6934 -1.588,2.5832 -0.44,0.8898 -0.821,1.8336 -0.819,2.718 0.004,0.2212 0.027,0.453 0.074,0.6526 0.038,0.1995 0.14,0.3721 0.164,0.3828 l -0.011,-0.0107 c 0.01,0 0.071,-0.0162 0.141,-0.0539 0.142,-0.0809 0.306,-0.2104 0.461,-0.3722 0.626,-0.6687 1.163,-1.5747 1.699,-2.4376 1.079,-1.7527 2.146,-3.5431 3.319,-5.2581 1.165,-1.7257 2.396,-3.3975 3.666,-5.0423 2.534,-3.2897 5.289,-6.3906 8.056,-9.4592 l 1.014,-1.1649 c 0.166,-0.1941 0.329,-0.3936 0.483,-0.5932 0.076,-0.097 0.151,-0.1995 0.216,-0.2966 0.032,-0.0485 0.062,-0.097 0.084,-0.1402 l 0.016,-0.0377 c 0.011,-0.0324 -0.027,0.0754 0.082,0.1509 0.054,0.0324 0.08,0.027 0.08,0.027 h 10e-4 l -0.056,0.0162 -0.156,0.0755 c -0.104,0.0485 -0.211,0.1079 -0.317,0.178 -0.214,0.1294 -0.425,0.275 -0.632,0.426 -0.413,0.2966 -0.819,0.6148 -1.22,0.9384 -1.606,1.2889 -3.165,2.6479 -4.687,4.0446 -3.049,2.7882 -5.943,5.7381 -8.644,8.839 -1.356,1.5478 -2.669,3.1226 -3.886,4.7674 -1.203,1.6448 -2.332,3.3651 -3.104,5.2149 -0.352,0.9168 -0.692,1.9091 -0.54,2.7936 0.075,0.4422 0.307,0.9059 0.476,1.4237 0.17,0.5177 0.262,1.057 0.302,1.5909 0.079,1.0732 -0.082,2.1302 -0.334,3.144 -0.254,1.0193 -0.61,1.9954 -1.031,2.9446 z"
     id="path30"
     inkscape:connector-curvature="0"
     style="fill:#9e6654" />
  <path
     d="m 76.952293,40.234138 c -4.481,-1.9846 -32.2566,15.6933 -45.843,29.3158 -4.2426,4.2496 -10.1629,11.6919 -17.0437,23.7288 -5.0315992,8.801302 -9.1711992,16.038302 -9.9914992,26.447302 -0.9658,12.252 1.4825,21.604 4.2615,27.768 1.7732002,3.937 10.3052992,18.519 25.1249992,29.682 5.0818,3.827 11.3095,7.404 10.726,8.669 -0.3646,0.788 -3.0605,-0.003 -7.6407,-0.735 -8.0818,-1.291 -20.8236,-4.157 -22.1282,-1.899 -0.1742,0.301 1.5268,18.807 2.5121,20.268 0.7814,1.158 36.7575,6.744 47.6798,7.197 8.229,0.341 14.5565,-1.38 17.7788,-6.024 4.9959,-7.199 -1.7824,-19.487 -9.4031,-42.316 -5.4593,-16.352 -9.1097,-23.654 -10.8732,-29.241 -0.124,-0.394 6.7589,-1.613 11.3138,-7.054 4.0657,-4.849 6.5437,-10.225 9.6975,-27.849302 3.1419,-17.5593 7.3589,-32.4599 5.5829,-35.9168 -0.885,-1.7257 -2.2679,-1.7203 -4.1139,-3.0847 -6.9234,-5.1233 -3.2546,-17.0147 -7.6401,-18.9561 z"
     id="path32"
     inkscape:connector-curvature="0"
     style="fill:#ff9400" />
  <path
     d="m 83.932393,83.291138 c -1.3445,-0.3451 -2.6086,-0.6687 -3.3792,-1.4723 -2.2133,-2.3081 1.0327,-7.124 2.0568,-13.2233 1.5019,-8.9469 -2.7347,-14.9222 -2.2558,-16.8475 0.6142,2.842 1.7295,5.587 4.2382,7.4422 1.846,1.3644 3.2289,1.359 4.1139,3.0848 1.254,2.4429 -0.483,10.6024 -2.7182,21.3667 -0.6962,-0.0701 -1.4016,-0.1888 -2.0557,-0.3506 z"
     id="path34"
     inkscape:connector-curvature="0"
     style="fill:#6171ce" />
  <path
     d="m 68.944793,49.493838 c 6.4888,2.9391 7.741,11.6001 8.0819,13.9568 0.5797,4.0123 -0.102,7.1079 -1.0285,11.3143 -0.7641,3.4677 -1.8692,8.4885 -5.1427,13.9623 -1.998,3.3382 -7.0523,11.783502 -16.7503,14.690302 -2.7817,0.8359 -8.1212,2.4376 -12.4895,-0.2912 -4.7037,-2.9392 -5.4188,-9.114002 -5.8772,-13.077802 -1.4528,-12.5547 5.1702,-22.661 8.5219,-27.7735 2.0989,-3.198 4.0102,-6.0563 7.6407,-8.6664 2.1685,-1.5586 10.0928,-7.2643 17.0437,-4.1148 z"
     id="path36"
     inkscape:connector-curvature="0"
     style="fill:#6171ce" />
  <path
     d="m 92.894293,32.080138 c 0.149,-0.5069 0.09,-1.2296 -0.441,-1.688 -0.545,-0.4691 -1.388,-0.4853 -1.91,-0.0755 -0.414,0.329 -0.492,0.8144 -0.514,0.9546 -0.119,0.7496 0.221,1.8821 1.102,2.0601 0.773,0.1564 1.546,-0.5124 1.763,-1.2512 z"
     id="path38"
     inkscape:connector-curvature="0"
     style="fill:#d6808d" />
  <path
     d="m 58.815393,120.91704 c -2.8825,-1.698 -6.5508,-9.949 -8.668,-16.518 1.5499,-0.2589 2.9289,-0.6742 3.9578,-0.9816 0.0367,-0.0107 0.0734,-0.0215 0.11,-0.0323 0.9395,2.2542 2.0035,4.7299 3.2002,7.5069 0.6628,1.537 1.6572,3.748 3.7313,5.059 0.2249,0.151 0.4622,0.285 0.7141,0.409 0.4966,0.243 0.9696,0.4 2.1302,0.4 0.4837,0 1.0872,-0.027 1.8616,-0.087 -2.0752,1.731 -4.3898,3.214 -7.0372,4.244 z m 17.9951,0 c 1.4048,-2.718 2.6506,-6.201 3.9136,-11.379 0.0102,0.006 0.0199,0.011 0.0302,0.017 -1.2603,5.161 -2.5045,8.644 -3.9066,11.357 -0.013,0 -0.0248,0 -0.0372,0.005 z"
     id="path40"
     inkscape:connector-curvature="0"
     style="fill:#ec8a08" />
  <path
     d="m 50.147293,104.39914 c -0.6218,-1.9253 -1.1099,-3.7104 -1.4054,-5.139502 -1.3105,-6.3366 -4.6282,-24.4946 -1.1325,-34.6333 1.1379,-3.3004 6.2056,-12.6409 12.6437,-14.5662 -3.2568,1.2889 -5.5229,4.2928 -6.6829,5.8352 -6.3723,8.4776 -5.5644,19.1232 -4.9238,27.5631 0.5075,6.6872 2.2613,11.9777 5.5688,19.926802 -0.0367,0.0108 -0.0734,0.0216 -0.1101,0.0323 -1.0289,0.3074 -2.4079,0.7227 -3.9578,0.9816 z"
     id="path42"
     inkscape:connector-curvature="0"
     style="fill:#5a6ac6" />
  <path
     d="m 62.131393,133.36404 c -0.7318,-0.145 -1.4707,-0.307 -2.2246,-0.48 0.7135,0.076 1.427,0.146 2.1372,0.205 6e-4,0.006 0.0011,0.006 0.0017,0.006 0.0275,0.091 0.0571,0.178 0.0857,0.269 z m 1.4755,-0.949 c 1.7985,-0.911 4.4249,-2.459 7.5269,-4.249 -1.3439,0.091 -2.6787,0.14 -4.0048,0.14 -5.6011,0 -11.0285,-0.847 -16.196,-2.53 -1.9393,-0.636 -3.8397,-1.288 -5.7353,-1.995 3.0022,-0.345 7.3553,-1.003 11.6071,-2.195 0.6914,-0.194 1.3606,-0.415 2.0105,-0.669 0.1461,0.087 0.2901,0.157 0.4325,0.205 1.8266,0.664 3.7475,0.933 6.0277,0.933 3.0135,0 6.6554,-0.474 11.5349,-1.138 -1.0398,2.007 -2.1658,3.592 -3.451,5.124 -3.1731,3.791 -7.4756,5.533 -9.7525,6.374 z m 17.1171,-22.877 c -0.2141,-0.129 -0.4228,-0.253 -0.6428,-0.388 -1.1088,-0.679 -2.1685,-1.326 -3.1802,-1.941 -0.15,-1.2029 -0.1435,-2.3246 -0.0534,-3.3547 3.8829,-5.624802 6.3582,-10.888302 8.0807,-15.385902 -0.6304,3.1063 -1.2706,6.3636 -1.8719,9.7234 -0.8089,4.524602 -1.5736,8.240302 -2.3324,11.346202 z"
     id="path44"
     inkscape:connector-curvature="0"
     style="fill:#ec8a0b" />
  <path
     d="m 65.275493,122.05504 c -2.2801,0 -4.2011,-0.269 -6.0277,-0.933 -0.1423,-0.048 -0.2863,-0.118 -0.4325,-0.205 2.6474,-1.03 4.962,-2.513 7.0372,-4.244 1.461,-0.113 3.5313,-0.339 6.5567,-0.712 4.1806,-0.512 5.1411,-0.684 5.7192,-1.569 1.0263,-1.569 -0.6347,-3.117 -1.1837,-6.865 -0.0157,-0.108 -0.0302,-0.216 -0.0437,-0.318 1.0117,0.615 2.0714,1.262 3.1802,1.941 0.22,0.135 0.4287,0.259 0.6428,0.388 -1.263,5.178 -2.5087,8.661 -3.9136,11.379 -4.8795,0.664 -8.5213,1.138 -11.5349,1.138 z"
     id="path46"
     inkscape:connector-curvature="0"
     style="fill:#da8112" />
  <path
     d="m 85.608893,85.475438 c 0,0 -3.5216,-0.5717 -5.0235,-1.3051 -1.5019,-0.7335 -7.2362,15.865902 -7.014,16.971502 0.2222,1.1001 8.4658,2.9499 9.0088,0 0.5431,-2.950002 3.0287,-15.666402 3.0287,-15.666402 z"
     id="path48"
     inkscape:connector-curvature="0"
     style="fill:#ffaf50" />
  <path
     d="m 79.670293,37.882938 c 0.0739,4.1903 1.0171,7.9545 2.8226,13.4445 1.8056,5.4954 5.9814,8.1649 6.6114,9.4106 0.631,1.2458 -1.059,6.6818 -2.087,6.8274 -1.0287,0.1457 -7.4937,-4.557 -9.9917,-11.3143 -2.498,-6.7573 -4.6282,-15.6502 -2.718,-16.3081 1.9101,-0.6634 5.3627,-2.0601 5.3627,-2.0601 z"
     id="path50"
     inkscape:connector-curvature="0"
     style="fill:#8b96fc" />
  <path
     d="m 84.261893,113.26504 c 4.0754,-2.276 18.684407,-10.3651 22.445407,-9.6964 3.762,0.6633 6.249,5.2254 8.387,6.2454 2.138,1.019 6.086,-3.7755 5.591,-4.0937 -0.494,-0.3182 -2.102,-1.3482 -2.102,-1.3482 0,0 2.462,1.2296 3.058,0.2157 0.595,-1.0139 3.145,-1.8282 1.824,-2.8474 -1.321,-1.0193 -11.322,-6.385302 -12.664,-6.196502 -1.341,0.1887 1.878,-2.114 1.329,-3.1602 -0.548,-1.0516 -3.986,2.6802 -5.531,2.9121 -1.544,0.2319 -24.416307,3.0254 -25.266307,4.0501 -0.8493,1.024602 2.9289,13.919102 2.9289,13.919102 z"
     id="path52"
     inkscape:connector-curvature="0"
     style="fill:url(#paint3_linear)" />
  <path
     d="m 70.486093,52.255138 c -1.0888,-0.809 -3.8694,-2.8745 -7.3047,-2.7666 -4.8126,0.1564 -8.0699,4.4923 -9.5438,6.4499 -6.3717,8.4777 -5.5639,19.1286 -4.9232,27.5632 0.6515,8.5855 3.3571,14.8682 8.7683,27.433402 0.7286,1.688 1.8568,4.191 4.378,5.426 1.0947,0.533 2.0698,0.641 10.5485,-0.4 4.1806,-0.512 5.1411,-0.684 5.7192,-1.569 1.0263,-1.569 -0.6347,-3.117 -1.1837,-6.865 -0.8667,-5.9107 2.1156,-9.906802 0.5765,-10.974602 -0.6105,-0.4207 -1.4232,-0.0324 -2.285,0.3613 -0.8505,0.3883 -1.75,0.7766 -2.5519,0.3775 -1.5165,-0.7496 -1.6244,-3.775 -1.0635,-9.2326 0.9135,-8.8822 3.0594,-18.9453 3.2309,-19.7435 0.9621,-4.4707 1.4836,-6.5955 0.6051,-9.3836 -1.2032,-3.8236 -4.1369,-6.0616 -4.9707,-6.6764 z"
     id="path54"
     inkscape:connector-curvature="0"
     style="fill:#7c84ff" />
  <path
     d="m 60.253093,50.060138 c 0.2955,-0.1187 0.5997,-0.2211 0.9119,-0.3074 -0.021,0.0269 -0.0415,0.0485 -0.0625,0.0755 -0.0858,0.0216 -0.1699,0.0485 -0.254,0.0755 -0.1996,0.0431 -0.3986,0.097 -0.5954,0.1564 z"
     id="path56"
     inkscape:connector-curvature="0"
     style="fill:#5a6ac9" />
  <path
     d="m 61.146693,115.95104 c -2.0741,-1.311 -3.0685,-3.522 -3.7313,-5.059 -1.1967,-2.777 -2.2607,-5.2525 -3.2002,-7.5068 0.0151,-0.005 0.0297,-0.0108 0.0442,-0.0162 0.9449,2.2759 2.017,4.762 3.2234,7.566 0.6558,1.521 1.6357,3.7 3.6639,5.016 z"
     id="path58"
     inkscape:connector-curvature="0"
     style="fill:#da8112" />
  <path
     d="m 54.214993,103.38514 c -3.3075,-7.949202 -5.0613,-13.239602 -5.5687,-19.926802 -0.6407,-8.4399 -1.4486,-19.0855 4.9237,-27.5632 1.16,-1.5423 3.4261,-4.5462 6.6829,-5.8351 0.1968,-0.0593 0.3958,-0.1133 0.5954,-0.1564 -3.5421,1.1541 -5.9894,4.4114 -7.2109,6.0347 -6.3717,8.4776 -5.5639,19.1286 -4.9232,27.5631 0.5064,6.671 2.2526,11.9507 5.545,19.867502 -0.0146,0.005 -0.0291,0.0108 -0.0442,0.0162 z"
     id="path60"
     inkscape:connector-curvature="0"
     style="fill:#5463c1" />
  <path
     d="m 63.923993,116.71104 c -1.1616,0 -1.634,-0.151 -2.1313,-0.399 -0.2265,-0.108 -0.4411,-0.227 -0.646,-0.361 -2.0283,-1.316 -3.0082,-3.495 -3.664,-5.016 -1.2064,-2.804 -2.2785,-5.2902 -3.2233,-7.566 -3.2924,-7.916802 -5.0386,-13.196502 -5.545,-19.867502 -0.6407,-8.4345 -1.4485,-19.0855 4.9232,-27.5632 1.2215,-1.6232 3.6688,-4.8806 7.2108,-6.0346 0.0842,-0.027 0.1683,-0.0539 0.2541,-0.0755 -1.8175,2.0978 -4.241,5.1232 -6.292,9.3081 -7.7356,15.7851 -1.8875,31.225 -0.7302,34.0832 0.5879,1.4561 4.5177,11.168702 9.072,11.168702 0.0593,0 0.1186,0 0.178,0 2.9634,-0.1672 5.4339,-4.476102 5.8054,-4.476102 0.0092,0 0.0173,0 0.0238,0.0054 0.2146,0.178002 -1.949,2.470002 -2.8254,6.045502 -0.5517,2.243 -0.4918,4.584 -0.0383,4.686 0.0108,0.006 0.0221,0.006 0.0335,0.006 0.4001,0 1.0866,-1.548 1.7521,-3.096 0.6655,-1.5421 1.31,-3.0899 1.6244,-3.0899 0.0086,0 0.0167,0 0.0248,0.005 0.4141,0.1187 -0.9023,3.0145 0.378,5.1285 1.324,2.184 4.776,2.465 6.4553,2.465 0.4395,0 0.7577,-0.022 0.8845,-0.033 0.2356,-0.01 0.4578,-0.048 0.6843,-0.075 0.2993,0.938 0.4029,1.661 -0.0722,2.389 -0.5776,0.884 -1.5381,1.057 -5.7182,1.569 -4.6292,0.572 -7.0215,0.793 -8.4183,0.793 z"
     id="path62"
     inkscape:connector-curvature="0"
     style="fill:#737bf6" />
  <path
     d="m 37.067793,126.16504 c -0.2454,-0.108 -0.4891,-0.216 -0.7334,-0.324 l 0.0501,-0.081 c 0.2265,0.092 0.4784,0.194 0.755,0.297 z m 0.2432,-1.899 0.2103,-0.339 -1.0198,-0.631 -17.5232,-10.889 -1.5434,2.481 c -1.6761,-1.294 -3.1554,-2.675 -4.4982,-4.147 0.2993,-0.248 0.6158,-0.491 0.9491,-0.712 1.8654,-1.262 2.8583,-1.148 4.0037,-1.645 1.3515,1.284 2.8922,2.497 4.6956,3.695 6.4678,4.314 12.044,7.291 17.4396,9.626 l -1.6804,2.535 c -0.371,0.01 -0.7162,0.016 -1.0333,0.026 z"
     id="path64"
     inkscape:connector-curvature="0"
     style="fill:#ae6a21" />
  <path
     d="m 8.4324938,103.77344 c 0.2465,-0.6956 0.7162,-1.8066 1.3434,-2.7395 -0.4681,0.9114 -0.9173,1.8228 -1.3434,2.7395 z"
     id="path66"
     inkscape:connector-curvature="0"
     style="fill:#aeb3ce" />
  <path
     d="m 8.2389938,104.44754 c -0.0059,-0.0485 0.062,-0.302 0.1936,-0.6741 0.4261,-0.9168 0.8753,-1.8282 1.3434,-2.7396 0.1219,-0.1779 0.2497002,-0.3506 0.3829002,-0.5177 -0.6827002,1.3104 -1.3256002,2.6102 -1.9199002,3.9314 z"
     id="path68"
     inkscape:connector-curvature="0"
     style="fill:#ae6a21" />
  <path
     d="m 87.133293,114.23004 c -5.3538,3.727 -9.0739,4.654 -9.8149,3.484 -0.7409,-1.176 -2.6171,-7.264 -2.6166,-12.1501 0,-4.886 0.1634,-9.664102 2.2586,-9.718102 2.0956,-0.0539 7.7517,-0.8143 8.2446,0.6472 0.493,1.4615 -1.0316,6.590102 -0.7512,10.090102 0.281,3.4949 2.6795,7.6469 2.6795,7.6469 z"
     id="path70"
     inkscape:connector-curvature="0"
     style="fill:#8b96fc" />
  <path
     d="m 52.554793,187.20404 c -2.1718,0 -5.4431,-0.803 -8.2226,-1.623 -0.2217,-1.449 -5.9937,-4.816 -10.7578,-8.405 -14.8192,-11.162 -23.351299,-25.745 -25.1249992,-29.682 -2.779,-6.164 -5.2274,-15.516 -4.2615,-27.768 0.4579,-5.803 1.949,-10.624 4.0512,-15.2784 1.4215,2.2814 2.9428992,4.3684 4.6976992,6.2934 -4.0068992,3.328 -5.0595992,8.569 -5.3200992,9.864 -0.7399,3.688 -0.5991,8.828 3.7221992,17.047 6.8328,12.997 17.9913,22.043 28.0151,30.169 0,0 3.9109,3.171 11.5586,12.147 3.4984,4.106 4.3925,5.607 3.918,6.465 -0.3053,0.551 -1.1401,0.771 -2.2758,0.771 z m -34.6651,-78.82 c -2.6803,-2.5451 -4.6142,-5.371 -6.3712,-8.935702 -0.495099,0.1726 -0.952899,0.571702 -1.359599,1.067802 1.230699,-2.356702 2.589699,-4.735002 4.020499,-7.237302 6.8808,-12.037 12.8016,-19.4792 17.0442,-23.7288 3.2374,-3.2465 7.2816,-6.7249 11.6234,-10.1063 h 0.0011 c 1.4064,1.5208 -14.2691,11.3953 -21.7135,29.0247 -3.2352,7.6633 -2.3508,19.403602 -2.3508,19.403602 -0.3182,0.227 -0.611,0.388 -0.8941,0.512 z"
     id="path72"
     inkscape:connector-curvature="0"
     style="fill:#d67f18" />
  <path
     d="m 12.936693,110.74104 c -1.7549,-1.925 -3.2761992,-4.012 -4.6977992,-6.2934 0.5943,-1.3213 1.2371,-2.621 1.9199002,-3.9315 0.4066,-0.4961 0.8645,-0.895202 1.359499,-1.067802 1.757,3.564702 3.691,6.390602 6.3712,8.935702 -1.1454,0.497 -2.1383,0.383 -4.0037,1.645 -0.3333,0.221 -0.6498,0.464 -0.9491,0.712 z"
     id="path74"
     inkscape:connector-curvature="0"
     style="fill:#925c33" />
  <path
     d="m 40.410293,118.85204 3.0724,2.033 4.8023,-7.243 -3.0723,-2.038 z"
     id="path76"
     inkscape:connector-curvature="0"
     style="fill:#fa600d" />
  <path
     d="m 41.946693,119.87104 -1.5364,-1.019 4.8024,-7.248 1.5359,1.019 z"
     id="path78"
     inkscape:connector-curvature="0"
     style="fill:#d84505" />
  <path
     d="m 1.8941938,129.58904 c 0.8397,0.443 2.0072,0.054 2.6075,-0.863 L 23.699293,99.410638 c 0.6003,-0.9168 0.4061,-2.0169 -0.4341,-2.4592 -0.8397,-0.4422 -2.0072,-0.0539 -2.6074,0.8629 L 1.4605938,127.13604 c -0.60019998,0.916 -0.4061,2.017 0.4336,2.453 z"
     id="path80"
     inkscape:connector-curvature="0"
     style="fill:#785132" />
  <path
     d="m 5.5284938,120.92304 3.041,1.591 5.8404992,-8.92 -3.0415,-1.591 z"
     id="path82"
     inkscape:connector-curvature="0"
     style="fill:#ffffff" />
  <path
     d="m 9.3789938,115.03904 3.0409992,1.596 -0.5587,0.853 -3.0415992,-1.591 z"
     id="path84"
     inkscape:connector-curvature="0"
     style="fill:#ff123a" />
  <path
     d="m 10.621094,113.14604 3.041099,1.591 -0.5587,0.852 -3.041099,-1.591 z"
     id="path86"
     inkscape:connector-curvature="0"
     style="fill:#ff123a" />
  <path
     d="m 17.050493,91.795738 14.2794,7.4854 c 0.4799,0.2535 0.591,0.879102 0.248,1.402202 l -1.6561,2.5292 c -0.343,0.5285 -1.0101,0.7443 -1.4901,0.4962 l -14.2793,-7.485402 c -0.4805,-0.248 -0.5911,-0.879 -0.2481,-1.4021 l 1.6562,-2.5293 c 0.343,-0.5231 1.01,-0.7443 1.49,-0.4962 z"
     id="path88"
     inkscape:connector-curvature="0"
     style="fill:#938f90" />
  <path
     d="m 16.541993,91.698838 -0.0712,0.0916 -1.6562,2.5293 c -0.343,0.5231 -0.2319,1.1541 0.2481,1.4076 l 14.2799,7.479902 c 0.1553,0.0809 0.3306,0.1079 0.508,0.0971 -0.3576,0.4584 -0.9686,0.6418 -1.4189,0.4045 l -14.2793,-7.485402 c -0.4805,-0.2481 -0.5916,-0.879 -0.2481,-1.4021 l 1.6556,-2.5293 c 0.2324,-0.356 0.6116,-0.5663 0.9821,-0.5932 z"
     id="path90"
     inkscape:connector-curvature="0"
     style="fill:#605d5e" />
  <path
     d="m 72.015493,127.53504 c -3.4547,3.251 -7.5975,4.594 -9.2116,5.198 -4.3268,-0.377 -8.55,-1.229 -12.6297,-2.561 -11.3499,-3.7 -19.9376,-7.852 -29.6416,-14.318 -5.0472,-3.366 -9.0671,-7.453 -12.0320992,-12.2154 -0.4104,-1.839 0.961,-4.972202 2.9051992,-5.651802 2.6425,5.366002 6.6812,9.880202 12.0612,13.466202 10.8376,7.226 19.1702,10.699 28.3478,13.693 6.3901,2.087 13.1776,2.885 20.2008,2.389 z"
     id="path92"
     inkscape:connector-curvature="0"
     style="fill:#83310a" />
  <path
     d="m 8.5004938,103.63864 c -0.4104,-1.8389 0.961,-4.972202 2.9051992,-5.651702 1.2058,2.448402 2.7158,4.708002 4.4976,6.795002 0.1235,2.3351 0.6903,4.2121 1.0031,5.2471 0.3953,1.311 0.8839,2.923 1.7894,4.536 -4.1946,-3.107 -7.599199,-6.758 -10.1952992,-10.9264 z"
     id="path94"
     inkscape:connector-curvature="0"
     style="fill:#631e02" />
  <path
     d="m 11.869993,123.84604 18.543,11.524 7.1084,-11.443 -18.543,-11.52 z"
     id="path96"
     inkscape:connector-curvature="0"
     style="fill:#91381b" />
  <path
     d="m 19.286393,122.11504 c 0.4449,1.159 1.4512,3.78 4.0398,5.08 3.7152,1.866 8.1158,0.124 8.8616,-0.264 1.9981,-1.057 3.4952,-2.53 4.3138,-3.635 l 1.0198,0.631 -7.1084,11.443 -18.543,-11.524 7.1084,-11.439 0.2826,0.173 c -0.7771,2.783 -1.263,6.175 0.0254,9.535 z"
     id="path98"
     inkscape:connector-curvature="0"
     style="fill:#701d00" />
  <path
     d="m 108.3863,34.274938 -1.112,-0.1995 c -0.331,-0.0486 -0.631,-0.0917 -0.938,-0.1187 l -0.959,-0.0755 c -0.341,-0.0161 -0.702,-0.0323 -1.142,-0.0863 0.223,-0.3829 0.572,-0.6417 0.957,-0.8089 0.387,-0.178 0.825,-0.2427 1.258,-0.1995 0.861,0.0863 1.709,0.6309 1.936,1.4884 z"
     id="path100"
     inkscape:connector-curvature="0"
     style="fill:#0b1863" />
  <path
     d="m 105.8033,35.941538 c -0.315,0.4584 -0.343,0.9869 -0.063,1.181 0.281,0.1888 0.764,-0.0269 1.078,-0.4907 0.315,-0.4584 0.343,-0.9869 0.063,-1.1811 -0.28,-0.1887 -0.763,0.027 -1.078,0.4908 z"
     id="path102"
     inkscape:connector-curvature="0"
     style="fill:#0b1863" />
  <path
     d="m 116.3553,29.389038 c -1.005,1.4777 -2.989,2.5346 -4.498,2.0816 -1.264,-0.3775 -2.537,-1.9144 -2.803,-2.238 -0.597,-0.7227 -0.888,-1.3051 -1.339,-1.262 -0.441,0.0378 -0.509,0.6256 -1.399,1.4507 -0.477,0.4422 -0.772,0.7173 -1.221,0.8467 -1.147,0.3182 -2.396,-0.577 -2.796,-0.8683 -0.82,-0.5878 -0.919,-1.0138 -1.50501,-1.0785 -0.526,-0.054 -1.127997,0.2103 -1.478997,0.6471 -0.646,0.8089 -0.017,1.6665 -0.637,2.47 -0.446,0.5716 -1.194,0.6741 -1.51,0.7172 -1.211,0.1618 -2.378,-0.5069 -3.032,-1.3104 -0.605,-0.7388 -0.411,-1.1541 -0.967,-1.5316 -0.793,-0.5447 -1.993,-0.2589 -2.706,0.1132 -1.667,0.879 -2.037,2.9823 -2.075,3.2196 -0.143,0.8898 0.074,1.2403 -0.2,1.4561 -0.761,0.5986 -3.2405,-1.4561 -4.1773,-2.2327 -1.7332,-1.4399 -2.9612,-2.4592 -2.7676,-3.5108 0.2227,-1.2134 2.1706,-1.6124 2.0202,-2.2973 -0.1063,-0.4854 -1.0791,-0.2805 -2.0003,-1.1218 -0.6525,-0.5932 -1.2667,-1.6933 -0.9221,-2.6263 0.2367,-0.6364 0.8321,-0.9438 1.1702,-1.1217 0.5835,-0.302 1.077,-0.205 1.5273,-0.1133 0.4298,0.0917 0.8197,0.178 1.2102,-0.0755 0.5295,-0.3451 0.6832,-1.0247 0.852,-1.7743 0.2433,-1.0732 -0.0674,-1.3051 0.1397,-1.9091 0.4848,-1.41292 2.9507,-2.38901 4.4147,-1.69332 0.751,0.36132 0.723,0.91137 1.361,1.01923 0.895,0.14559 1.265,-0.88981 2.865,-1.67718 0.463,-0.2265 2.18,-1.06778 3.254,-0.39367 0.789,0.49615 0.553,1.3806 1.256,1.65563 0.726,0.29122 1.27,-0.54469 2.761007,-1.03544 0.31,-0.10247 1.863,-0.58245 3.552,-0.09169 1.405,0.40986 3.004,1.52078 2.927,2.55084 -0.034,0.4476 -0.366,0.5878 -0.271,0.8251 0.118,0.2912 0.686,0.1996 1.467,0.1025 0.956,-0.1133 2.23,-0.2265 3.385,0.3667 0.835,0.426 1.91,1.3752 1.935,2.4592 0.019,0.8035 -0.544,1.2511 -0.294,1.6772 0.173,0.2858 0.554,0.275 0.998,0.2588 0.414,-0.0108 0.882,-0.0215 1.284,0.2104 1.268,0.7388 1.612,3.7912 0.22,5.8351 z"
     id="path104"
     inkscape:connector-curvature="0"
     style="fill:#191977" />
  <path
     d="m 114.4763,17.918338 c -2.21,-4.60551 -3.402,-10.7804005 -9.285,-13.9244695 -5.883007,-3.14406001 -11.222007,-2.39982 -14.380007,-1.65021 -3.269,0.78197 -7.6584,4.01768 -8.4673,7.53386 -0.8095,3.5215695 -0.3737,8.9360195 0,10.0578195 0.3732,1.1163 6.6613,2.7072 11.2683,2.8636 4.607,0.1564 20.014007,-1.2457 21.447007,-1.9954 1.432,-0.7442 -0.583,-2.8852 -0.583,-2.8852 z"
     id="path106"
     inkscape:connector-curvature="0"
     style="fill:#f6ac25" />
  <path
     d="m 82.344193,19.935238 c -0.2066,-0.6202 -0.4309,-2.5562 -0.4546,-4.75116 1.1287,-2.8151 1.8659,-4.379019 3.4115,-5.8027495 1.9672,-1.812017 4.1152,-2.362094 5.8202,-2.804312 4.584,-1.175658 8.317,-0.102466 9.245997,0.1887512 3.33101,1.0408308 5.42201,2.8582308 5.97601,3.3597713 2.96,2.680279 4.04,5.781179 4.607,7.474599 0.665,1.9845 0.997,2.9769 0.778,3.7966 l -0.022,0.0647 c -5.164,0.6957 -14.649007,1.4507 -18.094007,1.3374 -4.607,-0.1564 -10.8949,-1.7473 -11.2681,-2.8636 z"
     id="path108"
     inkscape:connector-curvature="0"
     style="fill:#e29314" />
  <path
     d="m 113.5503,16.359878 c 2.864,0.83046 5.422,2.20566 5.687,3.47846 0.428,2.0547 -1.512,2.7557 -4.77,3.5215 -4.793,1.1164 -20.191007,1.1272 -25.171007,0.4207 -4.9805,-0.7011 -7.3464,-1.4075 -8.0523,-2.114 -0.7054,-0.7065 1.0791,-1.4939 1.0791,-1.4939 0,0 2.9947,1.2242 6.8482,1.4939 4.13,0.2912 14.279007,-0.0432 18.718007,-0.4962 4.431,-0.4584 6.542,-0.4692 6.578,-2.2327 0.009,-0.4584 -0.917,-2.57776 -0.917,-2.57776 z"
     id="path110"
     inkscape:connector-curvature="0"
     style="fill:#e29314" />
  <path
     d="m 84.991993,20.436838 c -0.164,-0.48 -0.3258,-2.7342 -0.3446,-4.43299 0.8963,-2.16795 1.4814,-3.38135 2.7079,-4.476109 1.563,-1.39677 3.267,-1.8282305 4.622,-2.1625905 3.638,-0.9114 6.602,-0.08086 7.339,0.14025 2.644007,0.8035405 4.304007,2.2110995 4.744007,2.5993895 2.35,2.06548 3.208,4.4599 3.657,5.76495 0.528,1.537 0.793,2.3028 0.618,2.9338 l -0.017,0.0485 c -4.099,0.5393 -11.629007,1.1217 -14.364007,1.0355 -3.658,-0.1241 -8.6657,-0.5824 -8.9623,-1.4507 z"
     id="path112"
     inkscape:connector-curvature="0"
     style="fill:#e29314" />
  <path
     d="m 87.355293,11.527699 c 1.607,-1.34823 3.267,-1.8282305 4.622,-2.1625905 3.638,-0.9114 6.602,-0.08086 7.339,0.14025 2.644007,0.8035405 4.305007,2.2110995 4.745007,2.5993895 2.349,2.06549 3.207,4.45991 3.657,5.76499 0.527,1.537 0.792,2.3028 0.617,2.9338 l -0.017,0.0485 c -4.099,0.5393 -11.629007,1.1217 -14.364007,1.0354 -3.658,-0.124 -8.7643,-0.6094 -9.0609,-1.4722 -0.1639,-0.48 -0.9928,-5.99155 2.4619,-8.887539 z m -5.4657,3.656379 c 0.0237,2.19496 0.248,4.13096 0.4546,4.75116 0.3732,1.1163 6.6611,2.7072 11.2681,2.8636 3.445,0.1133 12.930007,-0.6417 18.094007,-1.3374 l 0.022,-0.0647 c 0.219,-0.8197 -0.113,-1.8121 -0.778,-3.7966 -0.567,-1.69342 -1.647,-4.79432 -4.607,-7.474599 -0.554,-0.5015405 -2.645,-2.3189405 -5.97601,-3.3597713 -0.928997,-0.2912172 -4.661997,-1.3644092 -9.245997,-0.1887512 -1.705,0.442218 -3.853,0.992295 -5.8202,2.804312 -1.5456,1.4237305 -2.2828,2.9876495 -3.4115,5.8027495 z"
     id="path114"
     inkscape:connector-curvature="0"
     style="fill:#ffc248" />
  <path
     d="m 94.413293,22.809638 c -0.28,0 -0.536,-0.0054 -0.766,-0.0108 0.23,0.0054 0.486,0.0108 0.766,0.0108 3.683,0 11.396007,-0.6094 16.311007,-1.2242 -4.915,0.6148 -12.627007,1.2242 -16.311007,1.2242 z"
     id="path116"
     inkscape:connector-curvature="0"
     style="fill:#db8d11" />
  <path
     d="m 82.343893,19.935338 c -6e-4,-0.0054 -0.0017,-0.0054 -0.0022,-0.0108 5e-4,0.0054 0.0016,0.0054 0.0022,0.0108 z"
     id="path118"
     inkscape:connector-curvature="0"
     style="fill:#eba11f" />
  <path
     d="m 100.12729,21.639538 c 2.87701,-0.1996 6.01701,-0.5016 8.19101,-0.7874 l 0.017,-0.0485 c 0.139,-0.507 -0.002,-1.0948 -0.334,-2.0979 h 0.001 c 0.332,1.0031 0.472,1.5909 0.333,2.0979 l -0.017,0.0485 c -2.174,0.2858 -5.314,0.5878 -8.19101,0.7874 z"
     id="path120"
     inkscape:connector-curvature="0"
     style="fill:#db8d11" />
  <path
     d="m 94.588293,21.892838 c -0.233,0 -0.445,0 -0.634,-0.0054 -0.015,0 -0.029,-0.0054 -0.044,-0.0054 0.015,0 0.029,0.0054 0.044,0.0054 0.189,0.0054 0.401,0.0054 0.634,0.0054 1.345,0 3.367,-0.097 5.538997,-0.2534 -2.171997,0.1564 -4.193997,0.2534 -5.538997,0.2534 z m 16.157007,-0.3074 c 0.002,0 0.004,0 0.006,0 -0.002,0 -0.004,0 -0.006,0 z"
     id="path122"
     inkscape:connector-curvature="0"
     style="fill:#db8d11" />
  <path
     d="m 113.8163,16.440658 c 0,0 0,0 -0.001,0 -0.035,-0.08628 -0.071,-0.16719 -0.107,-0.25347 0,0 0,0 0.001,0 0.035,0.08089 0.071,0.16719 0.107,0.25347 z"
     id="path124"
     inkscape:connector-curvature="0"
     style="fill:#f3e6d4" />
  <path
     d="m 111.7933,20.744238 c -0.025,-0.5932 -0.242,-1.332 -0.598,-2.4106 0.773,-0.1725 1.519,-0.4853 2.007,-1.0894 0.187,-0.2318 0.318,-0.4799 0.41,-0.73879 0.207,0.47999 0.863,2.04929 0.855,2.43219 -0.023,1.1271 -0.893,1.537 -2.674,1.8066 z m 2.022,-4.30352 c -0.054,-0.01618 -0.11,-0.03232 -0.165,-0.0485 0.022,-0.07011 0.041,-0.14026 0.058,-0.20498 0.036,0.08629 0.072,0.16719 0.107,0.25348 z"
     id="path126"
     inkscape:connector-curvature="0"
     style="fill:#eba11f" />
  <path
     d="m 111.7063,21.461538 0.022,-0.0647 c 0.054,-0.205 0.074,-0.4153 0.065,-0.6526 1.78,-0.2696 2.651,-0.6795 2.674,-1.8066 0.008,-0.3829 -0.648,-1.9522 -0.855,-2.43221 0.013,-0.03775 0.026,-0.07548 0.038,-0.11323 0.055,0.01618 0.111,0.03233 0.165,0.04851 0.001,0 0.001,0 0.001,0 0.214,0.50693 0.432,1.00313 0.66,1.47763 0,0 2.014,2.141 0.583,2.8853 -0.362,0.1887 -1.612,0.4206 -3.353,0.6579 z"
     id="path128"
     inkscape:connector-curvature="0"
     style="fill:#db8d11" />
  <path
     d="m 86.263093,21.083938 c -0.7707,-0.1888 -1.2819,-0.4153 -1.3698,-0.6688 -0.0696,-0.2049 -0.2573,-1.305 -0.191,-2.7288 0.0653,1.2512 0.1769,2.4215 0.2897,2.7504 0.0852,0.2481 0.556,0.4638 1.2711,0.6472 z"
     id="path130"
     inkscape:connector-curvature="0"
     style="fill:#db8d11" />
  <path
     d="m 82.340793,19.924438 c -5e-4,0 -0.0011,-0.0054 -0.0011,-0.0054 0,0 6e-4,0.0054 0.0011,0.0054 z"
     id="path132"
     inkscape:connector-curvature="0"
     style="fill:#eba11f" />
  <path
     d="m 82.335393,19.908238 c 0,0 0,0 -5e-4,-0.0054 5e-4,0.0054 5e-4,0.0054 5e-4,0.0054 z"
     id="path134"
     inkscape:connector-curvature="0"
     style="fill:#eba11f" />
  <path
     d="m 82.333693,19.902938 c -5e-4,-0.0054 -5e-4,-0.0054 -10e-4,-0.0054 0,0 5e-4,0 10e-4,0.0054 z"
     id="path136"
     inkscape:connector-curvature="0"
     style="fill:#eba11f" />
  <path
     d="m 82.329093,19.886738 c 0,0 -5e-4,-0.0055 -0.0011,-0.0055 6e-4,0 0.0011,0.0055 0.0011,0.0055 z"
     id="path138"
     inkscape:connector-curvature="0"
     style="fill:#eba11f" />
  <path
     d="m 82.322093,19.865238 c -0.0016,-0.0054 -0.0032,-0.0108 -0.0043,-0.0162 0.0011,0.0054 0.0027,0.0108 0.0043,0.0162 z"
     id="path140"
     inkscape:connector-curvature="0"
     style="fill:#eba11f" />
  <path
     d="m 82.316993,19.843638 c -0.0011,-0.0054 -0.0027,-0.0108 -0.0044,-0.0162 0.0017,0.0054 0.0033,0.0108 0.0044,0.0162 z"
     id="path142"
     inkscape:connector-curvature="0"
     style="fill:#eba11f" />
  <path
     d="m 82.344093,9.8775485 c 0.0027,-0.01078 0.006,-0.02153 0.0087,-0.0377 -0.0027,0.01617 -0.006,0.02692 -0.0087,0.0377 z m 0.0114,-0.0485 c 0.0016,-0.00539 0.0032,-0.01081 0.0054,-0.02159 -0.0022,0.01078 -0.0038,0.0162 -0.0054,0.02159 z"
     id="path144"
     inkscape:connector-curvature="0"
     style="fill:#f3e6d4" />
  <path
     d="m 82.312193,19.827538 c -0.2093,-0.755 -0.4261,-2.7828 -0.4261,-5.02081 0,-1.67181 0.1214,-3.462269 0.4579,-4.9291395 0.0027,-0.01079 0.0059,-0.02153 0.0086,-0.03771 6e-4,0 0.0016,-0.00541 0.0027,-0.0108 0.0016,-0.00539 0.0033,-0.01081 0.0054,-0.02159 0.1391,-0.56626 0.3781,-1.1271 0.6838,-1.67718 0.2551,0.71726 0.4557,1.75809 0.8354,2.9121805 -0.7113,1.062399 -1.2717,2.345899 -1.9905,4.141739 0.0226,2.08171 0.2254,3.93141 0.4228,4.64331 z"
     id="path146"
     inkscape:connector-curvature="0"
     style="fill:#eba11f" />
  <path
     d="m 85.418593,14.240348 c 0.0086,-0.02157 0.0173,-0.04316 0.0264,-0.06473 6e-4,0 0.0016,0.0054 0.0027,0.0054 -0.0097,0.01617 -0.0194,0.03773 -0.0291,0.0593 z"
     id="path148"
     inkscape:connector-curvature="0"
     style="fill:#db8d11" />
  <path
     d="m 94.589293,21.892838 c -0.233,0 -0.446,0 -0.635,-0.0054 -0.015,0 -0.029,-0.0054 -0.044,-0.0054 -2.566,-0.0862 -5.829,-0.3505 -7.6471,-0.7981 -0.7151,-0.1834 -1.1858,-0.3991 -1.2711,-0.6472 -0.1127,-0.3289 -0.2243,-1.4992 -0.2896,-2.7503 0.0497,-1.05165 0.2379,-2.27586 0.7162,-3.44613 0.0097,-0.02157 0.0194,-0.04312 0.0291,-0.0593 0.3155,0.42604 0.6817,0.8413 1.1088,1.24037 1.9407,1.79586 4.8147,2.83666 9.2557,3.27886 2.68,0.2643 4.476997,0.3883 6.205007,0.3883 1.774,0 3.475,-0.1294 5.984,-0.3829 0.332,1.0031 0.474,1.5909 0.334,2.0979 l -0.017,0.0485 c -2.174,0.2858 -5.314,0.5878 -8.19101,0.7874 -2.171997,0.1564 -4.192997,0.2534 -5.537997,0.2534 z"
     id="path150"
     inkscape:connector-curvature="0"
     style="fill:#db8d11" />
  <path
     d="m 94.413293,22.809638 c -0.28,0 -0.536,-0.0054 -0.766,-0.0108 -0.012,0 -0.023,0 -0.035,0 -4.607,-0.1564 -10.8949,-1.7473 -11.2681,-2.8637 -6e-4,-0.0054 -0.0016,-0.0053 -0.0022,-0.0107 -5e-4,0 -5e-4,0 -0.0011,0 -5e-4,0 -10e-4,-0.0054 -10e-4,-0.0054 -6e-4,0 -0.0011,0 -0.0017,-0.0054 0,0 -5e-4,0 -0.001,0 -6e-4,-0.0054 -0.0011,-0.0054 -0.0017,-0.0054 0,0 0,0 -5e-4,-0.0054 0,0 -5e-4,0 -0.0011,0 -5e-4,-0.0054 -0.0011,-0.0054 -0.0011,-0.0054 -5e-4,0 -10e-4,-0.0054 -0.0016,-0.0054 h -5e-4 c -6e-4,-0.0054 -0.0011,-0.0054 -0.0016,-0.0054 0,0 -6e-4,-0.0054 -0.0011,-0.0054 -6e-4,0 -6e-4,0 -0.0011,-0.0054 -5e-4,0 -0.0011,0 -0.0011,0 -5e-4,0 -5e-4,-0.0054 -0.001,-0.0054 -6e-4,0 -0.0011,-0.0054 -0.0017,-0.0054 -5e-4,0 -5e-4,0 -0.001,0 -0.0017,-0.0054 -0.0033,-0.0108 -0.0044,-0.0161 l -5e-4,-0.0054 c -0.0011,-0.0054 -0.0027,-0.0108 -0.0043,-0.0162 -6e-4,0 -5e-4,0 -5e-4,0 -0.1974,-0.7119 -0.4002,-2.5617 -0.4228,-4.64331 0.7188,-1.79584 1.2791,-3.07935 1.9905,-4.141749 0.3322,1.008479 0.8019,2.103219 1.565,3.133259 -0.0092,0.02157 -0.0178,0.04316 -0.0264,0.06473 -0.4784,1.17026 -0.6666,2.39447 -0.7162,3.44607 -0.0663,1.4237 0.1213,2.5239 0.1909,2.7288 0.0879,0.2535 0.5991,0.48 1.3698,0.6688 1.8181,0.4476 5.0811,0.7118 7.6471,0.7981 0.015,0 0.029,0.0054 0.044,0.0054 0.189,0.0054 0.401,0.0054 0.634,0.0054 1.345,0 3.367,-0.0971 5.538997,-0.2535 2.87701,-0.1995 6.01701,-0.5016 8.19101,-0.7874 l 0.017,-0.0485 c 0.14,-0.5069 -0.001,-1.0948 -0.333,-2.0979 0.283,-0.0269 0.578,-0.0593 0.883,-0.0916 0.608,-0.0594 1.475,-0.0917 2.31,-0.2804 0.356,1.0785 0.573,1.8173 0.598,2.4106 0.01,0.2372 -0.011,0.4476 -0.065,0.6525 l -0.022,0.0648 c -0.304,0.0377 -0.623,0.0808 -0.955,0.124 -0.002,0 -0.004,0 -0.006,0 -0.007,0 -0.014,0 -0.021,0 -4.915,0.6148 -12.628007,1.2242 -16.311007,1.2242 z"
     id="path152"
     inkscape:connector-curvature="0"
     style="fill:#f3b43c" />
  <path
     d="m 113.5503,15.804408 c 2.864,0.82511 5.422,2.20573 5.687,3.47303 0.428,2.0547 -1.512,2.7558 -4.77,3.5216 -4.793,1.1163 -20.191007,1.1271 -25.171007,0.426 -4.9805,-0.7065 -7.3464,-1.4129 -8.0523,-2.1194 -0.7054,-0.7065 1.0791,-1.4939 1.0791,-1.4939 0,0 2.9947,1.2242 6.8482,1.4939 4.13,0.2912 14.279007,-0.0432 18.718007,-0.4962 4.43,-0.4584 6.542,-0.4691 6.578,-2.2326 0.009,-0.4584 -0.917,-2.57243 -0.917,-2.57243 z"
     id="path154"
     inkscape:connector-curvature="0"
     style="fill:#f9c249" />
  <path
     d="m 103.5513,43.788038 -0.077,-0.0108 c -0.541,-0.1456 -1.043,-0.3883 -1.491,-0.7065 -0.94301,-0.6849 -1.41601,-1.5693 -1.64601,-2.1948 -0.056,-0.151 0.021,-0.3236 0.173,-0.3775 0.155,-0.054 0.322,0.0215 0.378,0.1725 0.203,0.5501 0.61601,1.3267 1.43901,1.9199 0.39,0.2804 0.828,0.4907 1.301,0.6148 0.156,0.0431 0.249,0.2049 0.207,0.3613 -0.036,0.1348 -0.155,0.2211 -0.284,0.2211 z"
     id="path156"
     inkscape:connector-curvature="0"
     style="fill:#e27988" />
  <defs
     id="defs182">
    <linearGradient
       id="paint0_linear"
       x1="147.17999"
       y1="51.7742"
       x2="143.08299"
       y2="93.432701"
       gradientUnits="userSpaceOnUse"
       gradientTransform="translate(-13.193707,6.6880385)">
      <stop
         stop-color="#F4BDC1"
         id="stop158" />
      <stop
         offset="0.0819368"
         stop-color="#F4BDC1"
         id="stop160" />
      <stop
         offset="1"
         stop-color="#F599A2"
         id="stop162" />
    </linearGradient>
    <linearGradient
       id="paint1_linear"
       x1="147.17999"
       y1="51.7742"
       x2="143.08299"
       y2="93.432602"
       gradientUnits="userSpaceOnUse"
       gradientTransform="translate(-13.193707,6.6880385)">
      <stop
         stop-color="#EEAFB2"
         id="stop165" />
      <stop
         offset="0.0819368"
         stop-color="#EEAFB2"
         id="stop167" />
      <stop
         offset="1"
         stop-color="#EF9098"
         id="stop169" />
    </linearGradient>
    <linearGradient
       id="paint2_linear"
       x1="126.224"
       y1="35.1264"
       x2="91.736603"
       y2="35.1264"
       gradientUnits="userSpaceOnUse"
       gradientTransform="translate(-13.193707,6.6880385)">
      <stop
         stop-color="#F4BDC1"
         id="stop172" />
      <stop
         offset="1"
         stop-color="#F68B96"
         id="stop174" />
    </linearGradient>
    <linearGradient
       id="paint3_linear"
       x1="129.436"
       y1="107.672"
       x2="97.867996"
       y2="87.439102"
       gradientUnits="userSpaceOnUse"
       gradientTransform="translate(-13.193707,6.6880385)">
      <stop
         stop-color="#F4BDC1"
         id="stop177" />
      <stop
         offset="1"
         stop-color="#F68B96"
         id="stop179" />
    </linearGradient>
  </defs>
</svg>
