<?xml version="1.0" encoding="UTF-8" standalone="no"?>
<svg
   xmlns:dc="http://purl.org/dc/elements/1.1/"
   xmlns:cc="http://creativecommons.org/ns#"
   xmlns:rdf="http://www.w3.org/1999/02/22-rdf-syntax-ns#"
   xmlns:svg="http://www.w3.org/2000/svg"
   xmlns="http://www.w3.org/2000/svg"
   xmlns:sodipodi="http://sodipodi.sourceforge.net/DTD/sodipodi-0.dtd"
   xmlns:inkscape="http://www.inkscape.org/namespaces/inkscape"
   width="189.00061"
   height="199.687"
   viewBox="0 0 189.00061 199.687"
   version="1.1"
   id="svg127"
   sodipodi:docname="reliable.svg"
   style="fill:none"
   inkscape:version="0.92.2 (5c3e80d, 2017-08-06)">
  <metadata
     id="metadata131">
    <rdf:RDF>
      <cc:Work
         rdf:about="">
        <dc:format>image/svg+xml</dc:format>
        <dc:type
           rdf:resource="http://purl.org/dc/dcmitype/StillImage" />
      </cc:Work>
    </rdf:RDF>
  </metadata>
  <sodipodi:namedview
     pagecolor="#ffffff"
     bordercolor="#666666"
     borderopacity="1"
     objecttolerance="10"
     gridtolerance="10"
     guidetolerance="10"
     inkscape:pageopacity="0"
     inkscape:pageshadow="2"
     inkscape:window-width="1226"
     inkscape:window-height="965"
     id="namedview129"
     showgrid="false"
     inkscape:zoom="2.005291"
     inkscape:cx="94.5"
     inkscape:cy="79.345311"
     inkscape:window-x="0"
     inkscape:window-y="0"
     inkscape:window-maximized="0"
     inkscape:current-layer="svg127" />
  <path
     d="m 87.6763,7.894995 c -0.5718,-0.02291 -1.123,0.05092 -1.6382,0.20873 0.002,-0.06364 0.0036,-0.12727 0.0036,-0.19091 0,-3.04048 -2.4652,-5.5057 -5.5061,-5.5057 -0.8492,0 -1.6534,0.19218 -2.3717,0.53581 C 77.0135,1.153505 74.9954,-0.02628504 72.7036,4.4495956e-4 69.294,0.03862496 66.4859,2.792745 66.3833,6.201038 c -0.012,0.397083 0.0126,0.787797 0.0702,1.165787 -0.1127,-0.00636 -0.2261,-0.01146 -0.3407,-0.01146 -2.9346,0 -5.2985,2.44486 -5.1664,5.40898 0.1237,2.77449 2.4637,4.93555 5.2409,4.93555 h 21.2811 c 2.73,0 4.9391,-2.23105 4.9037,-4.9699 -0.0334,-2.5874 -2.1104,-4.72682 -4.6958,-4.835 z"
     id="path2"
     inkscape:connector-curvature="0"
     style="fill:url(#paint0_linear)" />
  <path
     d="m 49.4573,30.975795 c -0.7691,-0.0241 -1.5104,0.0794 -2.2048,0.291 0.0029,-0.0874 0.005,-0.176 0.005,-0.2634 0,-4.2275 -3.4262,-7.6534 -7.6528,-7.6534 -1.1804,0 -2.2981,0.268 -3.2964,0.7452 -1.5992,-2.4886 -4.4049,-4.1274 -7.5907,-4.0906 -4.8217,0.0564 -8.7563,4.0124 -8.7868,8.8345 -0.003,0.4784 0.0319,0.9476 0.1016,1.4053 -0.1566,-0.0104 -0.3143,-0.0161 -0.4735,-0.0161 -4.0525,0 -7.3215,3.3535 -7.1839,7.4372 0.1311,3.8859 3.3835,6.9392 7.2715,6.9392 h 29.5938 c 3.7504,0 6.7934,-3.0291 6.8161,-6.7747 0.0224,-3.6767 -2.924,-6.7403 -6.5991,-6.8542 z"
     id="path4"
     inkscape:connector-curvature="0"
     style="fill:url(#paint1_linear)" />
  <path
     d="m 127.581,37.756295 c 0,0 -21.58,-3.5962 -46.5143,15.852 -24.9343,19.4481 -39.379,37.865 -57.8304,42.0639 -18.45149,4.1978 -23.23302785,-3.6796 -23.23302785,-3.6796 0,0 -0.79651113,22.792395 22.46472785,30.783395 23.2613,7.993 42.3399,23.34 42.3399,23.34 0,0 43.7461,2.5 52.6351,-38.1 8.889,-40.598395 21.441,-68.829095 21.441,-68.829095 z"
     id="path6"
     inkscape:connector-curvature="0"
     style="fill:url(#paint2_linear)" />
  <path
     d="m 146.992,104.75159 c -0.198,-10.472995 -0.917,-20.112695 -1.347,-25.132795 h -16.371 c 0.003,1.5348 0.016,7.094 0.074,10.3083 -0.024,4.2512 -0.044,8.4803 -0.054,12.700395 -0.021,13.6555 0.732,21.1675 0.93,34.9545 0.004,0.319 0,0.647 -0.02,0.977 l -0.079,-0.011 c -0.063,0.55 -0.189,1.093 -0.42,1.598 -0.661,2.198 -1.226,4.395 -1.706,6.594 -0.479,2.197 -0.874,4.395 -1.194,6.592 -2.386,15.748 -1.112,31.044 0.035,46.355 l 6.224,-1.142 c 0.41,-3.576 0.86,-9.345 1.885,-15.139 0.563,-3.185 1.156,-6.191 1.708,-8.378 1.186,-4.716 3.683,-21.131 5.441,-33.149 0.794,-3.798 1.46,-7.029 1.881,-9.09 0.928,-4.995 1.717,-10.096 2.256,-14.902 0.54,-4.808 0.829,-9.32 0.757,-13.1354 z"
     id="path8"
     inkscape:connector-curvature="0"
     style="fill:url(#paint3_linear)" />
  <path
     d="m 120.705,79.618795 c -0.358,2.5186 -0.974,6.9023 -1.295,9.4842 -0.629,4.2702 -1.248,8.5184 -1.86,12.757595 -1.963,13.7214 -2.292,21.3374 -4.06,35.2104 -0.07,0.554 -0.17,1.134 -0.333,1.7 -0.136,0.164 -0.279,0.319 -0.435,0.465 -1.501,1.814 -2.919,3.664 -4.263,5.546 -1.344,1.882 -2.613,3.796 -3.817,5.737 -8.7073,13.879 -13.9739,28.552 -19.4042,43.343 l 5.4363,2.408 c 1.8619,-3.2 5.1265,-9.442 8.459,-14.494 1.8319,-2.776 3.6139,-5.374 5.0159,-7.218 3.094,-4.078 12.556,-19.16 19.176,-29.834 0.624,-1.006 1.139,-2.07 1.535,-3.176 1.183,-3.357 2.176,-6.201 2.827,-8.07 1.621,-4.937 3.123,-9.993 4.337,-14.775 1.214,-4.783 2.141,-9.292 2.613,-13.1333 1.447,-11.775795 2.733,-21.771895 3.136,-25.950895 z"
     id="path10"
     inkscape:connector-curvature="0"
     style="fill:url(#paint4_linear)" />
  <path
     d="m 186.287,75.021895 c -0.121,-0.0058 -0.233,-0.0116 -0.335,-0.0221 -9.142,-0.8975 -18.254,-2.2472 -27.251,-4.6812 -0.868,-0.2342 -1.66,-0.7502 -2.245,-1.4703 -3.661,-4.5003 -5.913,-9.4876 -7.841,-14.8726 -1.2,-3.357 -2.995,-11.7847 -7.691,-11.7592 -4.896,0.0278 -3.533,10.1984 -2.799,12.9976 2.337,8.9287 8.224,17.535 16.802,21.2549 4.709,2.042 9.907,2.2194 14.83,2.3992 4.452,0.1635 8.913,0.0776 13.311,-0.3444 1.431,-0.1369 2.954,-0.2238 4.329,-0.6274 0.7,-0.2064 1.761,-0.749 1.584,-1.6895 -0.221,-1.17 -1.717,-1.141 -2.694,-1.185 z"
     id="path12"
     inkscape:connector-curvature="0"
     style="fill:url(#paint5_linear)" />
  <path
     d="m 149.3,52.868395 c -0.165,-0.4568 -0.345,-1.0216 -0.551,-1.6761 -0.594,-1.8923 -1.336,-4.2463 -2.476,-6.2018 -1.464,-2.5111 -3.283,-3.7641 -5.407,-3.7223 -0.055,0 -0.11,0.0031 -0.164,0.0051 -1.207,0.0673 -2.231,0.6168 -2.961,1.5915 -2.37,3.1666 -1.215,10.1116 -0.775,11.799 0.989,3.7997 2.659,7.417 4.864,10.5673 l 10.379,-5.5401 c -1.207,-2.3449 -2.128,-4.6725 -2.909,-6.8226 z"
     id="path14"
     inkscape:connector-curvature="0"
     style="fill:url(#paint6_linear)" />
  <path
     d="m 148.894,63.084495 c 0.753,-6.3801 0.738,-13.21 -2.95,-18.7371 -3.685,-5.4617 -11.026,-7.605 -17.255,-5.3744 -1.467,0.5403 -2.847,1.3319 -4.089,2.3127 -6.168,4.67 -7.402,12.9128 -6.304,19.8103 0.13,1.3755 0.265,2.7479 0.34,4.11 0.074,1.2322 0.111,2.4633 0.072,3.6923 -0.084,2.7397 0.024,5.3983 -0.384,8.2325 -0.652,4.8716 -1.056,9.3982 -1.124,14.1534 2.754,0.2098 5.506,0.4197 8.248,0.4644 1.53,0.0436 3.157,0.0602 4.777,0.029 6.411,0.1798 12.731,-1.8794 18.782,-4.1754 -0.337,-6.6731 -0.214,-13.3191 -0.18,-19.934 0.007,-1.6861 0.017,-3.2466 0.067,-4.5837 z"
     id="path16"
     inkscape:connector-curvature="0"
     style="fill:url(#paint7_linear)" />
  <path
     d="m 130.109,43.049795 c -3.36,-5.0352 -14.867,3.062 -20.468,20.8316 -5.6,17.7697 -3.234,39.862195 -2.422,42.645595 0.812,2.781 3.295,2.192 3.105,-1.1675 -0.189,-3.3591 3.051,-24.014695 7.104,-35.600295 4.053,-11.5846 16.351,-21.2092 12.681,-26.7094 z"
     id="path18"
     inkscape:connector-curvature="0"
     style="fill:url(#paint8_linear)" />
  <path
     d="m 126.512,56.674195 c 3.852,-5.7629 7.179,-10.7403 4.617,-14.3781 -0.657,-0.935 -1.588,-1.529 -2.689,-1.7195 -2.816,-0.4855 -6.456,1.5843 -9.987,5.6799 -2.735,3.1749 -5.164,7.3248 -7.068,12.0174 l 10.059,6.6038 c 1.522,-2.8984 3.366,-5.6574 5.068,-8.2035 z"
     id="path20"
     inkscape:connector-curvature="0"
     style="fill:url(#paint9_linear)" />
  <path
     d="m 128.649,29.245495 c 0,0 0.642,2.7441 0.276,5.6751 -0.367,2.9311 -2.24,5.1515 -2.24,5.1515 0,0 3.314,2.6555 7.479,2.2281 4.163,-0.4275 4.796,-3.1946 4.796,-3.1946 0,0 -1.933,-1.4988 -2.952,-4.3894 -1.02,-2.8906 -1.123,-5.3472 -1.123,-5.3472 z"
     id="path22"
     inkscape:connector-curvature="0"
     style="fill:url(#paint10_linear)" />
  <path
     d="m 130.435,17.843995 c -5.416,1.3296 -6.842,7.5747 -4.285,10.5727 2.355,2.7628 3.993,1.1246 5.293,3.3833 1.005,1.7464 4.775,3.7128 6.687,3.3531 1.913,-0.3598 2.948,-4.8562 1.605,-10.639 -1.341,-5.7829 -6.316,-7.4024 -9.3,-6.6701 z"
     id="path24"
     inkscape:connector-curvature="0"
     style="fill:url(#paint11_linear)" />
  <path
     d="m 130.625,16.966395 c 0.277,-0.0583 0.532,-0.7238 0.678,-0.9512 1.827,-2.82737 5.971,-3.63571 8.121,-1.04283 1.458,1.75953 1.514,4.51553 -0.832,5.70723 -0.622,0.3154 -1.287,0.519 -1.925,0.794 -2.425,1.0453 -7.96,1.3048 -6.385,5.0703 0.682,1.6298 -0.371,5.1286 -1.398,5.7191 0.018,-0.0631 -1.01,-0.7083 -1.087,-0.7643 -1.435,-1.0678 -2.653,-2.1643 -3.373,-3.8524 -1.371,-3.2167 -0.683,-7.431 2.622,-9.3953 0.912,-0.5417 1.931,-0.9191 2.913,-1.1072 0.428,-0.1274 0.663,-0.1774 0.666,-0.1774 z"
     id="path26"
     inkscape:connector-curvature="0"
     style="fill:url(#paint12_linear)" />
  <path
     d="m 130.464,28.389795 c 0,0 -2.083,-0.7102 -1.489,1.0191 0.596,1.7294 2.481,1.3633 2.481,1.3633 z"
     id="path28"
     inkscape:connector-curvature="0"
     style="fill:url(#paint13_linear)" />
  <path
     d="m 185.131,90.610595 c 1.206,-9.5798 2.412,-19.1585 3.617,-28.7372 -4.431,1.869 -7.695,-1.3652 -7.043,-6.2368 -6.169,1.6999 -12.638,1.9813 -19.058,0.865 -0.017,-0.0023 -0.033,-0.0057 -0.049,-0.0081 -6.565,-1.1487 -13.08,-3.7587 -19.155,-7.8035 -0.606,5.1634 -5.013,7.257 -9.435,3.7078 -1.31,10.4113 -2.62,20.8225 -3.929,31.2326 -0.013,-0.0197 -0.025,-0.0394 -0.037,-0.0602 -0.892,7.0485 0.47,14.5096 3.802,20.716195 3.276,6.1906 8.442,11.0926 14.754,14.4956 0.228,0.133 4.626,2.712 5.575,4.671 1.432,-1.806 6.331,-3.637 6.565,-3.726 6.661,-2.286 12.409,-6.055 16.653,-11.203 4.201,-5.0377 6.972,-11.475195 7.783,-17.960895 -0.014,0.0162 -0.029,0.0313 -0.043,0.0475 z"
     id="path30"
     inkscape:connector-curvature="0"
     style="fill:url(#paint14_linear)" />
  <path
     d="m 155.093,116.03899 c -0.116,-0.088 -0.235,-0.175 -0.354,-0.263 -1.383,-1.013 -2.751,-1.856 -3.164,-2.085 -5.421,-2.983 -9.801,-7.204 -12.575,-12.264 -2.463,-4.470095 -3.563,-9.444395 -3.292,-14.058395 1.043,-8.6361 2.088,-17.2732 3.132,-25.9115 3.436,0.3352 6.489,-1.2323 8.373,-4.031 9.461,4.6645 19.605,6.3386 29.244,4.9594 1.004,3.1575 3.297,5.4965 6.311,6.1704 -1.052,8.0608 -2.105,16.1216 -3.158,24.1836 -0.806,4.2545 -2.872,8.576995 -6.034,12.222895 -3.631,4.2066 -8.613,7.4296 -14.427,9.3776 -0.347,0.118 -2.08,0.717 -4.056,1.699 z"
     id="path32"
     inkscape:connector-curvature="0"
     style="fill:url(#paint15_linear)" />
  <path
     d="m 154.62,96.348895 c -2.251,-2.8666 -4.513,-5.8642 -6.762,-9.0703 -0.723,-1.0345 -0.562,-2.3824 0.36,-2.9861 0.918,-0.6026 2.251,-0.2641 2.976,0.7348 1.382,1.9096 2.766,3.7448 4.145,5.5224 4.046,-2.9703 8.105,-6.0821 12.162,-9.5493 0.907,-0.7735 2.213,-0.7818 2.908,-0.0063 0.694,0.7736 0.522,2.0753 -0.38,2.8897 -5.129,4.6127 -10.277,8.6206 -15.409,12.4651 z"
     id="path34"
     inkscape:connector-curvature="0"
     style="fill:url(#paint16_linear)" />
  <defs
     id="defs125">
    <linearGradient
       id="paint0_linear"
       x1="508.565"
       y1="-402.78299"
       x2="-65.677498"
       y2="94.079201"
       gradientUnits="userSpaceOnUse"
       gradientTransform="translate(2.4634584e-8,5.999995)">
      <stop
         stop-color="white"
         id="stop36" />
      <stop
         offset="1"
         stop-color="#D5DFFA"
         id="stop38" />
    </linearGradient>
    <linearGradient
       id="paint1_linear"
       x1="452.633"
       y1="-352.52701"
       x2="-66.256798"
       y2="96.441803"
       gradientUnits="userSpaceOnUse"
       gradientTransform="translate(2.4634584e-8,5.999995)">
      <stop
         stop-color="white"
         id="stop41" />
      <stop
         offset="1"
         stop-color="#D5DFFA"
         id="stop43" />
    </linearGradient>
    <linearGradient
       id="paint2_linear"
       x1="-33.619598"
       y1="119.429"
       x2="136.50101"
       y2="103.226"
       gradientUnits="userSpaceOnUse"
       gradientTransform="translate(2.4634584e-8,5.999995)">
      <stop
         stop-color="#3BEB4D"
         id="stop46" />
      <stop
         offset="0.298995"
         stop-color="#8ECA2B"
         id="stop48" />
      <stop
         offset="0.615578"
         stop-color="#52B722"
         id="stop50" />
      <stop
         offset="1"
         stop-color="#077D28"
         id="stop52" />
    </linearGradient>
    <linearGradient
       id="paint3_linear"
       x1="162.92999"
       y1="74.333504"
       x2="112.639"
       y2="188.106"
       gradientUnits="userSpaceOnUse"
       gradientTransform="translate(2.4634584e-8,5.999995)">
      <stop
         stop-color="#2D4BDF"
         id="stop55" />
      <stop
         offset="1"
         stop-color="#7EA1F5"
         id="stop57" />
    </linearGradient>
    <linearGradient
       id="paint4_linear"
       x1="181.325"
       y1="-20.27"
       x2="85.2463"
       y2="204.01199"
       gradientUnits="userSpaceOnUse"
       gradientTransform="translate(2.4634584e-8,5.999995)">
      <stop
         stop-color="#2D4BDF"
         id="stop60" />
      <stop
         offset="1"
         stop-color="#7EA1F5"
         id="stop62" />
    </linearGradient>
    <linearGradient
       id="paint5_linear"
       x1="155.44501"
       y1="20.1611"
       x2="194.069"
       y2="46.037601"
       gradientUnits="userSpaceOnUse"
       gradientTransform="translate(2.4634584e-8,5.999995)">
      <stop
         stop-color="#FDCDCD"
         id="stop65" />
      <stop
         offset="1"
         stop-color="#FF8686"
         id="stop67" />
    </linearGradient>
    <linearGradient
       id="paint6_linear"
       x1="178.95599"
       y1="-1.20838"
       x2="132.258"
       y2="66.205597"
       gradientUnits="userSpaceOnUse"
       gradientTransform="translate(2.4634584e-8,5.999995)">
      <stop
         stop-color="white"
         id="stop70" />
      <stop
         offset="1"
         stop-color="#D5DFFA"
         id="stop72" />
    </linearGradient>
    <linearGradient
       id="paint7_linear"
       x1="109.649"
       y1="-18.667999"
       x2="152.907"
       y2="90.5811"
       gradientUnits="userSpaceOnUse"
       gradientTransform="translate(2.4634584e-8,5.999995)">
      <stop
         stop-color="white"
         id="stop75" />
      <stop
         offset="1"
         stop-color="#D5DFFA"
         id="stop77" />
    </linearGradient>
    <linearGradient
       id="paint8_linear"
       x1="126.745"
       y1="7.6283898"
       x2="119.705"
       y2="86.753899"
       gradientUnits="userSpaceOnUse"
       gradientTransform="translate(2.4634584e-8,5.999995)">
      <stop
         stop-color="#FDCDCD"
         id="stop80" />
      <stop
         offset="1"
         stop-color="#FF8686"
         id="stop82" />
    </linearGradient>
    <linearGradient
       id="paint9_linear"
       x1="148.395"
       y1="-7.5181499"
       x2="111.517"
       y2="77.132698"
       gradientUnits="userSpaceOnUse"
       gradientTransform="translate(2.4634584e-8,5.999995)">
      <stop
         stop-color="white"
         id="stop85" />
      <stop
         offset="1"
         stop-color="#D5DFFA"
         id="stop87" />
    </linearGradient>
    <linearGradient
       id="paint10_linear"
       x1="123.523"
       y1="91.035599"
       x2="151.08099"
       y2="-25.088499"
       gradientUnits="userSpaceOnUse"
       gradientTransform="translate(2.4634584e-8,5.999995)">
      <stop
         stop-color="#FDCDCD"
         id="stop90" />
      <stop
         offset="1"
         stop-color="#FF8686"
         id="stop92" />
    </linearGradient>
    <linearGradient
       id="paint11_linear"
       x1="169.146"
       y1="-39.055"
       x2="113.807"
       y2="87.058098"
       gradientUnits="userSpaceOnUse"
       gradientTransform="translate(2.4634584e-8,5.999995)">
      <stop
         stop-color="#FDCDCD"
         id="stop95" />
      <stop
         offset="1"
         stop-color="#FF8686"
         id="stop97" />
    </linearGradient>
    <linearGradient
       id="paint12_linear"
       x1="382.285"
       y1="177.08501"
       x2="231.931"
       y2="47.608299"
       gradientUnits="userSpaceOnUse"
       gradientTransform="translate(2.4634584e-8,5.999995)">
      <stop
         stop-color="#070256"
         id="stop100" />
      <stop
         offset="1"
         stop-color="#3A18CE"
         id="stop102" />
    </linearGradient>
    <linearGradient
       id="paint13_linear"
       x1="158.37801"
       y1="-26.2477"
       x2="106.122"
       y2="92.839996"
       gradientUnits="userSpaceOnUse"
       gradientTransform="translate(2.4634584e-8,5.999995)">
      <stop
         stop-color="#FDCDCD"
         id="stop105" />
      <stop
         offset="1"
         stop-color="#FF8686"
         id="stop107" />
    </linearGradient>
    <linearGradient
       id="paint14_linear"
       x1="236.465"
       y1="130.49001"
       x2="138.256"
       y2="-10.3111"
       gradientUnits="userSpaceOnUse"
       gradientTransform="translate(2.4634584e-8,5.999995)">
      <stop
         stop-color="#267D07"
         id="stop110" />
      <stop
         offset="1"
         stop-color="#D2EB3B"
         id="stop112" />
    </linearGradient>
    <linearGradient
       id="paint15_linear"
       x1="249.78101"
       y1="165.285"
       x2="156.93401"
       y2="32.1716"
       gradientUnits="userSpaceOnUse"
       gradientTransform="translate(2.4634584e-8,5.999995)">
      <stop
         stop-color="#027121"
         id="stop115" />
      <stop
         offset="1"
         stop-color="#96FE45"
         id="stop117" />
    </linearGradient>
    <linearGradient
       id="paint16_linear"
       x1="158.547"
       y1="58.4729"
       x2="197.787"
       y2="131.689"
       gradientUnits="userSpaceOnUse"
       gradientTransform="translate(2.4634584e-8,5.999995)">
      <stop
         stop-color="white"
         id="stop120" />
      <stop
         offset="1"
         stop-color="#A8BEF7"
         id="stop122" />
    </linearGradient>
  </defs>
</svg>
