<svg width="189" height="109" viewBox="0 0 189 109" fill="none" xmlns="http://www.w3.org/2000/svg">
<path d="M87.6763 1.895C87.1045 1.87209 86.5533 1.94592 86.0381 2.10373C86.0401 2.04009 86.0417 1.97646 86.0417 1.91282C86.0417 -1.12766 83.5765 -3.59288 80.5356 -3.59288C79.6864 -3.59288 78.8822 -3.4007 78.1639 -3.05707C77.0135 -4.84649 74.9954 -6.02628 72.7036 -5.99955C69.294 -5.96137 66.4859 -3.20725 66.3833 0.201043C66.3713 0.598126 66.3959 0.98884 66.4535 1.36683C66.3408 1.36047 66.2274 1.35537 66.1128 1.35537C63.1782 1.35537 60.8143 3.80023 60.9464 6.76435C61.0701 9.53884 63.4101 11.6999 66.1873 11.6999H87.4684C90.1984 11.6999 92.4075 9.46885 92.3721 6.73C92.3387 4.1426 90.2617 2.00318 87.6763 1.895Z" fill="url(#paint0_linear)"/>
<path d="M49.4573 24.9758C48.6882 24.9517 47.9469 25.0552 47.2525 25.2668C47.2554 25.1794 47.2575 25.0908 47.2575 25.0034C47.2575 20.7759 43.8313 17.35 39.6047 17.35C38.4243 17.35 37.3066 17.618 36.3083 18.0952C34.7091 15.6066 31.9034 13.9678 28.7176 14.0046C23.8959 14.061 19.9613 18.017 19.9308 22.8391C19.9278 23.3175 19.9627 23.7867 20.0324 24.2444C19.8758 24.234 19.7181 24.2283 19.5589 24.2283C15.5064 24.2283 12.2374 27.5818 12.375 31.6655C12.5061 35.5514 15.7585 38.6047 19.6465 38.6047H49.2403C52.9907 38.6047 56.0337 35.5756 56.0564 31.83C56.0788 28.1533 53.1324 25.0897 49.4573 24.9758Z" fill="url(#paint1_linear)"/>
<path d="M127.581 31.7563C127.581 31.7563 106.001 28.1601 81.0667 47.6083C56.1324 67.0564 41.6877 85.4733 23.2363 89.6722C4.78481 93.87 0.00327213 85.9926 0.00327213 85.9926C0.00327213 85.9926 -0.793239 108.785 22.468 116.776C45.7293 124.769 64.8079 140.116 64.8079 140.116C64.8079 140.116 108.554 142.616 117.443 102.016C126.332 61.4176 138.884 33.1869 138.884 33.1869L127.581 31.7563Z" fill="url(#paint2_linear)"/>
<path d="M146.992 98.7516C146.794 88.2786 146.075 78.6389 145.645 73.6188H129.274C129.277 75.1536 129.29 80.7128 129.348 83.9271C129.324 88.1783 129.304 92.4074 129.294 96.6275C129.273 110.283 130.026 117.795 130.224 131.582C130.228 131.901 130.224 132.229 130.204 132.559L130.125 132.548C130.062 133.098 129.936 133.641 129.705 134.146C129.044 136.344 128.479 138.541 127.999 140.74C127.52 142.937 127.125 145.135 126.805 147.332C124.419 163.08 125.693 178.376 126.84 193.687L133.064 192.545C133.474 188.969 133.924 183.2 134.949 177.406C135.512 174.221 136.105 171.215 136.657 169.028C137.843 164.312 140.34 147.897 142.098 135.879C142.892 132.081 143.558 128.85 143.979 126.789C144.907 121.794 145.696 116.693 146.235 111.887C146.775 107.079 147.064 102.567 146.992 98.7516Z" fill="url(#paint3_linear)"/>
<path d="M120.705 73.6188C120.347 76.1374 119.731 80.5211 119.41 83.103C118.781 87.3732 118.162 91.6214 117.55 95.8606C115.587 109.582 115.258 117.198 113.49 131.071C113.42 131.625 113.32 132.205 113.157 132.771C113.021 132.935 112.878 133.09 112.722 133.236C111.221 135.05 109.803 136.9 108.459 138.782C107.115 140.664 105.846 142.578 104.642 144.519C95.9347 158.398 90.6681 173.071 85.2378 187.862L90.6741 190.27C92.536 187.07 95.8006 180.828 99.1331 175.776C100.965 173 102.747 170.402 104.149 168.558C107.243 164.48 116.705 149.398 123.325 138.724C123.949 137.718 124.464 136.654 124.86 135.548C126.043 132.191 127.036 129.347 127.687 127.478C129.308 122.541 130.81 117.485 132.024 112.703C133.238 107.92 134.165 103.411 134.637 99.5697C136.084 87.7939 137.37 77.7978 137.773 73.6188H120.705Z" fill="url(#paint4_linear)"/>
<path d="M186.287 69.0219C186.166 69.0161 186.054 69.0103 185.952 68.9998C176.81 68.1023 167.698 66.7526 158.701 64.3186C157.833 64.0844 157.041 63.5684 156.456 62.8483C152.795 58.348 150.543 53.3607 148.615 47.9757C147.415 44.6187 145.62 36.191 140.924 36.2165C136.028 36.2443 137.391 46.4149 138.125 49.2141C140.462 58.1428 146.349 66.7491 154.927 70.469C159.636 72.511 164.834 72.6884 169.757 72.8682C174.209 73.0317 178.67 72.9458 183.068 72.5238C184.499 72.3869 186.022 72.3 187.397 71.8964C188.097 71.69 189.158 71.1474 188.981 70.2069C188.76 69.0369 187.264 69.0659 186.287 69.0219Z" fill="url(#paint5_linear)"/>
<path d="M149.3 46.8684C149.135 46.4116 148.955 45.8468 148.749 45.1923C148.155 43.3 147.413 40.946 146.273 38.9905C144.809 36.4794 142.99 35.2264 140.866 35.2682C140.811 35.2682 140.756 35.2713 140.702 35.2733C139.495 35.3406 138.471 35.8901 137.741 36.8648C135.371 40.0314 136.526 46.9764 136.966 48.6638C137.955 52.4635 139.625 56.0808 141.83 59.2311L152.209 53.691C151.002 51.3461 150.081 49.0185 149.3 46.8684Z" fill="url(#paint6_linear)"/>
<path d="M148.894 57.0845C149.647 50.7044 149.632 43.8745 145.944 38.3474C142.259 32.8857 134.918 30.7424 128.689 32.973C127.222 33.5133 125.842 34.3049 124.6 35.2857C118.432 39.9557 117.198 48.1985 118.296 55.096C118.426 56.4715 118.561 57.8439 118.636 59.206C118.71 60.4382 118.747 61.6693 118.708 62.8983C118.624 65.638 118.732 68.2966 118.324 71.1308C117.672 76.0024 117.268 80.529 117.2 85.2842C119.954 85.494 122.706 85.7039 125.448 85.7486C126.978 85.7922 128.605 85.8088 130.225 85.7776C136.636 85.9574 142.956 83.8982 149.007 81.6022C148.67 74.9291 148.793 68.2831 148.827 61.6682C148.834 59.9821 148.844 58.4216 148.894 57.0845Z" fill="url(#paint7_linear)"/>
<path d="M130.109 37.0498C126.749 32.0146 115.242 40.1118 109.641 57.8814C104.041 75.6511 106.407 97.7436 107.219 100.527C108.031 103.308 110.514 102.719 110.324 99.3595C110.135 96.0004 113.375 75.3448 117.428 63.7592C121.481 52.1746 133.779 42.55 130.109 37.0498Z" fill="url(#paint8_linear)"/>
<path d="M126.512 50.6742C130.364 44.9113 133.691 39.9339 131.129 36.2961C130.472 35.3611 129.541 34.7671 128.44 34.5766C125.624 34.0911 121.984 36.1609 118.453 40.2565C115.718 43.4314 113.289 47.5813 111.385 52.2739L121.444 58.8777C122.966 55.9793 124.81 53.2203 126.512 50.6742Z" fill="url(#paint9_linear)"/>
<path d="M128.649 23.2455C128.649 23.2455 129.291 25.9896 128.925 28.9206C128.558 31.8517 126.685 34.0721 126.685 34.0721C126.685 34.0721 129.999 36.7276 134.164 36.3002C138.327 35.8727 138.96 33.1056 138.96 33.1056C138.96 33.1056 137.027 31.6068 136.008 28.7162C134.988 25.8256 134.885 23.369 134.885 23.369L128.649 23.2455Z" fill="url(#paint10_linear)"/>
<path d="M130.435 11.844C125.019 13.1736 123.593 19.4187 126.15 22.4167C128.505 25.1795 130.143 23.5413 131.443 25.8C132.448 27.5464 136.218 29.5128 138.13 29.1531C140.043 28.7933 141.078 24.2969 139.735 18.5141C138.394 12.7312 133.419 11.1117 130.435 11.844Z" fill="url(#paint11_linear)"/>
<path d="M130.625 10.9664C130.902 10.9081 131.157 10.2426 131.303 10.0152C133.13 7.18783 137.274 6.37949 139.424 8.97237C140.882 10.7319 140.938 13.4879 138.592 14.6796C137.97 14.995 137.305 15.1986 136.667 15.4736C134.242 16.5189 128.707 16.7784 130.282 20.5439C130.964 22.1737 129.911 25.6725 128.884 26.263C128.902 26.1999 127.874 25.5547 127.797 25.4987C126.362 24.4309 125.144 23.3344 124.424 21.6463C123.053 18.4296 123.741 14.2153 127.046 12.251C127.958 11.7093 128.977 11.3319 129.959 11.1438C130.387 11.0164 130.622 10.9664 130.625 10.9664Z" fill="url(#paint12_linear)"/>
<path d="M130.464 22.3898C130.464 22.3898 128.381 21.6796 128.975 23.4089C129.571 25.1383 131.456 24.7722 131.456 24.7722L130.464 22.3898Z" fill="url(#paint13_linear)"/>
<path d="M185.131 84.6106C186.337 75.0308 187.543 65.4521 188.748 55.8734C184.317 57.7424 181.053 54.5082 181.705 49.6366C175.536 51.3365 169.067 51.6179 162.647 50.5016C162.63 50.4993 162.614 50.4959 162.598 50.4935C156.033 49.3448 149.518 46.7348 143.443 42.69C142.837 47.8534 138.43 49.947 134.008 46.3978C132.698 56.8091 131.388 67.2203 130.079 77.6304C130.066 77.6107 130.054 77.591 130.042 77.5702C129.15 84.6187 130.512 92.0798 133.844 98.2864C137.12 104.477 142.286 109.379 148.598 112.782C148.826 112.915 153.224 115.494 154.173 117.453C155.605 115.647 160.504 113.816 160.738 113.727C167.399 111.441 173.147 107.672 177.391 102.524C181.592 97.4863 184.363 91.0488 185.174 84.5631C185.16 84.5793 185.145 84.5944 185.131 84.6106Z" fill="url(#paint14_linear)"/>
<path d="M155.093 110.039C154.977 109.951 154.858 109.864 154.739 109.776C153.356 108.763 151.988 107.92 151.575 107.691C146.154 104.708 141.774 100.487 139 95.427C136.537 90.9569 135.437 85.9826 135.708 81.3686C136.751 72.7325 137.796 64.0954 138.84 55.4571C142.276 55.7923 145.329 54.2248 147.213 51.4261C156.674 56.0906 166.818 57.7647 176.457 56.3855C177.461 59.543 179.754 61.882 182.768 62.5559C181.716 70.6167 180.663 78.6775 179.61 86.7395C178.804 90.994 176.738 95.3165 173.576 98.9624C169.945 103.169 164.963 106.392 159.149 108.34C158.802 108.458 157.069 109.057 155.093 110.039Z" fill="url(#paint15_linear)"/>
<path d="M154.62 90.3489C152.369 87.4823 150.107 84.4847 147.858 81.2786C147.135 80.2441 147.296 78.8962 148.218 78.2925C149.136 77.6899 150.469 78.0284 151.194 79.0273C152.576 80.9369 153.96 82.7721 155.339 84.5497C159.385 81.5794 163.444 78.4676 167.501 75.0004C168.408 74.2269 169.714 74.2186 170.409 74.9941C171.103 75.7677 170.931 77.0694 170.029 77.8838C164.9 82.4965 159.752 86.5044 154.62 90.3489Z" fill="url(#paint16_linear)"/>
<defs>
<linearGradient id="paint0_linear" x1="508.565" y1="-402.783" x2="-65.6775" y2="94.0792" gradientUnits="userSpaceOnUse">
<stop stop-color="white"/>
<stop offset="1" stop-color="#D5DFFA"/>
</linearGradient>
<linearGradient id="paint1_linear" x1="452.633" y1="-352.527" x2="-66.2568" y2="96.4418" gradientUnits="userSpaceOnUse">
<stop stop-color="white"/>
<stop offset="1" stop-color="#D5DFFA"/>
</linearGradient>
<linearGradient id="paint2_linear" x1="-33.6196" y1="119.429" x2="136.501" y2="103.226" gradientUnits="userSpaceOnUse">
<stop stop-color="#3BEB4D"/>
<stop offset="0.298995" stop-color="#8ECA2B"/>
<stop offset="0.615578" stop-color="#52B722"/>
<stop offset="1" stop-color="#077D28"/>
</linearGradient>
<linearGradient id="paint3_linear" x1="162.93" y1="74.3335" x2="112.639" y2="188.106" gradientUnits="userSpaceOnUse">
<stop stop-color="#2D4BDF"/>
<stop offset="1" stop-color="#7EA1F5"/>
</linearGradient>
<linearGradient id="paint4_linear" x1="181.325" y1="-20.27" x2="85.2463" y2="204.012" gradientUnits="userSpaceOnUse">
<stop stop-color="#2D4BDF"/>
<stop offset="1" stop-color="#7EA1F5"/>
</linearGradient>
<linearGradient id="paint5_linear" x1="155.445" y1="20.1611" x2="194.069" y2="46.0376" gradientUnits="userSpaceOnUse">
<stop stop-color="#FDCDCD"/>
<stop offset="1" stop-color="#FF8686"/>
</linearGradient>
<linearGradient id="paint6_linear" x1="178.956" y1="-1.20838" x2="132.258" y2="66.2056" gradientUnits="userSpaceOnUse">
<stop stop-color="white"/>
<stop offset="1" stop-color="#D5DFFA"/>
</linearGradient>
<linearGradient id="paint7_linear" x1="109.649" y1="-18.668" x2="152.907" y2="90.5811" gradientUnits="userSpaceOnUse">
<stop stop-color="white"/>
<stop offset="1" stop-color="#D5DFFA"/>
</linearGradient>
<linearGradient id="paint8_linear" x1="126.745" y1="7.62839" x2="119.705" y2="86.7539" gradientUnits="userSpaceOnUse">
<stop stop-color="#FDCDCD"/>
<stop offset="1" stop-color="#FF8686"/>
</linearGradient>
<linearGradient id="paint9_linear" x1="148.395" y1="-7.51815" x2="111.517" y2="77.1327" gradientUnits="userSpaceOnUse">
<stop stop-color="white"/>
<stop offset="1" stop-color="#D5DFFA"/>
</linearGradient>
<linearGradient id="paint10_linear" x1="123.523" y1="91.0356" x2="151.081" y2="-25.0885" gradientUnits="userSpaceOnUse">
<stop stop-color="#FDCDCD"/>
<stop offset="1" stop-color="#FF8686"/>
</linearGradient>
<linearGradient id="paint11_linear" x1="169.146" y1="-39.055" x2="113.807" y2="87.0581" gradientUnits="userSpaceOnUse">
<stop stop-color="#FDCDCD"/>
<stop offset="1" stop-color="#FF8686"/>
</linearGradient>
<linearGradient id="paint12_linear" x1="382.285" y1="177.085" x2="231.931" y2="47.6083" gradientUnits="userSpaceOnUse">
<stop stop-color="#070256"/>
<stop offset="1" stop-color="#3A18CE"/>
</linearGradient>
<linearGradient id="paint13_linear" x1="158.378" y1="-26.2477" x2="106.122" y2="92.84" gradientUnits="userSpaceOnUse">
<stop stop-color="#FDCDCD"/>
<stop offset="1" stop-color="#FF8686"/>
</linearGradient>
<linearGradient id="paint14_linear" x1="236.465" y1="130.49" x2="138.256" y2="-10.3111" gradientUnits="userSpaceOnUse">
<stop stop-color="#267D07"/>
<stop offset="1" stop-color="#D2EB3B"/>
</linearGradient>
<linearGradient id="paint15_linear" x1="249.781" y1="165.285" x2="156.934" y2="32.1716" gradientUnits="userSpaceOnUse">
<stop stop-color="#027121"/>
<stop offset="1" stop-color="#96FE45"/>
</linearGradient>
<linearGradient id="paint16_linear" x1="158.547" y1="58.4729" x2="197.787" y2="131.689" gradientUnits="userSpaceOnUse">
<stop stop-color="white"/>
<stop offset="1" stop-color="#A8BEF7"/>
</linearGradient>
</defs>
</svg>
