<?xml version="1.0" encoding="UTF-8" standalone="no"?>
<svg
   xmlns:dc="http://purl.org/dc/elements/1.1/"
   xmlns:cc="http://creativecommons.org/ns#"
   xmlns:rdf="http://www.w3.org/1999/02/22-rdf-syntax-ns#"
   xmlns:svg="http://www.w3.org/2000/svg"
   xmlns="http://www.w3.org/2000/svg"
   xmlns:sodipodi="http://sodipodi.sourceforge.net/DTD/sodipodi-0.dtd"
   xmlns:inkscape="http://www.inkscape.org/namespaces/inkscape"
   width="36"
   height="36"
   viewBox="0 0 36 36"
   fill="none"
   version="1.1"
   id="svg25"
   sodipodi:docname="reward-3.svg"
   inkscape:version="0.92.2 (5c3e80d, 2017-08-06)">
  <metadata
     id="metadata29">
    <rdf:RDF>
      <cc:Work
         rdf:about="">
        <dc:format>image/svg+xml</dc:format>
        <dc:type
           rdf:resource="http://purl.org/dc/dcmitype/StillImage" />
        <dc:title></dc:title>
      </cc:Work>
    </rdf:RDF>
  </metadata>
  <sodipodi:namedview
     pagecolor="#ffffff"
     bordercolor="#666666"
     borderopacity="1"
     objecttolerance="10"
     gridtolerance="10"
     guidetolerance="10"
     inkscape:pageopacity="0"
     inkscape:pageshadow="2"
     inkscape:window-width="751"
     inkscape:window-height="480"
     id="namedview27"
     showgrid="false"
     inkscape:zoom="6.5555556"
     inkscape:cx="18"
     inkscape:cy="18"
     inkscape:window-x="187"
     inkscape:window-y="133"
     inkscape:window-maximized="0"
     inkscape:current-layer="g4" />
  <g
     id="g4"
     style="filter:url(#filter0_d)">
    <rect
       x="3"
       y="2"
       width="30"
       height="30"
       rx="15"
       id="rect2"
       style="fill:#334d6e;stroke:none;stroke-opacity:1;fill-opacity:1" />
  </g>
  <path
     d="M20.9301 16.3913C22.7685 15.3748 24 13.2291 24 11.0226C24 10.8552 23.8661 10.7183 23.7025 10.7183H21.7927C21.7898 10.4078 21.7809 10.3043 21.769 10.2496C21.7452 10.1035 21.6202 10 21.4774 10H14.4393C14.2965 10 14.1715 10.1035 14.1448 10.2496C14.1388 10.283 14.1269 10.3622 14.1239 10.7183H12.2975C12.1339 10.7183 12 10.8552 12 11.0226C12 13.2626 13.1542 15.3352 14.945 16.3274C15.5429 17.1856 16.3639 17.8917 17.0064 18.3665V19.7361H16.8815C16.2806 19.7361 15.7928 20.2352 15.7928 20.847V21.1604H15.0937C14.6683 21.1604 14.3262 21.5135 14.3262 21.9457V23.6957C14.3262 23.863 14.4571 24 14.6237 24H21.2067C21.3733 24 21.5042 23.863 21.5042 23.6957V21.9457C21.5042 21.5135 21.1621 21.1604 20.7367 21.1604H20.0377V20.847C20.0377 20.2352 19.5498 19.7361 18.9489 19.7361H18.9103V18.3665C19.529 17.91 20.3292 17.2283 20.9301 16.3913ZM21.8106 11.327H23.3961C23.3099 12.8457 22.59 14.3035 21.4923 15.2622C21.8642 13.9474 21.8404 12.0848 21.8106 11.327ZM12.6039 11.327H14.118V11.4731C14.118 12.1761 14.1299 13.0222 14.1358 13.57C14.1388 13.8257 14.1418 14.0113 14.1418 14.0813C14.1418 14.4283 14.2043 14.7783 14.3233 15.1343C13.3178 14.2 12.6812 12.8183 12.6039 11.327Z"
     fill="white"
     id="path6" />
  <defs
     id="defs23">
    <filter
       id="filter0_d"
       x="0"
       y="0"
       width="36"
       height="36"
       filterUnits="userSpaceOnUse"
       color-interpolation-filters="sRGB">
      <feFlood
         flood-opacity="0"
         result="BackgroundImageFix"
         id="feFlood8" />
      <feColorMatrix
         in="SourceAlpha"
         type="matrix"
         values="0 0 0 0 0 0 0 0 0 0 0 0 0 0 0 0 0 0 127 0"
         id="feColorMatrix10" />
      <feOffset
         dy="1"
         id="feOffset12" />
      <feGaussianBlur
         stdDeviation="1.5"
         id="feGaussianBlur14" />
      <feColorMatrix
         type="matrix"
         values="0 0 0 0 0 0 0 0 0 0 0 0 0 0 0 0 0 0 0.1 0"
         id="feColorMatrix16" />
      <feBlend
         mode="normal"
         in2="BackgroundImageFix"
         result="effect1_dropShadow"
         id="feBlend18" />
      <feBlend
         mode="normal"
         in="SourceGraphic"
         in2="effect1_dropShadow"
         result="shape"
         id="feBlend20" />
    </filter>
  </defs>
</svg>
