<svg width="43" height="43" viewBox="0 0 43 43" fill="none" xmlns="http://www.w3.org/2000/svg">
<rect x="0.854632" y="0.438372" width="41.207" height="41.207" rx="20.6035" fill="white" stroke="#DCDCDC" stroke-width="0.876744"/>
<path d="M29.3489 20.1651H28.4721H22.3349V22.9707H26.1089C25.4932 24.7057 23.8426 25.9516 21.8965 25.9516C19.4265 25.9516 17.4251 23.9503 17.4251 21.4802C17.4251 19.0102 19.4265 17.0088 21.8965 17.0088C23.0362 17.0088 24.074 17.4382 24.8629 18.1412L26.9705 16.0336C25.6402 14.7935 23.8601 14.0279 21.8965 14.0279C17.7803 14.0279 14.4442 17.364 14.4442 21.4802C14.4442 25.5965 17.7803 28.9326 21.8965 28.9326C26.0128 28.9326 29.3489 25.5965 29.3489 21.4802C29.3489 20.981 29.4435 20.6382 29.3489 20.1651Z" fill="#FFC107"/>
<path d="M15.2726 18.023L17.7065 19.8242C18.3645 18.1791 19.9582 17.0173 21.8237 17.0173C22.9561 17.0173 23.9872 17.4479 24.771 18.1529L26.8651 16.0393C25.5433 14.7957 23.7746 14.0279 21.8237 14.0279C18.9791 14.0279 16.5134 15.6481 15.2726 18.023Z" fill="#FF3D00"/>
<path d="M21.8849 28.9326C23.8027 28.9326 25.5464 28.2141 26.8651 27.0454L24.5657 25.1413C23.8201 25.6936 22.8931 26.0245 21.8849 26.0245C19.9525 26.0245 18.3132 24.819 17.6952 23.1363L15.2726 24.9624C16.5013 27.3167 18.998 28.9326 21.8849 28.9326Z" fill="#4CAF50"/>
<path d="M29.3489 20.1652L28.6037 20.1651H25.4035H22.3349L22.3346 22.9904H26.1089C25.8134 23.8763 25.2763 24.6385 24.5849 25.195H24.5864L26.8934 27.2682C26.7304 27.4244 29.3489 25.3651 29.3489 21.4073C29.3489 20.877 29.4435 20.6676 29.3489 20.1652Z" fill="#1976D2"/>
</svg>
