<svg width="16" height="16" viewBox="0 0 16 16" fill="none" xmlns="http://www.w3.org/2000/svg">
<path fill-rule="evenodd" clip-rule="evenodd" d="M5 0C2.23858 0 0 2.23857 0 5V10.2569C0 13.0183 2.23857 15.2569 5 15.2569H10.2569C13.0183 15.2569 15.2569 13.0183 15.2569 10.2569V5C15.2569 2.23858 13.0183 0 10.2569 0H5ZM11.6834 2.40918C11.3986 2.40918 11.1188 2.52448 10.9177 2.72651C10.7156 2.92755 10.5994 3.20743 10.5994 3.49322C10.5994 3.77813 10.7157 4.05791 10.9177 4.25993C11.1187 4.46097 11.3986 4.57726 11.6834 4.57726C11.9692 4.57726 12.2481 4.46097 12.4501 4.25993C12.6521 4.05791 12.7674 3.77803 12.7674 3.49322C12.7674 3.20743 12.6521 2.92755 12.4501 2.72651C12.2491 2.52448 11.9692 2.40918 11.6834 2.40918ZM4.81836 7.46824C4.81836 5.8742 6.11514 4.57739 7.70914 4.57739C9.30314 4.57739 10.5999 5.8742 10.5999 7.46824C10.5999 9.06221 9.30314 10.3589 7.70914 10.3589C6.11514 10.3589 4.81836 9.06221 4.81836 7.46824Z" fill="#90A0B7"/>
</svg>
