<svg width="43" height="43" viewBox="0 0 43 43" fill="none" xmlns="http://www.w3.org/2000/svg">
<rect width="42.0837" height="42.0837" rx="21.0419" fill="url(#paint0_radial)"/>
<rect width="42.0837" height="42.0837" rx="21.0419" fill="url(#paint1_radial)"/>
<path d="M17.1453 13.1512C14.4557 13.1512 12.2745 15.3323 12.2745 18.022V25.8152C12.2745 28.5049 14.4557 30.6861 17.1453 30.6861H24.9386C27.6283 30.6861 29.8094 28.5049 29.8094 25.8152V18.022C29.8094 15.3323 27.6283 13.1512 24.9386 13.1512H17.1453ZM26.8869 15.0995C27.4247 15.0995 27.8611 15.5359 27.8611 16.0736C27.8611 16.6114 27.4247 17.0478 26.8869 17.0478C26.3492 17.0478 25.9128 16.6114 25.9128 16.0736C25.9128 15.5359 26.3492 15.0995 26.8869 15.0995ZM21.042 17.0478C23.7316 17.0478 25.9128 19.229 25.9128 21.9186C25.9128 24.6083 23.7316 26.7894 21.042 26.7894C18.3523 26.7894 16.1712 24.6083 16.1712 21.9186C16.1712 19.229 18.3523 17.0478 21.042 17.0478ZM21.042 18.9961C20.2669 18.9961 19.5235 19.304 18.9755 19.8521C18.4274 20.4002 18.1195 21.1435 18.1195 21.9186C18.1195 22.6937 18.4274 23.437 18.9755 23.9851C19.5235 24.5332 20.2669 24.8411 21.042 24.8411C21.8171 24.8411 22.5604 24.5332 23.1085 23.9851C23.6566 23.437 23.9645 22.6937 23.9645 21.9186C23.9645 21.1435 23.6566 20.4002 23.1085 19.8521C22.5604 19.304 21.8171 18.9961 21.042 18.9961Z" fill="white"/>
<defs>
<radialGradient id="paint0_radial" cx="0" cy="0" r="1" gradientUnits="userSpaceOnUse" gradientTransform="translate(8.76744 5.69884) rotate(51.5321) scale(40.8722)">
<stop stop-color="#386BCB"/>
<stop offset="1" stop-color="#E82A7A"/>
</radialGradient>
<radialGradient id="paint1_radial" cx="0" cy="0" r="1" gradientUnits="userSpaceOnUse" gradientTransform="translate(12.7128 42.0837) rotate(-61.645) scale(31.3827)">
<stop offset="0.0296924" stop-color="#FFD17F"/>
<stop offset="0.546961" stop-color="#F94052"/>
<stop offset="1" stop-color="#F94052" stop-opacity="0"/>
</radialGradient>
</defs>
</svg>
