<svg width="43" height="43" viewBox="0 0 43 43" fill="none" xmlns="http://www.w3.org/2000/svg">
<rect x="0.41626" y="0.632538" width="42.0837" height="42.0837" rx="21.0419" fill="#FF9800"/>
<path fill-rule="evenodd" clip-rule="evenodd" d="M21.4585 12.907C19.0814 12.907 17.1545 14.8593 17.1545 17.2676C17.1545 19.6759 19.0814 21.6283 21.4585 21.6283C23.8355 21.6283 25.7625 19.6759 25.7625 17.2676C25.7625 14.8593 23.8355 12.907 21.4585 12.907ZM21.4585 19.0702C20.4759 19.0702 19.6793 18.2631 19.6793 17.2676C19.6793 16.2721 20.4759 15.4651 21.4585 15.4651C22.4411 15.4651 23.2377 16.2721 23.2377 17.2676C23.2377 18.2631 22.4411 19.0702 21.4585 19.0702ZM23.1865 25.9788C25.06 25.5692 26.1827 24.6171 26.2421 24.566C26.7903 24.0941 26.8784 23.2347 26.4387 22.6463C25.9991 22.0579 25.1984 21.9634 24.65 22.4352C24.6384 22.4453 23.441 23.431 21.4707 23.4325C19.5005 23.431 18.2778 22.4453 18.2662 22.4352C17.7178 21.9634 16.917 22.0579 16.4774 22.6463C16.0378 23.2347 16.1258 24.0941 16.6741 24.566C16.7343 24.6178 17.9033 25.5947 19.8294 25.9947L17.1451 29.0052C16.6573 29.5481 16.6719 30.4126 17.1778 30.9361C17.4248 31.1916 17.743 31.3186 18.061 31.3186C18.3944 31.3186 18.7274 31.1788 18.9771 30.9009L21.4708 28.0501L24.2164 30.9194C24.7138 31.4524 25.5194 31.4515 26.0159 30.9179C26.5124 30.3842 26.5118 29.5195 26.0145 28.9867L23.1865 25.9788ZM21.4707 23.4323C21.4695 23.4322 21.4688 23.4322 21.4713 23.4322C21.4744 23.4322 21.4727 23.4322 21.4712 23.4323C21.4711 23.4323 21.4709 23.4323 21.4707 23.4323Z" fill="white"/>
</svg>
