<svg width="14" height="15" viewBox="0 0 14 15" fill="none" xmlns="http://www.w3.org/2000/svg">
<path fill-rule="evenodd" clip-rule="evenodd" d="M11.2437 10.7228C13.5019 8.19477 13.4175 4.31244 10.9906 1.88557C8.47639 -0.628688 4.39996 -0.628688 1.8857 1.88557C-0.628566 4.39984 -0.628566 8.47626 1.8857 10.9905C4.12213 13.227 7.59455 13.4741 10.1041 11.7319L12.9257 14.5535L14.0001 13.4792L11.2437 10.7228ZM9.8879 2.98849C11.7932 4.89374 11.7932 7.98277 9.8879 9.88803C7.98265 11.7933 4.89362 11.7933 2.98836 9.88803C1.08311 7.98277 1.08311 4.89374 2.98836 2.98849C4.89362 1.08323 7.98265 1.08323 9.8879 2.98849Z" fill="#90A0B7"/>
</svg>
