<svg width="13" height="13" viewBox="0 0 13 13" fill="none" xmlns="http://www.w3.org/2000/svg">
<path d="M0.5 6.49999C0.5 3.18632 3.1863 0.5 6.5 0.5C9.8137 0.5 12.5 3.18632 12.5 6.49999C12.5 9.81368 9.8137 12.5 6.5 12.5C3.1863 12.5 0.5 9.81368 0.5 6.49999Z" stroke="#EA4545"/>
<mask id="path-3-inside-1" fill="white">
<path d="M6 2.5C6 2.22386 6.22386 2 6.5 2C6.77614 2 7 2.22386 7 2.5L7 7L6 7L6 2.5Z"/>
</mask>
<path d="M6 2.5C6 2.22386 6.22386 2 6.5 2C6.77614 2 7 2.22386 7 2.5L7 7L6 7L6 2.5Z" fill="#999999"/>
<path d="M7 7L7 8L8 8L8 7L7 7ZM6 7L5 7L5 8L6 8L6 7ZM6 2.5L6 7L8 7L8 2.5L6 2.5ZM7 6L6 6L6 8L7 8L7 6ZM7 7L7 2.5L5 2.5L5 7L7 7ZM6.5 3C6.22386 3 6 2.77614 6 2.5L8 2.5C8 1.67157 7.32843 1 6.5 1L6.5 3ZM6.5 1C5.67157 1 5 1.67157 5 2.5L7 2.5C7 2.77614 6.77614 3 6.5 3L6.5 1Z" fill="#EA4545" mask="url(#path-3-inside-1)"/>
<mask id="path-5-inside-2" fill="white">
<path d="M6 7L6 6L8.5 6C8.77614 6 9 6.22386 9 6.5C9 6.77614 8.77614 7 8.5 7L6 7Z"/>
</mask>
<path d="M6 7L6 6L8.5 6C8.77614 6 9 6.22386 9 6.5C9 6.77614 8.77614 7 8.5 7L6 7Z" fill="#999999"/>
<path d="M6 7L5 7L5 8L6 8L6 7ZM6 6L6 5L5 5L5 6L6 6ZM7 7L7 6L5 6L5 7L7 7ZM6 7L8.5 7L8.5 5L6 5L6 7ZM8.5 6L6 6L6 8L8.5 8L8.5 6ZM8 6.5C8 6.22386 8.22386 6 8.5 6L8.5 8C9.32843 8 10 7.32843 10 6.5L8 6.5ZM8.5 7C8.22386 7 8 6.77614 8 6.5L10 6.5C10 5.67157 9.32843 5 8.5 5L8.5 7Z" fill="#EA4545" mask="url(#path-5-inside-2)"/>
</svg>
