<svg width="43" height="43" viewBox="0 0 43 43" fill="none" xmlns="http://www.w3.org/2000/svg">
<rect y="0.632538" width="42.0837" height="42.0837" rx="21.0419" fill="#41ABE1"/>
<path d="M30.6862 17.1923C29.9969 17.479 29.3047 17.6953 28.5375 17.7684C29.3047 17.3357 29.919 16.6163 30.2247 15.8238C29.4575 16.2566 28.6904 16.5432 27.8483 16.6893C27.0812 15.97 26.0833 15.5372 25.0104 15.5372C22.9367 15.5372 21.2496 17.1193 21.2496 19.061C21.2496 19.3505 21.2496 19.6371 21.3275 19.8535C18.181 19.7102 15.4211 18.3417 13.5781 16.1835C13.1945 16.6893 13.0417 17.3357 13.0417 17.982C13.0417 19.2072 13.7309 20.2862 14.7288 20.9325C14.1145 20.8595 13.5032 20.7162 13.0417 20.4998C13.0417 20.4998 13.0417 20.4998 13.0417 20.5729C13.0417 22.2982 14.3452 23.737 16.0324 24.0264C15.7267 24.0967 15.4211 24.1698 15.0375 24.1698C14.8067 24.1698 14.576 24.1698 14.3452 24.0967C14.8067 25.5355 16.1882 26.5443 17.8753 26.5443C16.5718 27.48 14.9596 28.0533 13.1945 28.0533C12.8889 28.0533 12.5802 28.0533 12.2745 27.983C13.9617 28.989 15.9575 29.5651 18.0282 29.5651C25.0104 29.5651 28.7683 24.1698 28.7683 19.4938C28.7683 19.3505 28.7683 19.2072 28.7683 19.061C29.5354 18.558 30.1498 17.9117 30.6862 17.1923Z" fill="white"/>
</svg>
