<?xml version="1.0" encoding="UTF-8" standalone="no"?>
<svg
   xmlns:dc="http://purl.org/dc/elements/1.1/"
   xmlns:cc="http://creativecommons.org/ns#"
   xmlns:rdf="http://www.w3.org/1999/02/22-rdf-syntax-ns#"
   xmlns:svg="http://www.w3.org/2000/svg"
   xmlns="http://www.w3.org/2000/svg"
   xmlns:sodipodi="http://sodipodi.sourceforge.net/DTD/sodipodi-0.dtd"
   xmlns:inkscape="http://www.inkscape.org/namespaces/inkscape"
   width="52px"
   height="52px"
   viewBox="0 0 52 52"
   version="1.1"
   id="svg11"
   sodipodi:docname="viber.svg"
   inkscape:version="0.92.2 (5c3e80d, 2017-08-06)">
  <metadata
     id="metadata15">
    <rdf:RDF>
      <cc:Work
         rdf:about="">
        <dc:format>image/svg+xml</dc:format>
        <dc:type
           rdf:resource="http://purl.org/dc/dcmitype/StillImage" />
      </cc:Work>
    </rdf:RDF>
  </metadata>
  <sodipodi:namedview
     pagecolor="#ffffff"
     bordercolor="#666666"
     borderopacity="1"
     objecttolerance="10"
     gridtolerance="10"
     guidetolerance="10"
     inkscape:pageopacity="0"
     inkscape:pageshadow="2"
     inkscape:window-width="751"
     inkscape:window-height="480"
     id="namedview13"
     showgrid="false"
     inkscape:zoom="4.5384615"
     inkscape:cx="26"
     inkscape:cy="26"
     inkscape:window-x="0"
     inkscape:window-y="0"
     inkscape:window-maximized="0"
     inkscape:current-layer="svg11" />
  <!-- Generator: Sketch 3.7.2 (28276) - http://www.bohemiancoding.com/sketch -->
  <title
     id="title2">Viber-black</title>
  <desc
     id="desc4">Created with Sketch.</desc>
  <defs
     id="defs6" />
  <g
     id="Icons"
     style="fill:#90a0b7;fill-rule:evenodd;stroke:none;stroke-width:1;fill-opacity:1">
    <g
       id="Black"
       transform="translate(-598,-758)"
       style="fill:#90a0b7;fill-opacity:1">
      <path
         d="m 624,810 c 14.3594,0 26,-11.6406 26,-26 0,-14.3594 -11.6406,-26 -26,-26 -14.3594,0 -26,11.6406 -26,26 0,14.3594 11.6406,26 26,26 z m 1.55716,-10.59079 c 1.7679,-0.22065 3.19657,-0.64654 4.76407,-1.41112 1.54171,-0.75435 2.52841,-1.4676 3.83379,-2.76582 1.22314,-1.22641 1.90153,-2.15523 2.62098,-3.59713 1.00217,-2.01153 1.57263,-4.40274 1.67022,-7.03515 0.036,-0.89796 0.0103,-1.09814 -0.19528,-1.35467 -0.39055,-0.49781 -1.24885,-0.41562 -1.54172,0.14366 -0.0926,0.18474 -0.11826,0.34375 -0.14909,1.0622 -0.0514,1.10325 -0.12841,1.8165 -0.28262,2.66834 -0.60641,3.3405 -2.20986,6.00885 -4.76919,7.92289 -2.13274,1.60096 -4.33748,2.38098 -7.22563,2.55029 -0.97646,0.0564 -1.14604,0.0923 -1.36701,0.26169 -0.41122,0.32329 -0.43171,1.08271 -0.036,1.43677 0.24156,0.22069 0.41113,0.25147 1.24885,0.22581 0.43684,-0.0154 1.07919,-0.0667 1.42867,-0.10776 z M 613.80901,798.855 c 0.17991,-0.0616 0.45742,-0.20521 0.61675,-0.30786 0.97637,-0.64658 3.69504,-4.12049 4.58416,-5.85495 0.50872,-0.99033 0.67829,-1.72413 0.51906,-2.26806 -0.16455,-0.58498 -0.43684,-0.89289 -1.65486,-1.87299 -0.48823,-0.39508 -0.94564,-0.80047 -1.01753,-0.90824 -0.18503,-0.26685 -0.33412,-0.79024 -0.33412,-1.1597 0.005,-0.85695 0.56022,-2.41177 1.29,-3.60739 0.56525,-0.92879 1.57766,-2.11921 2.57983,-3.03265 1.17687,-1.07764 2.21498,-1.81134 3.38672,-2.39126 1.50577,-0.74914 2.42572,-0.93901 3.09898,-0.62604 0.16957,0.077 0.34939,0.17964 0.406,0.22576 0.0513,0.0462 0.44708,0.5286 0.87878,1.0622 0.83251,1.04686 1.02266,1.21618 1.59312,1.41116 0.72466,0.24631 1.46469,0.17964 2.20984,-0.2001 0.56534,-0.29251 1.79873,-1.05708 2.59529,-1.61125 1.04835,-0.7338 3.28903,-2.56059 3.59233,-2.92497 0.53442,-0.65681 0.62699,-1.49828 0.26717,-2.42716 -0.38031,-0.98001 -1.86038,-2.81711 -2.89337,-3.60223 -0.93531,-0.70814 -1.59823,-0.98002 -2.4719,-1.02111 -0.71945,-0.0359 -1.01753,0.0257 -1.93748,0.40539 -7.21539,2.97109 -12.97641,7.40456 -17.55033,13.49561 -2.38967,3.18146 -4.20898,6.48094 -5.45271,9.90359 -0.72457,1.9961 -0.76052,2.86332 -0.16445,3.88447 0.25702,0.43101 1.35166,1.49837 2.14821,2.09359 1.32595,0.98526 1.93748,1.3496 2.42572,1.4522 0.33403,0.0719 0.91472,0.0154 1.28479,-0.11801 z m 12.10276,-3.16606 c 3.11955,-0.45667 5.53492,-1.90376 7.11779,-4.25393 0.88912,-1.3239 1.44412,-2.87872 1.63428,-4.54641 0.0668,-0.61064 0.0668,-1.72417 -0.005,-1.90892 -0.0669,-0.17443 -0.28271,-0.41051 -0.46775,-0.50796 -0.2004,-0.10264 -0.62689,-0.0924 -0.86333,0.0308 -0.39576,0.20009 -0.51393,0.51827 -0.51393,1.38034 0,1.32901 -0.34436,2.7299 -0.94043,3.81777 -0.67839,1.24179 -1.66508,2.26806 -2.86765,2.98136 -1.03299,0.61576 -2.55933,1.07244 -3.95205,1.18531 -0.50369,0.0411 -0.7812,0.1437 -0.97135,0.36434 -0.29286,0.33357 -0.32378,0.78513 -0.0771,1.15969 0.26724,0.41566 0.67837,0.48237 1.90664,0.29763 z m 1.09464,-3.8742 c 1.01241,-0.21553 1.78849,-0.60037 2.45141,-1.22129 0.85309,-0.80557 1.32083,-1.78057 1.52634,-3.18146 0.13875,-0.91339 0.0822,-1.27257 -0.24156,-1.5702 -0.30319,-0.27708 -0.86331,-0.28736 -1.20255,-0.0257 -0.24668,0.18475 -0.32378,0.37973 -0.38031,0.90824 -0.0668,0.70302 -0.19015,1.19562 -0.40079,1.65235 -0.45229,0.96982 -1.24885,1.47271 -2.59528,1.63691 -0.63221,0.077 -0.82236,0.14882 -1.02788,0.38996 -0.37518,0.44645 -0.23131,1.16997 0.28775,1.43682 0.19537,0.0975 0.27759,0.10776 0.70921,0.0821 0.26725,-0.0154 0.66302,-0.0616 0.87366,-0.10777 z"
         id="Viber"
         transform="matrix(1,0,0,-1,0,1568)"
         inkscape:connector-curvature="0"
         style="fill:#90a0b7;fill-opacity:1" />
    </g>
  </g>
</svg>
