<?xml version="1.0" encoding="UTF-8" standalone="no"?>
<svg
   xmlns:dc="http://purl.org/dc/elements/1.1/"
   xmlns:cc="http://creativecommons.org/ns#"
   xmlns:rdf="http://www.w3.org/1999/02/22-rdf-syntax-ns#"
   xmlns:svg="http://www.w3.org/2000/svg"
   xmlns="http://www.w3.org/2000/svg"
   xmlns:sodipodi="http://sodipodi.sourceforge.net/DTD/sodipodi-0.dtd"
   xmlns:inkscape="http://www.inkscape.org/namespaces/inkscape"
   width="19.00001"
   height="20"
   viewBox="0 0 19.00001 20"
   version="1.1"
   id="svg4"
   sodipodi:docname="vk.svg"
   style="fill:none"
   inkscape:version="0.92.2 (5c3e80d, 2017-08-06)">
  <metadata
     id="metadata10">
    <rdf:RDF>
      <cc:Work
         rdf:about="">
        <dc:format>image/svg+xml</dc:format>
        <dc:type
           rdf:resource="http://purl.org/dc/dcmitype/StillImage" />
      </cc:Work>
    </rdf:RDF>
  </metadata>
  <defs
     id="defs8" />
  <sodipodi:namedview
     pagecolor="#ffffff"
     bordercolor="#666666"
     borderopacity="1"
     objecttolerance="10"
     gridtolerance="10"
     guidetolerance="10"
     inkscape:pageopacity="0"
     inkscape:pageshadow="2"
     inkscape:window-width="1104"
     inkscape:window-height="660"
     id="namedview6"
     showgrid="false"
     inkscape:zoom="19.947368"
     inkscape:cx="9.5"
     inkscape:cy="9.4788918"
     inkscape:window-x="145"
     inkscape:window-y="343"
     inkscape:window-maximized="0"
     inkscape:current-layer="svg4" />
  <path
     d="M 18.5641,5.677105 C 18.6962,5.286842 18.5641,5 17.9354,5 h -2.0786 c -0.5285,0 -0.7722,0.247763 -0.9043,0.520921 0,0 -1.057,2.283419 -2.5545,3.766579 -0.4844,0.42934 -0.7046,0.56605 -0.9691,0.56605 -0.132,0 -0.3232,-0.13671 -0.3232,-0.52697 V 5.677105 C 11.1057,5.208684 10.9522,5 10.5118,5 H 7.24544 c -0.3302,0 -0.52886,0.217368 -0.52886,0.423421 0,0.444079 0.7486,0.546447 0.82581,1.795399 v 2.71263 c 0,0.59487 -0.12116,0.70263 -0.38544,0.70263 C 6.4523,10.63408 4.73819,8.34066 3.7216,5.716184 3.52235,5.206053 3.32251,5 2.79128,5 H 0.712666 C 0.118778,5 0,5.247763 0,5.520921 0,6.00882 0.704649,8.42882 3.28109,11.62947 4.99876,13.81513 7.41886,15 9.621,15 c 1.3213,0 1.4847,-0.26316 1.4847,-0.71645 v -1.65197 c 0,-0.52632 0.1252,-0.63132 0.5436,-0.63132 0.3082,0 0.8368,0.13658 2.07,1.1904 C 15.1286,14.43961 15.3611,15 16.1538,15 h 2.0786 c 0.5939,0 0.8908,-0.26316 0.7195,-0.7825 -0.1874,-0.51763 -0.8604,-1.26855 -1.7532,-2.15882 -0.4844,-0.50736 -1.2112,-1.05368 -1.4314,-1.32697 -0.3084,-0.35118 -0.2202,-0.5075 0,-0.81974 0,0 2.5325,-3.16144 2.7968,-4.234865 z"
     id="path2"
     inkscape:connector-curvature="0"
     style="clip-rule:evenodd;fill:#90a0b7;fill-rule:evenodd;stroke-width:1" />
</svg>
