<svg width="43" height="43" viewBox="0 0 43 43" fill="none" xmlns="http://www.w3.org/2000/svg">
<rect x="0.83252" width="42.0837" height="42.0837" rx="21.0419" fill="#416B9E"/>
<path fill-rule="evenodd" clip-rule="evenodd" d="M31.8722 16.6719C32.0307 16.1586 31.8722 15.7814 31.1181 15.7814H28.6243C27.9902 15.7814 27.6978 16.1072 27.5393 16.4665C27.5393 16.4665 26.2711 19.4694 24.4745 21.42C23.8933 21.9846 23.6291 22.1643 23.312 22.1643C23.1535 22.1643 22.9157 21.9846 22.9157 21.4713V16.6719C22.9157 16.0559 22.74 15.7814 22.2116 15.7814H18.2927C17.8965 15.7814 17.6582 16.0673 17.6582 16.3382C17.6582 16.9222 18.5564 17.0568 18.649 18.6995V22.267C18.649 23.0491 18.5036 23.1909 18.1865 23.1909C17.3411 23.1909 15.2846 20.1746 14.0649 16.7232C13.8259 16.0524 13.5862 15.7814 12.9488 15.7814H10.455C9.74249 15.7814 9.59998 16.1072 9.59998 16.4665C9.59998 17.1082 10.4454 20.2907 13.5366 24.4999C15.5973 27.3744 18.5008 28.9325 21.1428 28.9325C22.728 28.9325 22.9241 28.5865 22.9241 27.9903V25.8178C22.9241 25.1256 23.0743 24.9875 23.5763 24.9875C23.9461 24.9875 24.5802 25.1671 26.0598 26.5531C27.7507 28.1957 28.0294 28.9325 28.9805 28.9325H31.4743C32.1869 28.9325 32.5431 28.5865 32.3376 27.9035C32.1127 27.2228 31.3054 26.2352 30.2342 25.0645C29.6529 24.3972 28.7811 23.6786 28.5168 23.3192C28.147 22.8573 28.2526 22.6519 28.5168 22.2413C28.5168 22.2413 31.5552 18.0835 31.8722 16.6719Z" fill="white"/>
</svg>
