<?xml version="1.0" encoding="UTF-8" standalone="no"?>
<svg
   xmlns:dc="http://purl.org/dc/elements/1.1/"
   xmlns:cc="http://creativecommons.org/ns#"
   xmlns:rdf="http://www.w3.org/1999/02/22-rdf-syntax-ns#"
   xmlns:svg="http://www.w3.org/2000/svg"
   xmlns="http://www.w3.org/2000/svg"
   xmlns:sodipodi="http://sodipodi.sourceforge.net/DTD/sodipodi-0.dtd"
   xmlns:inkscape="http://www.inkscape.org/namespaces/inkscape"
   enable-background="new 0 0 512 512"
   id="Layer_1"
   version="1.1"
   viewBox="0 0 512 512"
   xml:space="preserve"
   sodipodi:docname="youtube.svg"
   inkscape:version="0.92.2 (5c3e80d, 2017-08-06)"><metadata
     id="metadata11"><rdf:RDF><cc:Work
         rdf:about=""><dc:format>image/svg+xml</dc:format><dc:type
           rdf:resource="http://purl.org/dc/dcmitype/StillImage" /></cc:Work></rdf:RDF></metadata><defs
     id="defs9" /><sodipodi:namedview
     pagecolor="#ffffff"
     bordercolor="#666666"
     borderopacity="1"
     objecttolerance="10"
     gridtolerance="10"
     guidetolerance="10"
     inkscape:pageopacity="0"
     inkscape:pageshadow="2"
     inkscape:window-width="751"
     inkscape:window-height="480"
     id="namedview7"
     showgrid="false"
     inkscape:zoom="0.4609375"
     inkscape:cx="256"
     inkscape:cy="256"
     inkscape:window-x="0"
     inkscape:window-y="0"
     inkscape:window-maximized="0"
     inkscape:current-layer="Layer_1" /><g
     id="g4"
     style="fill:#90a0b7;fill-opacity:1"><path
       d="M 260.4,449 C 203.3,447.2 149,445.8 94.7,443.7 83,443.2 71.1,441.4 59.7,438.7 38.3,433.7 23.5,420.8 15.9,399.7 9.8,382.7 7.6,365.2 6,347.4 2.5,305.6 2.5,263.8 4.2,222 c 1,-23.6 1.6,-47.4 7.9,-70.3 3.8,-13.7 8.4,-27.1 19.5,-37 11.7,-10.5 25.4,-16.8 41,-17.5 42.8,-2.1 85.5,-4.7 128.3,-5.1 57.6,-0.6 115.3,0.2 172.9,1.3 24.9,0.5 50,1.8 74.7,5 22.6,3 39.5,15.6 48.5,37.6 6.9,16.9 9.5,34.6 11,52.6 3.9,45.1 4,90.2 1.8,135.3 -1.1,22.9 -2.2,45.9 -8.7,68.2 -7.4,25.6 -23.1,42.5 -49.3,48.3 -10.2,2.2 -20.8,3 -31.2,3.4 -54.4,1.9 -108.7,3.6 -160.2,5.2 z M 205.1,335.3 c 45.6,-23.6 90.7,-47 136.7,-70.9 -45.9,-24 -91,-47.5 -136.7,-71.4 0,47.7 0,94.6 0,142.3 z"
       id="path2"
       inkscape:connector-curvature="0"
       style="fill:#90a0b7;fill-opacity:1" /></g></svg>