<?xml version="1.0" encoding="UTF-8" standalone="no"?>
<svg
   xmlns:dc="http://purl.org/dc/elements/1.1/"
   xmlns:cc="http://creativecommons.org/ns#"
   xmlns:rdf="http://www.w3.org/1999/02/22-rdf-syntax-ns#"
   xmlns:svg="http://www.w3.org/2000/svg"
   xmlns="http://www.w3.org/2000/svg"
   xmlns:sodipodi="http://sodipodi.sourceforge.net/DTD/sodipodi-0.dtd"
   xmlns:inkscape="http://www.inkscape.org/namespaces/inkscape"
   width="13.75"
   height="13.75"
   viewBox="0 0 13.75 13.75"
   version="1.1"
   id="svg11"
   sodipodi:docname="blog-page.svg"
   style="fill:none"
   inkscape:version="0.92.2 (5c3e80d, 2017-08-06)">
  <metadata
     id="metadata15">
    <rdf:RDF>
      <cc:Work
         rdf:about="">
        <dc:format>image/svg+xml</dc:format>
        <dc:type
           rdf:resource="http://purl.org/dc/dcmitype/StillImage" />
      </cc:Work>
    </rdf:RDF>
  </metadata>
  <sodipodi:namedview
     pagecolor="#ffffff"
     bordercolor="#666666"
     borderopacity="1"
     objecttolerance="10"
     gridtolerance="10"
     guidetolerance="10"
     inkscape:pageopacity="0"
     inkscape:pageshadow="2"
     inkscape:window-width="751"
     inkscape:window-height="480"
     id="namedview13"
     showgrid="false"
     inkscape:zoom="11.8"
     inkscape:cx="7.0000001"
     inkscape:cy="6.75"
     inkscape:window-x="0"
     inkscape:window-y="0"
     inkscape:window-maximized="0"
     inkscape:current-layer="svg11" />
  <g
     clip-path="url(#clip0)"
     id="g4"
     transform="translate(-1.75,-3)">
    <path
       d="M 4.52459,4.52459 C 4.7004,4.34877 4.93886,4.25 5.1875,4.25 H 13 v 8.125 H 5.1875 c -0.3274,0 -0.64723,0.0734 -0.9375,0.2111 V 5.1875 C 4.25,4.93886 4.34877,4.7004 4.52459,4.52459 Z M 4.25,14.5625 c 0,0.2486 0.09877,0.4871 0.27459,0.6629 C 4.7004,15.4012 4.93886,15.5 5.1875,15.5 H 13 V 13.625 H 5.1875 c -0.24864,0 -0.4871,0.0988 -0.66291,0.2746 C 4.34877,14.0754 4.25,14.3139 4.25,14.5625 Z M 14.25,13 V 3.625 C 14.25,3.27982 13.9702,3 13.625,3 H 5.1875 C 4.60734,3 4.05094,3.23047 3.6407,3.6407 3.23047,4.05094 3,4.60734 3,5.1875 v 9.375 c 0,0.5802 0.23047,1.1366 0.6407,1.5468 0.41024,0.4102 0.96664,0.6407 1.5468,0.6407 h 8.4375 c 0.3452,0 0.625,-0.2798 0.625,-0.625 z"
       id="path2"
       inkscape:connector-curvature="0"
       style="clip-rule:evenodd;fill:#90a0b7;fill-rule:evenodd" />
  </g>
  <defs
     id="defs9">
    <clipPath
       id="clip0">
      <rect
         width="20"
         height="20"
         id="rect6"
         x="0"
         y="0"
         style="fill:#ffffff" />
    </clipPath>
  </defs>
</svg>
