<svg width="17" height="17" viewBox="0 0 17 17" fill="none" xmlns="http://www.w3.org/2000/svg">
<mask id="path-2-outside-1" maskUnits="userSpaceOnUse" x="0" y="0" width="17" height="17" fill="black">
<rect fill="white" width="17" height="17"/>
<path fill-rule="evenodd" clip-rule="evenodd" d="M6.16308 4.37022C6.16308 4.8449 5.78413 5.22465 5.31045 5.22465C4.83676 5.22465 4.45782 4.8449 4.45782 4.38605C4.45782 4.06959 4.6315 3.80061 4.88413 3.6582V1.42721C4.88413 1.18987 5.07361 1 5.31045 1C5.54729 1 5.73676 1.18987 5.73676 1.42721V2.07594H10.5683V2.91454H5.73676V3.64238C5.9894 3.80061 6.16308 4.05377 6.16308 4.37022ZM12.1158 2.07606H13.5684C14.9105 2.07606 16 3.16782 16 4.51275V13.5633C16 14.9082 14.9105 16 13.5684 16H3.43158C2.08947 16 1 14.9082 1 13.5633V4.51275C1 3.16782 2.08947 2.07606 3.43158 2.07606H4.17368V2.93048H3.43158C2.56316 2.93048 1.85263 3.6425 1.85263 4.51275V5.82603H15.1474V4.51275C15.1474 3.6425 14.4526 2.93048 13.5684 2.93048H12.1158V3.65833C12.3684 3.81655 12.5421 4.06972 12.5421 4.38617C12.5421 4.86085 12.1632 5.24059 11.6895 5.24059C11.2158 5.24059 10.8368 4.86085 10.8368 4.38617C10.8368 4.06972 11.0105 3.80073 11.2632 3.65833V1.42733C11.2632 1.18999 11.4526 1.00012 11.6895 1.00012C11.9263 1.00012 12.1158 1.18999 12.1158 1.42733V2.07606ZM13.5684 15.1456C14.4368 15.1456 15.1474 14.4494 15.1474 13.5633H15.1632V6.68045H1.85263V13.5633C1.85263 14.4335 2.54737 15.1456 3.43158 15.1456H13.5684ZM5.1998 10.193H4.48928C3.98401 10.193 3.58928 9.78161 3.57349 9.27528C3.57349 8.76896 3.98401 8.35757 4.48928 8.35757H5.1998C5.70507 8.35757 6.11559 8.76896 6.11559 9.27528C6.11559 9.78161 5.70507 10.193 5.1998 10.193ZM8.15261 10.193H8.86313C9.3684 10.193 9.77892 9.78161 9.77892 9.27528C9.77892 8.76896 9.3684 8.35757 8.86313 8.35757H8.15261C7.64734 8.35757 7.23682 8.76896 7.23682 9.27528C7.23682 9.78161 7.64734 10.193 8.15261 10.193ZM12.5261 10.193H11.8156C11.3103 10.193 10.8998 9.78161 10.8998 9.27528C10.8998 8.76896 11.3103 8.35757 11.8156 8.35757H12.5261C13.0314 8.35757 13.4419 8.76896 13.4419 9.27528C13.4419 9.78161 13.0314 10.193 12.5261 10.193ZM4.48928 13.4366H5.1998C5.70507 13.4366 6.11559 13.0252 6.11559 12.5189C6.11559 12.0125 5.70507 11.6012 5.1998 11.6012H4.48928C3.98401 11.6012 3.57349 12.0125 3.57349 12.5189C3.58928 13.0252 3.98401 13.4366 4.48928 13.4366ZM8.86313 13.4366H8.15261C7.64734 13.4366 7.23682 13.0252 7.23682 12.5189C7.23682 12.0125 7.64734 11.6012 8.15261 11.6012H8.86313C9.3684 11.6012 9.77892 12.0125 9.77892 12.5189C9.77892 13.0252 9.3684 13.4366 8.86313 13.4366ZM11.8156 13.4366H12.5261C13.0314 13.4366 13.4419 13.0252 13.4419 12.5189C13.4419 12.0125 13.0314 11.6012 12.5261 11.6012H11.8156C11.3103 11.6012 10.8998 12.0125 10.8998 12.5189C10.8998 13.0252 11.3103 13.4366 11.8156 13.4366Z"/>
</mask>
<path fill-rule="evenodd" clip-rule="evenodd" d="M6.16308 4.37022C6.16308 4.8449 5.78413 5.22465 5.31045 5.22465C4.83676 5.22465 4.45782 4.8449 4.45782 4.38605C4.45782 4.06959 4.6315 3.80061 4.88413 3.6582V1.42721C4.88413 1.18987 5.07361 1 5.31045 1C5.54729 1 5.73676 1.18987 5.73676 1.42721V2.07594H10.5683V2.91454H5.73676V3.64238C5.9894 3.80061 6.16308 4.05377 6.16308 4.37022ZM12.1158 2.07606H13.5684C14.9105 2.07606 16 3.16782 16 4.51275V13.5633C16 14.9082 14.9105 16 13.5684 16H3.43158C2.08947 16 1 14.9082 1 13.5633V4.51275C1 3.16782 2.08947 2.07606 3.43158 2.07606H4.17368V2.93048H3.43158C2.56316 2.93048 1.85263 3.6425 1.85263 4.51275V5.82603H15.1474V4.51275C15.1474 3.6425 14.4526 2.93048 13.5684 2.93048H12.1158V3.65833C12.3684 3.81655 12.5421 4.06972 12.5421 4.38617C12.5421 4.86085 12.1632 5.24059 11.6895 5.24059C11.2158 5.24059 10.8368 4.86085 10.8368 4.38617C10.8368 4.06972 11.0105 3.80073 11.2632 3.65833V1.42733C11.2632 1.18999 11.4526 1.00012 11.6895 1.00012C11.9263 1.00012 12.1158 1.18999 12.1158 1.42733V2.07606ZM13.5684 15.1456C14.4368 15.1456 15.1474 14.4494 15.1474 13.5633H15.1632V6.68045H1.85263V13.5633C1.85263 14.4335 2.54737 15.1456 3.43158 15.1456H13.5684ZM5.1998 10.193H4.48928C3.98401 10.193 3.58928 9.78161 3.57349 9.27528C3.57349 8.76896 3.98401 8.35757 4.48928 8.35757H5.1998C5.70507 8.35757 6.11559 8.76896 6.11559 9.27528C6.11559 9.78161 5.70507 10.193 5.1998 10.193ZM8.15261 10.193H8.86313C9.3684 10.193 9.77892 9.78161 9.77892 9.27528C9.77892 8.76896 9.3684 8.35757 8.86313 8.35757H8.15261C7.64734 8.35757 7.23682 8.76896 7.23682 9.27528C7.23682 9.78161 7.64734 10.193 8.15261 10.193ZM12.5261 10.193H11.8156C11.3103 10.193 10.8998 9.78161 10.8998 9.27528C10.8998 8.76896 11.3103 8.35757 11.8156 8.35757H12.5261C13.0314 8.35757 13.4419 8.76896 13.4419 9.27528C13.4419 9.78161 13.0314 10.193 12.5261 10.193ZM4.48928 13.4366H5.1998C5.70507 13.4366 6.11559 13.0252 6.11559 12.5189C6.11559 12.0125 5.70507 11.6012 5.1998 11.6012H4.48928C3.98401 11.6012 3.57349 12.0125 3.57349 12.5189C3.58928 13.0252 3.98401 13.4366 4.48928 13.4366ZM8.86313 13.4366H8.15261C7.64734 13.4366 7.23682 13.0252 7.23682 12.5189C7.23682 12.0125 7.64734 11.6012 8.15261 11.6012H8.86313C9.3684 11.6012 9.77892 12.0125 9.77892 12.5189C9.77892 13.0252 9.3684 13.4366 8.86313 13.4366ZM11.8156 13.4366H12.5261C13.0314 13.4366 13.4419 13.0252 13.4419 12.5189C13.4419 12.0125 13.0314 11.6012 12.5261 11.6012H11.8156C11.3103 11.6012 10.8998 12.0125 10.8998 12.5189C10.8998 13.0252 11.3103 13.4366 11.8156 13.4366Z" fill="#90A0B7"/>
<path d="M4.88413 3.6582L4.95567 3.78511L5.02981 3.74332V3.6582H4.88413ZM5.73676 2.07594H5.59108V2.22162H5.73676V2.07594ZM10.5683 2.07594H10.714V1.93026H10.5683V2.07594ZM10.5683 2.91454V3.06022H10.714V2.91454H10.5683ZM5.73676 2.91454V2.76886H5.59108V2.91454H5.73676ZM5.73676 3.64238H5.59108V3.72303L5.65944 3.76585L5.73676 3.64238ZM12.1158 2.07606H11.9701V2.22174H12.1158V2.07606ZM4.17368 2.07606H4.31937V1.93038H4.17368V2.07606ZM4.17368 2.93048V3.07617H4.31937V2.93048H4.17368ZM1.85263 5.82603H1.70695V5.97171H1.85263V5.82603ZM15.1474 5.82603V5.97171H15.293V5.82603H15.1474ZM12.1158 2.93048V2.7848H11.9701V2.93048H12.1158ZM12.1158 3.65833H11.9701V3.73898L12.0385 3.78179L12.1158 3.65833ZM11.2632 3.65833L11.3347 3.78523L11.4088 3.74344V3.65833H11.2632ZM15.1474 13.5633V13.4176H15.0017V13.5633H15.1474ZM15.1632 13.5633V13.709H15.3088V13.5633H15.1632ZM15.1632 6.68045H15.3088V6.53477H15.1632V6.68045ZM1.85263 6.68045V6.53477H1.70695V6.68045H1.85263ZM3.57349 9.27528H3.42773L3.42788 9.27982L3.57349 9.27528ZM3.57349 12.5189H3.42773L3.42788 12.5234L3.57349 12.5189ZM5.31045 5.37033C5.86488 5.37033 6.30876 4.92507 6.30876 4.37022H6.0174C6.0174 4.76473 5.70339 5.07897 5.31045 5.07897V5.37033ZM4.31213 4.38605C4.31213 4.92684 4.75779 5.37033 5.31045 5.37033V5.07897C4.91573 5.07897 4.6035 4.76297 4.6035 4.38605H4.31213ZM4.8126 3.5313C4.51675 3.69806 4.31213 4.0141 4.31213 4.38605H4.6035C4.6035 4.12508 4.74625 3.90315 4.95567 3.78511L4.8126 3.5313ZM4.73845 1.42721V3.6582H5.02981V1.42721H4.73845ZM5.31045 0.854319C4.99286 0.854319 4.73845 1.1097 4.73845 1.42721H5.02981C5.02981 1.27004 5.15435 1.14568 5.31045 1.14568V0.854319ZM5.88244 1.42721C5.88244 1.1097 5.62803 0.854319 5.31045 0.854319V1.14568C5.46654 1.14568 5.59108 1.27004 5.59108 1.42721H5.88244ZM5.88244 2.07594V1.42721H5.59108V2.07594H5.88244ZM10.5683 1.93026H5.73676V2.22162H10.5683V1.93026ZM10.714 2.91454V2.07594H10.4227V2.91454H10.714ZM5.73676 3.06022H10.5683V2.76886H5.73676V3.06022ZM5.88244 3.64238V2.91454H5.59108V3.64238H5.88244ZM6.30876 4.37022C6.30876 3.99436 6.10079 3.69848 5.81409 3.51892L5.65944 3.76585C5.878 3.90274 6.0174 4.11318 6.0174 4.37022H6.30876ZM13.5684 1.93038H12.1158V2.22174H13.5684V1.93038ZM16.1457 4.51275C16.1457 3.08766 14.9913 1.93038 13.5684 1.93038V2.22174C14.8298 2.22174 15.8543 3.24799 15.8543 4.51275H16.1457ZM16.1457 13.5633V4.51275H15.8543V13.5633H16.1457ZM13.5684 16.1457C14.9913 16.1457 16.1457 14.9884 16.1457 13.5633H15.8543C15.8543 14.8281 14.8298 15.8543 13.5684 15.8543V16.1457ZM3.43158 16.1457H13.5684V15.8543H3.43158V16.1457ZM0.854319 13.5633C0.854319 14.9884 2.00873 16.1457 3.43158 16.1457V15.8543C2.17022 15.8543 1.14568 14.8281 1.14568 13.5633H0.854319ZM0.854319 4.51275V13.5633H1.14568V4.51275H0.854319ZM3.43158 1.93038C2.00873 1.93038 0.854319 3.08766 0.854319 4.51275H1.14568C1.14568 3.24799 2.17022 2.22174 3.43158 2.22174V1.93038ZM4.17368 1.93038H3.43158V2.22174H4.17368V1.93038ZM4.31937 2.93048V2.07606H4.028V2.93048H4.31937ZM3.43158 3.07617H4.17368V2.7848H3.43158V3.07617ZM1.99831 4.51275C1.99831 3.72267 2.6439 3.07617 3.43158 3.07617V2.7848C2.48241 2.7848 1.70695 3.56233 1.70695 4.51275H1.99831ZM1.99831 5.82603V4.51275H1.70695V5.82603H1.99831ZM15.1474 5.68035H1.85263V5.97171H15.1474V5.68035ZM15.0017 4.51275V5.82603H15.293V4.51275H15.0017ZM13.5684 3.07617C14.3709 3.07617 15.0017 3.72172 15.0017 4.51275H15.293C15.293 3.56329 14.5343 2.7848 13.5684 2.7848V3.07617ZM12.1158 3.07617H13.5684V2.7848H12.1158V3.07617ZM12.2615 3.65833V2.93048H11.9701V3.65833H12.2615ZM12.6878 4.38617C12.6878 4.0103 12.4798 3.71442 12.1931 3.53486L12.0385 3.78179C12.257 3.91868 12.3964 4.12913 12.3964 4.38617H12.6878ZM11.6895 5.38627C12.2439 5.38627 12.6878 4.94102 12.6878 4.38617H12.3964C12.3964 4.78068 12.0824 5.09491 11.6895 5.09491V5.38627ZM10.6912 4.38617C10.6912 4.94102 11.135 5.38627 11.6895 5.38627V5.09491C11.2965 5.09491 10.9825 4.78068 10.9825 4.38617H10.6912ZM11.1916 3.53142C10.8958 3.69818 10.6912 4.01422 10.6912 4.38617H10.9825C10.9825 4.12521 11.1253 3.90328 11.3347 3.78523L11.1916 3.53142ZM11.1175 1.42733V3.65833H11.4088V1.42733H11.1175ZM11.6895 0.854441C11.3719 0.854441 11.1175 1.10983 11.1175 1.42733H11.4088C11.4088 1.27016 11.5334 1.1458 11.6895 1.1458V0.854441ZM12.2615 1.42733C12.2615 1.10982 12.0071 0.854441 11.6895 0.854441V1.1458C11.8456 1.1458 11.9701 1.27016 11.9701 1.42733H12.2615ZM12.2615 2.07606V1.42733H11.9701V2.07606H12.2615ZM15.0017 13.5633C15.0017 14.3683 14.357 14.9999 13.5684 14.9999V15.2912C14.5166 15.2912 15.293 14.5305 15.293 13.5633H15.0017ZM15.1632 13.4176H15.1474V13.709H15.1632V13.4176ZM15.0175 6.68045V13.5633H15.3088V6.68045H15.0175ZM1.85263 6.82613H15.1632V6.53477H1.85263V6.82613ZM1.99831 13.5633V6.68045H1.70695V13.5633H1.99831ZM3.43158 14.9999C2.62906 14.9999 1.99831 14.3543 1.99831 13.5633H1.70695C1.70695 14.5128 2.46567 15.2912 3.43158 15.2912V14.9999ZM13.5684 14.9999H3.43158V15.2912H13.5684V14.9999ZM4.48928 10.3387H5.1998V10.0473H4.48928V10.3387ZM3.42788 9.27982C3.44593 9.85861 3.89928 10.3387 4.48928 10.3387V10.0473C4.06875 10.0473 3.73263 9.7046 3.7191 9.27074L3.42788 9.27982ZM4.48928 8.21189C3.90327 8.21189 3.42781 8.68879 3.42781 9.27528H3.71917C3.71917 8.84913 4.06476 8.50325 4.48928 8.50325V8.21189ZM5.1998 8.21189H4.48928V8.50325H5.1998V8.21189ZM6.26127 9.27528C6.26127 8.68879 5.78581 8.21189 5.1998 8.21189V8.50325C5.62432 8.50325 5.96991 8.84913 5.96991 9.27528H6.26127ZM5.1998 10.3387C5.78581 10.3387 6.26127 9.86178 6.26127 9.27528H5.96991C5.96991 9.70144 5.62432 10.0473 5.1998 10.0473V10.3387ZM8.86313 10.0473H8.15261V10.3387H8.86313V10.0473ZM9.63324 9.27528C9.63324 9.70144 9.28765 10.0473 8.86313 10.0473V10.3387C9.44914 10.3387 9.9246 9.86178 9.9246 9.27528H9.63324ZM8.86313 8.50325C9.28765 8.50325 9.63324 8.84913 9.63324 9.27528H9.9246C9.9246 8.68879 9.44914 8.21189 8.86313 8.21189V8.50325ZM8.15261 8.50325H8.86313V8.21189H8.15261V8.50325ZM7.3825 9.27528C7.3825 8.84913 7.72809 8.50325 8.15261 8.50325V8.21189C7.5666 8.21189 7.09114 8.68879 7.09114 9.27528H7.3825ZM8.15261 10.0473C7.72809 10.0473 7.3825 9.70144 7.3825 9.27528H7.09114C7.09114 9.86178 7.5666 10.3387 8.15261 10.3387V10.0473ZM11.8156 10.3387H12.5261V10.0473H11.8156V10.3387ZM10.7541 9.27528C10.7541 9.86178 11.2296 10.3387 11.8156 10.3387V10.0473C11.3911 10.0473 11.0455 9.70144 11.0455 9.27528H10.7541ZM11.8156 8.21189C11.2296 8.21189 10.7541 8.68879 10.7541 9.27528H11.0455C11.0455 8.84913 11.3911 8.50325 11.8156 8.50325V8.21189ZM12.5261 8.21189H11.8156V8.50325H12.5261V8.21189ZM13.5876 9.27528C13.5876 8.68879 13.1121 8.21189 12.5261 8.21189V8.50325C12.9506 8.50325 13.2962 8.84913 13.2962 9.27528H13.5876ZM12.5261 10.3387C13.1121 10.3387 13.5876 9.86178 13.5876 9.27528H13.2962C13.2962 9.70144 12.9506 10.0473 12.5261 10.0473V10.3387ZM5.1998 13.2909H4.48928V13.5823H5.1998V13.2909ZM5.96991 12.5189C5.96991 12.945 5.62432 13.2909 5.1998 13.2909V13.5823C5.78581 13.5823 6.26127 13.1054 6.26127 12.5189H5.96991ZM5.1998 11.7468C5.62432 11.7468 5.96991 12.0927 5.96991 12.5189H6.26127C6.26127 11.9324 5.78581 11.4555 5.1998 11.4555V11.7468ZM4.48928 11.7468H5.1998V11.4555H4.48928V11.7468ZM3.71917 12.5189C3.71917 12.0927 4.06476 11.7468 4.48928 11.7468V11.4555C3.90327 11.4555 3.42781 11.9324 3.42781 12.5189H3.71917ZM4.48928 13.2909C4.06875 13.2909 3.73263 12.9482 3.7191 12.5143L3.42788 12.5234C3.44593 13.1022 3.89928 13.5823 4.48928 13.5823V13.2909ZM8.15261 13.5823H8.86313V13.2909H8.15261V13.5823ZM7.09114 12.5189C7.09114 13.1054 7.5666 13.5823 8.15261 13.5823V13.2909C7.72809 13.2909 7.3825 12.945 7.3825 12.5189H7.09114ZM8.15261 11.4555C7.5666 11.4555 7.09114 11.9324 7.09114 12.5189H7.3825C7.3825 12.0927 7.72809 11.7468 8.15261 11.7468V11.4555ZM8.86313 11.4555H8.15261V11.7468H8.86313V11.4555ZM9.9246 12.5189C9.9246 11.9324 9.44914 11.4555 8.86313 11.4555V11.7468C9.28765 11.7468 9.63324 12.0927 9.63324 12.5189H9.9246ZM8.86313 13.5823C9.44914 13.5823 9.9246 13.1054 9.9246 12.5189H9.63324C9.63324 12.945 9.28765 13.2909 8.86313 13.2909V13.5823ZM12.5261 13.2909H11.8156V13.5823H12.5261V13.2909ZM13.2962 12.5189C13.2962 12.945 12.9506 13.2909 12.5261 13.2909V13.5823C13.1121 13.5823 13.5876 13.1054 13.5876 12.5189H13.2962ZM12.5261 11.7468C12.9506 11.7468 13.2962 12.0927 13.2962 12.5189H13.5876C13.5876 11.9324 13.1121 11.4555 12.5261 11.4555V11.7468ZM11.8156 11.7468H12.5261V11.4555H11.8156V11.7468ZM11.0455 12.5189C11.0455 12.0927 11.3911 11.7468 11.8156 11.7468V11.4555C11.2296 11.4555 10.7541 11.9324 10.7541 12.5189H11.0455ZM11.8156 13.2909C11.3911 13.2909 11.0455 12.945 11.0455 12.5189H10.7541C10.7541 13.1054 11.2296 13.5823 11.8156 13.5823V13.2909Z" fill="#90A0B7" mask="url(#path-2-outside-1)"/>
</svg>
