<?xml version="1.0" encoding="UTF-8" standalone="no"?>
<svg
   xmlns:dc="http://purl.org/dc/elements/1.1/"
   xmlns:cc="http://creativecommons.org/ns#"
   xmlns:rdf="http://www.w3.org/1999/02/22-rdf-syntax-ns#"
   xmlns:svg="http://www.w3.org/2000/svg"
   xmlns="http://www.w3.org/2000/svg"
   xmlns:sodipodi="http://sodipodi.sourceforge.net/DTD/sodipodi-0.dtd"
   xmlns:inkscape="http://www.inkscape.org/namespaces/inkscape"
   width="16"
   height="16"
   viewBox="0 0 16 16"
   fill="none"
   version="1.1"
   id="svg6"
   sodipodi:docname="chart-page-selected.svg"
   inkscape:version="0.92.2 (5c3e80d, 2017-08-06)">
  <metadata
     id="metadata12">
    <rdf:RDF>
      <cc:Work
         rdf:about="">
        <dc:format>image/svg+xml</dc:format>
        <dc:type
           rdf:resource="http://purl.org/dc/dcmitype/StillImage" />
      </cc:Work>
    </rdf:RDF>
  </metadata>
  <defs
     id="defs10" />
  <sodipodi:namedview
     pagecolor="#ffffff"
     bordercolor="#666666"
     borderopacity="1"
     objecttolerance="10"
     gridtolerance="10"
     guidetolerance="10"
     inkscape:pageopacity="0"
     inkscape:pageshadow="2"
     inkscape:window-width="751"
     inkscape:window-height="480"
     id="namedview8"
     showgrid="false"
     inkscape:zoom="14.75"
     inkscape:cx="8"
     inkscape:cy="8"
     inkscape:window-x="0"
     inkscape:window-y="0"
     inkscape:window-maximized="0"
     inkscape:current-layer="svg6" />
  <path
     d="M14.1401 10.5933C13.7159 11.5963 13.0526 12.4801 12.208 13.1675C11.3634 13.8549 10.3632 14.3249 9.29502 14.5365C8.2268 14.7481 7.12301 14.6948 6.08016 14.3812C5.03731 14.0676 4.08715 13.5034 3.31275 12.7378C2.53834 11.9722 1.96327 11.0285 1.63782 9.98929C1.31237 8.95009 1.24644 7.84698 1.4458 6.77641C1.64515 5.70584 2.10373 4.70041 2.78143 3.84801C3.45913 2.99561 4.33532 2.3222 5.3334 1.88666"
     stroke="#90A0B7"
     stroke-width="1.49333"
     stroke-linecap="round"
     stroke-linejoin="round"
     id="path2"
     style="stroke:#0042eb;stroke-opacity:1" />
  <path
     d="M14.6667 7.99998C14.6667 7.1245 14.4942 6.25759 14.1592 5.44876C13.8242 4.63992 13.3331 3.90499 12.714 3.28593C12.095 2.66688 11.3601 2.17581 10.5512 1.84078C9.74239 1.50575 8.87548 1.33331 8 1.33331V7.99998H14.6667Z"
     stroke="#90A0B7"
     stroke-width="1.49333"
     stroke-linecap="round"
     stroke-linejoin="round"
     id="path4"
     style="stroke:#0042eb;stroke-opacity:1" />
</svg>
