<svg width="16" height="16" viewBox="0 0 16 16" fill="none" xmlns="http://www.w3.org/2000/svg">
<path d="M7.875 9.75C8.91053 9.75 9.75 8.91053 9.75 7.875C9.75 6.83947 8.91053 6 7.875 6C6.83947 6 6 6.83947 6 7.875C6 8.91053 6.83947 9.75 7.875 9.75Z" stroke="#90A0B7" stroke-width="1.4" stroke-linecap="round" stroke-linejoin="round"/>
<path d="M12.5 9.75C12.4168 9.93851 12.392 10.1476 12.4287 10.3504C12.4655 10.5531 12.5622 10.7402 12.7062 10.8875L12.7438 10.925C12.86 11.0411 12.9522 11.179 13.0151 11.3307C13.078 11.4824 13.1104 11.6451 13.1104 11.8094C13.1104 11.9736 13.078 12.1363 13.0151 12.2881C12.9522 12.4398 12.86 12.5777 12.7438 12.6937C12.6277 12.81 12.4898 12.9022 12.3381 12.9651C12.1863 13.028 12.0236 13.0604 11.8594 13.0604C11.6951 13.0604 11.5324 13.028 11.3807 12.9651C11.229 12.9022 11.0911 12.81 10.975 12.6937L10.9375 12.6562C10.7902 12.5122 10.6031 12.4155 10.4004 12.3787C10.1976 12.342 9.98851 12.3668 9.8 12.45C9.61514 12.5292 9.45749 12.6608 9.34644 12.8285C9.23539 12.9961 9.1758 13.1926 9.175 13.3937V13.5C9.175 13.8315 9.0433 14.1495 8.80888 14.3839C8.57446 14.6183 8.25652 14.75 7.925 14.75C7.59348 14.75 7.27554 14.6183 7.04112 14.3839C6.8067 14.1495 6.675 13.8315 6.675 13.5V13.4437C6.67016 13.2369 6.6032 13.0362 6.48282 12.8679C6.36244 12.6996 6.19421 12.5714 6 12.5C5.81149 12.4168 5.60238 12.392 5.39963 12.4287C5.19689 12.4655 5.0098 12.5622 4.8625 12.7062L4.825 12.7438C4.70891 12.86 4.57105 12.9522 4.4193 13.0151C4.26755 13.078 4.10489 13.1104 3.94062 13.1104C3.77636 13.1104 3.6137 13.078 3.46195 13.0151C3.3102 12.9522 3.17234 12.86 3.05625 12.7438C2.94003 12.6277 2.84783 12.4898 2.78493 12.3381C2.72202 12.1863 2.68964 12.0236 2.68964 11.8594C2.68964 11.6951 2.72202 11.5324 2.78493 11.3807C2.84783 11.229 2.94003 11.0911 3.05625 10.975L3.09375 10.9375C3.23784 10.7902 3.33449 10.6031 3.37125 10.4004C3.40801 10.1976 3.3832 9.98851 3.3 9.8C3.22077 9.61514 3.08922 9.45749 2.92154 9.34644C2.75386 9.23539 2.55737 9.1758 2.35625 9.175H2.25C1.91848 9.175 1.60054 9.0433 1.36612 8.80888C1.1317 8.57446 1 8.25652 1 7.925C1 7.59348 1.1317 7.27554 1.36612 7.04112C1.60054 6.8067 1.91848 6.675 2.25 6.675H2.30625C2.51312 6.67016 2.71375 6.6032 2.88206 6.48282C3.05037 6.36244 3.17857 6.19421 3.25 6C3.3332 5.81149 3.35801 5.60238 3.32125 5.39963C3.28449 5.19689 3.18784 5.0098 3.04375 4.8625L3.00625 4.825C2.89003 4.70891 2.79783 4.57105 2.73493 4.4193C2.67202 4.26755 2.63964 4.10489 2.63964 3.94062C2.63964 3.77636 2.67202 3.6137 2.73493 3.46195C2.79783 3.3102 2.89003 3.17234 3.00625 3.05625C3.12234 2.94003 3.2602 2.84783 3.41195 2.78493C3.5637 2.72202 3.72636 2.68964 3.89062 2.68964C4.05489 2.68964 4.21755 2.72202 4.3693 2.78493C4.52105 2.84783 4.65891 2.94003 4.775 3.05625L4.8125 3.09375C4.9598 3.23784 5.14688 3.33449 5.34963 3.37125C5.55238 3.40801 5.76149 3.3832 5.95 3.3H6C6.18486 3.22077 6.34251 3.08922 6.45356 2.92154C6.56461 2.75386 6.6242 2.55737 6.625 2.35625V2.25C6.625 1.91848 6.7567 1.60054 6.99112 1.36612C7.22554 1.1317 7.54348 1 7.875 1C8.20652 1 8.52446 1.1317 8.75888 1.36612C8.9933 1.60054 9.125 1.91848 9.125 2.25V2.30625C9.1258 2.50737 9.18539 2.70386 9.29644 2.87154C9.40749 3.03922 9.56514 3.17077 9.75 3.25C9.93851 3.3332 10.1476 3.35801 10.3504 3.32125C10.5531 3.28449 10.7402 3.18784 10.8875 3.04375L10.925 3.00625C11.0411 2.89003 11.179 2.79783 11.3307 2.73493C11.4824 2.67202 11.6451 2.63964 11.8094 2.63964C11.9736 2.63964 12.1363 2.67202 12.2881 2.73493C12.4398 2.79783 12.5777 2.89003 12.6937 3.00625C12.81 3.12234 12.9022 3.2602 12.9651 3.41195C13.028 3.5637 13.0604 3.72636 13.0604 3.89062C13.0604 4.05489 13.028 4.21755 12.9651 4.3693C12.9022 4.52105 12.81 4.65891 12.6937 4.775L12.6562 4.8125C12.5122 4.9598 12.4155 5.14688 12.3787 5.34963C12.342 5.55238 12.3668 5.76149 12.45 5.95V6C12.5292 6.18486 12.6608 6.34251 12.8285 6.45356C12.9961 6.56461 13.1926 6.6242 13.3937 6.625H13.5C13.8315 6.625 14.1495 6.7567 14.3839 6.99112C14.6183 7.22554 14.75 7.54348 14.75 7.875C14.75 8.20652 14.6183 8.52446 14.3839 8.75888C14.1495 8.9933 13.8315 9.125 13.5 9.125H13.4437C13.2426 9.1258 13.0461 9.18539 12.8785 9.29644C12.7108 9.40749 12.5792 9.56514 12.5 9.75V9.75Z" stroke="#90A0B7" stroke-width="1.4" stroke-linecap="round" stroke-linejoin="round"/>
</svg>
